<svg width="296" height="109" viewBox="0 0 296 109" fill="none" xmlns="http://www.w3.org/2000/svg">
<rect width="296" height="109" fill="#00CC83" fill-opacity="0.16"/>
<path d="M18 22C18 18.6863 20.6863 16 24 16H272C275.314 16 278 18.6863 278 22V109H18V22Z" fill="white"/>
<path d="M18 22C18 18.6863 20.6863 16 24 16H272C275.314 16 278 18.6863 278 22V109H18V22Z" fill="white"/>
<path d="M98 70H137" stroke="#DEE2E6" stroke-dasharray="2 2"/>
<path d="M197 70H158" stroke="#DEE2E6" stroke-dasharray="2 2"/>
<path d="M98 47H117V70" stroke="#DEE2E6" stroke-dasharray="2 2"/>
<path d="M197 47H178V70" stroke="#DEE2E6" stroke-dasharray="2 2"/>
<path d="M98 93H117V70" stroke="#DEE2E6" stroke-dasharray="2 2"/>
<path d="M197 93H178V70" stroke="#DEE2E6" stroke-dasharray="2 2"/>
<path d="M146.937 60.5625C146.937 60.3524 147 60.1469 147.117 59.9722C147.233 59.7975 147.399 59.6613 147.593 59.5809C147.788 59.5005 148.001 59.4794 148.207 59.5204C148.413 59.5614 148.603 59.6626 148.751 59.8112C148.9 59.9598 149.001 60.1491 149.042 60.3552C149.083 60.5613 149.062 60.775 148.982 60.9691C148.901 61.1633 148.765 61.3292 148.59 61.4459C148.416 61.5627 148.21 61.625 148 61.625C147.718 61.625 147.448 61.5131 147.249 61.3138C147.049 61.1145 146.937 60.8443 146.937 60.5625ZM150.125 69.0625C150.125 69.2726 150.187 69.4781 150.304 69.6528C150.421 69.8275 150.587 69.9637 150.781 70.0441C150.975 70.1245 151.189 70.1456 151.395 70.1046C151.601 70.0636 151.79 69.9624 151.939 69.8138C152.087 69.6652 152.189 69.4759 152.23 69.2698C152.271 69.0637 152.25 68.85 152.169 68.6559C152.089 68.4618 151.952 68.2958 151.778 68.1791C151.603 68.0623 151.398 68 151.187 68C150.906 68 150.635 68.1119 150.436 68.3112C150.237 68.5105 150.125 68.7807 150.125 69.0625ZM156.566 73.7734C157.911 72.6443 158.985 71.2278 159.709 69.6284C160.433 68.029 160.789 66.2875 160.75 64.5323C160.75 64.4349 160.746 64.3379 160.738 64.2414C160.73 64.1063 160.67 63.9796 160.571 63.887C160.472 63.7945 160.342 63.7431 160.207 63.7434H156.998L153.926 67.4289C154.31 68.0756 154.453 68.8371 154.329 69.5788C154.206 70.3206 153.824 70.9948 153.251 71.4823C152.679 71.9698 151.952 72.2392 151.201 72.2429C150.449 72.2466 149.72 71.9844 149.142 71.5025C148.565 71.0207 148.177 70.3503 148.046 69.6098C147.915 68.8693 148.05 68.1064 148.428 67.456C148.805 66.8056 149.4 66.3095 150.108 66.0554C150.816 65.8013 151.59 65.8056 152.295 66.0676L155.683 62.0009C155.784 61.8823 155.909 61.7872 156.05 61.7223C156.191 61.6573 156.345 61.6241 156.5 61.625H159.573C159.659 61.6251 159.743 61.6047 159.818 61.5655C159.894 61.5263 159.959 61.4694 160.008 61.3998C160.057 61.3301 160.089 61.2496 160.1 61.1651C160.112 61.0807 160.103 60.9947 160.074 60.9145C158.528 56.5781 154.489 53.3906 149.692 53.1356H149.614C149.542 53.1329 149.471 53.1447 149.404 53.1702C149.337 53.1957 149.277 53.2344 149.225 53.284C149.174 53.3336 149.133 53.3931 149.105 53.4589C149.077 53.5247 149.062 53.5954 149.062 53.6669V57.5516C149.771 57.8023 150.369 58.2955 150.749 58.944C151.13 59.5926 151.269 60.3548 151.142 61.0959C151.014 61.8369 150.629 62.5092 150.054 62.9939C149.48 63.4785 148.752 63.7443 148 63.7443C147.248 63.7443 146.52 63.4785 145.945 62.9939C145.371 62.5092 144.986 61.8369 144.858 61.0959C144.731 60.3548 144.87 59.5926 145.251 58.944C145.631 58.2955 146.229 57.8023 146.937 57.5516V53.9657C146.938 53.8858 146.92 53.8068 146.885 53.7348C146.851 53.6627 146.8 53.5993 146.738 53.5494C146.676 53.4995 146.603 53.4643 146.525 53.4465C146.447 53.4287 146.366 53.4286 146.288 53.4464C143.789 54.0601 141.562 55.48 139.951 57.4865C138.34 59.493 137.434 61.9743 137.375 64.5469L134.393 70.2764L134.364 70.3362C134.147 70.835 134.129 71.3982 134.315 71.9097C134.5 72.4211 134.875 72.842 135.362 73.0854L135.395 73.1013L138.437 74.4945V78.6117C138.437 79.1753 138.661 79.7158 139.06 80.1143C139.458 80.5128 139.999 80.7367 140.562 80.7367H145.875V81.7992C145.875 82.081 145.987 82.3513 146.186 82.5505C146.385 82.7498 146.656 82.8617 146.937 82.8617H156.469C156.657 82.8635 156.843 82.8178 157.009 82.7289C157.196 82.6269 157.348 82.4711 157.445 82.2816C157.542 82.0922 157.581 81.8778 157.555 81.6664L156.566 73.7734Z" fill="#CBD0D4"/>
<path opacity="0.8" d="M18 22C18 18.6863 20.6863 16 24 16H272C275.314 16 278 18.6863 278 22V29H18V22Z" fill="#00CC83"/>
<path d="M259 22.994C259 24.0942 258.103 24.9881 257 24.9881C255.897 24.9881 255 24.0942 255 22.994C255 21.8939 255.897 21 257 21C258.103 21 259 21.8939 259 22.994Z" fill="white"/>
<path d="M264 22.994C264 24.0942 263.103 24.9881 262 24.9881C260.897 24.9881 260 24.0942 260 22.994C260 21.8939 260.897 21 262 21C263.103 21 264 21.8939 264 22.994Z" fill="#F8F9FA" fill-opacity="0.4"/>
<path d="M269 22.994C269 24.0942 268.103 24.9881 267 24.9881C265.897 24.9881 265 24.0942 265 22.994C265 21.8939 265.897 21 267 21C268.103 21 269 21.8939 269 22.994Z" fill="#F8F9FA" fill-opacity="0.4"/>
<rect x="197.5" y="38.5" width="72" height="16" stroke="#DEE2E6"/>
<rect x="201" y="43" width="8" height="8" fill="#DEE2E6"/>
<rect x="213" y="43" width="36.5" height="2" fill="#DEE2E6"/>
<rect x="213" y="47" width="29" height="2" fill="#DEE2E6"/>
<circle cx="260" cy="47" r="4" fill="#D9D9D9" fill-opacity="0.6"/>
<rect x="26.5" y="38.5" width="72" height="16" stroke="#DEE2E6"/>
<rect x="30" y="43" width="8" height="8" fill="#DEE2E6"/>
<rect x="42" y="43" width="36.5" height="2" fill="#DEE2E6"/>
<rect x="42" y="47" width="29" height="2" fill="#DEE2E6"/>
<circle cx="89" cy="47" r="4" fill="#D9D9D9" fill-opacity="0.6"/>
<rect x="197.5" y="61.5" width="72" height="16" stroke="#DEE2E6"/>
<rect x="201" y="66" width="8" height="8" fill="#DEE2E6"/>
<rect x="213" y="66" width="36.5" height="2" fill="#DEE2E6"/>
<rect x="213" y="70" width="29" height="2" fill="#DEE2E6"/>
<circle cx="260" cy="70" r="4" fill="#D9D9D9" fill-opacity="0.6"/>
<rect x="26.5" y="61.5" width="72" height="16" stroke="#DEE2E6"/>
<rect x="30" y="66" width="8" height="8" fill="#DEE2E6"/>
<rect x="42" y="66" width="36.5" height="2" fill="#DEE2E6"/>
<rect x="42" y="70" width="29" height="2" fill="#DEE2E6"/>
<circle cx="89" cy="70" r="4" fill="#D9D9D9" fill-opacity="0.6"/>
<rect x="197.5" y="84.5" width="72" height="16" stroke="#DEE2E6"/>
<rect x="201" y="89" width="8" height="8" fill="#DEE2E6"/>
<rect x="213" y="89" width="36.5" height="2" fill="#DEE2E6"/>
<rect x="213" y="93" width="29" height="2" fill="#DEE2E6"/>
<circle cx="260" cy="93" r="4" fill="#D9D9D9" fill-opacity="0.6"/>
<rect x="26.5" y="84.5" width="72" height="16" stroke="#DEE2E6"/>
<rect x="30" y="89" width="8" height="8" fill="#DEE2E6"/>
<rect x="42" y="89" width="36.5" height="2" fill="#DEE2E6"/>
<rect x="42" y="93" width="29" height="2" fill="#DEE2E6"/>
<circle cx="89" cy="93" r="4" fill="#D9D9D9" fill-opacity="0.6"/>
</svg>
