<svg width="296" height="109" viewBox="0 0 296 109" fill="none" xmlns="http://www.w3.org/2000/svg">
<path d="M-0.000244141 0H296V109H-0.000244141V0Z" fill="#6610F2" fill-opacity="0.16"/>
<path d="M18.0002 22C18.0002 18.6863 20.6865 16 24.0002 16H272C275.314 16 278 18.6863 278 22V109H18.0002V22Z" fill="white"/>
<path d="M68.9608 56H36.6505C36.2569 56 35.9377 56.3191 35.9377 56.7128V62.8916C35.9377 63.2853 36.2569 63.6044 36.6505 63.6044H68.9608C69.3544 63.6044 69.6735 63.2853 69.6735 62.8916V56.7128C69.6735 56.3191 69.3544 56 68.9608 56Z" fill="#DEE2E6"/>
<path d="M66.6895 63.6091H38.9248V65.7002H66.6895V63.6091Z" fill="#DEE2E6"/>
<path d="M66.6895 73.3047H38.9248V75.3958H66.6895V73.3047Z" fill="#DEE2E6"/>
<path d="M66.7224 58.7141H55.7477C55.4766 58.7141 55.2568 58.9339 55.2568 59.205V60.4984C55.2568 60.7695 55.4766 60.9893 55.7477 60.9893H66.7224C66.9935 60.9893 67.2133 60.7695 67.2133 60.4984V59.205C67.2133 58.9339 66.9935 58.7141 66.7224 58.7141Z" fill="white"/>
<path d="M40.6372 59.8517C40.6372 60.4795 40.1274 60.9893 39.4996 60.9893C38.8719 60.9893 38.3621 60.4795 38.3621 59.8517C38.3621 59.2239 38.8719 58.7141 39.4996 58.7141C40.1274 58.7141 40.6372 59.2239 40.6372 59.8517Z" fill="white"/>
<path d="M44.7588 59.8517C44.7588 60.4795 44.249 60.9893 43.6212 60.9893C42.9934 60.9893 42.4836 60.4795 42.4836 59.8517C42.4836 59.2239 42.9934 58.7141 43.6212 58.7141C44.249 58.7141 44.7588 59.2239 44.7588 59.8517Z" fill="white"/>
<path d="M68.9608 65.7002H36.6505C36.2569 65.7002 35.9377 66.0193 35.9377 66.4129V72.5918C35.9377 72.9854 36.2569 73.3046 36.6505 73.3046H68.9608C69.3544 73.3046 69.6735 72.9854 69.6735 72.5918V66.4129C69.6735 66.0193 69.3544 65.7002 68.9608 65.7002Z" fill="#DEE2E6"/>
<path d="M66.7224 68.4146H55.7477C55.4766 68.4146 55.2568 68.6343 55.2568 68.9054V70.1988C55.2568 70.4699 55.4766 70.6897 55.7477 70.6897H66.7224C66.9935 70.6897 67.2133 70.4699 67.2133 70.1988V68.9054C67.2133 68.6343 66.9935 68.4146 66.7224 68.4146Z" fill="white"/>
<path d="M40.6372 69.5521C40.6372 70.1799 40.1274 70.6897 39.4996 70.6897C38.8719 70.6897 38.3621 70.1799 38.3621 69.5521C38.3621 68.9243 38.8719 68.4146 39.4996 68.4146C40.1274 68.4146 40.6372 68.9243 40.6372 69.5521Z" fill="white"/>
<path d="M44.7588 69.5521C44.7588 70.1799 44.249 70.6897 43.6212 70.6897C42.9934 70.6897 42.4836 70.1799 42.4836 69.5521C42.4836 68.9243 42.9934 68.4146 43.6212 68.4146C44.249 68.4146 44.7588 68.9243 44.7588 69.5521Z" fill="white"/>
<path d="M68.9608 75.3955H36.6505C36.2569 75.3955 35.9377 75.7146 35.9377 76.1083V82.2871C35.9377 82.6808 36.2569 82.9999 36.6505 82.9999H68.9608C69.3544 82.9999 69.6735 82.6808 69.6735 82.2871V76.1083C69.6735 75.7146 69.3544 75.3955 68.9608 75.3955Z" fill="#DEE2E6"/>
<path d="M66.7224 78.1096H55.7477C55.4766 78.1096 55.2568 78.3294 55.2568 78.6005V79.8939C55.2568 80.165 55.4766 80.3848 55.7477 80.3848H66.7224C66.9935 80.3848 67.2133 80.165 67.2133 79.8939V78.6005C67.2133 78.3294 66.9935 78.1096 66.7224 78.1096Z" fill="white"/>
<path d="M40.6372 79.2472C40.6372 79.875 40.1274 80.3848 39.4996 80.3848C38.8719 80.3848 38.3621 79.875 38.3621 79.2472C38.3621 78.6194 38.8719 78.1096 39.4996 78.1096C40.1274 78.1096 40.6372 78.6194 40.6372 79.2472Z" fill="white"/>
<path d="M43.6212 80.3848C44.2495 80.3848 44.7588 79.8755 44.7588 79.2472C44.7588 78.6189 44.2495 78.1096 43.6212 78.1096C42.993 78.1096 42.4836 78.6189 42.4836 79.2472C42.4836 79.8755 42.993 80.3848 43.6212 80.3848Z" fill="white"/>
<path d="M52.2914 90.5C52.2914 91.0185 52.2042 91.4933 52.03 91.9243C51.8557 92.3521 51.6094 92.7199 51.2911 93.0278C50.9761 93.3356 50.5957 93.5755 50.15 93.7472C49.7077 93.9157 49.2151 94 48.6722 94H45.9377V87H48.6722C49.2151 87 49.7077 87.0859 50.15 87.2576C50.5957 87.4262 50.9761 87.6644 51.2911 87.9722C51.6094 88.2801 51.8557 88.6495 52.03 89.0806C52.2042 89.5083 52.2914 89.9815 52.2914 90.5ZM51.09 90.5C51.09 90.0981 51.033 89.7368 50.9191 89.416C50.8085 89.0951 50.6477 88.8245 50.4365 88.6042C50.2288 88.3838 49.9758 88.2153 49.6775 88.0986C49.3793 87.9787 49.0442 87.9188 48.6722 87.9188H47.119V93.0813H48.6722C49.0442 93.0813 49.3793 93.0229 49.6775 92.9063C49.9758 92.7896 50.2288 92.6211 50.4365 92.4007C50.6477 92.1771 50.8085 91.9065 50.9191 91.5889C51.033 91.2681 51.09 90.9051 51.09 90.5Z" fill="#DEE2E6"/>
<path d="M56.3289 93.1007C56.5937 93.1007 56.8165 93.0715 56.9975 93.0132C57.1818 92.9516 57.3309 92.869 57.4448 92.7653C57.5621 92.6616 57.6459 92.54 57.6962 92.4007C57.7498 92.2581 57.7766 92.1058 57.7766 91.9438C57.7766 91.6132 57.6593 91.3539 57.4247 91.166C57.1935 90.9748 56.8266 90.8792 56.3239 90.8792H54.8712V93.1007H56.3289ZM54.8712 87.8896V90.0771H56.0475C56.5501 90.0771 56.9254 89.9831 57.1734 89.7951C57.4214 89.6072 57.5454 89.3366 57.5454 88.9833C57.5454 88.5977 57.4281 88.319 57.1935 88.1472C56.9623 87.9755 56.5987 87.8896 56.1027 87.8896H54.8712ZM56.1027 87C56.5652 87 56.9606 87.0437 57.289 87.1312C57.6174 87.2155 57.8872 87.337 58.0983 87.4958C58.3094 87.6546 58.4636 87.8491 58.5608 88.0792C58.6613 88.306 58.7115 88.562 58.7115 88.8472C58.7115 89.0125 58.6847 89.1729 58.6311 89.3285C58.5809 89.4808 58.5004 89.625 58.3898 89.7611C58.2826 89.894 58.1469 90.0139 57.9827 90.1208C57.8185 90.2278 57.6241 90.3169 57.3996 90.3882C58.425 90.5988 58.9377 91.1255 58.9377 91.9681C58.9377 92.2662 58.8791 92.54 58.7618 92.7896C58.6479 93.0359 58.4803 93.2498 58.2592 93.4313C58.0413 93.6095 57.7716 93.7488 57.4499 93.8493C57.1282 93.9498 56.7612 94 56.3491 94H53.695V87H56.1027Z" fill="#DEE2E6"/>
<rect x="179.185" y="69" width="19" height="1" fill="#DEE2E6"/>
<rect x="197.685" y="38.5" width="64.2462" height="61" stroke="#DEE2E6"/>
<path d="M222.537 46H236.446V52.58H222.537V46Z" fill="#DEE2E6"/>
<path d="M213.458 67.62H227.367V74.2H213.458V67.62Z" fill="#DEE2E6"/>
<path d="M204.185 86.42H218.094V93H204.185V86.42Z" fill="#DEE2E6"/>
<path d="M232.003 67.62H245.912V74.2H232.003V67.62Z" fill="#DEE2E6"/>
<path d="M222.73 86.42H236.639V93H222.73V86.42Z" fill="#DEE2E6"/>
<path d="M241.276 86.42H255.185V93H241.276V86.42Z" fill="#DEE2E6"/>
<path d="M229.133 60.333L229.078 51.6472L229.851 51.64L229.905 60.3259L229.133 60.333Z" fill="#DEE2E6"/>
<path d="M220.026 67.8563V60.1022L220.798 60.1039V67.858L220.026 67.8563Z" fill="#DEE2E6"/>
<path d="M219.694 82.1878L219.639 74.212L220.412 74.2054L220.466 82.1812L219.694 82.1878Z" fill="#DEE2E6"/>
<path d="M238.571 67.8563V60.1022L239.344 60.1039V67.858L238.571 67.8563Z" fill="#DEE2E6"/>
<path d="M238.239 82.1878L238.185 74.212L238.957 74.2054L239.012 82.1812L238.239 82.1878Z" fill="#DEE2E6"/>
<path d="M247.844 86.655V81.7173L248.617 81.7231V86.6608L247.844 86.655Z" fill="#DEE2E6"/>
<path d="M229.303 86.655V81.7175L230.076 81.7232V86.6608L229.303 86.655Z" fill="#DEE2E6"/>
<path d="M210.758 86.655V81.7173L211.53 81.7231V86.6608L210.758 86.655Z" fill="#DEE2E6"/>
<path d="M238.958 61.04L220.026 61.04V60.1L238.958 60.1V61.04Z" fill="#DEE2E6"/>
<path d="M248.617 82.66L210.758 82.66V81.72L248.617 81.72V82.66Z" fill="#DEE2E6"/>
<rect x="117.501" y="38.5" width="61.1836" height="61" stroke="#DEE2E6"/>
<rect x="123.038" y="45" width="12.6048" height="2" fill="#DEE2E6"/>
<rect x="123.038" y="70" width="12.6048" height="2" fill="#DEE2E6"/>
<rect x="123.038" y="49" width="11.7645" height="2" fill="#DEE2E6"/>
<rect x="123.038" y="74" width="11.7645" height="2" fill="#DEE2E6"/>
<rect x="135.643" y="54" width="37.8143" height="2" fill="#DEE2E6"/>
<rect x="135.643" y="80" width="37.8143" height="2" fill="#DEE2E6"/>
<rect x="135.643" y="58" width="33.6128" height="2" fill="#DEE2E6"/>
<rect x="135.643" y="84" width="33.6128" height="2" fill="#DEE2E6"/>
<rect x="135.643" y="62" width="35.2934" height="2" fill="#DEE2E6"/>
<rect x="135.643" y="88" width="35.2934" height="2" fill="#DEE2E6"/>
<rect x="135.643" y="66" width="28.5708" height="2" fill="#DEE2E6"/>
<rect x="135.643" y="92" width="28.5708" height="2" fill="#DEE2E6"/>
<path d="M67.9377 79H95.2981V84H116.938" stroke="#DEE2E6"/>
<path d="M116.938 58H88.4606V62H65.9377" stroke="#DEE2E6"/>
<path opacity="0.8" d="M18.0002 22C18.0002 18.6863 20.6865 16 24.0002 16H272C275.314 16 278 18.6863 278 22V29H18.0002V22Z" fill="#6610F2"/>
<path d="M259 22.994C259 24.0942 258.103 24.9881 257 24.9881C255.896 24.9881 255 24.0942 255 22.994C255 21.8939 255.896 21 257 21C258.103 21 259 21.8939 259 22.994Z" fill="white"/>
<path d="M264 22.994C264 24.0942 263.103 24.9881 262 24.9881C260.896 24.9881 260 24.0942 260 22.994C260 21.8939 260.896 21 262 21C263.103 21 264 21.8939 264 22.994Z" fill="#F8F9FA" fill-opacity="0.4"/>
<path d="M269 22.994C269 24.0942 268.103 24.9881 267 24.9881C265.897 24.9881 265 24.0942 265 22.994C265 21.8939 265.897 21 267 21C268.103 21 269 21.8939 269 22.994Z" fill="#F8F9FA" fill-opacity="0.4"/>
</svg>
