<svg width="1440" height="625" viewBox="0 0 1440 625" fill="none" xmlns="http://www.w3.org/2000/svg">
<g clip-path="url(#clip0_873_3042)">
<rect width="1440" height="654" fill="white"/>
<mask id="mask0_873_3042" style="mask-type:alpha" maskUnits="userSpaceOnUse" x="0" y="0" width="1440" height="654">
<rect width="1440" height="654" fill="url(#paint0_radial_873_3042)"/>
</mask>
<g mask="url(#mask0_873_3042)">
<line x1="4.37114e-08" y1="106.5" x2="1440" y2="106.5" stroke="#E6E6E6"/>
<line x1="4.37114e-08" y1="226.5" x2="1440" y2="226.5" stroke="#E6E6E6"/>
<line x1="4.37114e-08" y1="346.5" x2="1440" y2="346.5" stroke="#E6E6E6"/>
<line x1="4.37114e-08" y1="466.5" x2="1440" y2="466.501" stroke="#E6E6E6"/>
<line x1="4.37114e-08" y1="586.501" x2="1440" y2="586.501" stroke="#E6E6E6"/>
<line x1="76" y1="717" x2="76" y2="1" stroke="#E6E6E6"/>
<line x1="176" y1="717" x2="176" y2="1" stroke="#E6E6E6"/>
<line x1="276" y1="717" x2="276" y2="1" stroke="#E6E6E6"/>
<line x1="376" y1="717" x2="376" y2="1" stroke="#E6E6E6"/>
<line x1="476" y1="717" x2="476" y2="1" stroke="#E6E6E6"/>
<line x1="576" y1="717" x2="576" y2="1" stroke="#E6E6E6"/>
<line x1="676" y1="717" x2="676" y2="1" stroke="#E6E6E6"/>
<line x1="776" y1="717" x2="776" y2="1" stroke="#E6E6E6"/>
<line x1="876" y1="717" x2="876" y2="1" stroke="#E6E6E6"/>
<line x1="976" y1="717" x2="976" y2="1" stroke="#E6E6E6"/>
<line x1="1076" y1="717" x2="1076" y2="1" stroke="#E6E6E6"/>
<line x1="1176" y1="717" x2="1176" y2="1" stroke="#E6E6E6"/>
<line x1="1276" y1="717" x2="1276" y2="1" stroke="#E6E6E6"/>
<line x1="1376" y1="717" x2="1376" y2="1" stroke="#E6E6E6"/>
</g>
<g filter="url(#filter0_f_873_3042)">
<ellipse cx="128.5" cy="128" rx="128.5" ry="128" transform="matrix(-0.401358 0.915921 0.915921 0.401358 63.3262 65.6348)" fill="#198754"/>
</g>
<g filter="url(#filter1_f_873_3042)">
<circle cx="108" cy="108" r="108" transform="matrix(-0.401358 0.915921 0.915921 0.401358 212.971 -49)" fill="white"/>
</g>
<g filter="url(#filter2_f_873_3042)">
<ellipse cx="1296.31" cy="229.83" rx="109.91" ry="109.482" transform="rotate(58.0914 1296.31 229.83)" fill="#6F42C1"/>
</g>
<g filter="url(#filter3_f_873_3042)">
<circle cx="1160.9" cy="127.243" r="92.3755" transform="rotate(58.0914 1160.9 127.243)" fill="#00CC83"/>
</g>
</g>
<defs>
<filter id="filter0_f_873_3042" x="-393.124" y="-287.748" width="1044.23" height="1044.9" filterUnits="userSpaceOnUse" color-interpolation-filters="sRGB">
<feFlood flood-opacity="0" result="BackgroundImageFix"/>
<feBlend mode="normal" in="SourceGraphic" in2="BackgroundImageFix" result="shape"/>
<feGaussianBlur stdDeviation="197" result="effect1_foregroundBlur_873_3042"/>
</filter>
<filter id="filter1_f_873_3042" x="-233.484" y="-408.761" width="1004.05" height="1004.05" filterUnits="userSpaceOnUse" color-interpolation-filters="sRGB">
<feFlood flood-opacity="0" result="BackgroundImageFix"/>
<feBlend mode="normal" in="SourceGraphic" in2="BackgroundImageFix" result="shape"/>
<feGaussianBlur stdDeviation="197" result="effect1_foregroundBlur_873_3042"/>
</filter>
<filter id="filter2_f_873_3042" x="792.695" y="-273.975" width="1007.23" height="1007.61" filterUnits="userSpaceOnUse" color-interpolation-filters="sRGB">
<feFlood flood-opacity="0" result="BackgroundImageFix"/>
<feBlend mode="normal" in="SourceGraphic" in2="BackgroundImageFix" result="shape"/>
<feGaussianBlur stdDeviation="197" result="effect1_foregroundBlur_873_3042"/>
</filter>
<filter id="filter3_f_873_3042" x="674.511" y="-359.145" width="972.776" height="972.776" filterUnits="userSpaceOnUse" color-interpolation-filters="sRGB">
<feFlood flood-opacity="0" result="BackgroundImageFix"/>
<feBlend mode="normal" in="SourceGraphic" in2="BackgroundImageFix" result="shape"/>
<feGaussianBlur stdDeviation="197" result="effect1_foregroundBlur_873_3042"/>
</filter>
<radialGradient id="paint0_radial_873_3042" cx="0" cy="0" r="1" gradientTransform="matrix(488.5 405.196 -192.073 208.029 342.5 97.1522)" gradientUnits="userSpaceOnUse">
<stop stop-color="white" stop-opacity="0"/>
<stop offset="0.446147" stop-color="white" stop-opacity="0"/>
<stop offset="0.693653" stop-color="white"/>
<stop offset="1" stop-color="white" stop-opacity="0"/>
</radialGradient>
<clipPath id="clip0_873_3042">
<rect width="1440" height="625" fill="white"/>
</clipPath>
</defs>
</svg>
