<svg width="24" height="24" viewBox="0 0 24 24" fill="none" xmlns="http://www.w3.org/2000/svg">
<path d="M3.74997 4.5H20.25C20.6478 4.5 21.0293 4.65804 21.3106 4.93934C21.5919 5.22064 21.75 5.60218 21.75 6V21C21.7517 21.286 21.6708 21.5665 21.5169 21.8076C21.3631 22.0488 21.1429 22.2404 20.8828 22.3594C20.6846 22.4517 20.4686 22.4997 20.25 22.5C19.8978 22.4992 19.5574 22.3736 19.289 22.1456L19.2806 22.1391L16.2187 19.5H3.74997C3.35215 19.5 2.97062 19.342 2.68931 19.0607C2.40801 18.7794 2.24997 18.3978 2.24997 18V6C2.24997 5.60218 2.40801 5.22064 2.68931 4.93934C2.97062 4.65804 3.35215 4.5 3.74997 4.5ZM8.99997 14.25H15C15.1989 14.25 15.3897 14.171 15.5303 14.0303C15.671 13.8897 15.75 13.6989 15.75 13.5C15.75 13.3011 15.671 13.1103 15.5303 12.9697C15.3897 12.829 15.1989 12.75 15 12.75H8.99997C8.80106 12.75 8.61029 12.829 8.46964 12.9697C8.32899 13.1103 8.24997 13.3011 8.24997 13.5C8.24997 13.6989 8.32899 13.8897 8.46964 14.0303C8.61029 14.171 8.80106 14.25 8.99997 14.25ZM8.99997 11.25H15C15.1989 11.25 15.3897 11.171 15.5303 11.0303C15.671 10.8897 15.75 10.6989 15.75 10.5C15.75 10.3011 15.671 10.1103 15.5303 9.96967C15.3897 9.82902 15.1989 9.75 15 9.75H8.99997C8.80106 9.75 8.61029 9.82902 8.46964 9.96967C8.32899 10.1103 8.24997 10.3011 8.24997 10.5C8.24997 10.6989 8.32899 10.8897 8.46964 11.0303C8.61029 11.171 8.80106 11.25 8.99997 11.25Z" fill="white"/>
</svg>
