<svg width="296" height="109" viewBox="0 0 296 109" fill="none" xmlns="http://www.w3.org/2000/svg">
<path d="M0 0H296V109H0V0Z" fill="black" fill-opacity="0.16"/>
<path d="M18 22C18 18.6863 20.6863 16 24 16H272C275.314 16 278 18.6863 278 22V109H18V22Z" fill="white"/>
<path d="M18 22C18 18.6863 20.6863 16 24 16H272C275.314 16 278 18.6863 278 22V109H18V22Z" fill="white"/>
<path opacity="0.8" d="M18 22C18 18.6863 20.6863 16 24 16H272C275.314 16 278 18.6863 278 22V29H18V22Z" fill="black"/>
<path d="M259 22.994C259 24.0942 258.103 24.9881 257 24.9881C255.897 24.9881 255 24.0942 255 22.994C255 21.8939 255.897 21 257 21C258.103 21 259 21.8939 259 22.994Z" fill="white"/>
<path d="M264 22.994C264 24.0942 263.103 24.9881 262 24.9881C260.897 24.9881 260 24.0942 260 22.994C260 21.8939 260.897 21 262 21C263.103 21 264 21.8939 264 22.994Z" fill="#F8F9FA" fill-opacity="0.4"/>
<path d="M269 22.994C269 24.0942 268.103 24.9881 267 24.9881C265.897 24.9881 265 24.0942 265 22.994C265 21.8939 265.897 21 267 21C268.103 21 269 21.8939 269 22.994Z" fill="#F8F9FA" fill-opacity="0.4"/>
<rect x="190.5" y="38.5" width="72" height="61" stroke="#DEE2E6"/>
<path d="M190.913 39H262.088V48H190.913V39Z" fill="#F8F9FA"/>
<path d="M197.998 44.0008C197.998 44.5652 197.766 45.074 197.389 45.4364C197.029 45.7848 196.539 45.9999 195.999 45.9999C195.46 45.9999 194.969 45.7848 194.609 45.4364C194.232 45.074 194 44.5636 194 44.0008C194 43.438 194.232 42.9277 194.609 42.5653C194.969 42.2161 195.459 42.001 195.999 42.001C196.54 42.001 197.03 42.2161 197.389 42.5653C197.766 42.9269 197.998 43.4365 197.998 44.0008Z" stroke="#6C757D" stroke-width="0.154191" stroke-miterlimit="10"/>
<path d="M197.389 42.5643C197.233 42.7154 197.054 42.8411 196.855 42.9352C196.596 43.0585 196.306 43.1279 195.998 43.1279C195.691 43.1279 195.402 43.0593 195.141 42.9352C194.944 42.8411 194.763 42.7154 194.607 42.5643C194.967 42.2151 195.457 42 195.997 42C196.538 42 197.028 42.2151 197.388 42.5643H197.389Z" stroke="#6C757D" stroke-width="0.154191" stroke-miterlimit="10"/>
<path d="M197.389 45.4362C197.029 45.7846 196.539 45.9997 195.999 45.9997C195.459 45.9997 194.968 45.7846 194.608 45.4362C194.764 45.2843 194.944 45.1586 195.142 45.0646C195.403 44.9412 195.693 44.8718 196 44.8718C196.307 44.8718 196.596 44.9404 196.856 45.0646C197.055 45.1586 197.234 45.2843 197.391 45.4362H197.389Z" stroke="#6C757D" stroke-width="0.154191" stroke-miterlimit="10"/>
<path d="M195.998 45.9997C196.557 45.9997 197.011 45.1044 197.011 43.9999C197.011 42.8954 196.557 42 195.998 42C195.438 42 194.985 42.8954 194.985 43.9999C194.985 45.1044 195.438 45.9997 195.998 45.9997Z" stroke="#6C757D" stroke-width="0.154191" stroke-miterlimit="10"/>
<path d="M195.998 42.0007V45.9997" stroke="#6C757D" stroke-width="0.154191" stroke-miterlimit="10"/>
<path d="M194 43.9998H197.998" stroke="#6C757D" stroke-width="0.154191" stroke-miterlimit="10"/>
<rect opacity="0.7" x="200" y="42" width="54" height="4" fill="#DEE2E6"/>
<rect x="193.65" y="70" width="21.9" height="2" fill="#DEE2E6"/>
<rect x="193.65" y="74" width="20.075" height="2" fill="#DEE2E6"/>
<rect x="194" y="54" width="41.0625" height="2" fill="#DEE2E6"/>
<rect x="193.65" y="82" width="41.0625" height="2" fill="#DEE2E6"/>
<rect x="193.65" y="58" width="36.5" height="2" fill="#DEE2E6"/>
<rect x="193.65" y="86" width="36.5" height="2" fill="#DEE2E6"/>
<rect x="193.65" y="62" width="38.325" height="2" fill="#DEE2E6"/>
<rect x="193.65" y="90" width="38.325" height="2" fill="#DEE2E6"/>
<g opacity="0.6">
<path d="M256.188 55.8125H243.812C243.514 55.8125 243.228 55.931 243.017 56.142C242.806 56.353 242.688 56.6391 242.688 56.9375V67.0625C242.688 67.3609 242.806 67.647 243.017 67.858C243.228 68.069 243.514 68.1875 243.812 68.1875H256.188C256.486 68.1875 256.772 68.069 256.983 67.858C257.194 67.647 257.312 67.3609 257.312 67.0625V56.9375C257.312 56.6391 257.194 56.353 256.983 56.142C256.772 55.931 256.486 55.8125 256.188 55.8125ZM256.188 56.9375V64.1621L254.354 62.3298C254.25 62.2253 254.126 62.1424 253.989 62.0858C253.853 62.0293 253.707 62.0002 253.559 62.0002C253.411 62.0002 253.265 62.0293 253.128 62.0858C252.992 62.1424 252.868 62.2253 252.763 62.3298L251.357 63.736L248.263 60.6423C248.052 60.4314 247.766 60.313 247.468 60.313C247.17 60.313 246.884 60.4314 246.673 60.6423L243.812 63.5026V56.9375H256.188ZM243.812 65.0938L247.469 61.4375L253.094 67.0625H243.812V65.0938ZM256.188 67.0625H254.685L252.154 64.5312L253.56 63.125L256.188 65.7533V67.0625ZM251.125 60.0312C251.125 59.8644 251.174 59.7012 251.267 59.5625C251.36 59.4237 251.492 59.3156 251.646 59.2517C251.8 59.1879 251.97 59.1712 252.133 59.2037C252.297 59.2363 252.447 59.3166 252.565 59.4346C252.683 59.5526 252.764 59.703 252.796 59.8666C252.829 60.0303 252.812 60.2 252.748 60.3541C252.684 60.5083 252.576 60.6401 252.438 60.7328C252.299 60.8255 252.136 60.875 251.969 60.875C251.745 60.875 251.53 60.7861 251.372 60.6279C251.214 60.4696 251.125 60.255 251.125 60.0312Z" fill="#DEE2E6"/>
</g>
<path d="M57 67H81.1983H100" stroke="#DEE2E6"/>
<path d="M190 60L157.614 60L132 60" stroke="#DEE2E6"/>
<path d="M190 76L160.964 76L138 76" stroke="#DEE2E6"/>
<path d="M57.7516 57H34.5126C34.2295 57 34 57.2295 34 57.5127V61.9567C34 62.2399 34.2295 62.4694 34.5126 62.4694H57.7516C58.0347 62.4694 58.2642 62.2399 58.2642 61.9567V57.5127C58.2642 57.2295 58.0347 57 57.7516 57Z" fill="#CACDD0"/>
<path d="M56.1189 62.4729H36.1494V63.9769H56.1189V62.4729Z" fill="#CACDD0"/>
<path d="M56.1189 69.4463H36.1494V70.9503H56.1189V69.4463Z" fill="#CACDD0"/>
<path d="M56.142 58.9521H48.2486C48.0536 58.9521 47.8955 59.1102 47.8955 59.3052V60.2355C47.8955 60.4305 48.0536 60.5886 48.2486 60.5886H56.142C56.337 60.5886 56.4951 60.4305 56.4951 60.2355V59.3052C56.4951 59.1102 56.337 58.9521 56.142 58.9521Z" fill="white"/>
<path d="M37.3805 59.7703C37.3805 60.2219 37.0139 60.5886 36.5623 60.5886C36.1108 60.5886 35.7441 60.2219 35.7441 59.7703C35.7441 59.3188 36.1108 58.9521 36.5623 58.9521C37.0139 58.9521 37.3805 59.3188 37.3805 59.7703Z" fill="white"/>
<path d="M40.3454 59.7703C40.3454 60.2219 39.9787 60.5886 39.5272 60.5886C39.0756 60.5886 38.709 60.2219 38.709 59.7703C38.709 59.3188 39.0756 58.9521 39.5272 58.9521C39.9787 58.9521 40.3454 59.3188 40.3454 59.7703Z" fill="white"/>
<path d="M57.7516 63.9768H34.5126C34.2295 63.9768 34 64.2063 34 64.4894V68.9335C34 69.2167 34.2295 69.4462 34.5126 69.4462H57.7516C58.0347 69.4462 58.2642 69.2167 58.2642 68.9335V64.4894C58.2642 64.2063 58.0347 63.9768 57.7516 63.9768Z" fill="#CACDD0"/>
<path d="M56.142 65.929H48.2486C48.0536 65.929 47.8955 66.087 47.8955 66.282V67.2123C47.8955 67.4073 48.0536 67.5653 48.2486 67.5653H56.142C56.337 67.5653 56.4951 67.4073 56.4951 67.2123V66.282C56.4951 66.087 56.337 65.929 56.142 65.929Z" fill="white"/>
<path d="M37.3805 66.7471C37.3805 67.1987 37.0139 67.5653 36.5623 67.5653C36.1108 67.5653 35.7441 67.1987 35.7441 66.7471C35.7441 66.2956 36.1108 65.929 36.5623 65.929C37.0139 65.929 37.3805 66.2956 37.3805 66.7471Z" fill="white"/>
<path d="M40.3454 66.7471C40.3454 67.1987 39.9787 67.5653 39.5272 67.5653C39.0756 67.5653 38.709 67.1987 38.709 66.7471C38.709 66.2956 39.0756 65.929 39.5272 65.929C39.9787 65.929 40.3454 66.2956 40.3454 66.7471Z" fill="white"/>
<path d="M57.7516 70.9502H34.5126C34.2295 70.9502 34 71.1797 34 71.4628V75.9069C34 76.1901 34.2295 76.4196 34.5126 76.4196H57.7516C58.0347 76.4196 58.2642 76.1901 58.2642 75.9069V71.4628C58.2642 71.1797 58.0347 70.9502 57.7516 70.9502Z" fill="#CACDD0"/>
<path d="M56.142 72.9023H48.2486C48.0536 72.9023 47.8955 73.0604 47.8955 73.2554V74.1857C47.8955 74.3807 48.0536 74.5387 48.2486 74.5387H56.142C56.337 74.5387 56.4951 74.3807 56.4951 74.1857V73.2554C56.4951 73.0604 56.337 72.9023 56.142 72.9023Z" fill="white"/>
<path d="M37.3805 73.7205C37.3805 74.1721 37.0139 74.5387 36.5623 74.5387C36.1108 74.5387 35.7441 74.1721 35.7441 73.7205C35.7441 73.269 36.1108 72.9023 36.5623 72.9023C37.0139 72.9023 37.3805 73.269 37.3805 73.7205Z" fill="white"/>
<path d="M39.5272 74.5387C39.9791 74.5387 40.3454 74.1724 40.3454 73.7205C40.3454 73.2687 39.9791 72.9023 39.5272 72.9023C39.0753 72.9023 38.709 73.2687 38.709 73.7205C38.709 74.1724 39.0753 74.5387 39.5272 74.5387Z" fill="white"/>
<path d="M102.406 65.0312V73.8438C102.406 74.2333 102.252 74.6069 101.976 74.8823C101.701 75.1578 101.327 75.3125 100.938 75.3125C100.548 75.3125 100.174 75.1578 99.8989 74.8823C99.6235 74.6069 99.4688 74.2333 99.4688 73.8438V65.0312C99.4688 64.6417 99.6235 64.2681 99.8989 63.9927C100.174 63.7172 100.548 63.5625 100.938 63.5625C101.327 63.5625 101.701 63.7172 101.976 63.9927C102.252 64.2681 102.406 64.6417 102.406 65.0312ZM106.812 59.1562C106.423 59.1562 106.049 59.311 105.774 59.5864C105.498 59.8619 105.344 60.2355 105.344 60.625V78.25C105.344 78.6395 105.498 79.0131 105.774 79.2886C106.049 79.564 106.423 79.7188 106.812 79.7188C107.202 79.7188 107.576 79.564 107.851 79.2886C108.127 79.0131 108.281 78.6395 108.281 78.25V60.625C108.281 60.2355 108.127 59.8619 107.851 59.5864C107.576 59.311 107.202 59.1562 106.812 59.1562ZM112.688 57.6875C112.298 57.6875 111.924 57.8422 111.649 58.1177C111.373 58.3931 111.219 58.7667 111.219 59.1562V78.25C111.219 78.6395 111.373 79.0131 111.649 79.2886C111.924 79.564 112.298 79.7188 112.688 79.7188C113.077 79.7188 113.451 79.564 113.726 79.2886C114.002 79.0131 114.156 78.6395 114.156 78.25V59.1562C114.156 58.7667 114.002 58.3931 113.726 58.1177C113.451 57.8422 113.077 57.6875 112.688 57.6875ZM118.562 51.8125C118.173 51.8125 117.799 51.9672 117.524 52.2427C117.248 52.5181 117.094 52.8917 117.094 53.2813V78.25C117.094 78.6395 117.248 79.0131 117.524 79.2886C117.799 79.564 118.173 79.7188 118.562 79.7188C118.952 79.7188 119.326 79.564 119.601 79.2886C119.877 79.0131 120.031 78.6395 120.031 78.25V53.2813C120.031 52.8917 119.877 52.5181 119.601 52.2427C119.326 51.9672 118.952 51.8125 118.562 51.8125ZM138.912 62.5234C138.321 59.1132 136.545 56.0213 133.897 53.793C131.248 51.5647 127.898 50.3431 124.438 50.3438H123.703C123.508 50.3438 123.322 50.4211 123.184 50.5588C123.046 50.6966 122.969 50.8834 122.969 51.0781V78.9844C122.969 79.1791 123.046 79.3659 123.184 79.5037C123.322 79.6414 123.508 79.7188 123.703 79.7188H136.042C140.739 79.7188 144.721 76.0983 144.985 71.4093C145.095 69.4657 144.559 67.5403 143.46 65.9331C142.362 64.3259 140.763 63.127 138.912 62.5234Z" fill="#DEE2E6"/>
</svg>
