<svg width="42" height="42" viewBox="0 0 42 42" fill="none" xmlns="http://www.w3.org/2000/svg">
<rect width="42" height="42" fill="white"/>
<g clip-path="url(#clip0_858_2461)">
<path d="M16.7313 23.6983L18.4847 23.8275V25.3251C18.4847 25.3251 15.2085 28.5517 10.4346 24.7314H12.0614L12.2417 23.2598C12.2417 23.2598 14.0982 25.1439 16.7313 23.6983Z" fill="#0D2C40"/>
<path d="M10.7937 16.7793C10.7937 16.7793 7.23071 20.0965 10.148 24.3437L11.7765 24.4988L11.9316 22.9241C11.9316 22.9241 10.4348 20.4714 12.3685 18.5352L10.6344 18.401L10.7937 16.7793Z" fill="#0D2C40"/>
<path d="M11.1813 16.5468C11.1813 16.5468 15.6256 13.6816 19.0041 17.1405L17.5065 17.0374L17.3513 18.7144C17.3513 18.7144 15.6474 16.65 12.8081 18.2507L11.0781 18.1736L11.1813 16.5468Z" fill="#0D2C40"/>
<path d="M17.7383 19.1293L17.8414 17.3994L19.4162 17.5545L24.1666 22.8465H22.5407L22.3855 24.3181L17.7383 19.1293Z" fill="#0D2C40"/>
<path d="M17.1709 23.4146L23.1858 16.7793L24.7866 16.9344L24.6835 18.5612L18.7717 25.1437L18.7969 23.4398L17.1709 23.4146Z" fill="#02D35F"/>
<path d="M23.418 16.5402L25.0833 16.6761L24.9676 18.2643C24.9676 18.2643 27.4263 16.6954 29.2275 18.3607L30.9884 18.4378L31.1469 16.8916C31.1469 16.8916 28.3948 13.789 23.418 16.5402Z" fill="#02D35F"/>
<path d="M29.4789 18.6125L31.2398 18.7156L31.3757 17.1602C31.3757 17.1602 35.2288 21.4526 31.0654 25.1438L29.3623 25.0256L29.5174 23.2647C29.5174 23.2647 31.8218 20.6845 29.4789 18.6125Z" fill="#02D35F"/>
<path d="M24.5805 23.2596L22.8019 23.1045L22.7021 24.6734C22.7021 24.6734 25.8585 28.3135 30.6214 25.4088L28.9947 25.2771L29.1498 23.5925C29.1498 23.5925 27.0777 25.2537 24.5805 23.2596Z" fill="#02D35F"/>
<path d="M26.831 20.5472V21.1341C26.8259 21.157 26.8234 21.1803 26.8235 21.2037C26.8234 21.2274 26.8259 21.251 26.831 21.2742V22.22H26.3916V20.543L26.831 20.5472Z" fill="#0D2C40"/>
<path d="M27.2179 20.5476C27.0732 20.5663 26.938 20.6299 26.8314 20.7295C26.7578 20.7866 26.6969 20.8583 26.6526 20.9402C26.6083 21.022 26.5815 21.1122 26.5739 21.205C26.5804 21.3019 26.6066 21.3965 26.6508 21.483C26.6951 21.5695 26.7565 21.6461 26.8314 21.7081C26.9248 21.7972 27.0457 21.8519 27.1743 21.8632C27.5827 21.8733 27.784 21.5219 27.784 21.2058C27.784 20.8897 27.5341 20.5291 27.2179 20.5476ZM27.0846 21.4959C27.0238 21.4932 26.9658 21.4699 26.9201 21.4298C26.8744 21.3898 26.8437 21.3353 26.833 21.2754C26.8279 21.2523 26.8254 21.2286 26.8255 21.205C26.8254 21.1816 26.8279 21.1582 26.833 21.1354C26.8437 21.0755 26.8744 21.021 26.9201 20.9809C26.9658 20.9408 27.0238 20.9175 27.0846 20.9148C27.157 20.9216 27.2243 20.9551 27.2732 21.0088C27.3222 21.0626 27.3494 21.1327 27.3494 21.2054C27.3494 21.2781 27.3222 21.3482 27.2732 21.4019C27.2243 21.4557 27.157 21.4892 27.0846 21.4959ZM28.6577 21.0482C28.594 21.028 28.3584 20.9911 28.3584 20.9023C28.3584 20.8519 28.4305 20.8461 28.4657 20.8477C28.5663 20.8477 28.7173 20.9677 28.8011 20.945C28.8758 20.9257 28.9412 20.7329 28.9688 20.6675C28.757 20.5466 28.5103 20.5016 28.2695 20.54C28.21 20.5514 28.1536 20.5755 28.1043 20.6106C28.055 20.6458 28.014 20.6913 27.9839 20.7439C27.9539 20.7965 27.9356 20.855 27.9303 20.9153C27.925 20.9757 27.9329 21.0364 27.9533 21.0934C28.0598 21.3693 28.3869 21.2611 28.5521 21.4289C28.62 21.4993 28.48 21.5312 28.4338 21.5295C28.292 21.5084 28.1564 21.4569 28.0364 21.3785C27.9953 21.4372 27.8686 21.5773 27.8837 21.6502C27.8988 21.7232 28.0657 21.7777 28.1353 21.7995C28.3684 21.875 28.7282 21.9035 28.9034 21.6913C29.1223 21.4364 28.9311 21.137 28.6577 21.0482ZM25.2457 20.083C25.0632 20.083 24.8849 20.1371 24.7332 20.2385C24.5815 20.3398 24.4633 20.4839 24.3935 20.6524C24.3236 20.821 24.3054 21.0064 24.341 21.1853C24.3766 21.3643 24.4644 21.5286 24.5934 21.6576C24.7224 21.7866 24.8868 21.8745 25.0657 21.9101C25.2446 21.9456 25.4301 21.9274 25.5986 21.8576C25.7672 21.7878 25.9113 21.6695 26.0126 21.5178C26.114 21.3662 26.1681 21.1878 26.1681 21.0054C26.1681 20.7608 26.0709 20.5261 25.8979 20.3532C25.7249 20.1802 25.4903 20.083 25.2457 20.083ZM25.2457 21.4758C25.1521 21.4756 25.0608 21.4478 24.9831 21.3957C24.9055 21.3436 24.845 21.2697 24.8093 21.1833C24.7736 21.0968 24.7644 21.0018 24.7827 20.9101C24.8011 20.8184 24.8462 20.7342 24.9124 20.6682C24.9785 20.6021 25.0628 20.5572 25.1545 20.539C25.2462 20.5208 25.3413 20.5302 25.4277 20.566C25.514 20.6018 25.5879 20.6625 25.6398 20.7402C25.6917 20.818 25.7194 20.9094 25.7194 21.0029C25.7194 21.0651 25.7071 21.1268 25.6833 21.1842C25.6594 21.2417 25.6244 21.2939 25.5803 21.3379C25.5362 21.3818 25.4839 21.4166 25.4263 21.4403C25.3687 21.464 25.3071 21.476 25.2448 21.4758H25.2457Z" fill="#0D2C40"/>
<path d="M16.5091 20.5263H15.9833L16.5393 21.9804H16.7791V21.3607L16.5091 20.5263ZM17.05 20.5289H17.5757L17.0189 21.9829H16.7791V21.3632L17.05 20.5289ZM13.9565 20.3217C13.78 20.1991 13.5751 20.1235 13.3612 20.102C13.0777 20.0752 12.7742 20.1096 12.5117 20.1096V21.9787H12.5243C12.5746 21.9845 12.6249 21.9896 12.6761 21.9929C12.8776 22.0096 13.0803 22.0079 13.2815 21.9879C13.6664 21.9451 13.9138 21.8202 14.0656 21.6575C14.2 21.5061 14.2759 21.3116 14.2794 21.1091V21.0647V21.0412C14.276 20.7754 14.1997 20.5079 13.9565 20.3217ZM13.5289 21.4638C13.3704 21.5527 13.1775 21.5309 13.0031 21.5309V20.5574C13.1884 20.5574 13.3972 20.533 13.5599 20.6471C13.8299 20.8374 13.8199 21.2995 13.5264 21.4638H13.5289ZM15.7527 21.6097C15.71 21.5737 15.6555 21.5125 15.5976 21.5024C15.5054 21.4898 15.3905 21.6139 15.2882 21.624C15.1288 21.6399 15.014 21.5301 14.9527 21.3976H15.9221C15.9221 21.1292 15.8995 20.8467 15.6705 20.6622C15.2454 20.315 14.5477 20.5716 14.4697 21.1192C14.3859 21.6961 14.8395 22.0684 15.3922 21.9963C15.5292 21.9769 15.6578 21.9187 15.7628 21.8286C15.8005 21.795 15.8559 21.7489 15.8282 21.6944C15.8084 21.6618 15.7828 21.6331 15.7527 21.6097ZM15.4433 21.1343H14.9486C14.9592 21.0765 14.9898 21.0242 15.035 20.9866C15.0802 20.949 15.1371 20.9284 15.1959 20.9284C15.2547 20.9284 15.3116 20.949 15.3568 20.9866C15.402 21.0242 15.4326 21.0765 15.4433 21.1343Z" fill="#02D35F"/>
</g>
<defs>
<clipPath id="clip0_858_2461">
<rect width="24" height="24" fill="white" transform="translate(9 9)"/>
</clipPath>
</defs>
</svg>
