<svg width="296" height="109" viewBox="0 0 296 109" fill="none" xmlns="http://www.w3.org/2000/svg">
<rect width="296" height="109" fill="#6610F2" fill-opacity="0.16"/>
<path d="M18 22C18 18.6863 20.6863 16 24 16H272C275.314 16 278 18.6863 278 22V109H18V22Z" fill="white"/>
<path d="M76 70H145" stroke="#DEE2E6" stroke-dasharray="2 2"/>
<g clip-path="url(#clip0_14_1846)">
<g opacity="0.6">
<path d="M153.875 34.8125H150.125C150.042 34.8125 149.963 34.8454 149.904 34.904C149.845 34.9626 149.812 35.0421 149.812 35.125V38.875C149.812 38.9579 149.845 39.0374 149.904 39.096C149.963 39.1546 150.042 39.1875 150.125 39.1875H153.875C153.958 39.1875 154.037 39.1546 154.096 39.096C154.155 39.0374 154.188 38.9579 154.188 38.875V35.125C154.188 35.0421 154.155 34.9626 154.096 34.904C154.037 34.8454 153.958 34.8125 153.875 34.8125ZM153.562 38.5625H150.438V35.4375H153.562V38.5625ZM160.125 38.5625H158.562V35.4375H160.125C160.208 35.4375 160.287 35.4046 160.346 35.346C160.405 35.2874 160.438 35.2079 160.438 35.125C160.438 35.0421 160.405 34.9626 160.346 34.904C160.287 34.8454 160.208 34.8125 160.125 34.8125H158.562V31.375C158.562 31.1264 158.464 30.8879 158.288 30.7121C158.112 30.5363 157.874 30.4375 157.625 30.4375H154.188V28.875C154.188 28.7921 154.155 28.7126 154.096 28.654C154.037 28.5954 153.958 28.5625 153.875 28.5625C153.792 28.5625 153.713 28.5954 153.654 28.654C153.595 28.7126 153.562 28.7921 153.562 28.875V30.4375H150.438V28.875C150.438 28.7921 150.405 28.7126 150.346 28.654C150.287 28.5954 150.208 28.5625 150.125 28.5625C150.042 28.5625 149.963 28.5954 149.904 28.654C149.845 28.7126 149.812 28.7921 149.812 28.875V30.4375H146.375C146.126 30.4375 145.888 30.5363 145.712 30.7121C145.536 30.8879 145.438 31.1264 145.438 31.375V34.8125H143.875C143.792 34.8125 143.713 34.8454 143.654 34.904C143.595 34.9626 143.562 35.0421 143.562 35.125C143.562 35.2079 143.595 35.2874 143.654 35.346C143.713 35.4046 143.792 35.4375 143.875 35.4375H145.438V38.5625H143.875C143.792 38.5625 143.713 38.5954 143.654 38.654C143.595 38.7126 143.562 38.7921 143.562 38.875C143.562 38.9579 143.595 39.0374 143.654 39.096C143.713 39.1546 143.792 39.1875 143.875 39.1875H145.438V42.625C145.438 42.8736 145.536 43.1121 145.712 43.2879C145.888 43.4637 146.126 43.5625 146.375 43.5625H149.812V45.125C149.812 45.2079 149.845 45.2874 149.904 45.346C149.963 45.4046 150.042 45.4375 150.125 45.4375C150.208 45.4375 150.287 45.4046 150.346 45.346C150.405 45.2874 150.438 45.2079 150.438 45.125V43.5625H153.562V45.125C153.562 45.2079 153.595 45.2874 153.654 45.346C153.713 45.4046 153.792 45.4375 153.875 45.4375C153.958 45.4375 154.037 45.4046 154.096 45.346C154.155 45.2874 154.188 45.2079 154.188 45.125V43.5625H157.625C157.874 43.5625 158.112 43.4637 158.288 43.2879C158.464 43.1121 158.562 42.8736 158.562 42.625V39.1875H160.125C160.208 39.1875 160.287 39.1546 160.346 39.096C160.405 39.0374 160.438 38.9579 160.438 38.875C160.438 38.7921 160.405 38.7126 160.346 38.654C160.287 38.5954 160.208 38.5625 160.125 38.5625ZM157.938 42.625C157.938 42.7079 157.905 42.7874 157.846 42.846C157.787 42.9046 157.708 42.9375 157.625 42.9375H146.375C146.292 42.9375 146.213 42.9046 146.154 42.846C146.095 42.7874 146.062 42.7079 146.062 42.625V31.375C146.062 31.2921 146.095 31.2126 146.154 31.154C146.213 31.0954 146.292 31.0625 146.375 31.0625H157.625C157.708 31.0625 157.787 31.0954 157.846 31.154C157.905 31.2126 157.938 31.2921 157.938 31.375V42.625Z" fill="#6C757D"/>
</g>
<g opacity="0.6">
<path d="M180.813 32C180.813 31.5807 180.692 31.1702 180.465 30.8174C180.239 30.4646 179.916 30.1844 179.534 30.0101C179.153 29.8359 178.729 29.7749 178.314 29.8344C177.899 29.894 177.51 30.0716 177.193 30.3461C176.876 30.6206 176.645 30.9804 176.526 31.3827C176.408 31.785 176.408 32.2128 176.526 32.6151C176.644 33.0175 176.875 33.3775 177.192 33.6523C177.508 33.927 177.897 34.1049 178.313 34.1648V39.8351C177.765 39.9141 177.268 40.1975 176.921 40.6283C176.574 41.0591 176.404 41.6052 176.443 42.1568C176.483 42.7085 176.73 43.2246 177.135 43.6014C177.539 43.9782 178.072 44.1877 178.625 44.1877C179.178 44.1877 179.711 43.9782 180.115 43.6014C180.52 43.2246 180.767 42.7085 180.807 42.1568C180.846 41.6052 180.676 41.0591 180.329 40.6283C179.982 40.1975 179.485 39.9141 178.938 39.8351V34.1648C179.458 34.0897 179.934 33.8295 180.279 33.4319C180.623 33.0343 180.812 32.526 180.813 32ZM177.063 32C177.063 31.6909 177.154 31.3889 177.326 31.1319C177.498 30.8749 177.742 30.6747 178.027 30.5564C178.313 30.4382 178.627 30.4072 178.93 30.4675C179.233 30.5278 179.511 30.6766 179.73 30.8951C179.948 31.1136 180.097 31.3921 180.157 31.6951C180.218 31.9982 180.187 32.3124 180.069 32.5979C179.95 32.8834 179.75 33.1275 179.493 33.2991C179.236 33.4708 178.934 33.5625 178.625 33.5625C178.211 33.5625 177.813 33.3979 177.52 33.1048C177.227 32.8118 177.063 32.4144 177.063 32ZM180.188 42C180.188 42.309 180.096 42.6111 179.924 42.8681C179.752 43.125 179.508 43.3253 179.223 43.4435C178.937 43.5618 178.623 43.5927 178.32 43.5325C178.017 43.4722 177.739 43.3234 177.52 43.1048C177.302 42.8863 177.153 42.6079 177.093 42.3048C177.032 42.0017 177.063 41.6875 177.181 41.402C177.3 41.1165 177.5 40.8725 177.757 40.7008C178.014 40.5291 178.316 40.4375 178.625 40.4375C178.83 40.4375 179.033 40.4779 179.223 40.5564C179.413 40.6349 179.585 40.75 179.73 40.8951C179.875 41.0402 179.99 41.2125 180.069 41.402C180.147 41.5916 180.188 41.7948 180.188 42ZM188.938 39.8351V35.6429C188.938 35.4376 188.898 35.2341 188.819 35.0444C188.741 34.8546 188.625 34.6823 188.48 34.5375L185.005 31.0625H188C188.083 31.0625 188.162 31.0296 188.221 30.9709C188.28 30.9123 188.313 30.8329 188.313 30.75C188.313 30.6671 188.28 30.5876 188.221 30.529C188.162 30.4704 188.083 30.4375 188 30.4375H184.25C184.167 30.4375 184.088 30.4704 184.029 30.529C183.97 30.5876 183.938 30.6671 183.938 30.75V34.5C183.938 34.5829 183.97 34.6623 184.029 34.7209C184.088 34.7796 184.167 34.8125 184.25 34.8125C184.333 34.8125 184.412 34.7796 184.471 34.7209C184.53 34.6623 184.563 34.5829 184.563 34.5V31.5047L188.038 34.9797C188.125 35.0668 188.194 35.1702 188.241 35.284C188.288 35.3978 188.313 35.5198 188.313 35.6429V39.8351C187.765 39.9141 187.268 40.1975 186.921 40.6283C186.574 41.0591 186.404 41.6052 186.443 42.1568C186.483 42.7085 186.73 43.2246 187.135 43.6014C187.539 43.9782 188.072 44.1877 188.625 44.1877C189.178 44.1877 189.711 43.9782 190.115 43.6014C190.52 43.2246 190.767 42.7085 190.807 42.1568C190.846 41.6052 190.676 41.0591 190.329 40.6283C189.982 40.1975 189.485 39.9141 188.938 39.8351ZM188.625 43.5625C188.316 43.5625 188.014 43.4708 187.757 43.2991C187.5 43.1275 187.3 42.8834 187.181 42.5979C187.063 42.3124 187.032 41.9982 187.093 41.6951C187.153 41.3921 187.302 41.1136 187.52 40.8951C187.739 40.6766 188.017 40.5278 188.32 40.4675C188.623 40.4072 188.937 40.4382 189.223 40.5564C189.508 40.6747 189.752 40.8749 189.924 41.1319C190.096 41.3889 190.188 41.6909 190.188 42C190.188 42.4144 190.023 42.8118 189.73 43.1048C189.437 43.3979 189.039 43.5625 188.625 43.5625Z" fill="#6C757D"/>
</g>
<g opacity="0.6">
<path d="M213.355 34.6094L211.48 39.6094C211.458 39.6692 211.418 39.7208 211.366 39.7572C211.314 39.7936 211.251 39.8131 211.188 39.8131C211.124 39.8131 211.061 39.7936 211.009 39.7572C210.957 39.7208 210.917 39.6692 210.895 39.6094L209.02 34.6094C208.991 34.5317 208.994 34.4456 209.028 34.3702C209.062 34.2947 209.125 34.236 209.203 34.207C209.281 34.178 209.367 34.1811 209.442 34.2155C209.518 34.2499 209.576 34.3129 209.605 34.3906L211.188 38.6094L212.77 34.3906C212.784 34.3522 212.806 34.3169 212.834 34.2868C212.862 34.2568 212.895 34.2325 212.933 34.2155C212.97 34.1985 213.01 34.1889 213.051 34.1875C213.092 34.186 213.133 34.1927 213.172 34.207C213.21 34.2214 213.246 34.2432 213.276 34.2712C213.306 34.2992 213.33 34.3328 213.347 34.3702C213.364 34.4075 213.374 34.4479 213.375 34.4889C213.376 34.53 213.37 34.5709 213.355 34.6094ZM223.688 37C223.686 38.5742 223.06 40.0835 221.947 41.1966C220.833 42.3098 219.324 42.9358 217.75 42.9375H210.25C208.675 42.9375 207.165 42.3119 206.052 41.1984C204.938 40.0849 204.312 38.5747 204.312 37C204.312 35.4253 204.938 33.9151 206.052 32.8016C207.165 31.6881 208.675 31.0625 210.25 31.0625H217.75C219.324 31.0642 220.833 31.6902 221.947 32.8034C223.06 33.9165 223.686 35.4258 223.688 37ZM223.062 37C223.061 35.5915 222.501 34.2411 221.505 33.2451C220.509 32.2491 219.159 31.6889 217.75 31.6875H210.25C208.841 31.6875 207.49 32.2472 206.493 33.2435C205.497 34.2398 204.938 35.591 204.938 37C204.938 38.409 205.497 39.7602 206.493 40.7565C207.49 41.7528 208.841 42.3125 210.25 42.3125H217.75C219.159 42.3111 220.509 41.7509 221.505 40.7549C222.501 39.7589 223.061 38.4085 223.062 37ZM217.711 37.7078L218.648 39.3484C218.689 39.4204 218.7 39.5056 218.678 39.5854C218.656 39.6652 218.604 39.7331 218.532 39.7742C218.485 39.8018 218.431 39.8161 218.376 39.8156C218.321 39.8157 218.267 39.8013 218.219 39.7739C218.172 39.7464 218.132 39.7069 218.105 39.6594L217.109 37.9141C217.011 37.9294 216.912 37.9373 216.812 37.9375H215.562V39.5C215.562 39.5829 215.53 39.6624 215.471 39.721C215.412 39.7796 215.333 39.8125 215.25 39.8125C215.167 39.8125 215.088 39.7796 215.029 39.721C214.97 39.6624 214.938 39.5829 214.938 39.5V34.5C214.938 34.4171 214.97 34.3376 215.029 34.279C215.088 34.2204 215.167 34.1875 215.25 34.1875H216.812C217.229 34.1877 217.633 34.3265 217.962 34.582C218.291 34.8376 218.526 35.1953 218.628 35.5988C218.731 36.0023 218.697 36.4287 218.531 36.8105C218.365 37.1924 218.076 37.5081 217.711 37.7078ZM218.062 36.0625C218.062 35.731 217.931 35.413 217.696 35.1786C217.462 34.9442 217.144 34.8125 216.812 34.8125H215.562V37.3125H216.812C217.144 37.3125 217.462 37.1808 217.696 36.9464C217.931 36.712 218.062 36.394 218.062 36.0625Z" fill="#6C757D"/>
</g>
<g opacity="0.6">
<path d="M250.625 31.0625H245.312V28.25C245.312 28.1671 245.28 28.0876 245.221 28.029C245.162 27.9704 245.083 27.9375 245 27.9375C244.917 27.9375 244.838 27.9704 244.779 28.029C244.72 28.0876 244.688 28.1671 244.688 28.25V31.0625H239.375C238.795 31.0625 238.238 31.293 237.828 31.7032C237.418 32.1134 237.188 32.6698 237.188 33.25V42C237.188 42.5802 237.418 43.1366 237.828 43.5468C238.238 43.957 238.795 44.1875 239.375 44.1875H250.625C251.205 44.1875 251.762 43.957 252.172 43.5468C252.582 43.1366 252.812 42.5802 252.812 42V33.25C252.812 32.6698 252.582 32.1134 252.172 31.7032C251.762 31.293 251.205 31.0625 250.625 31.0625ZM252.188 42C252.188 42.4144 252.023 42.8118 251.73 43.1049C251.437 43.3979 251.039 43.5625 250.625 43.5625H239.375C238.961 43.5625 238.563 43.3979 238.27 43.1049C237.977 42.8118 237.812 42.4144 237.812 42V33.25C237.812 32.8356 237.977 32.4382 238.27 32.1451C238.563 31.8521 238.961 31.6875 239.375 31.6875H250.625C251.039 31.6875 251.437 31.8521 251.73 32.1451C252.023 32.4382 252.188 32.8356 252.188 33.25V42ZM240.938 35.4375C240.938 35.3139 240.974 35.193 241.043 35.0903C241.112 34.9875 241.209 34.9074 241.323 34.8601C241.438 34.8128 241.563 34.8004 241.684 34.8245C241.806 34.8486 241.917 34.9082 242.004 34.9956C242.092 35.083 242.151 35.1943 242.175 35.3156C242.2 35.4368 242.187 35.5625 242.14 35.6767C242.093 35.7909 242.013 35.8885 241.91 35.9572C241.807 36.0258 241.686 36.0625 241.562 36.0625C241.397 36.0625 241.238 35.9967 241.121 35.8794C241.003 35.7622 240.938 35.6033 240.938 35.4375ZM247.812 35.4375C247.812 35.3139 247.849 35.193 247.918 35.0903C247.987 34.9875 248.084 34.9074 248.198 34.8601C248.313 34.8128 248.438 34.8004 248.559 34.8245C248.681 34.8486 248.792 34.9082 248.879 34.9956C248.967 35.083 249.026 35.1943 249.05 35.3156C249.075 35.4368 249.062 35.5625 249.015 35.6767C248.968 35.7909 248.888 35.8885 248.785 35.9572C248.682 36.0258 248.561 36.0625 248.438 36.0625C248.272 36.0625 248.113 35.9967 247.996 35.8794C247.878 35.7622 247.812 35.6033 247.812 35.4375ZM247.812 37.9375H242.188C241.69 37.9375 241.213 38.135 240.862 38.4867C240.51 38.8383 240.312 39.3152 240.312 39.8125C240.312 40.3098 240.51 40.7867 240.862 41.1383C241.213 41.49 241.69 41.6875 242.188 41.6875H247.812C248.31 41.6875 248.787 41.49 249.138 41.1383C249.49 40.7867 249.688 40.3098 249.688 39.8125C249.688 39.3152 249.49 38.8383 249.138 38.4867C248.787 38.135 248.31 37.9375 247.812 37.9375ZM246.25 38.5625V41.0625H243.75V38.5625H246.25ZM240.938 39.8125C240.938 39.481 241.069 39.163 241.304 38.9286C241.538 38.6942 241.856 38.5625 242.188 38.5625H243.125V41.0625H242.188C241.856 41.0625 241.538 40.9308 241.304 40.6964C241.069 40.462 240.938 40.144 240.938 39.8125ZM247.812 41.0625H246.875V38.5625H247.812C248.144 38.5625 248.462 38.6942 248.696 38.9286C248.931 39.163 249.062 39.481 249.062 39.8125C249.062 40.144 248.931 40.462 248.696 40.6964C248.462 40.9308 248.144 41.0625 247.812 41.0625Z" fill="#6C757D"/>
</g>
<g opacity="0.6">
<path d="M157.625 63.0625H152.312V60.25C152.312 60.1671 152.28 60.0876 152.221 60.029C152.162 59.9704 152.083 59.9375 152 59.9375C151.917 59.9375 151.838 59.9704 151.779 60.029C151.72 60.0876 151.688 60.1671 151.688 60.25V63.0625H146.375C145.795 63.0625 145.238 63.293 144.828 63.7032C144.418 64.1134 144.188 64.6698 144.188 65.25V74C144.188 74.5802 144.418 75.1366 144.828 75.5468C145.238 75.957 145.795 76.1875 146.375 76.1875H157.625C158.205 76.1875 158.762 75.957 159.172 75.5468C159.582 75.1366 159.812 74.5802 159.812 74V65.25C159.812 64.6698 159.582 64.1134 159.172 63.7032C158.762 63.293 158.205 63.0625 157.625 63.0625ZM159.188 74C159.188 74.4144 159.023 74.8118 158.73 75.1049C158.437 75.3979 158.039 75.5625 157.625 75.5625H146.375C145.961 75.5625 145.563 75.3979 145.27 75.1049C144.977 74.8118 144.812 74.4144 144.812 74V65.25C144.812 64.8356 144.977 64.4382 145.27 64.1451C145.563 63.8521 145.961 63.6875 146.375 63.6875H157.625C158.039 63.6875 158.437 63.8521 158.73 64.1451C159.023 64.4382 159.188 64.8356 159.188 65.25V74ZM147.938 67.4375C147.938 67.3139 147.974 67.193 148.043 67.0903C148.112 66.9875 148.209 66.9074 148.323 66.8601C148.438 66.8128 148.563 66.8004 148.684 66.8245C148.806 66.8486 148.917 66.9082 149.004 66.9956C149.092 67.083 149.151 67.1943 149.175 67.3156C149.2 67.4368 149.187 67.5625 149.14 67.6767C149.093 67.7909 149.013 67.8885 148.91 67.9572C148.807 68.0258 148.686 68.0625 148.562 68.0625C148.397 68.0625 148.238 67.9967 148.121 67.8794C148.003 67.7622 147.938 67.6033 147.938 67.4375ZM154.812 67.4375C154.812 67.3139 154.849 67.193 154.918 67.0903C154.987 66.9875 155.084 66.9074 155.198 66.8601C155.313 66.8128 155.438 66.8004 155.559 66.8245C155.681 66.8486 155.792 66.9082 155.879 66.9956C155.967 67.083 156.026 67.1943 156.05 67.3156C156.075 67.4368 156.062 67.5625 156.015 67.6767C155.968 67.7909 155.888 67.8885 155.785 67.9572C155.682 68.0258 155.561 68.0625 155.438 68.0625C155.272 68.0625 155.113 67.9967 154.996 67.8794C154.878 67.7622 154.812 67.6033 154.812 67.4375ZM154.812 69.9375H149.188C148.69 69.9375 148.213 70.135 147.862 70.4867C147.51 70.8383 147.312 71.3152 147.312 71.8125C147.312 72.3098 147.51 72.7867 147.862 73.1383C148.213 73.49 148.69 73.6875 149.188 73.6875H154.812C155.31 73.6875 155.787 73.49 156.138 73.1383C156.49 72.7867 156.688 72.3098 156.688 71.8125C156.688 71.3152 156.49 70.8383 156.138 70.4867C155.787 70.135 155.31 69.9375 154.812 69.9375ZM153.25 70.5625V73.0625H150.75V70.5625H153.25ZM147.938 71.8125C147.938 71.481 148.069 71.163 148.304 70.9286C148.538 70.6942 148.856 70.5625 149.188 70.5625H150.125V73.0625H149.188C148.856 73.0625 148.538 72.9308 148.304 72.6964C148.069 72.462 147.938 72.144 147.938 71.8125ZM154.812 73.0625H153.875V70.5625H154.812C155.144 70.5625 155.462 70.6942 155.696 70.9286C155.931 71.163 156.062 71.481 156.062 71.8125C156.062 72.144 155.931 72.462 155.696 72.6964C155.462 72.9308 155.144 73.0625 154.812 73.0625Z" fill="#6C757D"/>
</g>
<g opacity="0.6">
<path d="M182.355 66.6094L180.48 71.6094C180.458 71.6692 180.418 71.7208 180.366 71.7572C180.314 71.7936 180.251 71.8131 180.188 71.8131C180.124 71.8131 180.061 71.7936 180.009 71.7572C179.957 71.7208 179.917 71.6692 179.895 71.6094L178.02 66.6094C177.991 66.5317 177.994 66.4456 178.028 66.3702C178.062 66.2947 178.125 66.236 178.203 66.207C178.281 66.178 178.367 66.1811 178.442 66.2155C178.518 66.2499 178.576 66.3129 178.605 66.3906L180.188 70.6094L181.77 66.3906C181.784 66.3522 181.806 66.3169 181.834 66.2868C181.862 66.2568 181.895 66.2325 181.933 66.2155C181.97 66.1985 182.01 66.1889 182.051 66.1875C182.092 66.186 182.133 66.1927 182.172 66.207C182.21 66.2214 182.246 66.2432 182.276 66.2712C182.306 66.2992 182.33 66.3328 182.347 66.3702C182.364 66.4075 182.374 66.4479 182.375 66.4889C182.376 66.53 182.37 66.5709 182.355 66.6094ZM192.688 69C192.686 70.5742 192.06 72.0835 190.947 73.1966C189.833 74.3098 188.324 74.9358 186.75 74.9375H179.25C177.675 74.9375 176.165 74.3119 175.052 73.1984C173.938 72.0849 173.312 70.5747 173.312 69C173.312 67.4253 173.938 65.9151 175.052 64.8016C176.165 63.6881 177.675 63.0625 179.25 63.0625H186.75C188.324 63.0642 189.833 63.6902 190.947 64.8034C192.06 65.9165 192.686 67.4258 192.688 69ZM192.062 69C192.061 67.5915 191.501 66.2411 190.505 65.2451C189.509 64.2491 188.159 63.6889 186.75 63.6875H179.25C177.841 63.6875 176.49 64.2472 175.493 65.2435C174.497 66.2398 173.938 67.591 173.938 69C173.938 70.409 174.497 71.7602 175.493 72.7565C176.49 73.7528 177.841 74.3125 179.25 74.3125H186.75C188.159 74.3111 189.509 73.7509 190.505 72.7549C191.501 71.7589 192.061 70.4085 192.062 69ZM186.711 69.7078L187.648 71.3484C187.689 71.4204 187.7 71.5056 187.678 71.5854C187.656 71.6652 187.604 71.7331 187.532 71.7742C187.485 71.8018 187.431 71.8161 187.376 71.8156C187.321 71.8157 187.267 71.8013 187.219 71.7739C187.172 71.7464 187.132 71.7069 187.105 71.6594L186.109 69.9141C186.011 69.9294 185.912 69.9373 185.812 69.9375H184.562V71.5C184.562 71.5829 184.53 71.6624 184.471 71.721C184.412 71.7796 184.333 71.8125 184.25 71.8125C184.167 71.8125 184.088 71.7796 184.029 71.721C183.97 71.6624 183.938 71.5829 183.938 71.5V66.5C183.938 66.4171 183.97 66.3376 184.029 66.279C184.088 66.2204 184.167 66.1875 184.25 66.1875H185.812C186.229 66.1877 186.633 66.3265 186.962 66.582C187.291 66.8376 187.526 67.1953 187.628 67.5988C187.731 68.0023 187.697 68.4287 187.531 68.8105C187.365 69.1924 187.076 69.5081 186.711 69.7078ZM187.062 68.0625C187.062 67.731 186.931 67.413 186.696 67.1786C186.462 66.9442 186.144 66.8125 185.812 66.8125H184.562V69.3125H185.812C186.144 69.3125 186.462 69.1808 186.696 68.9464C186.931 68.712 187.062 68.394 187.062 68.0625Z" fill="#6C757D"/>
</g>
<g opacity="0.6">
<path d="M211.813 64C211.813 63.5807 211.692 63.1702 211.465 62.8174C211.239 62.4646 210.916 62.1844 210.534 62.0101C210.153 61.8359 209.729 61.7749 209.314 61.8344C208.899 61.894 208.51 62.0716 208.193 62.3461C207.876 62.6206 207.645 62.9804 207.526 63.3827C207.408 63.785 207.408 64.2128 207.526 64.6151C207.644 65.0175 207.875 65.3775 208.192 65.6523C208.508 65.927 208.897 66.1049 209.313 66.1648V71.8351C208.765 71.9141 208.268 72.1975 207.921 72.6283C207.574 73.0591 207.404 73.6052 207.443 74.1568C207.483 74.7085 207.73 75.2246 208.135 75.6014C208.539 75.9782 209.072 76.1877 209.625 76.1877C210.178 76.1877 210.711 75.9782 211.115 75.6014C211.52 75.2246 211.767 74.7085 211.807 74.1568C211.846 73.6052 211.676 73.0591 211.329 72.6283C210.982 72.1975 210.485 71.9141 209.938 71.8351V66.1648C210.458 66.0897 210.934 65.8295 211.279 65.4319C211.623 65.0343 211.812 64.526 211.813 64ZM208.063 64C208.063 63.6909 208.154 63.3889 208.326 63.1319C208.498 62.8749 208.742 62.6747 209.027 62.5564C209.313 62.4382 209.627 62.4072 209.93 62.4675C210.233 62.5278 210.511 62.6766 210.73 62.8951C210.948 63.1136 211.097 63.3921 211.157 63.6951C211.218 63.9982 211.187 64.3124 211.069 64.5979C210.95 64.8834 210.75 65.1275 210.493 65.2991C210.236 65.4708 209.934 65.5625 209.625 65.5625C209.211 65.5625 208.813 65.3979 208.52 65.1048C208.227 64.8118 208.063 64.4144 208.063 64ZM211.188 74C211.188 74.309 211.096 74.6111 210.924 74.8681C210.752 75.125 210.508 75.3253 210.223 75.4435C209.937 75.5618 209.623 75.5927 209.32 75.5325C209.017 75.4722 208.739 75.3234 208.52 75.1048C208.302 74.8863 208.153 74.6079 208.093 74.3048C208.032 74.0017 208.063 73.6875 208.181 73.402C208.3 73.1165 208.5 72.8725 208.757 72.7008C209.014 72.5291 209.316 72.4375 209.625 72.4375C209.83 72.4375 210.033 72.4779 210.223 72.5564C210.413 72.6349 210.585 72.75 210.73 72.8951C210.875 73.0402 210.99 73.2125 211.069 73.402C211.147 73.5916 211.188 73.7948 211.188 74ZM219.938 71.8351V67.6429C219.938 67.4376 219.898 67.2341 219.819 67.0444C219.741 66.8546 219.625 66.6823 219.48 66.5375L216.005 63.0625H219C219.083 63.0625 219.162 63.0296 219.221 62.9709C219.28 62.9123 219.313 62.8329 219.313 62.75C219.313 62.6671 219.28 62.5876 219.221 62.529C219.162 62.4704 219.083 62.4375 219 62.4375H215.25C215.167 62.4375 215.088 62.4704 215.029 62.529C214.97 62.5876 214.938 62.6671 214.938 62.75V66.5C214.938 66.5829 214.97 66.6623 215.029 66.7209C215.088 66.7796 215.167 66.8125 215.25 66.8125C215.333 66.8125 215.412 66.7796 215.471 66.7209C215.53 66.6623 215.563 66.5829 215.563 66.5V63.5047L219.038 66.9797C219.125 67.0668 219.194 67.1702 219.241 67.284C219.288 67.3978 219.313 67.5198 219.313 67.6429V71.8351C218.765 71.9141 218.268 72.1975 217.921 72.6283C217.574 73.0591 217.404 73.6052 217.443 74.1568C217.483 74.7085 217.73 75.2246 218.135 75.6014C218.539 75.9782 219.072 76.1877 219.625 76.1877C220.178 76.1877 220.711 75.9782 221.115 75.6014C221.52 75.2246 221.767 74.7085 221.807 74.1568C221.846 73.6052 221.676 73.0591 221.329 72.6283C220.982 72.1975 220.485 71.9141 219.938 71.8351ZM219.625 75.5625C219.316 75.5625 219.014 75.4708 218.757 75.2991C218.5 75.1275 218.3 74.8834 218.181 74.5979C218.063 74.3124 218.032 73.9982 218.093 73.6951C218.153 73.3921 218.302 73.1136 218.52 72.8951C218.739 72.6766 219.017 72.5278 219.32 72.4675C219.623 72.4072 219.937 72.4382 220.223 72.5564C220.508 72.6747 220.752 72.8749 220.924 73.1319C221.096 73.3889 221.188 73.6909 221.188 74C221.188 74.4144 221.023 74.8118 220.73 75.1048C220.437 75.3979 220.039 75.5625 219.625 75.5625Z" fill="#6C757D"/>
</g>
<g opacity="0.6">
<path d="M246.875 66.8125H243.125C243.042 66.8125 242.963 66.8454 242.904 66.904C242.845 66.9626 242.812 67.0421 242.812 67.125V70.875C242.812 70.9579 242.845 71.0374 242.904 71.096C242.963 71.1546 243.042 71.1875 243.125 71.1875H246.875C246.958 71.1875 247.037 71.1546 247.096 71.096C247.155 71.0374 247.188 70.9579 247.188 70.875V67.125C247.188 67.0421 247.155 66.9626 247.096 66.904C247.037 66.8454 246.958 66.8125 246.875 66.8125ZM246.562 70.5625H243.438V67.4375H246.562V70.5625ZM253.125 70.5625H251.562V67.4375H253.125C253.208 67.4375 253.287 67.4046 253.346 67.346C253.405 67.2874 253.438 67.2079 253.438 67.125C253.438 67.0421 253.405 66.9626 253.346 66.904C253.287 66.8454 253.208 66.8125 253.125 66.8125H251.562V63.375C251.562 63.1264 251.464 62.8879 251.288 62.7121C251.112 62.5363 250.874 62.4375 250.625 62.4375H247.188V60.875C247.188 60.7921 247.155 60.7126 247.096 60.654C247.037 60.5954 246.958 60.5625 246.875 60.5625C246.792 60.5625 246.713 60.5954 246.654 60.654C246.595 60.7126 246.562 60.7921 246.562 60.875V62.4375H243.438V60.875C243.438 60.7921 243.405 60.7126 243.346 60.654C243.287 60.5954 243.208 60.5625 243.125 60.5625C243.042 60.5625 242.963 60.5954 242.904 60.654C242.845 60.7126 242.812 60.7921 242.812 60.875V62.4375H239.375C239.126 62.4375 238.888 62.5363 238.712 62.7121C238.536 62.8879 238.438 63.1264 238.438 63.375V66.8125H236.875C236.792 66.8125 236.713 66.8454 236.654 66.904C236.595 66.9626 236.562 67.0421 236.562 67.125C236.562 67.2079 236.595 67.2874 236.654 67.346C236.713 67.4046 236.792 67.4375 236.875 67.4375H238.438V70.5625H236.875C236.792 70.5625 236.713 70.5954 236.654 70.654C236.595 70.7126 236.562 70.7921 236.562 70.875C236.562 70.9579 236.595 71.0374 236.654 71.096C236.713 71.1546 236.792 71.1875 236.875 71.1875H238.438V74.625C238.438 74.8736 238.536 75.1121 238.712 75.2879C238.888 75.4637 239.126 75.5625 239.375 75.5625H242.812V77.125C242.812 77.2079 242.845 77.2874 242.904 77.346C242.963 77.4046 243.042 77.4375 243.125 77.4375C243.208 77.4375 243.287 77.4046 243.346 77.346C243.405 77.2874 243.438 77.2079 243.438 77.125V75.5625H246.562V77.125C246.562 77.2079 246.595 77.2874 246.654 77.346C246.713 77.4046 246.792 77.4375 246.875 77.4375C246.958 77.4375 247.037 77.4046 247.096 77.346C247.155 77.2874 247.188 77.2079 247.188 77.125V75.5625H250.625C250.874 75.5625 251.112 75.4637 251.288 75.2879C251.464 75.1121 251.562 74.8736 251.562 74.625V71.1875H253.125C253.208 71.1875 253.287 71.1546 253.346 71.096C253.405 71.0374 253.438 70.9579 253.438 70.875C253.438 70.7921 253.405 70.7126 253.346 70.654C253.287 70.5954 253.208 70.5625 253.125 70.5625ZM250.938 74.625C250.938 74.7079 250.905 74.7874 250.846 74.846C250.787 74.9046 250.708 74.9375 250.625 74.9375H239.375C239.292 74.9375 239.213 74.9046 239.154 74.846C239.095 74.7874 239.062 74.7079 239.062 74.625V63.375C239.062 63.2921 239.095 63.2126 239.154 63.154C239.213 63.0954 239.292 63.0625 239.375 63.0625H250.625C250.708 63.0625 250.787 63.0954 250.846 63.154C250.905 63.2126 250.938 63.2921 250.938 63.375V74.625Z" fill="#6C757D"/>
</g>
<g opacity="0.6">
<path d="M149.813 96C149.813 95.5807 149.692 95.1702 149.465 94.8174C149.239 94.4646 148.916 94.1844 148.534 94.0101C148.153 93.8359 147.729 93.7749 147.314 93.8344C146.899 93.894 146.51 94.0716 146.193 94.3461C145.876 94.6206 145.645 94.9804 145.526 95.3827C145.408 95.785 145.408 96.2128 145.526 96.6151C145.644 97.0175 145.875 97.3775 146.192 97.6523C146.508 97.927 146.897 98.1049 147.313 98.1648V103.835C146.765 103.914 146.268 104.198 145.921 104.628C145.574 105.059 145.404 105.605 145.443 106.157C145.483 106.708 145.73 107.225 146.135 107.601C146.539 107.978 147.072 108.188 147.625 108.188C148.178 108.188 148.711 107.978 149.115 107.601C149.52 107.225 149.767 106.708 149.807 106.157C149.846 105.605 149.676 105.059 149.329 104.628C148.982 104.198 148.485 103.914 147.938 103.835V98.1648C148.458 98.0897 148.934 97.8295 149.279 97.4319C149.623 97.0343 149.812 96.526 149.813 96ZM146.063 96C146.063 95.6909 146.154 95.3889 146.326 95.1319C146.498 94.8749 146.742 94.6747 147.027 94.5564C147.313 94.4382 147.627 94.4072 147.93 94.4675C148.233 94.5278 148.511 94.6766 148.73 94.8951C148.948 95.1136 149.097 95.3921 149.157 95.6951C149.218 95.9982 149.187 96.3124 149.069 96.5979C148.95 96.8834 148.75 97.1275 148.493 97.2991C148.236 97.4708 147.934 97.5625 147.625 97.5625C147.211 97.5625 146.813 97.3979 146.52 97.1048C146.227 96.8118 146.063 96.4144 146.063 96ZM149.188 106C149.188 106.309 149.096 106.611 148.924 106.868C148.752 107.125 148.508 107.325 148.223 107.444C147.937 107.562 147.623 107.593 147.32 107.532C147.017 107.472 146.739 107.323 146.52 107.105C146.302 106.886 146.153 106.608 146.093 106.305C146.032 106.002 146.063 105.688 146.181 105.402C146.3 105.117 146.5 104.872 146.757 104.701C147.014 104.529 147.316 104.437 147.625 104.437C147.83 104.437 148.033 104.478 148.223 104.556C148.413 104.635 148.585 104.75 148.73 104.895C148.875 105.04 148.99 105.212 149.069 105.402C149.147 105.592 149.188 105.795 149.188 106ZM157.938 103.835V99.6429C157.938 99.4376 157.898 99.2341 157.819 99.0444C157.741 98.8546 157.625 98.6823 157.48 98.5375L154.005 95.0625H157C157.083 95.0625 157.162 95.0296 157.221 94.9709C157.28 94.9123 157.313 94.8329 157.313 94.75C157.313 94.6671 157.28 94.5876 157.221 94.529C157.162 94.4704 157.083 94.4375 157 94.4375H153.25C153.167 94.4375 153.088 94.4704 153.029 94.529C152.97 94.5876 152.938 94.6671 152.938 94.75V98.5C152.938 98.5829 152.97 98.6623 153.029 98.7209C153.088 98.7796 153.167 98.8125 153.25 98.8125C153.333 98.8125 153.412 98.7796 153.471 98.7209C153.53 98.6623 153.563 98.5829 153.563 98.5V95.5047L157.038 98.9797C157.125 99.0668 157.194 99.1702 157.241 99.284C157.288 99.3978 157.313 99.5198 157.313 99.6429V103.835C156.765 103.914 156.268 104.198 155.921 104.628C155.574 105.059 155.404 105.605 155.443 106.157C155.483 106.708 155.73 107.225 156.135 107.601C156.539 107.978 157.072 108.188 157.625 108.188C158.178 108.188 158.711 107.978 159.115 107.601C159.52 107.225 159.767 106.708 159.807 106.157C159.846 105.605 159.676 105.059 159.329 104.628C158.982 104.198 158.485 103.914 157.938 103.835ZM157.625 107.562C157.316 107.562 157.014 107.471 156.757 107.299C156.5 107.127 156.3 106.883 156.181 106.598C156.063 106.312 156.032 105.998 156.093 105.695C156.153 105.392 156.302 105.114 156.52 104.895C156.739 104.677 157.017 104.528 157.32 104.468C157.623 104.407 157.937 104.438 158.223 104.556C158.508 104.675 158.752 104.875 158.924 105.132C159.096 105.389 159.188 105.691 159.188 106C159.188 106.414 159.023 106.812 158.73 107.105C158.437 107.398 158.039 107.562 157.625 107.562Z" fill="#6C757D"/>
</g>
<g opacity="0.6">
<path d="M184.875 98.8125H181.125C181.042 98.8125 180.963 98.8454 180.904 98.904C180.845 98.9626 180.812 99.0421 180.812 99.125V102.875C180.812 102.958 180.845 103.037 180.904 103.096C180.963 103.155 181.042 103.188 181.125 103.188H184.875C184.958 103.188 185.037 103.155 185.096 103.096C185.155 103.037 185.188 102.958 185.188 102.875V99.125C185.188 99.0421 185.155 98.9626 185.096 98.904C185.037 98.8454 184.958 98.8125 184.875 98.8125ZM184.562 102.562H181.438V99.4375H184.562V102.562ZM191.125 102.562H189.562V99.4375H191.125C191.208 99.4375 191.287 99.4046 191.346 99.346C191.405 99.2874 191.438 99.2079 191.438 99.125C191.438 99.0421 191.405 98.9626 191.346 98.904C191.287 98.8454 191.208 98.8125 191.125 98.8125H189.562V95.375C189.562 95.1264 189.464 94.8879 189.288 94.7121C189.112 94.5363 188.874 94.4375 188.625 94.4375H185.188V92.875C185.188 92.7921 185.155 92.7126 185.096 92.654C185.037 92.5954 184.958 92.5625 184.875 92.5625C184.792 92.5625 184.713 92.5954 184.654 92.654C184.595 92.7126 184.562 92.7921 184.562 92.875V94.4375H181.438V92.875C181.438 92.7921 181.405 92.7126 181.346 92.654C181.287 92.5954 181.208 92.5625 181.125 92.5625C181.042 92.5625 180.963 92.5954 180.904 92.654C180.845 92.7126 180.812 92.7921 180.812 92.875V94.4375H177.375C177.126 94.4375 176.888 94.5363 176.712 94.7121C176.536 94.8879 176.438 95.1264 176.438 95.375V98.8125H174.875C174.792 98.8125 174.713 98.8454 174.654 98.904C174.595 98.9626 174.562 99.0421 174.562 99.125C174.562 99.2079 174.595 99.2874 174.654 99.346C174.713 99.4046 174.792 99.4375 174.875 99.4375H176.438V102.562H174.875C174.792 102.562 174.713 102.595 174.654 102.654C174.595 102.713 174.562 102.792 174.562 102.875C174.562 102.958 174.595 103.037 174.654 103.096C174.713 103.155 174.792 103.188 174.875 103.188H176.438V106.625C176.438 106.874 176.536 107.112 176.712 107.288C176.888 107.464 177.126 107.562 177.375 107.562H180.812V109.125C180.812 109.208 180.845 109.287 180.904 109.346C180.963 109.405 181.042 109.438 181.125 109.438C181.208 109.438 181.287 109.405 181.346 109.346C181.405 109.287 181.438 109.208 181.438 109.125V107.562H184.562V109.125C184.562 109.208 184.595 109.287 184.654 109.346C184.713 109.405 184.792 109.438 184.875 109.438C184.958 109.438 185.037 109.405 185.096 109.346C185.155 109.287 185.188 109.208 185.188 109.125V107.562H188.625C188.874 107.562 189.112 107.464 189.288 107.288C189.464 107.112 189.562 106.874 189.562 106.625V103.188H191.125C191.208 103.188 191.287 103.155 191.346 103.096C191.405 103.037 191.438 102.958 191.438 102.875C191.438 102.792 191.405 102.713 191.346 102.654C191.287 102.595 191.208 102.562 191.125 102.562ZM188.938 106.625C188.938 106.708 188.905 106.787 188.846 106.846C188.787 106.905 188.708 106.938 188.625 106.938H177.375C177.292 106.938 177.213 106.905 177.154 106.846C177.095 106.787 177.062 106.708 177.062 106.625V95.375C177.062 95.2921 177.095 95.2126 177.154 95.154C177.213 95.0954 177.292 95.0625 177.375 95.0625H188.625C188.708 95.0625 188.787 95.0954 188.846 95.154C188.905 95.2126 188.938 95.2921 188.938 95.375V106.625Z" fill="#6C757D"/>
</g>
<g opacity="0.6">
<path d="M219.625 95.0625H214.312V92.25C214.312 92.1671 214.28 92.0876 214.221 92.029C214.162 91.9704 214.083 91.9375 214 91.9375C213.917 91.9375 213.838 91.9704 213.779 92.029C213.72 92.0876 213.688 92.1671 213.688 92.25V95.0625H208.375C207.795 95.0625 207.238 95.293 206.828 95.7032C206.418 96.1134 206.188 96.6698 206.188 97.25V106C206.188 106.58 206.418 107.137 206.828 107.547C207.238 107.957 207.795 108.188 208.375 108.188H219.625C220.205 108.188 220.762 107.957 221.172 107.547C221.582 107.137 221.812 106.58 221.812 106V97.25C221.812 96.6698 221.582 96.1134 221.172 95.7032C220.762 95.293 220.205 95.0625 219.625 95.0625ZM221.188 106C221.188 106.414 221.023 106.812 220.73 107.105C220.437 107.398 220.039 107.562 219.625 107.562H208.375C207.961 107.562 207.563 107.398 207.27 107.105C206.977 106.812 206.812 106.414 206.812 106V97.25C206.812 96.8356 206.977 96.4382 207.27 96.1451C207.563 95.8521 207.961 95.6875 208.375 95.6875H219.625C220.039 95.6875 220.437 95.8521 220.73 96.1451C221.023 96.4382 221.188 96.8356 221.188 97.25V106ZM209.938 99.4375C209.938 99.3139 209.974 99.193 210.043 99.0903C210.112 98.9875 210.209 98.9074 210.323 98.8601C210.438 98.8128 210.563 98.8004 210.684 98.8245C210.806 98.8486 210.917 98.9082 211.004 98.9956C211.092 99.083 211.151 99.1943 211.175 99.3156C211.2 99.4368 211.187 99.5625 211.14 99.6767C211.093 99.7909 211.013 99.8885 210.91 99.9572C210.807 100.026 210.686 100.062 210.562 100.062C210.397 100.062 210.238 99.9967 210.121 99.8794C210.003 99.7622 209.938 99.6033 209.938 99.4375ZM216.812 99.4375C216.812 99.3139 216.849 99.193 216.918 99.0903C216.987 98.9875 217.084 98.9074 217.198 98.8601C217.313 98.8128 217.438 98.8004 217.559 98.8245C217.681 98.8486 217.792 98.9082 217.879 98.9956C217.967 99.083 218.026 99.1943 218.05 99.3156C218.075 99.4368 218.062 99.5625 218.015 99.6767C217.968 99.7909 217.888 99.8885 217.785 99.9572C217.682 100.026 217.561 100.062 217.438 100.062C217.272 100.062 217.113 99.9967 216.996 99.8794C216.878 99.7622 216.812 99.6033 216.812 99.4375ZM216.812 101.938H211.188C210.69 101.938 210.213 102.135 209.862 102.487C209.51 102.838 209.312 103.315 209.312 103.812C209.312 104.31 209.51 104.787 209.862 105.138C210.213 105.49 210.69 105.688 211.188 105.688H216.812C217.31 105.688 217.787 105.49 218.138 105.138C218.49 104.787 218.688 104.31 218.688 103.812C218.688 103.315 218.49 102.838 218.138 102.487C217.787 102.135 217.31 101.938 216.812 101.938ZM215.25 102.562V105.062H212.75V102.562H215.25ZM209.938 103.812C209.938 103.481 210.069 103.163 210.304 102.929C210.538 102.694 210.856 102.562 211.188 102.562H212.125V105.062H211.188C210.856 105.062 210.538 104.931 210.304 104.696C210.069 104.462 209.938 104.144 209.938 103.812ZM216.812 105.062H215.875V102.562H216.812C217.144 102.562 217.462 102.694 217.696 102.929C217.931 103.163 218.062 103.481 218.062 103.812C218.062 104.144 217.931 104.462 217.696 104.696C217.462 104.931 217.144 105.062 216.812 105.062Z" fill="#6C757D"/>
</g>
<g opacity="0.6">
<path d="M244.355 98.6094L242.48 103.609C242.458 103.669 242.418 103.721 242.366 103.757C242.314 103.794 242.251 103.813 242.188 103.813C242.124 103.813 242.061 103.794 242.009 103.757C241.957 103.721 241.917 103.669 241.895 103.609L240.02 98.6094C239.991 98.5317 239.994 98.4456 240.028 98.3702C240.062 98.2947 240.125 98.236 240.203 98.207C240.281 98.178 240.367 98.1811 240.442 98.2155C240.518 98.2499 240.576 98.3129 240.605 98.3906L242.188 102.609L243.77 98.3906C243.784 98.3522 243.806 98.3169 243.834 98.2868C243.862 98.2568 243.895 98.2325 243.933 98.2155C243.97 98.1985 244.01 98.1889 244.051 98.1875C244.092 98.186 244.133 98.1927 244.172 98.207C244.21 98.2214 244.246 98.2432 244.276 98.2712C244.306 98.2992 244.33 98.3328 244.347 98.3702C244.364 98.4075 244.374 98.4479 244.375 98.4889C244.376 98.53 244.37 98.5709 244.355 98.6094ZM254.688 101C254.686 102.574 254.06 104.083 252.947 105.197C251.833 106.31 250.324 106.936 248.75 106.938H241.25C239.675 106.938 238.165 106.312 237.052 105.198C235.938 104.085 235.312 102.575 235.312 101C235.312 99.4253 235.938 97.9151 237.052 96.8016C238.165 95.6881 239.675 95.0625 241.25 95.0625H248.75C250.324 95.0642 251.833 95.6902 252.947 96.8034C254.06 97.9165 254.686 99.4258 254.688 101ZM254.062 101C254.061 99.5915 253.501 98.2411 252.505 97.2451C251.509 96.2491 250.159 95.6889 248.75 95.6875H241.25C239.841 95.6875 238.49 96.2472 237.493 97.2435C236.497 98.2398 235.938 99.591 235.938 101C235.938 102.409 236.497 103.76 237.493 104.757C238.49 105.753 239.841 106.312 241.25 106.312H248.75C250.159 106.311 251.509 105.751 252.505 104.755C253.501 103.759 254.061 102.409 254.062 101ZM248.711 101.708L249.648 103.348C249.689 103.42 249.7 103.506 249.678 103.585C249.656 103.665 249.604 103.733 249.532 103.774C249.485 103.802 249.431 103.816 249.376 103.816C249.321 103.816 249.267 103.801 249.219 103.774C249.172 103.746 249.132 103.707 249.105 103.659L248.109 101.914C248.011 101.929 247.912 101.937 247.812 101.938H246.562V103.5C246.562 103.583 246.53 103.662 246.471 103.721C246.412 103.78 246.333 103.812 246.25 103.812C246.167 103.812 246.088 103.78 246.029 103.721C245.97 103.662 245.938 103.583 245.938 103.5V98.5C245.938 98.4171 245.97 98.3376 246.029 98.279C246.088 98.2204 246.167 98.1875 246.25 98.1875H247.812C248.229 98.1877 248.633 98.3265 248.962 98.582C249.291 98.8376 249.526 99.1953 249.628 99.5988C249.731 100.002 249.697 100.429 249.531 100.811C249.365 101.192 249.076 101.508 248.711 101.708ZM249.062 100.062C249.062 99.731 248.931 99.413 248.696 99.1786C248.462 98.9442 248.144 98.8125 247.812 98.8125H246.562V101.312H247.812C248.144 101.312 248.462 101.181 248.696 100.946C248.931 100.712 249.062 100.394 249.062 100.062Z" fill="#6C757D"/>
</g>
</g>
<path opacity="0.8" d="M18 22C18 18.6863 20.6863 16 24 16H272C275.314 16 278 18.6863 278 22V29H18V22Z" fill="#2E0641"/>
<path d="M259 22.994C259 24.0942 258.103 24.9881 257 24.9881C255.897 24.9881 255 24.0942 255 22.994C255 21.8939 255.897 21 257 21C258.103 21 259 21.8939 259 22.994Z" fill="white"/>
<path d="M264 22.994C264 24.0942 263.103 24.9881 262 24.9881C260.897 24.9881 260 24.0942 260 22.994C260 21.8939 260.897 21 262 21C263.103 21 264 21.8939 264 22.994Z" fill="#F8F9FA" fill-opacity="0.4"/>
<path d="M269 22.994C269 24.0942 268.103 24.9881 267 24.9881C265.897 24.9881 265 24.0942 265 22.994C265 21.8939 265.897 21 267 21C268.103 21 269 21.8939 269 22.994Z" fill="#F8F9FA" fill-opacity="0.4"/>
<rect x="92.1516" y="40" width="14.8485" height="14.8485" fill="#DEE2E6"/>
<rect x="92.1516" y="82.4243" width="14.8485" height="14.8485" fill="#DEE2E6"/>
<rect x="37" y="82.4243" width="14.8485" height="14.8485" fill="#DEE2E6"/>
<rect x="37" y="40" width="14.8485" height="14.8485" fill="#DEE2E6"/>
<path d="M48.6667 94.0908L95.3334 47.4242" stroke="#DEE2E6" stroke-dasharray="2 2"/>
<path d="M95.3333 94.0908L48.6666 47.4242" stroke="#DEE2E6" stroke-dasharray="2 2"/>
<rect x="68" y="65" width="9" height="9" fill="#E7E7E8"/>
<path d="M70.125 68.125H73.875V71.875H70.125V68.125ZM80.75 71.875C80.75 72.0408 80.6842 72.1997 80.5669 72.3169C80.4497 72.4342 80.2908 72.5 80.125 72.5H78.875V75.625C78.875 75.9565 78.7433 76.2745 78.5089 76.5089C78.2745 76.7433 77.9565 76.875 77.625 76.875H74.5V78.125C74.5 78.2908 74.4342 78.4497 74.3169 78.5669C74.1997 78.6842 74.0408 78.75 73.875 78.75C73.7092 78.75 73.5503 78.6842 73.4331 78.5669C73.3158 78.4497 73.25 78.2908 73.25 78.125V76.875H70.75V78.125C70.75 78.2908 70.6842 78.4497 70.5669 78.5669C70.4497 78.6842 70.2908 78.75 70.125 78.75C69.9592 78.75 69.8003 78.6842 69.6831 78.5669C69.5658 78.4497 69.5 78.2908 69.5 78.125V76.875H66.375C66.0435 76.875 65.7255 76.7433 65.4911 76.5089C65.2567 76.2745 65.125 75.9565 65.125 75.625V72.5H63.875C63.7092 72.5 63.5503 72.4342 63.4331 72.3169C63.3158 72.1997 63.25 72.0408 63.25 71.875C63.25 71.7092 63.3158 71.5503 63.4331 71.4331C63.5503 71.3158 63.7092 71.25 63.875 71.25H65.125V68.75H63.875C63.7092 68.75 63.5503 68.6842 63.4331 68.5669C63.3158 68.4497 63.25 68.2908 63.25 68.125C63.25 67.9592 63.3158 67.8003 63.4331 67.6831C63.5503 67.5658 63.7092 67.5 63.875 67.5H65.125V64.375C65.125 64.0435 65.2567 63.7255 65.4911 63.4911C65.7255 63.2567 66.0435 63.125 66.375 63.125H69.5V61.875C69.5 61.7092 69.5658 61.5503 69.6831 61.4331C69.8003 61.3158 69.9592 61.25 70.125 61.25C70.2908 61.25 70.4497 61.3158 70.5669 61.4331C70.6842 61.5503 70.75 61.7092 70.75 61.875V63.125H73.25V61.875C73.25 61.7092 73.3158 61.5503 73.4331 61.4331C73.5503 61.3158 73.7092 61.25 73.875 61.25C74.0408 61.25 74.1997 61.3158 74.3169 61.4331C74.4342 61.5503 74.5 61.7092 74.5 61.875V63.125H77.625C77.9565 63.125 78.2745 63.2567 78.5089 63.4911C78.7433 63.7255 78.875 64.0435 78.875 64.375V67.5H80.125C80.2908 67.5 80.4497 67.5658 80.5669 67.6831C80.6842 67.8003 80.75 67.9592 80.75 68.125C80.75 68.2908 80.6842 68.4497 80.5669 68.5669C80.4497 68.6842 80.2908 68.75 80.125 68.75H78.875V71.25H80.125C80.2908 71.25 80.4497 71.3158 80.5669 71.4331C80.6842 71.5503 80.75 71.7092 80.75 71.875ZM75.125 67.5C75.125 67.3342 75.0592 67.1753 74.9419 67.0581C74.8247 66.9408 74.6658 66.875 74.5 66.875H69.5C69.3342 66.875 69.1753 66.9408 69.0581 67.0581C68.9408 67.1753 68.875 67.3342 68.875 67.5V72.5C68.875 72.6658 68.9408 72.8247 69.0581 72.9419C69.1753 73.0592 69.3342 73.125 69.5 73.125H74.5C74.6658 73.125 74.8247 73.0592 74.9419 72.9419C75.0592 72.8247 75.125 72.6658 75.125 72.5V67.5Z" fill="#BCBCBC"/>
<defs>
<clipPath id="clip0_14_1846">
<rect width="113" height="80" fill="white" transform="translate(142 29)"/>
</clipPath>
</defs>
</svg>
