<svg width="42" height="42" viewBox="0 0 42 42" fill="none" xmlns="http://www.w3.org/2000/svg">
<rect width="42" height="42" fill="white"/>
<path d="M33 27.5965C32.127 27.8185 31.587 27.6062 31.1025 26.8787L27.657 22.1117L27.159 21.4517L23.1353 26.8945C22.6755 27.5492 22.1933 27.8342 21.3353 27.6025L26.4877 20.686L21.6908 14.4385C22.5157 14.278 23.0857 14.3597 23.592 15.0985L27.1658 19.9247L30.7658 15.1247C31.227 14.47 31.7227 14.221 32.5507 14.4625L30.6908 16.9285L28.1707 20.2097C27.8708 20.5847 27.912 20.8412 28.188 21.2035L33 27.5965ZM9.006 20.5705L9.4275 18.4975C10.575 14.395 15.2775 12.6902 18.5205 15.2252C20.4158 16.7162 20.8868 18.8252 20.793 21.1877H10.11C9.9495 25.4402 13.0103 28.0067 16.9125 26.6972C18.2812 26.2375 19.0875 25.1657 19.491 23.8247C19.6958 23.1527 20.0347 23.0477 20.6663 23.2397C20.3438 24.9167 19.6163 26.3177 18.0787 27.1945C15.7815 28.507 12.5025 28.0825 10.7775 26.2585C9.75 25.2002 9.3255 23.8592 9.135 22.4252C9.105 22.1882 9.045 21.9625 9 21.7352C9.004 21.3472 9.006 20.9592 9.006 20.5712V20.5705ZM10.1295 20.2855H19.7835C19.7205 17.2105 17.8057 15.0265 15.189 15.0077C12.3165 14.9852 10.254 17.1175 10.1295 20.2855Z" fill="black"/>
</svg>
