<svg width="296" height="109" viewBox="0 0 296 109" fill="none" xmlns="http://www.w3.org/2000/svg">
<rect width="296" height="109" fill="#0D6EFD" fill-opacity="0.16"/>
<path d="M18 22C18 18.6863 20.6863 16 24 16H272C275.314 16 278 18.6863 278 22V109H18V22Z" fill="white"/>
<path d="M57.5 44.5V50.5C57.5 50.6326 57.4473 50.7598 57.3536 50.8536C57.2598 50.9473 57.1326 51 57 51C56.8674 51 56.7402 50.9473 56.6464 50.8536C56.5527 50.7598 56.5 50.6326 56.5 50.5V48H53V50.5C53 50.6326 52.9473 50.7598 52.8536 50.8536C52.7598 50.9473 52.6326 51 52.5 51C52.3674 51 52.2402 50.9473 52.1464 50.8536C52.0527 50.7598 52 50.6326 52 50.5V44.5C52 44.3674 52.0527 44.2402 52.1464 44.1464C52.2402 44.0527 52.3674 44 52.5 44C52.6326 44 52.7598 44.0527 52.8536 44.1464C52.9473 44.2402 53 44.3674 53 44.5V47H56.5V44.5C56.5 44.3674 56.5527 44.2402 56.6464 44.1464C56.7402 44.0527 56.8674 44 57 44C57.1326 44 57.2598 44.0527 57.3536 44.1464C57.4473 44.2402 57.5 44.3674 57.5 44.5ZM64.5 44.5C64.5 44.6326 64.4473 44.7598 64.3536 44.8536C64.2598 44.9473 64.1326 45 64 45H62.5V50.5C62.5 50.6326 62.4473 50.7598 62.3536 50.8536C62.2598 50.9473 62.1326 51 62 51C61.8674 51 61.7402 50.9473 61.6464 50.8536C61.5527 50.7598 61.5 50.6326 61.5 50.5V45H60C59.8674 45 59.7402 44.9473 59.6464 44.8536C59.5527 44.7598 59.5 44.6326 59.5 44.5C59.5 44.3674 59.5527 44.2402 59.6464 44.1464C59.7402 44.0527 59.8674 44 60 44H64C64.1326 44 64.2598 44.0527 64.3536 44.1464C64.4473 44.2402 64.5 44.3674 64.5 44.5ZM73.5 44.5V50.5C73.5 50.6326 73.4473 50.7598 73.3536 50.8536C73.2598 50.9473 73.1326 51 73 51C72.8674 51 72.7402 50.9473 72.6464 50.8536C72.5527 50.7598 72.5 50.6326 72.5 50.5V46L70.4 48.8C70.3534 48.8621 70.293 48.9125 70.2236 48.9472C70.1542 48.9819 70.0776 49 70 49C69.9224 49 69.8458 48.9819 69.7764 48.9472C69.707 48.9125 69.6466 48.8621 69.6 48.8L67.5 46V50.5C67.5 50.6326 67.4473 50.7598 67.3536 50.8536C67.2598 50.9473 67.1326 51 67 51C66.8674 51 66.7402 50.9473 66.6464 50.8536C66.5527 50.7598 66.5 50.6326 66.5 50.5V44.5C66.5 44.3951 66.533 44.2928 66.5944 44.2076C66.6557 44.1225 66.7423 44.0588 66.8419 44.0257C66.9414 43.9925 67.0489 43.9915 67.1491 44.0227C67.2493 44.054 67.337 44.116 67.4 44.2L70 47.6663L72.6 44.2C72.663 44.116 72.7507 44.054 72.8509 44.0227C72.9511 43.9915 73.0586 43.9925 73.1581 44.0257C73.2577 44.0588 73.3443 44.1225 73.4056 44.2076C73.467 44.2928 73.5 44.3951 73.5 44.5ZM80.5 50.5C80.5 50.6326 80.4473 50.7598 80.3536 50.8536C80.2598 50.9473 80.1326 51 80 51H76.5C76.3674 51 76.2402 50.9473 76.1464 50.8536C76.0527 50.7598 76 50.6326 76 50.5V44.5C76 44.3674 76.0527 44.2402 76.1464 44.1464C76.2402 44.0527 76.3674 44 76.5 44C76.6326 44 76.7598 44.0527 76.8536 44.1464C76.9473 44.2402 77 44.3674 77 44.5V50H80C80.1326 50 80.2598 50.0527 80.3536 50.1464C80.4473 50.2402 80.5 50.3674 80.5 50.5Z" fill="#6C757D"/>
<rect x="220.5" y="38.5" width="47.7744" height="64.0326" stroke="#DEE2E6"/>
<rect x="224.782" y="91.5562" width="16.2581" height="4.78181" fill="#DEE2E6"/>
<rect x="243.909" y="91.5562" width="16.2581" height="4.78181" fill="#DEE2E6"/>
<rect x="225.738" y="43.738" width="37.2981" height="0.956361" fill="#DEE2E6"/>
<rect x="225.738" y="50.4326" width="33.6592" height="0.956361" fill="#DEE2E6"/>
<rect x="225.738" y="57.1272" width="10.9165" height="0.956361" fill="#DEE2E6"/>
<rect x="225.738" y="63.8215" width="22.7427" height="0.956361" fill="#DEE2E6"/>
<g opacity="0.6">
<path d="M187.969 67.0312H157.031C156.285 67.0312 155.57 67.3276 155.043 67.855C154.515 68.3825 154.219 69.0978 154.219 69.8438V95.1562C154.219 95.9022 154.515 96.6175 155.043 97.145C155.57 97.6724 156.285 97.9688 157.031 97.9688H187.969C188.715 97.9688 189.43 97.6724 189.957 97.145C190.485 96.6175 190.781 95.9022 190.781 95.1562V69.8438C190.781 69.0978 190.485 68.3825 189.957 67.855C189.43 67.3276 188.715 67.0312 187.969 67.0312ZM187.969 69.8438V87.9053L183.386 83.3244C183.125 83.0632 182.815 82.856 182.474 82.7146C182.132 82.5732 181.767 82.5004 181.397 82.5004C181.028 82.5004 180.662 82.5732 180.321 82.7146C179.979 82.856 179.669 83.0632 179.408 83.3244L175.893 86.84L168.158 79.1057C167.631 78.5786 166.916 78.2826 166.17 78.2826C165.425 78.2826 164.709 78.5786 164.182 79.1057L157.031 86.2564V69.8438H187.969ZM157.031 90.2344L166.172 81.0938L180.234 95.1562H157.031V90.2344ZM187.969 95.1562H184.212L177.884 88.8281L181.4 85.3125L187.969 91.8832V95.1562ZM175.312 77.5781C175.312 77.1609 175.436 76.7531 175.668 76.4062C175.9 76.0593 176.229 75.789 176.615 75.6293C177 75.4697 177.424 75.4279 177.833 75.5093C178.243 75.5907 178.618 75.7916 178.913 76.0866C179.208 76.3816 179.409 76.7574 179.491 77.1666C179.572 77.5758 179.53 77.9999 179.371 78.3853C179.211 78.7708 178.941 79.1002 178.594 79.332C178.247 79.5638 177.839 79.6875 177.422 79.6875C176.862 79.6875 176.326 79.4653 175.93 79.0697C175.535 78.6741 175.312 78.1376 175.312 77.5781Z" fill="#DEE2E6"/>
</g>
<rect x="26" y="69" width="31" height="2" fill="#DEE2E6"/>
<rect x="61" y="69" width="82" height="2" fill="#DEE2E6"/>
<rect x="26" y="79" width="18" height="2" fill="#DEE2E6"/>
<rect x="61" y="79" width="74" height="2" fill="#DEE2E6"/>
<rect x="26" y="89" width="25" height="2" fill="#DEE2E6"/>
<rect x="61" y="89" width="24" height="2" fill="#DEE2E6"/>
<rect x="26" y="99" width="13" height="2" fill="#DEE2E6"/>
<rect x="61" y="99" width="50" height="2" fill="#DEE2E6"/>
<path d="M31.67 44.7233L28.3379 47.5L31.67 50.2768C31.7382 50.3313 31.7947 50.3989 31.8364 50.4755C31.8781 50.5522 31.9041 50.6364 31.9129 50.7232C31.9216 50.81 31.913 50.8977 31.8874 50.9812C31.8619 51.0646 31.82 51.1421 31.7641 51.2092C31.7082 51.2762 31.6396 51.3314 31.5621 51.3716C31.4847 51.4118 31.4 51.4361 31.313 51.4432C31.226 51.4502 31.1385 51.4399 31.0556 51.4127C30.9727 51.3855 30.896 51.3421 30.83 51.2849L26.8925 48.0037C26.8187 47.9421 26.7592 47.865 26.7184 47.7779C26.6776 47.6908 26.6565 47.5958 26.6565 47.4996C26.6565 47.4034 26.6776 47.3084 26.7184 47.2213C26.7592 47.1342 26.8187 47.0571 26.8925 46.9955L30.83 43.7143C30.9638 43.6029 31.1364 43.5492 31.3098 43.5651C31.4832 43.5809 31.6431 43.665 31.7545 43.7988C31.8659 43.9326 31.9196 44.1051 31.9038 44.2785C31.8879 44.4519 31.8038 44.6119 31.67 44.7233ZM46.1075 46.9955L42.17 43.7143C42.1038 43.6591 42.0273 43.6176 41.945 43.592C41.8627 43.5664 41.7761 43.5572 41.6903 43.5651C41.6045 43.5729 41.521 43.5976 41.4447 43.6377C41.3684 43.6778 41.3007 43.7325 41.2456 43.7988C41.1342 43.9326 41.0805 44.1051 41.0963 44.2785C41.1122 44.4519 41.1962 44.6119 41.33 44.7233L44.6622 47.5L41.33 50.2768C41.2619 50.3313 41.2054 50.3989 41.1637 50.4755C41.122 50.5522 41.096 50.6364 41.0872 50.7232C41.0785 50.81 41.0871 50.8977 41.1127 50.9812C41.1382 51.0646 41.1801 51.1421 41.236 51.2092C41.2918 51.2762 41.3605 51.3314 41.438 51.3716C41.5154 51.4118 41.6001 51.4361 41.6871 51.4432C41.7741 51.4502 41.8616 51.4399 41.9445 51.4127C42.0274 51.3855 42.1041 51.3421 42.17 51.2849L46.1075 48.0037C46.1814 47.9421 46.2409 47.865 46.2817 47.7779C46.3225 47.6908 46.3436 47.5958 46.3436 47.4996C46.3436 47.4034 46.3225 47.3084 46.2817 47.2213C46.2409 47.1342 46.1814 47.0571 46.1075 46.9955ZM39.349 39.6644C39.268 39.635 39.182 39.6218 39.0959 39.6256C39.0098 39.6295 38.9253 39.6502 38.8472 39.6867C38.7691 39.7232 38.699 39.7747 38.6408 39.8383C38.5827 39.9019 38.5376 39.9763 38.5082 40.0573L33.2582 54.4948C33.2286 54.5759 33.2154 54.662 33.2191 54.7482C33.2229 54.8343 33.2436 54.9189 33.2801 54.9971C33.3166 55.0753 33.3682 55.1455 33.4318 55.2037C33.4955 55.262 33.57 55.3071 33.6511 55.3365C33.723 55.362 33.7987 55.3751 33.875 55.375C34.0098 55.375 34.1413 55.3335 34.2517 55.2562C34.3621 55.1788 34.4459 55.0694 34.4919 54.9427L39.7419 40.5052C39.7713 40.4242 39.7845 40.3382 39.7807 40.2521C39.7768 40.166 39.7561 40.0815 39.7196 40.0034C39.6831 39.9253 39.6316 39.8552 39.568 39.7971C39.5044 39.7389 39.43 39.6938 39.349 39.6644Z" fill="#6C757D"/>
<path d="M18 22C18 18.6863 20.6863 16 24 16H272C275.314 16 278 18.6863 278 22V29H18V22Z" fill="#0D6EFD"/>
<path d="M259 22.994C259 24.0942 258.103 24.9881 257 24.9881C255.897 24.9881 255 24.0942 255 22.994C255 21.8939 255.897 21 257 21C258.103 21 259 21.8939 259 22.994Z" fill="white"/>
<path d="M264 22.994C264 24.0942 263.103 24.9881 262 24.9881C260.897 24.9881 260 24.0942 260 22.994C260 21.8939 260.897 21 262 21C263.103 21 264 21.8939 264 22.994Z" fill="#F8F9FA" fill-opacity="0.4"/>
<path d="M269 22.994C269 24.0942 268.103 24.9881 267 24.9881C265.897 24.9881 265 24.0942 265 22.994C265 21.8939 265.897 21 267 21C268.103 21 269 21.8939 269 22.994Z" fill="#F8F9FA" fill-opacity="0.4"/>
</svg>
