<svg width="296" height="109" viewBox="0 0 296 109" fill="none" xmlns="http://www.w3.org/2000/svg">
<path d="M0 0H296V109H0V0Z" fill="#FD7E14" fill-opacity="0.16"/>
<path d="M18 22C18 18.6863 20.6863 16 24 16H272C275.314 16 278 18.6863 278 22V109H18V22Z" fill="white"/>
<path d="M145.023 56H112.713C112.319 56 112 56.3191 112 56.7128V62.8916C112 63.2853 112.319 63.6044 112.713 63.6044H145.023C145.417 63.6044 145.736 63.2853 145.736 62.8916V56.7128C145.736 56.3191 145.417 56 145.023 56Z" fill="#DEE2E6"/>
<path d="M142.752 63.6091H114.987V65.7002H142.752V63.6091Z" fill="#DEE2E6"/>
<path d="M142.752 73.3047H114.987V75.3958H142.752V73.3047Z" fill="#DEE2E6"/>
<path d="M142.785 58.7141H131.81C131.539 58.7141 131.319 58.9339 131.319 59.205V60.4984C131.319 60.7695 131.539 60.9893 131.81 60.9893H142.785C143.056 60.9893 143.276 60.7695 143.276 60.4984V59.205C143.276 58.9339 143.056 58.7141 142.785 58.7141Z" fill="white"/>
<path d="M116.7 59.8517C116.7 60.4795 116.19 60.9893 115.562 60.9893C114.935 60.9893 114.425 60.4795 114.425 59.8517C114.425 59.2239 114.935 58.7141 115.562 58.7141C116.19 58.7141 116.7 59.2239 116.7 59.8517Z" fill="white"/>
<path d="M120.821 59.8517C120.821 60.4795 120.311 60.9893 119.683 60.9893C119.056 60.9893 118.546 60.4795 118.546 59.8517C118.546 59.2239 119.056 58.7141 119.683 58.7141C120.311 58.7141 120.821 59.2239 120.821 59.8517Z" fill="white"/>
<path d="M145.023 65.7002H112.713C112.319 65.7002 112 66.0193 112 66.4129V72.5918C112 72.9854 112.319 73.3046 112.713 73.3046H145.023C145.417 73.3046 145.736 72.9854 145.736 72.5918V66.4129C145.736 66.0193 145.417 65.7002 145.023 65.7002Z" fill="#DEE2E6"/>
<path d="M142.785 68.4146H131.81C131.539 68.4146 131.319 68.6343 131.319 68.9054V70.1988C131.319 70.4699 131.539 70.6897 131.81 70.6897H142.785C143.056 70.6897 143.276 70.4699 143.276 70.1988V68.9054C143.276 68.6343 143.056 68.4146 142.785 68.4146Z" fill="white"/>
<path d="M116.7 69.5521C116.7 70.1799 116.19 70.6897 115.562 70.6897C114.935 70.6897 114.425 70.1799 114.425 69.5521C114.425 68.9243 114.935 68.4146 115.562 68.4146C116.19 68.4146 116.7 68.9243 116.7 69.5521Z" fill="white"/>
<path d="M120.821 69.5521C120.821 70.1799 120.311 70.6897 119.683 70.6897C119.056 70.6897 118.546 70.1799 118.546 69.5521C118.546 68.9243 119.056 68.4146 119.683 68.4146C120.311 68.4146 120.821 68.9243 120.821 69.5521Z" fill="white"/>
<path d="M145.023 75.3955H112.713C112.319 75.3955 112 75.7146 112 76.1083V82.2871C112 82.6808 112.319 82.9999 112.713 82.9999H145.023C145.417 82.9999 145.736 82.6808 145.736 82.2871V76.1083C145.736 75.7146 145.417 75.3955 145.023 75.3955Z" fill="#DEE2E6"/>
<path d="M142.785 78.1096H131.81C131.539 78.1096 131.319 78.3294 131.319 78.6005V79.8939C131.319 80.165 131.539 80.3848 131.81 80.3848H142.785C143.056 80.3848 143.276 80.165 143.276 79.8939V78.6005C143.276 78.3294 143.056 78.1096 142.785 78.1096Z" fill="white"/>
<path d="M116.7 79.2472C116.7 79.875 116.19 80.3848 115.562 80.3848C114.935 80.3848 114.425 79.875 114.425 79.2472C114.425 78.6194 114.935 78.1096 115.562 78.1096C116.19 78.1096 116.7 78.6194 116.7 79.2472Z" fill="white"/>
<path d="M119.683 80.3848C120.312 80.3848 120.821 79.8755 120.821 79.2472C120.821 78.6189 120.312 78.1096 119.683 78.1096C119.055 78.1096 118.546 78.6189 118.546 79.2472C118.546 79.8755 119.055 80.3848 119.683 80.3848Z" fill="white"/>
<rect x="71" y="70" width="43" height="1" fill="#D9D9D9"/>
<rect x="31" y="41.9287" width="39.7744" height="58.104" stroke="#DEE2E6" stroke-width="2"/>
<path d="M53.25 48.7502H36.75C36.3522 48.7502 35.9706 48.9083 35.6893 49.1896C35.408 49.4709 35.25 49.8524 35.25 50.2502V63.7502C35.25 64.1481 35.408 64.5296 35.6893 64.8109C35.9706 65.0922 36.3522 65.2502 36.75 65.2502H53.25C53.6478 65.2502 54.0294 65.0922 54.3107 64.8109C54.592 64.5296 54.75 64.1481 54.75 63.7502V50.2502C54.75 49.8524 54.592 49.4709 54.3107 49.1896C54.0294 48.9083 53.6478 48.7502 53.25 48.7502ZM44.7188 57.5862L40.9688 60.5862C40.8918 60.6477 40.8035 60.6935 40.7088 60.721C40.6142 60.7484 40.5151 60.7569 40.4171 60.746C40.3192 60.7351 40.2244 60.7051 40.138 60.6575C40.0517 60.61 39.9756 60.5459 39.9141 60.469C39.8525 60.392 39.8067 60.3037 39.7793 60.2091C39.7519 60.1144 39.7433 60.0153 39.7542 59.9174C39.7651 59.8194 39.7952 59.7246 39.8427 59.6383C39.8902 59.552 39.9543 59.4759 40.0312 59.4143L43.0491 57.0002L40.0312 54.5862C39.9543 54.5246 39.8902 54.4485 39.8427 54.3622C39.7952 54.2759 39.7651 54.181 39.7542 54.0831C39.7433 53.9852 39.7519 53.8861 39.7793 53.7914C39.8067 53.6968 39.8525 53.6084 39.9141 53.5315C39.9756 53.4545 40.0517 53.3905 40.138 53.3429C40.2244 53.2954 40.3192 53.2653 40.4171 53.2545C40.5151 53.2436 40.6142 53.2521 40.7088 53.2795C40.8035 53.307 40.8918 53.3527 40.9688 53.4143L44.7188 56.4143C44.8067 56.4846 44.8777 56.5737 44.9265 56.6751C44.9753 56.7766 45.0006 56.8877 45.0006 57.0002C45.0006 57.1128 44.9753 57.2239 44.9265 57.3253C44.8777 57.4268 44.8067 57.5159 44.7188 57.5862ZM49.5 60.7502H45.75C45.5511 60.7502 45.3603 60.6712 45.2197 60.5306C45.079 60.3899 45 60.1992 45 60.0002C45 59.8013 45.079 59.6106 45.2197 59.4699C45.3603 59.3293 45.5511 59.2502 45.75 59.2502H49.5C49.6989 59.2502 49.8897 59.3293 50.0303 59.4699C50.171 59.6106 50.25 59.8013 50.25 60.0002C50.25 60.1992 50.171 60.3899 50.0303 60.5306C49.8897 60.6712 49.6989 60.7502 49.5 60.7502Z" fill="#DEE2E6"/>
<rect x="35" y="75.0002" width="31.9451" height="0.883882" fill="#DEE2E6"/>
<rect x="35" y="81.1875" width="28.8285" height="0.883882" fill="#DEE2E6"/>
<rect x="35" y="87.3748" width="9.3498" height="0.883882" fill="#DEE2E6"/>
<rect x="35" y="93.5618" width="19.4787" height="0.883882" fill="#DEE2E6"/>
<rect x="192.274" y="40.5" width="73" height="61" stroke="#DEE2E6"/>
<rect x="199" y="47" width="15" height="2" fill="#DEE2E6"/>
<rect x="199" y="72" width="15" height="2" fill="#DEE2E6"/>
<rect x="199" y="51" width="14" height="2" fill="#DEE2E6"/>
<rect x="199" y="76" width="14" height="2" fill="#DEE2E6"/>
<rect x="214" y="56" width="45" height="2" fill="#DEE2E6"/>
<rect x="214" y="82" width="45" height="2" fill="#DEE2E6"/>
<rect x="214" y="60" width="40" height="2" fill="#DEE2E6"/>
<rect x="214" y="86" width="40" height="2" fill="#DEE2E6"/>
<rect x="214" y="64" width="42" height="2" fill="#DEE2E6"/>
<rect x="214" y="90" width="42" height="2" fill="#DEE2E6"/>
<rect x="214" y="68" width="34" height="2" fill="#DEE2E6"/>
<rect x="214" y="94" width="34" height="2" fill="#DEE2E6"/>
<path d="M140.774 77H169.252V84H191.774" stroke="#DEE2E6"/>
<path d="M192 58H163.523V62H141" stroke="#DEE2E6"/>
<path opacity="0.8" d="M18 22C18 18.6863 20.6863 16 24 16H272C275.314 16 278 18.6863 278 22V29H18V22Z" fill="#FD7E14"/>
<path d="M259 22.994C259 24.0942 258.103 24.9881 257 24.9881C255.897 24.9881 255 24.0942 255 22.994C255 21.8939 255.897 21 257 21C258.103 21 259 21.8939 259 22.994Z" fill="white"/>
<path d="M264 22.994C264 24.0942 263.103 24.9881 262 24.9881C260.897 24.9881 260 24.0942 260 22.994C260 21.8939 260.897 21 262 21C263.103 21 264 21.8939 264 22.994Z" fill="#F8F9FA" fill-opacity="0.4"/>
<path d="M269 22.994C269 24.0942 268.103 24.9881 267 24.9881C265.897 24.9881 265 24.0942 265 22.994C265 21.8939 265.897 21 267 21C268.103 21 269 21.8939 269 22.994Z" fill="#F8F9FA" fill-opacity="0.4"/>
</svg>
