<svg width="42" height="42" viewBox="0 0 42 42" fill="none" xmlns="http://www.w3.org/2000/svg">
<rect width="42" height="42" fill="white"/>
<path d="M32.25 15H9.75C9.55109 15 9.36032 15.079 9.21967 15.2197C9.07902 15.3603 9 15.5511 9 15.75C9 15.9489 9.07902 16.1397 9.21967 16.2803C9.36032 16.421 9.55109 16.5 9.75 16.5H10.5V27C10.5 27.1989 10.579 27.3897 10.7197 27.5303C10.8603 27.671 11.0511 27.75 11.25 27.75C11.4489 27.75 11.6397 27.671 11.7803 27.5303C11.921 27.3897 12 27.1989 12 27V22.5H30V27C30 27.1989 30.079 27.3897 30.2197 27.5303C30.3603 27.671 30.5511 27.75 30.75 27.75C30.9489 27.75 31.1397 27.671 31.2803 27.5303C31.421 27.3897 31.5 27.1989 31.5 27V16.5H32.25C32.4489 16.5 32.6397 16.421 32.7803 16.2803C32.921 16.1397 33 15.9489 33 15.75C33 15.5511 32.921 15.3603 32.7803 15.2197C32.6397 15.079 32.4489 15 32.25 15ZM16.5 19.5H14.25C14.0511 19.5 13.8603 19.421 13.7197 19.2803C13.579 19.1397 13.5 18.9489 13.5 18.75C13.5 18.5511 13.579 18.3603 13.7197 18.2197C13.8603 18.079 14.0511 18 14.25 18H16.5C16.6989 18 16.8897 18.079 17.0303 18.2197C17.171 18.3603 17.25 18.5511 17.25 18.75C17.25 18.9489 17.171 19.1397 17.0303 19.2803C16.8897 19.421 16.6989 19.5 16.5 19.5ZM21.75 20.25C21.75 20.4489 21.671 20.6397 21.5303 20.7803C21.3897 20.921 21.1989 21 21 21C20.8011 21 20.6103 20.921 20.4697 20.7803C20.329 20.6397 20.25 20.4489 20.25 20.25V17.25C20.25 17.0511 20.329 16.8603 20.4697 16.7197C20.6103 16.579 20.8011 16.5 21 16.5C21.1989 16.5 21.3897 16.579 21.5303 16.7197C21.671 16.8603 21.75 17.0511 21.75 17.25V20.25ZM27.75 19.5H25.5C25.3011 19.5 25.1103 19.421 24.9697 19.2803C24.829 19.1397 24.75 18.9489 24.75 18.75C24.75 18.5511 24.829 18.3603 24.9697 18.2197C25.1103 18.079 25.3011 18 25.5 18H27.75C27.9489 18 28.1397 18.079 28.2803 18.2197C28.421 18.3603 28.5 18.5511 28.5 18.75C28.5 18.9489 28.421 19.1397 28.2803 19.2803C28.1397 19.421 27.9489 19.5 27.75 19.5Z" fill="#198754"/>
</svg>
