<svg width="42" height="42" viewBox="0 0 42 42" fill="none" xmlns="http://www.w3.org/2000/svg">
<rect width="42" height="42" fill="white"/>
<path d="M20.9999 15.5361C19.9183 15.5361 18.861 15.8569 17.9617 16.4578C17.0624 17.0587 16.3614 17.9127 15.9475 18.912C15.5336 19.9113 15.4253 21.0108 15.6363 22.0716C15.8473 23.1325 16.3682 24.1069 17.133 24.8717C17.8978 25.6365 18.8722 26.1573 19.933 26.3683C20.9938 26.5793 22.0934 26.471 23.0926 26.0571C24.0919 25.6432 24.946 24.9423 25.5469 24.043C26.1478 23.1437 26.4685 22.0864 26.4685 21.0048C26.4668 19.5549 25.8901 18.165 24.8649 17.1398C23.8397 16.1146 22.4497 15.5379 20.9999 15.5361Z" fill="#478AFF"/>
<path d="M28.8514 16.0212C30.2272 16.0212 31.3425 14.9059 31.3425 13.5301C31.3425 12.1544 30.2272 11.0391 28.8514 11.0391C27.4756 11.0391 26.3604 12.1544 26.3604 13.5301C26.3604 14.9059 27.4756 16.0212 28.8514 16.0212Z" fill="#478AFF"/>
<path d="M31.9192 16.0342L31.8147 15.8056L31.6515 15.995C31.2431 16.4584 30.7267 16.8139 30.148 17.0299L29.9848 17.0887L30.0501 17.252C30.9298 19.3677 31.0412 21.7246 30.3648 23.9138C29.6884 26.103 28.267 27.9864 26.3472 29.2371C24.4274 30.4879 22.1303 31.0271 19.8545 30.7612C17.5786 30.4954 15.4677 29.4412 13.8878 27.7816C12.308 26.122 11.359 23.9617 11.2054 21.6755C11.0519 19.3894 11.7035 17.1216 13.0472 15.2657C14.391 13.4097 16.342 12.0827 18.5619 11.5149C20.7817 10.9471 23.1303 11.1743 25.2001 12.1572L25.3536 12.2306L25.4205 12.0674C25.6644 11.5 26.0446 11.0015 26.5273 10.6161L26.7232 10.4529L26.4995 10.337C24.8005 9.45395 22.913 8.99524 20.9983 9.00004C18.4058 9.00041 15.8832 9.84032 13.8079 11.3941C11.7327 12.9478 10.2164 15.1319 9.48606 17.6193C8.7557 20.1067 8.85052 22.7638 9.75634 25.1929C10.6622 27.6219 12.3303 29.6923 14.511 31.0942C16.6917 32.4961 19.2678 33.154 21.8537 32.9696C24.4395 32.7852 26.8962 31.7683 28.8559 30.0711C30.8155 28.3739 32.1729 26.0878 32.7249 23.5547C33.2768 21.0217 32.9935 18.3781 31.9176 16.0195L31.9192 16.0342Z" fill="#478AFF"/>
</svg>
