<svg width="42" height="42" viewBox="0 0 42 42" fill="none" xmlns="http://www.w3.org/2000/svg">
<rect width="42" height="42" fill="white"/>
<path d="M30.9997 18.9999C30.1357 19.0014 29.2954 19.2821 28.6041 19.8003C27.9127 20.3184 27.4074 21.0461 27.1634 21.8749L21.8872 21.1249C21.6466 21.0909 21.4267 20.9705 21.2684 20.7861L16.8034 15.5687C17.6388 15.1453 18.2992 14.4422 18.6694 13.5819C19.0396 12.7216 19.0962 11.7587 18.8293 10.861C18.5624 9.96324 17.989 9.18762 17.209 8.66927C16.429 8.15091 15.4918 7.9227 14.5608 8.02439C13.6298 8.12608 12.764 8.55124 12.1142 9.22576C11.4645 9.90028 11.0721 10.7814 11.0053 11.7156C10.9385 12.6497 11.2017 13.5777 11.7489 14.3378C12.2961 15.0979 13.0926 15.6418 13.9997 15.8749V26.1249C13.057 26.3683 12.2355 26.9471 11.6891 27.7529C11.1427 28.5587 10.9089 29.5361 11.0316 30.5019C11.1542 31.4677 11.625 32.3556 12.3555 32.9992C13.086 33.6428 14.0261 33.9979 14.9997 33.9979C15.9733 33.9979 16.9134 33.6428 17.6439 32.9992C18.3744 32.3556 18.8451 31.4677 18.9678 30.5019C19.0905 29.5361 18.8567 28.5587 18.3103 27.7529C17.7639 26.9471 16.9423 26.3683 15.9997 26.1249V17.7036L19.7497 22.0787C20.2236 22.6316 20.8825 22.9932 21.6034 23.0962L27.1034 23.8812C27.2695 24.6162 27.6397 25.2894 28.1716 25.8232C28.7035 26.357 29.3753 26.7297 30.1098 26.8984C30.8442 27.0671 31.6114 27.0249 32.3229 26.7766C33.0344 26.5284 33.6613 26.0842 34.1314 25.4953C34.6015 24.9063 34.8956 24.1966 34.98 23.4477C35.0644 22.6989 34.9355 21.9415 34.6082 21.2627C34.281 20.5839 33.7686 20.0114 33.1302 19.6111C32.4918 19.2107 31.7532 18.9989 30.9997 18.9999ZM16.9997 29.9999C16.9997 30.3955 16.8824 30.7821 16.6626 31.111C16.4429 31.4399 16.1305 31.6963 15.7651 31.8477C15.3996 31.999 14.9975 32.0386 14.6095 31.9615C14.2215 31.8843 13.8652 31.6938 13.5855 31.4141C13.3058 31.1344 13.1153 30.778 13.0381 30.3901C12.9609 30.0021 13.0006 29.6 13.1519 29.2345C13.3033 28.8691 13.5597 28.5567 13.8886 28.337C14.2174 28.1172 14.6041 27.9999 14.9997 27.9999C15.5301 27.9999 16.0388 28.2106 16.4139 28.5857C16.789 28.9608 16.9997 29.4695 16.9997 29.9999ZM30.9997 24.9999C30.6041 24.9999 30.2174 24.8826 29.8885 24.6628C29.5597 24.4431 29.3033 24.1307 29.1519 23.7653C29.0006 23.3998 28.9609 22.9977 29.0381 22.6097C29.1153 22.2218 29.3058 21.8654 29.5855 21.5857C29.8652 21.306 30.2215 21.1155 30.6095 21.0383C30.9975 20.9612 31.3996 21.0008 31.7651 21.1521C32.1305 21.3035 32.4429 21.5599 32.6626 21.8888C32.8824 22.2177 32.9997 22.6043 32.9997 22.9999C32.9997 23.5303 32.789 24.039 32.4139 24.4141C32.0388 24.7892 31.5301 24.9999 30.9997 24.9999Z" fill="#343A40"/>
</svg>
