<svg width="42" height="42" viewBox="0 0 42 42" fill="none" xmlns="http://www.w3.org/2000/svg">
<rect width="42" height="42" fill="white"/>
<path d="M21 11.25C19.0716 11.25 17.1866 11.8218 15.5832 12.8932C13.9798 13.9645 12.7301 15.4873 11.9922 17.2688C11.2542 19.0504 11.0611 21.0108 11.4373 22.9021C11.8136 24.7934 12.7422 26.5307 14.1057 27.8943C15.4693 29.2579 17.2066 30.1865 19.0979 30.5627C20.9892 30.9389 22.9496 30.7458 24.7312 30.0078C26.5127 29.2699 28.0355 28.0202 29.1068 26.4168C30.1782 24.8134 30.75 22.9284 30.75 21C30.747 18.4151 29.7188 15.9368 27.891 14.109C26.0632 12.2812 23.585 11.253 21 11.25ZM28.3463 17.25H25.0041C24.5832 15.7059 23.8738 14.2553 22.9134 12.975C24.0738 13.2537 25.1602 13.7801 26.098 14.518C27.0359 15.2559 27.8032 16.1878 28.3472 17.25H28.3463ZM29.25 21C29.2507 21.7608 29.1456 22.5181 28.9378 23.25H25.3275C25.5575 21.7588 25.5575 20.2412 25.3275 18.75H28.9378C29.1456 19.4819 29.2507 20.2392 29.25 21ZM21 13.0312C22.1231 14.2336 22.9567 15.6765 23.4375 17.25H18.5625C19.0428 15.6763 19.8765 14.2333 21 13.0312ZM18.5625 24.75H23.4375C22.9572 26.3237 22.1235 27.7667 21 28.9688C19.877 27.7664 19.0433 26.3235 18.5625 24.75ZM18.1969 23.25C17.9394 21.7611 17.9394 20.2389 18.1969 18.75H23.8106C24.0681 20.2389 24.0681 21.7611 23.8106 23.25H18.1969ZM22.9172 29.025C23.8776 27.7447 24.5869 26.2941 25.0078 24.75H28.3509C27.8065 25.8126 27.0387 26.7448 26.1001 27.4827C25.1616 28.2206 24.0745 28.7467 22.9134 29.025H22.9172Z" fill="#0D6EFD"/>
</svg>
