<svg width="42" height="42" viewBox="0 0 42 42" fill="none" xmlns="http://www.w3.org/2000/svg">
<rect width="42" height="42" fill="white"/>
<path d="M21 11.25C19.0716 11.25 17.1866 11.8218 15.5832 12.8932C13.9798 13.9645 12.7301 15.4873 11.9922 17.2688C11.2542 19.0504 11.0611 21.0108 11.4373 22.9021C11.8136 24.7934 12.7422 26.5307 14.1057 27.8943C15.4693 29.2579 17.2066 30.1865 19.0979 30.5627C20.9892 30.9389 22.9496 30.7458 24.7312 30.0078C26.5127 29.2699 28.0355 28.0202 29.1068 26.4168C30.1782 24.8134 30.75 22.9284 30.75 21C30.7473 18.415 29.7192 15.9366 27.8913 14.1087C26.0634 12.2808 23.585 11.2527 21 11.25ZM25.2806 19.2806L20.0306 24.5306C19.961 24.6004 19.8783 24.6557 19.7872 24.6934C19.6962 24.7312 19.5986 24.7506 19.5 24.7506C19.4014 24.7506 19.3038 24.7312 19.2128 24.6934C19.1218 24.6557 19.039 24.6004 18.9694 24.5306L16.7194 22.2806C16.5786 22.1399 16.4996 21.949 16.4996 21.75C16.4996 21.551 16.5786 21.3601 16.7194 21.2194C16.8601 21.0786 17.051 20.9996 17.25 20.9996C17.449 20.9996 17.6399 21.0786 17.7806 21.2194L19.5 22.9397L24.2194 18.2194C24.2891 18.1497 24.3718 18.0944 24.4628 18.0567C24.5539 18.019 24.6515 17.9996 24.75 17.9996C24.8486 17.9996 24.9461 18.019 25.0372 18.0567C25.1282 18.0944 25.2109 18.1497 25.2806 18.2194C25.3503 18.2891 25.4056 18.3718 25.4433 18.4628C25.481 18.5539 25.5004 18.6515 25.5004 18.75C25.5004 18.8485 25.481 18.9461 25.4433 19.0372C25.4056 19.1282 25.3503 19.2109 25.2806 19.2806Z" fill="#00CC83"/>
</svg>
