<svg width="42" height="42" viewBox="0 0 42 42" fill="none" xmlns="http://www.w3.org/2000/svg">
<rect width="42" height="42" fill="white"/>
<path d="M29.25 12.75H12.75C12.3522 12.75 11.9706 12.908 11.6893 13.1893C11.408 13.4706 11.25 13.8522 11.25 14.25V27.75C11.25 28.1478 11.408 28.5294 11.6893 28.8107C11.9706 29.092 12.3522 29.25 12.75 29.25H29.25C29.6478 29.25 30.0294 29.092 30.3107 28.8107C30.592 28.5294 30.75 28.1478 30.75 27.75V14.25C30.75 13.8522 30.592 13.4706 30.3107 13.1893C30.0294 12.908 29.6478 12.75 29.25 12.75ZM20.7188 21.5859L16.9688 24.5859C16.8918 24.6475 16.8035 24.6933 16.7088 24.7207C16.6142 24.7481 16.5151 24.7567 16.4171 24.7458C16.3192 24.7349 16.2244 24.7048 16.138 24.6573C16.0517 24.6098 15.9756 24.5457 15.9141 24.4688C15.8525 24.3918 15.8067 24.3035 15.7793 24.2088C15.7519 24.1142 15.7433 24.0151 15.7542 23.9171C15.7651 23.8192 15.7952 23.7244 15.8427 23.638C15.8902 23.5517 15.9543 23.4756 16.0312 23.4141L19.0491 21L16.0312 18.5859C15.9543 18.5244 15.8902 18.4483 15.8427 18.362C15.7952 18.2756 15.7651 18.1808 15.7542 18.0829C15.7433 17.9849 15.7519 17.8858 15.7793 17.7912C15.8067 17.6965 15.8525 17.6082 15.9141 17.5312C15.9756 17.4543 16.0517 17.3902 16.138 17.3427C16.2244 17.2952 16.3192 17.2651 16.4171 17.2542C16.5151 17.2433 16.6142 17.2519 16.7088 17.2793C16.8035 17.3067 16.8918 17.3525 16.9688 17.4141L20.7188 20.4141C20.8067 20.4843 20.8777 20.5735 20.9265 20.6749C20.9753 20.7763 21.0006 20.8874 21.0006 21C21.0006 21.1126 20.9753 21.2237 20.9265 21.3251C20.8777 21.4265 20.8067 21.5157 20.7188 21.5859ZM25.5 24.75H21.75C21.5511 24.75 21.3603 24.671 21.2197 24.5303C21.079 24.3897 21 24.1989 21 24C21 23.8011 21.079 23.6103 21.2197 23.4697C21.3603 23.329 21.5511 23.25 21.75 23.25H25.5C25.6989 23.25 25.8897 23.329 26.0303 23.4697C26.171 23.6103 26.25 23.8011 26.25 24C26.25 24.1989 26.171 24.3897 26.0303 24.5303C25.8897 24.671 25.6989 24.75 25.5 24.75Z" fill="#00CC83"/>
</svg>
