<svg width="42" height="42" viewBox="0 0 42 42" fill="none" xmlns="http://www.w3.org/2000/svg">
<rect width="42" height="42" fill="white"/>
<path d="M28.5 12.75H13.5C13.1022 12.75 12.7206 12.908 12.4393 13.1893C12.158 13.4706 12 13.8522 12 14.25V19.5C12 24.4425 14.3925 27.4378 16.3997 29.0803C18.5616 30.8484 20.7122 31.4484 20.8059 31.4738C20.9348 31.5088 21.0708 31.5088 21.1997 31.4738C21.2934 31.4484 23.4413 30.8484 25.6059 29.0803C27.6075 27.4378 30 24.4425 30 19.5V14.25C30 13.8522 29.842 13.4706 29.5607 13.1893C29.2794 12.908 28.8978 12.75 28.5 12.75ZM25.2825 19.2806L20.0325 24.5306C19.9628 24.6004 19.8801 24.6557 19.7891 24.6934C19.698 24.7312 19.6004 24.7506 19.5019 24.7506C19.4033 24.7506 19.3057 24.7312 19.2147 24.6934C19.1236 24.6557 19.0409 24.6004 18.9713 24.5306L16.7213 22.2806C16.5805 22.1399 16.5015 21.949 16.5015 21.75C16.5015 21.551 16.5805 21.3601 16.7213 21.2194C16.862 21.0786 17.0529 20.9996 17.2519 20.9996C17.4509 20.9996 17.6418 21.0786 17.7825 21.2194L19.5 22.9397L24.2194 18.2194C24.2891 18.1497 24.3718 18.0944 24.4628 18.0567C24.5539 18.019 24.6515 17.9996 24.75 17.9996C24.8485 17.9996 24.9461 18.019 25.0372 18.0567C25.1282 18.0944 25.2109 18.1497 25.2806 18.2194C25.3503 18.2891 25.4056 18.3718 25.4433 18.4628C25.481 18.5539 25.5004 18.6515 25.5004 18.75C25.5004 18.8485 25.481 18.9461 25.4433 19.0372C25.4056 19.1282 25.3503 19.2109 25.2806 19.2806H25.2825Z" fill="#FD7E14"/>
</svg>
