<svg width="42" height="42" viewBox="0 0 42 42" fill="none" xmlns="http://www.w3.org/2000/svg">
<rect width="42" height="42" fill="white"/>
<path d="M28.5 12.75H13.5C13.1022 12.75 12.7206 12.908 12.4393 13.1893C12.158 13.4706 12 13.8522 12 14.25V19.5C12 24.4425 14.3925 27.4378 16.3997 29.0803C18.5616 30.8484 20.7122 31.4494 20.8059 31.4738C20.9348 31.5088 21.0708 31.5088 21.1997 31.4738C21.2934 31.4494 23.4413 30.8484 25.6059 29.0803C27.6075 27.4378 30 24.4425 30 19.5V14.25C30 13.8522 29.842 13.4706 29.5607 13.1893C29.2794 12.908 28.8978 12.75 28.5 12.75ZM25.0312 20.9466L22.1897 22.0828L23.85 24.3C23.9693 24.4591 24.0206 24.6592 23.9925 24.8561C23.9643 25.053 23.8591 25.2307 23.7 25.35C23.5409 25.4693 23.3408 25.5206 23.1439 25.4925C22.947 25.4643 22.7693 25.3591 22.65 25.2L21 22.9997L19.35 25.2C19.2909 25.2788 19.2169 25.3452 19.1321 25.3954C19.0474 25.4455 18.9536 25.4785 18.8561 25.4925C18.7586 25.5064 18.6593 25.501 18.5639 25.4765C18.4685 25.4521 18.3788 25.4091 18.3 25.35C18.2212 25.2909 18.1548 25.2169 18.1046 25.1321C18.0545 25.0474 18.0215 24.9536 18.0075 24.8561C17.9936 24.7586 17.999 24.6593 18.0235 24.5639C18.0479 24.4685 18.0909 24.3788 18.15 24.3L19.8131 22.0828L16.9688 20.9466C16.784 20.872 16.6365 20.727 16.5586 20.5437C16.52 20.4529 16.4997 20.3554 16.4988 20.2567C16.4979 20.1581 16.5165 20.0602 16.5534 19.9688C16.5904 19.8773 16.645 19.794 16.7141 19.7236C16.7832 19.6532 16.8655 19.5971 16.9563 19.5586C17.1397 19.4807 17.3465 19.4788 17.5312 19.5534L20.25 20.6419V18C20.25 17.8011 20.329 17.6103 20.4697 17.4697C20.6103 17.329 20.8011 17.25 21 17.25C21.1989 17.25 21.3897 17.329 21.5303 17.4697C21.671 17.6103 21.75 17.8011 21.75 18V20.6419L24.4688 19.5534C24.5602 19.5165 24.6581 19.4979 24.7567 19.4988C24.8554 19.4997 24.9529 19.52 25.0437 19.5586C25.1345 19.5971 25.2168 19.6532 25.2859 19.7236C25.355 19.794 25.4096 19.8773 25.4466 19.9688C25.4835 20.0602 25.5021 20.1581 25.5012 20.2567C25.5003 20.3554 25.48 20.4529 25.4414 20.5437C25.4029 20.6345 25.3468 20.7168 25.2764 20.7859C25.206 20.855 25.1227 20.9096 25.0312 20.9466Z" fill="#0D6EFD"/>
</svg>
