<svg width="42" height="42" viewBox="0 0 42 42" fill="none" xmlns="http://www.w3.org/2000/svg">
<rect width="42" height="42" fill="white"/>
<path d="M24.4189 27.3404C24.4927 27.4536 24.5346 27.5845 24.5401 27.7195C24.5456 27.8545 24.5145 27.9885 24.4502 28.1073C24.3858 28.2261 24.2906 28.3253 24.1745 28.3944C24.0585 28.4636 23.9259 28.5001 23.7908 28.5001H9.95889C9.8238 28.5001 9.69121 28.4636 9.57515 28.3944C9.45908 28.3253 9.36385 28.2261 9.29951 28.1073C9.23516 27.9885 9.2041 27.8545 9.20961 27.7195C9.21511 27.5845 9.25697 27.4536 9.33077 27.3404C10.3865 25.7154 11.9394 24.4752 13.7576 23.8051C12.7525 23.1359 11.9893 22.161 11.581 21.0245C11.1728 19.888 11.1411 18.6504 11.4907 17.4945C11.8402 16.3386 12.5525 15.3259 13.5221 14.6062C14.4917 13.8864 15.6673 13.4978 16.8748 13.4978C18.0824 13.4978 19.2579 13.8864 20.2275 14.6062C21.1972 15.3259 21.9094 16.3386 22.259 17.4945C22.6086 18.6504 22.5769 19.888 22.1686 21.0245C21.7604 22.161 20.9972 23.1359 19.992 23.8051C21.8103 24.4752 23.3632 25.7154 24.4189 27.3404ZM32.6605 27.3263C31.6044 25.7081 30.0551 24.4734 28.242 23.8051C29.4287 23.0057 30.2662 21.7842 30.5839 20.3892C30.9017 18.9941 30.676 17.5304 29.9526 16.2959C29.2292 15.0615 28.0626 14.1491 26.6902 13.7444C25.3178 13.3398 23.8428 13.4733 22.5655 14.1179C22.5166 14.1431 22.4739 14.1788 22.4404 14.2223C22.4068 14.2659 22.3833 14.3163 22.3714 14.3699C22.3595 14.4236 22.3595 14.4792 22.3715 14.5329C22.3835 14.5865 22.4072 14.6369 22.4408 14.6804C23.3906 15.8652 23.9361 17.3231 23.9973 18.8404C24.0586 20.3577 23.6324 21.8548 22.7811 23.1123C22.7261 23.1945 22.7057 23.295 22.7245 23.3921C22.7433 23.4892 22.7997 23.575 22.8814 23.6307C23.9913 24.4053 24.9414 25.3867 25.6798 26.521C25.9776 26.9771 26.0993 27.5259 26.022 28.0651C26.0133 28.1187 26.0164 28.1736 26.031 28.2259C26.0456 28.2783 26.0714 28.3268 26.1066 28.3682C26.1419 28.4095 26.1857 28.4428 26.235 28.4655C26.2843 28.4883 26.338 28.5001 26.3923 28.5001H32.0455C32.2106 28.5001 32.3712 28.4457 32.5022 28.3452C32.6332 28.2446 32.7274 28.1037 32.7701 27.9441C32.7962 27.8392 32.7999 27.73 32.781 27.6236C32.7621 27.5171 32.7211 27.4159 32.6605 27.3263Z" fill="#FD7E14"/>
</svg>
