<svg width="42" height="42" viewBox="0 0 42 42" fill="none" xmlns="http://www.w3.org/2000/svg">
<rect width="42" height="42" fill="white"/>
<path d="M24.8972 15.8053C24.2184 14.2161 23.0118 12.9102 21.4812 12.1081C19.9506 11.306 18.1901 11.0571 16.4971 11.4034C14.8042 11.7496 13.2827 12.6698 12.19 14.0085C11.0973 15.3471 10.5003 17.0219 10.5 18.7499V24.7499C10.5 25.1478 10.658 25.5293 10.9393 25.8106C11.2206 26.0919 11.6022 26.2499 12 26.2499H17.1253C17.7106 27.5865 18.6723 28.7237 19.8931 29.5228C21.1139 30.3219 22.5409 30.7483 24 30.7499H30C30.3978 30.7499 30.7794 30.5919 31.0607 30.3106C31.342 30.0293 31.5 29.6478 31.5 29.2499V23.2499C31.4996 21.4164 30.8277 19.6466 29.6111 18.2749C28.3945 16.9031 26.7175 16.0246 24.8972 15.8053ZM30 29.2499H24C22.939 29.2487 21.8973 28.9668 20.9805 28.4329C20.0637 27.8989 19.3045 27.1319 18.78 26.2096C19.8072 26.103 20.8013 25.7852 21.6999 25.2762C22.5985 24.7672 23.3822 24.0779 24.0018 23.2517C24.6213 22.4254 25.0634 21.48 25.3003 20.4748C25.5371 19.4695 25.5636 18.4262 25.3781 17.4103C26.6937 17.7207 27.8659 18.4663 28.7048 19.5262C29.5436 20.5861 30 21.8982 30 23.2499V29.2499Z" fill="#198754"/>
</svg>
