<svg width="42" height="42" viewBox="0 0 42 42" fill="none" xmlns="http://www.w3.org/2000/svg">
<rect width="42" height="42" fill="white"/>
<path d="M21 11.25C15.9534 11.25 12 13.5563 12 16.5V25.5C12 28.4438 15.9534 30.75 21 30.75C26.0466 30.75 30 28.4438 30 25.5V16.5C30 13.5563 26.0466 11.25 21 11.25ZM28.5 21C28.5 21.9019 27.7612 22.8216 26.4741 23.5238C25.0247 24.3141 23.0803 24.75 21 24.75C18.9197 24.75 16.9753 24.3141 15.5259 23.5238C14.2387 22.8216 13.5 21.9019 13.5 21V19.44C15.0994 20.8463 17.8341 21.75 21 21.75C24.1659 21.75 26.9006 20.8425 28.5 19.44V21ZM26.4741 28.0238C25.0247 28.8141 23.0803 29.25 21 29.25C18.9197 29.25 16.9753 28.8141 15.5259 28.0238C14.2387 27.3216 13.5 26.4019 13.5 25.5V23.94C15.0994 25.3463 17.8341 26.25 21 26.25C24.1659 26.25 26.9006 25.3425 28.5 23.94V25.5C28.5 26.4019 27.7612 27.3216 26.4741 28.0238Z" fill="#198754"/>
</svg>
