<svg width="42" height="42" viewBox="0 0 42 42" fill="none" xmlns="http://www.w3.org/2000/svg">
<rect width="42" height="42" fill="white"/>
<path d="M30.875 10H11.125C10.5614 10 10.0209 10.2239 9.6224 10.6224C9.22388 11.0209 9 11.5614 9 12.125V18.2762C9.00053 18.6846 9.1187 19.0842 9.34039 19.4271C9.56207 19.77 9.87787 20.0419 10.25 20.21L18.075 23.7663C16.9164 24.4146 16.0055 25.429 15.4851 26.6504C14.9647 27.8719 14.8641 29.2314 15.1992 30.5162C15.5342 31.8009 16.2859 32.9383 17.3365 33.75C18.3871 34.5618 19.6773 35.0022 21.005 35.0022C22.3327 35.0022 23.6229 34.5618 24.6735 33.75C25.7241 32.9383 26.4758 31.8009 26.8108 30.5162C27.1459 29.2314 27.0453 27.8719 26.5249 26.6504C26.0045 25.429 25.0936 24.4146 23.935 23.7663L31.75 20.21C32.1221 20.0419 32.4379 19.77 32.6596 19.4271C32.8813 19.0842 32.9995 18.6846 33 18.2762V12.125C33 11.5614 32.7761 11.0209 32.3776 10.6224C31.9791 10.2239 31.4386 10 30.875 10ZM17 12H25V21.0837L21 22.9013L17 21.0837V12ZM21 33C20.2089 33 19.4355 32.7654 18.7777 32.3259C18.1199 31.8864 17.6072 31.2616 17.3045 30.5307C17.0017 29.7998 16.9225 28.9956 17.0769 28.2196C17.2312 27.4437 17.6122 26.731 18.1716 26.1716C18.731 25.6122 19.4437 25.2312 20.2196 25.0769C20.9956 24.9225 21.7998 25.0017 22.5307 25.3045C23.2616 25.6072 23.8864 26.1199 24.3259 26.7777C24.7654 27.4355 25 28.2089 25 29C25 30.0609 24.5786 31.0783 23.8284 31.8284C23.0783 32.5786 22.0609 33 21 33Z" fill="#343A40"/>
</svg>
