<svg width="42" height="42" viewBox="0 0 42 42" fill="none" xmlns="http://www.w3.org/2000/svg">
<rect width="42" height="42" fill="white"/>
<path d="M29.25 12.75H12.75C12.3522 12.75 11.9706 12.908 11.6893 13.1893C11.408 13.4706 11.25 13.8522 11.25 14.25V27.75C11.25 28.1478 11.408 28.5294 11.6893 28.8107C11.9706 29.092 12.3522 29.25 12.75 29.25H29.25C29.6478 29.25 30.0294 29.092 30.3107 28.8107C30.592 28.5294 30.75 28.1478 30.75 27.75V14.25C30.75 13.8522 30.592 13.4706 30.3107 13.1893C30.0294 12.908 29.6478 12.75 29.25 12.75ZM27.75 25.5H23.3381C23.0594 25.5009 22.7861 25.4237 22.549 25.2773C22.3119 25.1308 22.1205 24.9209 21.9966 24.6713L18.6619 18H14.25C14.0511 18 13.8603 17.921 13.7197 17.7803C13.579 17.6397 13.5 17.4489 13.5 17.25C13.5 17.0511 13.579 16.8603 13.7197 16.7197C13.8603 16.579 14.0511 16.5 14.25 16.5H18.6619C18.9406 16.4991 19.2139 16.5763 19.451 16.7227C19.6881 16.8692 19.8795 17.0791 20.0034 17.3287L23.3381 24H27.75C27.9489 24 28.1397 24.079 28.2803 24.2197C28.421 24.3603 28.5 24.5511 28.5 24.75C28.5 24.9489 28.421 25.1397 28.2803 25.2803C28.1397 25.421 27.9489 25.5 27.75 25.5ZM27.75 18H23.25C23.0511 18 22.8603 17.921 22.7197 17.7803C22.579 17.6397 22.5 17.4489 22.5 17.25C22.5 17.0511 22.579 16.8603 22.7197 16.7197C22.8603 16.579 23.0511 16.5 23.25 16.5H27.75C27.9489 16.5 28.1397 16.579 28.2803 16.7197C28.421 16.8603 28.5 17.0511 28.5 17.25C28.5 17.4489 28.421 17.6397 28.2803 17.7803C28.1397 17.921 27.9489 18 27.75 18Z" fill="#6610F2"/>
</svg>
