<svg width="42" height="42" viewBox="0 0 42 42" fill="none" xmlns="http://www.w3.org/2000/svg">
<rect width="42" height="42" fill="white"/>
<path d="M28.5 12.75H13.5C12.9033 12.75 12.331 12.9871 11.909 13.409C11.4871 13.831 11.25 14.4033 11.25 15V25.5C11.25 26.0967 11.4871 26.669 11.909 27.091C12.331 27.5129 12.9033 27.75 13.5 27.75H20.25V29.25H18C17.8011 29.25 17.6103 29.329 17.4697 29.4697C17.329 29.6103 17.25 29.8011 17.25 30C17.25 30.1989 17.329 30.3897 17.4697 30.5303C17.6103 30.671 17.8011 30.75 18 30.75H24C24.1989 30.75 24.3897 30.671 24.5303 30.5303C24.671 30.3897 24.75 30.1989 24.75 30C24.75 29.8011 24.671 29.6103 24.5303 29.4697C24.3897 29.329 24.1989 29.25 24 29.25H21.75V27.75H28.5C29.0967 27.75 29.669 27.5129 30.091 27.091C30.5129 26.669 30.75 26.0967 30.75 25.5V15C30.75 14.4033 30.5129 13.831 30.091 13.409C29.669 12.9871 29.0967 12.75 28.5 12.75ZM28.5 26.25H13.5C13.3011 26.25 13.1103 26.171 12.9697 26.0303C12.829 25.8897 12.75 25.6989 12.75 25.5V24H29.25V25.5C29.25 25.6989 29.171 25.8897 29.0303 26.0303C28.8897 26.171 28.6989 26.25 28.5 26.25Z" fill="#6610F2"/>
</svg>
