<svg width="42" height="42" viewBox="0 0 42 42" fill="none" xmlns="http://www.w3.org/2000/svg">
<rect width="42" height="42" fill="white"/>
<path d="M24.7502 20.9999C24.7502 21.7416 24.5303 22.4666 24.1182 23.0833C23.7062 23.7 23.1205 24.1806 22.4353 24.4644C21.7501 24.7483 20.9961 24.8225 20.2686 24.6778C19.5412 24.5331 18.873 24.176 18.3486 23.6515C17.8241 23.1271 17.467 22.4589 17.3223 21.7315C17.1776 21.004 17.2519 20.25 17.5357 19.5648C17.8195 18.8796 18.3002 18.2939 18.9168 17.8819C19.5335 17.4698 20.2586 17.2499 21.0002 17.2499C21.9948 17.2499 22.9486 17.645 23.6519 18.3482C24.3551 19.0515 24.7502 20.0053 24.7502 20.9999ZM28.5002 20.9999C28.5025 19.1548 27.8223 17.374 26.5905 16.0002C26.5254 15.925 26.4459 15.8636 26.3567 15.8194C26.2676 15.7752 26.1705 15.7493 26.0712 15.743C25.9719 15.7367 25.8724 15.7502 25.7784 15.7828C25.6844 15.8153 25.5978 15.8663 25.5236 15.9327C25.4495 15.999 25.3893 16.0795 25.3466 16.1693C25.3038 16.2592 25.2794 16.3566 25.2747 16.456C25.27 16.5554 25.2851 16.6547 25.3191 16.7482C25.3532 16.8417 25.4055 16.9274 25.473 17.0005C26.4569 18.1005 27.0008 19.5246 27.0008 21.0004C27.0008 22.4762 26.4569 23.9002 25.473 25.0002C25.3441 25.1489 25.2788 25.3424 25.2912 25.5389C25.3037 25.7353 25.3929 25.919 25.5395 26.0503C25.6862 26.1816 25.8786 26.2499 26.0752 26.2406C26.2719 26.2313 26.4569 26.1451 26.5905 26.0005C27.8221 24.6263 28.5023 22.8453 28.5002 20.9999ZM16.5274 17.0005C16.5949 16.9274 16.6473 16.8417 16.6813 16.7482C16.7154 16.6547 16.7305 16.5554 16.7258 16.456C16.7211 16.3566 16.6966 16.2592 16.6539 16.1693C16.6112 16.0795 16.551 15.999 16.4768 15.9327C16.4027 15.8663 16.3161 15.8153 16.2221 15.7828C16.1281 15.7502 16.0285 15.7367 15.9292 15.743C15.8299 15.7493 15.7329 15.7752 15.6437 15.8194C15.5546 15.8636 15.4751 15.925 15.4099 16.0002C14.1788 17.3747 13.498 19.1551 13.498 21.0004C13.498 22.8456 14.1788 24.626 15.4099 26.0005C15.5435 26.1451 15.7286 26.2313 15.9252 26.2406C16.1219 26.2499 16.3143 26.1816 16.4609 26.0503C16.6076 25.919 16.6968 25.7353 16.7092 25.5389C16.7217 25.3424 16.6564 25.1489 16.5274 25.0002C15.5426 23.9006 14.9981 22.4764 14.9981 21.0004C14.9981 19.5243 15.5426 18.1001 16.5274 17.0005ZM31.3662 16.6255C30.8173 15.322 30.0265 14.1342 29.0355 13.1249C28.9672 13.0519 28.885 12.9932 28.7937 12.9524C28.7025 12.9117 28.6039 12.8895 28.504 12.8874C28.404 12.8852 28.3046 12.9031 28.2117 12.9399C28.1187 12.9767 28.034 13.0317 27.9626 13.1017C27.8913 13.1718 27.8346 13.2553 27.796 13.3476C27.7574 13.4398 27.7376 13.5388 27.7378 13.6388C27.738 13.7388 27.7582 13.8377 27.7972 13.9298C27.8362 14.0218 27.8932 14.1052 27.9649 14.1749C29.7525 15.9961 30.7539 18.4461 30.7539 20.998C30.7539 23.5499 29.7525 25.9999 27.9649 27.8211C27.8957 27.8914 27.8411 27.9747 27.804 28.0661C27.767 28.1575 27.7484 28.2553 27.7492 28.354C27.7499 28.4526 27.7701 28.5501 27.8086 28.641C27.8471 28.7318 27.9031 28.8141 27.9734 28.8833C28.0437 28.9525 28.1269 29.0072 28.2183 29.0442C28.3097 29.0812 28.4076 29.0999 28.5062 29.0991C28.6048 29.0983 28.7023 29.0781 28.7932 29.0396C28.884 29.0012 28.9664 28.9452 29.0355 28.8749C30.5883 27.2893 31.6378 25.2802 32.0525 23.1C32.4671 20.9198 32.2284 18.6658 31.3662 16.6208V16.6255ZM12.0162 24.7949C11.2668 23.0234 11.0586 21.0697 11.418 19.18C11.7774 17.2904 12.6882 15.5495 14.0355 14.1768C14.175 14.0348 14.2524 13.8432 14.2507 13.6442C14.2489 13.4452 14.1681 13.255 14.0262 13.1155C13.8842 12.976 13.6926 12.8987 13.4936 12.9004C13.2946 12.9022 13.1044 12.9829 12.9649 13.1249C10.9007 15.2263 9.74414 18.0542 9.74414 20.9999C9.74414 23.9456 10.9007 26.7735 12.9649 28.8749C13.0332 28.9479 13.1154 29.0065 13.2067 29.0473C13.298 29.0881 13.3965 29.1102 13.4965 29.1124C13.5965 29.1146 13.6958 29.0967 13.7888 29.0599C13.8818 29.0231 13.9664 28.968 14.0378 28.898C14.1092 28.828 14.1659 28.7444 14.2045 28.6522C14.2431 28.56 14.2629 28.461 14.2627 28.361C14.2625 28.261 14.2423 28.1621 14.2033 28.07C14.1642 27.9779 14.1072 27.8946 14.0355 27.8249C13.1774 26.9512 12.4923 25.9232 12.0162 24.7949Z" fill="#343A40"/>
</svg>
