<svg width="42" height="42" viewBox="0 0 42 42" fill="none" xmlns="http://www.w3.org/2000/svg">
<rect width="42" height="42" fill="white"/>
<path d="M29.25 12.75H12.75C12.3522 12.75 11.9706 12.908 11.6893 13.1893C11.408 13.4706 11.25 13.8522 11.25 14.25V26.25C11.25 26.6478 11.408 27.0294 11.6893 27.3107C11.9706 27.592 12.3522 27.75 12.75 27.75H18.4153L19.6978 29.9944C19.829 30.2239 20.0186 30.4146 20.2473 30.5473C20.4759 30.68 20.7356 30.7499 21 30.7499C21.2644 30.7499 21.5241 30.68 21.7527 30.5473C21.9814 30.4146 22.171 30.2239 22.3022 29.9944L23.5847 27.75H29.25C29.6478 27.75 30.0294 27.592 30.3107 27.3107C30.592 27.0294 30.75 26.6478 30.75 26.25V14.25C30.75 13.8522 30.592 13.4706 30.3107 13.1893C30.0294 12.908 29.6478 12.75 29.25 12.75ZM24 22.5H18C17.8011 22.5 17.6103 22.421 17.4697 22.2803C17.329 22.1397 17.25 21.9489 17.25 21.75C17.25 21.5511 17.329 21.3603 17.4697 21.2197C17.6103 21.079 17.8011 21 18 21H24C24.1989 21 24.3897 21.079 24.5303 21.2197C24.671 21.3603 24.75 21.5511 24.75 21.75C24.75 21.9489 24.671 22.1397 24.5303 22.2803C24.3897 22.421 24.1989 22.5 24 22.5ZM24 19.5H18C17.8011 19.5 17.6103 19.421 17.4697 19.2803C17.329 19.1397 17.25 18.9489 17.25 18.75C17.25 18.5511 17.329 18.3603 17.4697 18.2197C17.6103 18.079 17.8011 18 18 18H24C24.1989 18 24.3897 18.079 24.5303 18.2197C24.671 18.3603 24.75 18.5511 24.75 18.75C24.75 18.9489 24.671 19.1397 24.5303 19.2803C24.3897 19.421 24.1989 19.5 24 19.5Z" fill="#198754"/>
</svg>
