<svg width="42" height="42" viewBox="0 0 42 42" fill="none" xmlns="http://www.w3.org/2000/svg">
<rect width="42" height="42" fill="white"/>
<path d="M28.4999 22.5C28.5018 22.8058 28.4089 23.1047 28.234 23.3555C28.059 23.6063 27.8107 23.7968 27.523 23.9006L22.6874 25.6875L20.9062 30.5269C20.8007 30.8134 20.6098 31.0608 20.3594 31.2355C20.1089 31.4101 19.8109 31.5038 19.5055 31.5038C19.2002 31.5038 18.9022 31.4101 18.6517 31.2355C18.4012 31.0608 18.2104 30.8134 18.1049 30.5269L16.3124 25.6875L11.473 23.9062C11.1865 23.8008 10.9391 23.6099 10.7645 23.3595C10.5898 23.109 10.4961 22.811 10.4961 22.5056C10.4961 22.2003 10.5898 21.9022 10.7645 21.6518C10.9391 21.4013 11.1865 21.2105 11.473 21.105L16.3124 19.3125L18.0937 14.4731C18.1991 14.1866 18.39 13.9392 18.6404 13.7645C18.8909 13.5899 19.1889 13.4962 19.4943 13.4962C19.7996 13.4962 20.0977 13.5899 20.3481 13.7645C20.5986 13.9392 20.7894 14.1866 20.8949 14.4731L22.6874 19.3125L27.5268 21.0938C27.8146 21.1986 28.0628 21.3901 28.2371 21.642C28.4114 21.8939 28.5033 22.1937 28.4999 22.5ZM23.2499 13.5H24.7499V15C24.7499 15.1989 24.8289 15.3897 24.9696 15.5303C25.1102 15.671 25.301 15.75 25.4999 15.75C25.6988 15.75 25.8896 15.671 26.0302 15.5303C26.1709 15.3897 26.2499 15.1989 26.2499 15V13.5H27.7499C27.9488 13.5 28.1396 13.421 28.2802 13.2803C28.4209 13.1397 28.4999 12.9489 28.4999 12.75C28.4999 12.5511 28.4209 12.3603 28.2802 12.2197C28.1396 12.079 27.9488 12 27.7499 12H26.2499V10.5C26.2499 10.3011 26.1709 10.1103 26.0302 9.96967C25.8896 9.82902 25.6988 9.75 25.4999 9.75C25.301 9.75 25.1102 9.82902 24.9696 9.96967C24.8289 10.1103 24.7499 10.3011 24.7499 10.5V12H23.2499C23.051 12 22.8602 12.079 22.7196 12.2197C22.5789 12.3603 22.4999 12.5511 22.4999 12.75C22.4999 12.9489 22.5789 13.1397 22.7196 13.2803C22.8602 13.421 23.051 13.5 23.2499 13.5ZM31.4999 16.5H30.7499V15.75C30.7499 15.5511 30.6709 15.3603 30.5302 15.2197C30.3896 15.079 30.1988 15 29.9999 15C29.801 15 29.6102 15.079 29.4696 15.2197C29.3289 15.3603 29.2499 15.5511 29.2499 15.75V16.5H28.4999C28.301 16.5 28.1102 16.579 27.9696 16.7197C27.8289 16.8603 27.7499 17.0511 27.7499 17.25C27.7499 17.4489 27.8289 17.6397 27.9696 17.7803C28.1102 17.921 28.301 18 28.4999 18H29.2499V18.75C29.2499 18.9489 29.3289 19.1397 29.4696 19.2803C29.6102 19.421 29.801 19.5 29.9999 19.5C30.1988 19.5 30.3896 19.421 30.5302 19.2803C30.6709 19.1397 30.7499 18.9489 30.7499 18.75V18H31.4999C31.6988 18 31.8896 17.921 32.0302 17.7803C32.1709 17.6397 32.2499 17.4489 32.2499 17.25C32.2499 17.0511 32.1709 16.8603 32.0302 16.7197C31.8896 16.579 31.6988 16.5 31.4999 16.5Z" fill="#00CC83"/>
</svg>
