<svg width="42" height="42" viewBox="0 0 42 42" fill="none" xmlns="http://www.w3.org/2000/svg">
<rect width="42" height="42" fill="white"/>
<path d="M30.75 20.25H29.9681C29.8804 19.1805 29.6003 18.1356 29.1413 17.1656L29.8191 16.7747C29.9914 16.6752 30.1171 16.5114 30.1686 16.3192C30.2201 16.1271 30.1932 15.9223 30.0938 15.75C29.9943 15.5777 29.8305 15.452 29.6383 15.4004C29.4461 15.3489 29.2414 15.3759 29.0691 15.4753L28.3894 15.8681C27.7759 14.9884 27.0116 14.2241 26.1319 13.6106L26.5247 12.9309C26.6241 12.7586 26.6511 12.5539 26.5996 12.3617C26.548 12.1695 26.4223 12.0057 26.25 11.9062C26.0777 11.8068 25.8729 11.7799 25.6808 11.8314C25.4886 11.8829 25.3248 12.0086 25.2253 12.1809L24.8344 12.8587C23.8644 12.3997 22.8195 12.1196 21.75 12.0319V11.25C21.75 11.0511 21.671 10.8603 21.5303 10.7197C21.3897 10.579 21.1989 10.5 21 10.5C20.8011 10.5 20.6103 10.579 20.4697 10.7197C20.329 10.8603 20.25 11.0511 20.25 11.25V12.0319C19.1805 12.1196 18.1356 12.3997 17.1656 12.8587L16.7747 12.1809C16.6752 12.0086 16.5114 11.8829 16.3192 11.8314C16.1271 11.7799 15.9223 11.8068 15.75 11.9062C15.5777 12.0057 15.452 12.1695 15.4004 12.3617C15.3489 12.5539 15.3759 12.7586 15.4753 12.9309L15.8681 13.6106C14.9884 14.2241 14.2241 14.9884 13.6106 15.8681L12.9309 15.4753C12.8456 15.4261 12.7514 15.3941 12.6538 15.3813C12.5561 15.3684 12.4569 15.3749 12.3617 15.4004C12.1695 15.452 12.0057 15.5777 11.9062 15.75C11.8068 15.9223 11.7799 16.1271 11.8314 16.3192C11.8829 16.5114 12.0086 16.6752 12.1809 16.7747L12.8587 17.1656C12.3997 18.1356 12.1196 19.1805 12.0319 20.25H11.25C11.0511 20.25 10.8603 20.329 10.7197 20.4697C10.579 20.6103 10.5 20.8011 10.5 21C10.5 21.1989 10.579 21.3897 10.7197 21.5303C10.8603 21.671 11.0511 21.75 11.25 21.75H12.0319C12.1196 22.8195 12.3997 23.8644 12.8587 24.8344L12.1809 25.2253C12.0379 25.3078 11.926 25.4353 11.8628 25.5878C11.7996 25.7404 11.7885 25.9096 11.8312 26.0691C11.8739 26.2286 11.9681 26.3696 12.0992 26.4701C12.2302 26.5706 12.3908 26.6251 12.5559 26.625C12.6876 26.6254 12.817 26.5908 12.9309 26.5247L13.6106 26.1319C14.2241 27.0116 14.9884 27.7759 15.8681 28.3894L15.4753 29.0691C15.3759 29.2414 15.3489 29.4461 15.4004 29.6383C15.452 29.8305 15.5777 29.9943 15.75 30.0938C15.9223 30.1932 16.1271 30.2201 16.3192 30.1686C16.5114 30.1171 16.6752 29.9914 16.7747 29.8191L17.1656 29.1413C18.1356 29.6003 19.1805 29.8804 20.25 29.9681V30.75C20.25 30.9489 20.329 31.1397 20.4697 31.2803C20.6103 31.421 20.8011 31.5 21 31.5C21.1989 31.5 21.3897 31.421 21.5303 31.2803C21.671 31.1397 21.75 30.9489 21.75 30.75V29.9681C22.8195 29.8804 23.8644 29.6003 24.8344 29.1413L25.2253 29.8191C25.3248 29.9914 25.4886 30.1171 25.6808 30.1686C25.8729 30.2201 26.0777 30.1932 26.25 30.0938C26.4223 29.9943 26.548 29.8305 26.5996 29.6383C26.6511 29.4461 26.6241 29.2414 26.5247 29.0691L26.1319 28.3894C27.0116 27.7759 27.7759 27.0116 28.3894 26.1319L29.0691 26.5247C29.1544 26.574 29.2486 26.6059 29.3462 26.6188C29.4439 26.6316 29.5432 26.6251 29.6383 26.5996C29.7335 26.5741 29.8227 26.5301 29.9008 26.4701C29.979 26.4101 30.0445 26.3353 30.0938 26.25C30.1933 26.0778 30.2204 25.8731 30.1691 25.681C30.1177 25.4888 29.9922 25.3249 29.82 25.2253L29.1422 24.8344C29.6012 23.8644 29.8814 22.8195 29.9691 21.75H30.75C30.9489 21.75 31.1397 21.671 31.2803 21.5303C31.421 21.3897 31.5 21.1989 31.5 21C31.5 20.8011 31.421 20.6103 31.2803 20.4697C31.1397 20.329 30.9489 20.25 30.75 20.25ZM15.75 21C15.7496 20.2055 15.9299 19.4213 16.2771 18.7066C16.6243 17.992 17.1295 17.3657 17.7544 16.875L20.1337 21L17.7544 25.125C17.1295 24.6343 16.6243 24.008 16.2771 23.2934C15.9299 22.5787 15.7496 21.7945 15.75 21ZM21 26.25C20.3326 26.2507 19.6713 26.1234 19.0519 25.875L21.4331 21.75H26.1956C26.0136 22.9987 25.3887 24.1403 24.4348 24.9664C23.481 25.7925 22.2619 26.2481 21 26.25ZM21.4331 20.25L19.0519 16.125C19.7893 15.8304 20.584 15.7069 21.3761 15.7639C22.1682 15.8209 22.9371 16.0568 23.6248 16.4539C24.3125 16.851 24.9012 17.3989 25.3465 18.0565C25.7918 18.714 26.0821 19.464 26.1956 20.25H21.4331Z" fill="#0D6EFD"/>
</svg>
