<svg width="42" height="42" viewBox="0 0 42 42" fill="none" xmlns="http://www.w3.org/2000/svg">
<rect width="42" height="42" fill="white"/>
<path d="M19.452 13.9341C19.2759 13.7584 19.0583 13.6299 18.8194 13.5604C18.5805 13.491 18.328 13.4829 18.0851 13.5368C17.8422 13.5907 17.6168 13.7049 17.4297 13.8689C17.2426 14.0328 17.0998 14.2413 17.0145 14.475L12.0936 28.0106C12.0127 28.2338 11.9866 28.4732 12.0174 28.7086C12.0482 28.944 12.1351 29.1685 12.2706 29.3634C12.4062 29.5583 12.5865 29.7178 12.7965 29.8286C13.0065 29.9394 13.2399 29.9981 13.4773 30C13.6521 29.9988 13.8253 29.9671 13.9892 29.9062L27.5239 24.9844C27.7577 24.8992 27.9662 24.7565 28.1303 24.5694C28.2944 24.3824 28.4087 24.157 28.4627 23.9141C28.5167 23.6712 28.5086 23.4186 28.4393 23.1797C28.3699 22.9407 28.2414 22.7231 28.0658 22.5469L19.452 13.9341ZM15.1067 24.1059L16.9067 19.1569L22.843 25.0931L17.893 26.8931L15.1067 24.1059ZM23.9998 15.75C24.0139 15.243 24.1367 14.7449 24.3598 14.2894C24.8567 13.2966 25.7942 12.75 26.9998 12.75C27.628 12.75 28.0311 12.5353 28.2795 12.0741C28.4103 11.816 28.4854 11.5333 28.4998 11.2444C28.5006 11.0455 28.5803 10.855 28.7215 10.7149C28.8627 10.5747 29.0537 10.4964 29.2526 10.4972C29.4516 10.4979 29.642 10.5777 29.7821 10.7188C29.9223 10.86 30.0006 11.0511 29.9998 11.25C29.9998 12.4556 29.2011 14.25 26.9998 14.25C26.3717 14.25 25.9686 14.4647 25.7201 14.9259C25.5893 15.184 25.5143 15.4667 25.4998 15.7556C25.4995 15.8541 25.4797 15.9516 25.4417 16.0424C25.4036 16.1333 25.3481 16.2157 25.2782 16.2851C25.2083 16.3545 25.1254 16.4094 25.0342 16.4468C24.9431 16.4841 24.8455 16.5032 24.747 16.5028C24.6485 16.5024 24.5511 16.4827 24.4602 16.4446C24.3694 16.4066 24.2869 16.3511 24.2175 16.2812C24.1481 16.2112 24.0932 16.1284 24.0558 16.0372C24.0185 15.9461 23.9995 15.8485 23.9998 15.75ZM21.7498 12.75V10.5C21.7498 10.3011 21.8288 10.1103 21.9695 9.96967C22.1101 9.82902 22.3009 9.75 22.4998 9.75C22.6987 9.75 22.8895 9.82902 23.0302 9.96967C23.1708 10.1103 23.2498 10.3011 23.2498 10.5V12.75C23.2498 12.9489 23.1708 13.1397 23.0302 13.2803C22.8895 13.421 22.6987 13.5 22.4998 13.5C22.3009 13.5 22.1101 13.421 21.9695 13.2803C21.8288 13.1397 21.7498 12.9489 21.7498 12.75ZM31.2805 20.4694C31.3501 20.5391 31.4053 20.6218 31.4429 20.7128C31.4806 20.8038 31.5 20.9014 31.4999 20.9999C31.4999 21.0984 31.4804 21.1959 31.4427 21.2869C31.405 21.3779 31.3497 21.4605 31.28 21.5302C31.2103 21.5998 31.1276 21.655 31.0366 21.6926C30.9455 21.7303 30.848 21.7497 30.7495 21.7496C30.651 21.7496 30.5535 21.7301 30.4625 21.6924C30.3715 21.6547 30.2888 21.5994 30.2192 21.5297L28.7192 20.0297C28.5785 19.889 28.4994 19.6981 28.4994 19.4991C28.4994 19.3 28.5785 19.1092 28.7192 18.9684C28.8599 18.8277 29.0508 18.7486 29.2498 18.7486C29.4489 18.7486 29.6397 18.8277 29.7805 18.9684L31.2805 20.4694ZM31.737 16.4616L29.487 17.2116C29.2983 17.2745 29.0923 17.2598 28.9144 17.1709C28.7365 17.0819 28.6012 16.9259 28.5383 16.7372C28.4754 16.5485 28.49 16.3425 28.579 16.1646C28.6679 15.9866 28.8239 15.8513 29.0126 15.7884L31.2626 15.0384C31.4514 14.9755 31.6573 14.9902 31.8353 15.0791C32.0132 15.1681 32.1485 15.3241 32.2114 15.5128C32.2743 15.7015 32.2597 15.9075 32.1707 16.0854C32.0817 16.2634 31.9257 16.3987 31.737 16.4616Z" fill="#FD7E14"/>
</svg>
