<svg width="42" height="42" viewBox="0 0 42 42" fill="none" xmlns="http://www.w3.org/2000/svg">
<rect width="42" height="42" fill="white"/>
<path d="M22.5 22.875C22.5 23.2458 22.39 23.6084 22.184 23.9167C21.978 24.225 21.6851 24.4654 21.3425 24.6073C20.9999 24.7492 20.6229 24.7863 20.2592 24.714C19.8955 24.6416 19.5614 24.463 19.2992 24.2008C19.037 23.9386 18.8584 23.6045 18.786 23.2408C18.7137 22.8771 18.7508 22.5001 18.8927 22.1575C19.0346 21.8149 19.275 21.522 19.5833 21.316C19.8916 21.11 20.2542 21 20.625 21C21.1223 21 21.5992 21.1975 21.9508 21.5492C22.3025 21.9008 22.5 22.3777 22.5 22.875ZM29.25 17.25V29.25C29.25 29.6478 29.092 30.0294 28.8107 30.3107C28.5294 30.592 28.1478 30.75 27.75 30.75H14.25C13.8522 30.75 13.4706 30.592 13.1893 30.3107C12.908 30.0294 12.75 29.6478 12.75 29.25V12.75C12.75 12.3522 12.908 11.9706 13.1893 11.6893C13.4706 11.408 13.8522 11.25 14.25 11.25H23.25C23.3485 11.2499 23.4461 11.2693 23.5371 11.3069C23.6282 11.3445 23.7109 11.3997 23.7806 11.4694L29.0306 16.7194C29.1003 16.7891 29.1555 16.8718 29.1931 16.9629C29.2307 17.0539 29.2501 17.1515 29.25 17.25ZM24.5306 25.7194L23.4806 24.6703C23.9233 23.967 24.0912 23.1252 23.9524 22.3058C23.8137 21.4865 23.3779 20.747 22.7283 20.2286C22.0788 19.7102 21.261 19.4494 20.4313 19.4958C19.6016 19.5423 18.818 19.8928 18.2304 20.4804C17.6428 21.068 17.2923 21.8516 17.2458 22.6813C17.1994 23.511 17.4602 24.3288 17.9786 24.9783C18.497 25.6279 19.2365 26.0637 20.0558 26.2024C20.8752 26.3412 21.717 26.1733 22.4203 25.7306L23.4694 26.7806C23.5391 26.8503 23.6218 26.9056 23.7128 26.9433C23.8039 26.981 23.9015 27.0004 24 27.0004C24.0985 27.0004 24.1961 26.981 24.2872 26.9433C24.3782 26.9056 24.4609 26.8503 24.5306 26.7806C24.6003 26.7109 24.6556 26.6282 24.6933 26.5372C24.731 26.4461 24.7504 26.3485 24.7504 26.25C24.7504 26.1515 24.731 26.0539 24.6933 25.9628C24.6556 25.8718 24.6003 25.7891 24.5306 25.7194ZM27.375 17.25L23.25 13.125V17.25H27.375Z" fill="#6610F2"/>
</svg>
