<svg width="42" height="42" viewBox="0 0 42 42" fill="none" xmlns="http://www.w3.org/2000/svg">
<rect width="42" height="42" fill="white"/>
<g clip-path="url(#clip0_858_2281)">
<path d="M32.1811 13.8749H31.8342C31.7597 13.6325 31.6624 13.3977 31.5436 13.1737L31.7892 12.9281C31.9422 12.7637 32.024 12.5454 32.0166 12.3209C32.0092 12.0964 31.9133 11.8839 31.7498 11.7299L31.3954 11.3756C31.2414 11.2121 31.029 11.1161 30.8045 11.1088C30.58 11.1014 30.3617 11.1831 30.1973 11.3362L29.9517 11.5818C29.7276 11.463 29.4928 11.3657 29.2504 11.2912V10.9443C29.2426 10.7197 29.1461 10.5073 28.982 10.3537C28.8178 10.2001 28.5995 10.1178 28.3748 10.1249H27.8761C27.6514 10.1178 27.433 10.2001 27.2689 10.3537C27.1048 10.5073 27.0082 10.7197 27.0004 10.9443V11.2912C26.758 11.3657 26.5232 11.463 26.2992 11.5818L26.0536 11.3362C25.8891 11.1831 25.6709 11.1014 25.4464 11.1088C25.2219 11.1161 25.0094 11.2121 24.8554 11.3756L24.5011 11.7299C24.3375 11.8839 24.2416 12.0964 24.2342 12.3209C24.2268 12.5454 24.3086 12.7637 24.4617 12.9281L24.7073 13.1737C24.5885 13.3977 24.4911 13.6325 24.4167 13.8749H24.0698C23.8451 13.8827 23.6327 13.9793 23.4791 14.1434C23.3256 14.3075 23.2433 14.5259 23.2504 14.7506V15.2493C23.2433 15.474 23.3256 15.6923 23.4791 15.8565C23.6327 16.0206 23.8451 16.1171 24.0698 16.1249H24.4167C24.4912 16.3674 24.5885 16.6022 24.7073 16.8262L24.4617 17.0718C24.309 17.2364 24.2276 17.4546 24.2349 17.679C24.2423 17.9033 24.3379 18.1157 24.5011 18.2699L24.8554 18.6243C25.0097 18.7874 25.222 18.8831 25.4464 18.8904C25.6707 18.8978 25.8889 18.8163 26.0536 18.6637L26.2992 18.4181C26.5231 18.5372 26.7579 18.6346 27.0004 18.7087V19.0556C27.0082 19.2802 27.1048 19.4926 27.2689 19.6462C27.433 19.7998 27.6514 19.8821 27.8761 19.8749H28.3748C28.5995 19.8821 28.8178 19.7998 28.982 19.6462C29.1461 19.4926 29.2426 19.2802 29.2504 19.0556V18.7087C29.4934 18.6351 29.7284 18.5371 29.9517 18.4162L30.1992 18.6637C30.3638 18.8163 30.582 18.8978 30.8063 18.8904C31.0307 18.883 31.2431 18.7874 31.3973 18.6243L31.7498 18.2699C31.9133 18.1159 32.0092 17.9035 32.0166 17.679C32.024 17.4545 31.9422 17.2362 31.7892 17.0718L31.5436 16.8262C31.6624 16.6022 31.7597 16.3674 31.8342 16.1249H32.1811C32.4057 16.1171 32.6181 16.0206 32.7717 15.8565C32.9253 15.6923 33.0075 15.474 33.0004 15.2493V14.7506C33.0076 14.5259 32.9253 14.3075 32.7717 14.1434C32.6181 13.9793 32.4057 13.8827 32.1811 13.8749ZM28.1254 16.9893C27.732 16.9893 27.3473 16.8726 27.0202 16.654C26.693 16.4354 26.4381 16.1248 26.2875 15.7612C26.1369 15.3977 26.0975 14.9977 26.1743 14.6118C26.251 14.2259 26.4405 13.8715 26.7187 13.5932C26.9969 13.315 27.3514 13.1255 27.7373 13.0488C28.1232 12.972 28.5232 13.0114 28.8867 13.162C29.2502 13.3126 29.5609 13.5676 29.7795 13.8947C29.9981 14.2219 30.1148 14.6065 30.1148 14.9999C30.1148 15.2612 30.0634 15.5199 29.9634 15.7612C29.8634 16.0026 29.7169 16.2219 29.5321 16.4067C29.3474 16.5914 29.1281 16.7379 28.8867 16.8379C28.6454 16.9379 28.3867 16.9893 28.1254 16.9893Z" fill="#C3002F"/>
<path d="M14.1248 10.1249H13.6261C13.4014 10.1178 13.183 10.2001 13.0189 10.3537C12.8548 10.5073 12.7582 10.7197 12.7504 10.9443V11.2912C12.508 11.3657 12.2732 11.463 12.0492 11.5818L11.8036 11.3362C11.6391 11.1831 11.4209 11.1014 11.1964 11.1088C10.9719 11.1161 10.7594 11.2121 10.6054 11.3756L10.2511 11.7299C10.0875 11.8839 9.9916 12.0964 9.98423 12.3209C9.97685 12.5454 10.0586 12.7637 10.2117 12.9281L10.4573 13.1737C10.3385 13.3977 10.2411 13.6325 10.1667 13.8749H9.8198C9.59514 13.8827 9.38274 13.9793 9.22915 14.1434C9.07555 14.3075 8.9933 14.5259 9.00043 14.7506V15.2493C8.99331 15.474 9.07556 15.6923 9.22915 15.8565C9.38274 16.0206 9.59515 16.1171 9.8198 16.1249H10.1667C10.2411 16.3674 10.3385 16.6022 10.4573 16.8262L10.2117 17.0718C10.059 17.2364 9.97756 17.4546 9.98493 17.679C9.9923 17.9033 10.0879 18.1157 10.2511 18.2699L10.6054 18.6243C10.7597 18.7874 10.972 18.8831 11.1964 18.8904C11.4207 18.8978 11.6389 18.8163 11.8036 18.6637L12.0492 18.4181C12.2731 18.5372 12.5079 18.6346 12.7504 18.7087V19.0556C12.7582 19.2802 12.8548 19.4926 13.0189 19.6462C13.183 19.7998 13.4014 19.8821 13.6261 19.8749H14.1248C14.3495 19.8821 14.5678 19.7998 14.732 19.6462C14.8961 19.4926 14.9926 19.2802 15.0004 19.0556V18.7087C15.2434 18.6351 15.4784 18.5371 15.7017 18.4162L15.9492 18.6637C16.1138 18.8163 16.332 18.8978 16.5563 18.8904C16.7807 18.883 16.9931 18.7874 17.1473 18.6243L17.4998 18.2699C17.6633 18.1159 17.7592 17.9035 17.7666 17.679C17.774 17.4545 17.6922 17.2362 17.5392 17.0718L17.2936 16.8262C17.4124 16.6022 17.5097 16.3674 17.5842 16.1249H17.9311C18.1557 16.1171 18.3681 16.0206 18.5217 15.8565C18.6753 15.6923 18.7575 15.474 18.7504 15.2493V14.7506C18.7576 14.5259 18.6753 14.3075 18.5217 14.1434C18.3681 13.9793 18.1557 13.8827 17.9311 13.8749H17.5842C17.5097 13.6325 17.4124 13.3977 17.2936 13.1737L17.5392 12.9281C17.6922 12.7637 17.774 12.5454 17.7666 12.3209C17.7592 12.0964 17.6633 11.8839 17.4998 11.7299L17.1454 11.3756C16.9914 11.2121 16.779 11.1161 16.5545 11.1088C16.33 11.1014 16.1117 11.1831 15.9473 11.3362L15.7017 11.5818C15.4776 11.463 15.2428 11.3657 15.0004 11.2912V10.9443C14.9926 10.7197 14.8961 10.5073 14.732 10.3537C14.5678 10.2001 14.3495 10.1178 14.1248 10.1249ZM15.8648 14.9999C15.8648 15.3934 15.7481 15.778 15.5295 16.1052C15.3109 16.4323 15.0002 16.6873 14.6367 16.8379C14.2732 16.9885 13.8732 17.0278 13.4873 16.9511C13.1014 16.8743 12.7469 16.6849 12.4687 16.4066C12.1905 16.1284 12.001 15.7739 11.9243 15.388C11.8475 15.0021 11.8869 14.6021 12.0375 14.2386C12.1881 13.8751 12.443 13.5644 12.7702 13.3458C13.0973 13.1272 13.482 13.0106 13.8754 13.0106C14.4029 13.0109 14.9088 13.2206 15.2818 13.5936C15.6548 13.9666 15.8645 14.4724 15.8648 14.9999Z" fill="#C3002F"/>
<path d="M14.0625 21.8791C14.0623 21.948 14.0809 22.0157 14.1163 22.0748C14.1516 22.1339 14.2024 22.1823 14.2631 22.2148L15.045 22.6216L14.2575 23.0529C14.1979 23.0852 14.1482 23.1332 14.1139 23.1917C14.0795 23.2502 14.0617 23.3169 14.0625 23.3848C14.0632 23.4527 14.0822 23.5193 14.1175 23.5773C14.1528 23.6354 14.2031 23.6829 14.2631 23.7148L15.045 24.1216L14.2575 24.5529C14.1979 24.5852 14.1482 24.6332 14.1139 24.6917C14.0795 24.7502 14.0617 24.8169 14.0625 24.8848C14.0632 24.9527 14.0822 25.0193 14.1175 25.0773C14.1528 25.1354 14.2031 25.1829 14.2631 25.2148L20.8369 28.6441C20.8903 28.6725 20.9499 28.6873 21.0103 28.6873C21.0708 28.6873 21.1304 28.6725 21.1838 28.6441L27.7369 25.2148C27.7963 25.1834 27.8463 25.1367 27.8816 25.0796C27.9169 25.0224 27.9362 24.9568 27.9375 24.8896C27.9389 24.8224 27.9222 24.7561 27.8892 24.6975C27.8562 24.639 27.8082 24.5903 27.75 24.5566L26.9794 24.1104L27.7369 23.7148C27.7963 23.6834 27.8463 23.6367 27.8816 23.5796C27.9169 23.5224 27.9362 23.4568 27.9375 23.3896C27.9389 23.3224 27.9222 23.2561 27.8892 23.1975C27.8562 23.139 27.8082 23.0903 27.75 23.0566L26.9794 22.6104L27.7369 22.2148C27.7977 22.1823 27.8484 22.1339 27.8838 22.0748C27.9191 22.0157 27.9377 21.948 27.9375 21.8791C27.9372 21.8102 27.9177 21.7426 27.8813 21.6841C27.8449 21.6255 27.793 21.5781 27.7313 21.5473L21.1763 18.2285C21.1241 18.2019 21.0664 18.1878 21.0077 18.1875C20.9491 18.1872 20.8913 18.2006 20.8388 18.2266L14.2688 21.5473C14.2071 21.5781 14.1552 21.6255 14.1187 21.6841C14.0823 21.7426 14.0629 21.8102 14.0625 21.8791ZM21.0075 18.9823L26.7431 21.8866L21.0094 24.8885L15.2588 21.8866L21.0075 18.9823ZM15.8456 24.5398L20.8369 27.1441C20.8903 27.1725 20.9499 27.1873 21.0103 27.1873C21.0708 27.1873 21.1304 27.1725 21.1838 27.1441L26.1938 24.521L26.7863 24.8641L21.0094 27.8885L15.2325 24.8735L15.8456 24.5398Z" fill="#C3002F"/>
<path d="M29.25 27.9375C29.8713 27.9375 30.375 27.4338 30.375 26.8125C30.375 26.1912 29.8713 25.6875 29.25 25.6875C28.6287 25.6875 28.125 26.1912 28.125 26.8125C28.125 27.4338 28.6287 27.9375 29.25 27.9375Z" fill="#C3002F"/>
<path d="M12.75 27.9375C13.3713 27.9375 13.875 27.4338 13.875 26.8125C13.875 26.1912 13.3713 25.6875 12.75 25.6875C12.1287 25.6875 11.625 26.1912 11.625 26.8125C11.625 27.4338 12.1287 27.9375 12.75 27.9375Z" fill="#C3002F"/>
<path d="M19.251 16.125H22.7487C22.6081 15.8983 22.5246 15.641 22.5051 15.375H19.4946C19.4751 15.641 19.3915 15.8983 19.251 16.125Z" fill="#C3002F"/>
<path d="M32.28 18.8004L32.25 18.8304V29.2498C32.2497 29.3491 32.2101 29.4443 32.1398 29.5146C32.0696 29.5849 31.9744 29.6245 31.875 29.6248H10.125C10.0256 29.6245 9.93042 29.5849 9.86016 29.5146C9.78989 29.4443 9.75029 29.3491 9.75 29.2498V18.8304L9.72 18.8004C9.46327 18.548 9.29792 18.2172 9.25005 17.8604C9.20218 17.5036 9.27451 17.1409 9.45562 16.8298C9.29408 16.7902 9.14014 16.7243 9 16.6348V29.2498C9.00024 29.5481 9.11884 29.8341 9.32977 30.045C9.54069 30.2559 9.8267 30.3745 10.125 30.3748H19.5V31.1248H17.8125C17.713 31.1248 17.6177 31.1643 17.5473 31.2346C17.477 31.3049 17.4375 31.4003 17.4375 31.4998C17.4375 31.5992 17.477 31.6946 17.5473 31.7649C17.6177 31.8353 17.713 31.8748 17.8125 31.8748H24.1875C24.287 31.8748 24.3823 31.8353 24.4527 31.7649C24.523 31.6946 24.5625 31.5992 24.5625 31.4998C24.5625 31.4003 24.523 31.3049 24.4527 31.2346C24.3823 31.1643 24.287 31.1248 24.1875 31.1248H22.5V30.3748H31.875C32.1733 30.3745 32.4593 30.2559 32.6702 30.045C32.8812 29.8341 32.9998 29.5481 33 29.2498V16.6348C32.8599 16.7243 32.7059 16.7902 32.5444 16.8298C32.7255 17.1409 32.7978 17.5036 32.75 17.8604C32.7021 18.2172 32.5367 18.548 32.28 18.8004ZM21.75 31.1248H20.25V30.3748H21.75V31.1248Z" fill="#C3002F"/>
</g>
<defs>
<clipPath id="clip0_858_2281">
<rect width="24" height="24" fill="white" transform="translate(9 9)"/>
</clipPath>
</defs>
</svg>
