<svg width="42" height="42" viewBox="0 0 42 42" fill="none" xmlns="http://www.w3.org/2000/svg">
<rect width="42" height="42" fill="white"/>
<path d="M28.9946 10.5H11.4521V12.6016H28.9946V10.5ZM13.0916 11.8855H13.0762C12.8902 11.8855 12.7388 11.7359 12.7388 11.551C12.7388 11.3662 12.8902 11.2166 13.0762 11.2166H13.0916C13.2777 11.2166 13.429 11.3662 13.429 11.551C13.429 11.7359 13.2777 11.8855 13.0916 11.8855ZM14.1432 11.8855H14.1283C13.9418 11.8855 13.7909 11.7359 13.7909 11.551C13.7909 11.3662 13.9418 11.2166 14.1283 11.2166H14.1432C14.3297 11.2166 14.4806 11.3662 14.4806 11.551C14.4806 11.7359 14.3297 11.8855 14.1432 11.8855ZM15.1953 11.8855H15.1804C14.9938 11.8855 14.843 11.7359 14.843 11.551C14.843 11.3662 14.9938 11.2166 15.1804 11.2166H15.1953C15.3818 11.2166 15.5326 11.3662 15.5326 11.551C15.5326 11.7359 15.3818 11.8855 15.1953 11.8855ZM27.3691 11.8855H18.1313C17.9448 11.8855 17.7934 11.7359 17.7934 11.551C17.7934 11.3662 17.9448 11.2166 18.1313 11.2166H27.3691C27.5551 11.2166 27.7064 11.3662 27.7064 11.551C27.7064 11.7359 27.5551 11.8855 27.3691 11.8855ZM30.772 14.353H29.6693V13.6837H31.1094C31.2954 13.6837 31.4467 13.8337 31.4467 14.0185V20.5077C31.2332 20.3586 31.0077 20.2253 30.772 20.1093V14.353ZM18.084 19.2063L16.9067 18.612L17.9496 18.0861L20.0696 19.1552C20.1178 19.1791 20.1703 19.1916 20.2224 19.1916C20.2749 19.1916 20.3275 19.1791 20.3757 19.1552L22.4962 18.0856L23.5386 18.6116L20.2224 20.2841L18.125 19.2269L18.113 19.2207C18.1076 19.2174 18.1023 19.215 18.097 19.2126L18.084 19.2063ZM18.0768 17.3995L16.9067 16.8095L20.2224 15.137L23.5386 16.8095L22.3646 17.4014L22.3622 17.4024C22.3482 17.4086 22.3347 17.4153 22.3217 17.4229L22.3207 17.4239L20.2223 18.4816L18.1283 17.4253C18.112 17.4153 18.0946 17.4067 18.0768 17.3995ZM25.3864 31.1656C25.3864 31.3505 25.2355 31.5 25.049 31.5H15.3972C15.2112 31.5 15.0599 31.3505 15.0599 31.1656C15.0599 30.9807 15.2112 30.8312 15.3972 30.8312H17.2142V28.4138H9.33736C9.15086 28.4138 9 28.2638 9 28.0794V14.0185C9 13.8337 9.15086 13.6837 9.33736 13.6837H10.7774V14.353H9.67472V26.0002H23.3772C23.4341 26.23 23.5073 26.4532 23.595 26.6696C23.7492 27.0522 23.9488 27.4129 24.1868 27.7445C24.3579 27.9834 24.5492 28.2069 24.7579 28.4138H23.2307V30.8312H25.049C25.2355 30.8312 25.3864 30.9807 25.3864 31.1656ZM28.4481 20.2368C25.9386 20.2368 23.8976 22.261 23.8976 24.7491C23.8976 27.2367 25.9386 29.2599 28.4481 29.2599C30.958 29.2599 33 27.2367 33 24.7491C33 22.261 30.958 20.2368 28.4481 20.2368ZM26.9396 26.3681C26.8736 26.4336 26.7873 26.4666 26.7006 26.4666C26.6143 26.4666 26.528 26.4336 26.462 26.3686L25.0658 24.986C25.0027 24.9229 24.967 24.8379 24.967 24.7491C24.967 24.6607 25.0027 24.5756 25.0658 24.5126L26.462 23.1286C26.5941 22.9982 26.8076 22.9982 26.9391 23.1286C27.0712 23.2595 27.0712 23.4711 26.9391 23.6015L25.782 24.7491L26.9391 25.8952C27.0712 26.0256 27.0712 26.2377 26.9396 26.3681ZM29.4337 23.3765L28.0799 26.3925C28.024 26.5172 27.9006 26.5912 27.7715 26.5912C27.7257 26.5912 27.6789 26.5817 27.6346 26.5621C27.4645 26.4871 27.3878 26.2893 27.4635 26.1207L28.8172 23.1047C28.8929 22.9361 29.0924 22.8597 29.2626 22.9351C29.4332 23.0101 29.5098 23.2079 29.4337 23.3765ZM30.4351 26.3686C30.3691 26.4336 30.2828 26.4666 30.1966 26.4666C30.1103 26.4666 30.024 26.4336 29.958 26.3681C29.8264 26.2377 29.8264 26.0256 29.958 25.8952L31.1156 24.7491L29.958 23.6015C29.8264 23.4711 29.8264 23.2594 29.958 23.1285C30.09 22.9981 30.3035 22.9981 30.4351 23.1285L31.8313 24.5125C31.8949 24.5756 31.93 24.6606 31.93 24.749C31.93 24.8378 31.8944 24.9229 31.8313 24.986L30.4351 26.3686ZM28.4481 19.568C28.6327 19.568 28.8148 19.5775 28.9946 19.5961V13.2709H11.4521V23.9527H23.2841C23.6716 21.4722 25.8399 19.568 28.4481 19.568ZM20.2224 22.7965C20.1703 22.7965 20.1178 22.7841 20.0696 22.7602L16.0093 20.7126C15.8965 20.6552 15.8252 20.5402 15.8252 20.414C15.8252 20.2884 15.8965 20.1732 16.0097 20.1159L17.2059 19.5135L16.0093 18.9101C15.8965 18.8527 15.8252 18.7376 15.8252 18.612C15.8252 18.4858 15.8965 18.3707 16.0093 18.3139L17.2054 17.7105L16.0093 17.1075C15.8965 17.0502 15.8252 16.9351 15.8252 16.8094C15.8252 16.6833 15.8965 16.5682 16.0093 16.5113L20.0696 14.4637C20.1655 14.415 20.2792 14.415 20.3756 14.4637L24.4354 16.5113C24.5487 16.5682 24.62 16.6833 24.62 16.8094C24.62 16.9351 24.5487 17.0502 24.4354 17.1075L23.2402 17.7105L24.4359 18.3139C24.5487 18.3707 24.62 18.4858 24.62 18.612C24.62 18.7376 24.5487 18.8528 24.4354 18.9101L23.2397 19.513L24.4354 20.1159C24.5487 20.1732 24.62 20.2884 24.62 20.414C24.62 20.5402 24.5487 20.6553 24.4354 20.7126L20.3756 22.7602C20.3274 22.7841 20.2749 22.7965 20.2224 22.7965ZM22.4952 19.889L23.5381 20.4145L20.2224 22.0866L16.9072 20.4145L17.9506 19.889L20.0697 20.9577C20.1179 20.9816 20.1704 20.994 20.2225 20.994C20.275 20.994 20.3275 20.9816 20.3757 20.9577L22.4952 19.889Z" fill="#7AB45D"/>
</svg>
