<svg width="296" height="109" viewBox="0 0 296 109" fill="none" xmlns="http://www.w3.org/2000/svg">
<rect width="296" height="109" fill="#198754" fill-opacity="0.16"/>
<path d="M18 22C18 18.6863 20.6863 16 24 16H272C275.314 16 278 18.6863 278 22V109H18V22Z" fill="white"/>
<path d="M132.001 67H110.224V74H93.001" stroke="#DEE2E6" stroke-dasharray="4 4"/>
<rect x="132.5" y="37.5" width="132" height="64" fill="white" stroke="#DEE2E6"/>
<path d="M246.666 44.1876L242.375 48.0001L246.665 51.8126C246.715 51.8567 246.745 51.9187 246.749 51.9851C246.753 52.0514 246.73 52.1166 246.686 52.1664C246.642 52.2161 246.58 52.2463 246.514 52.2502C246.447 52.2542 246.382 52.2317 246.332 52.1876L241.832 48.1876C241.806 48.1641 241.785 48.1353 241.77 48.103C241.755 48.0706 241.748 48.0356 241.748 48.0001C241.748 47.9646 241.755 47.9296 241.77 47.8972C241.785 47.8649 241.806 47.8361 241.832 47.8126L246.332 43.8126C246.357 43.7908 246.386 43.774 246.417 43.7633C246.448 43.7525 246.481 43.748 246.514 43.75C246.547 43.7519 246.579 43.7604 246.608 43.7748C246.638 43.7891 246.664 43.8092 246.686 43.8339C246.708 43.8585 246.725 43.8872 246.736 43.9183C246.746 43.9494 246.751 43.9823 246.749 44.0151C246.747 44.048 246.738 44.0801 246.724 44.1097C246.71 44.1393 246.69 44.1658 246.665 44.1876H246.666ZM256.166 47.8126L251.666 43.8126C251.616 43.7685 251.551 43.746 251.485 43.75C251.419 43.7539 251.357 43.7841 251.312 43.8339C251.268 43.8836 251.246 43.9488 251.25 44.0151C251.254 44.0815 251.284 44.1435 251.334 44.1876L255.625 48.0001L251.335 51.8126C251.285 51.8567 251.255 51.9187 251.251 51.9851C251.247 52.0514 251.27 52.1166 251.314 52.1664C251.358 52.2161 251.42 52.2463 251.486 52.2502C251.553 52.2542 251.618 52.2317 251.667 52.1876L256.167 48.1876C256.194 48.1641 256.215 48.1353 256.23 48.103C256.245 48.0706 256.252 48.0356 256.252 48.0001C256.252 47.9646 256.245 47.9296 256.23 47.8972C256.215 47.8649 256.194 47.8361 256.167 47.8126H256.166Z" fill="#DEE2E6"/>
<path d="M156.469 56.0312C156.469 56.1919 156.421 56.349 156.332 56.4826C156.243 56.6162 156.116 56.7204 155.967 56.7819C155.819 56.8434 155.655 56.8595 155.498 56.8281C155.34 56.7968 155.195 56.7194 155.082 56.6058C154.968 56.4921 154.891 56.3474 154.859 56.1897C154.828 56.0321 154.844 55.8688 154.906 55.7203C154.967 55.5718 155.071 55.4449 155.205 55.3557C155.338 55.2664 155.496 55.2187 155.656 55.2187C155.872 55.2187 156.078 55.3043 156.231 55.4567C156.383 55.6091 156.469 55.8157 156.469 56.0312ZM148.344 55.2187C148.183 55.2187 148.026 55.2664 147.892 55.3557C147.759 55.4449 147.655 55.5718 147.593 55.7203C147.532 55.8688 147.516 56.0321 147.547 56.1897C147.578 56.3474 147.656 56.4921 147.769 56.6058C147.883 56.7194 148.028 56.7968 148.185 56.8281C148.343 56.8595 148.506 56.8434 148.655 56.7819C148.803 56.7204 148.93 56.6162 149.019 56.4826C149.109 56.349 149.156 56.1919 149.156 56.0312C149.156 55.8157 149.071 55.6091 148.918 55.4567C148.766 55.3043 148.559 55.2187 148.344 55.2187ZM162.969 57.25V59.6875C162.969 60.0107 162.84 60.3207 162.612 60.5493C162.383 60.7778 162.073 60.9062 161.75 60.9062H142.25C141.927 60.9062 141.617 60.7778 141.388 60.5493C141.16 60.3207 141.031 60.0107 141.031 59.6875V57.3647C141.03 55.7832 141.366 54.2196 142.017 52.7783C142.668 51.337 143.62 50.0514 144.807 49.0072L141.964 46.1634C141.887 46.0872 141.845 45.9838 141.845 45.876C141.845 45.7682 141.887 45.6648 141.964 45.5886C142.04 45.5123 142.143 45.4695 142.251 45.4695C142.359 45.4695 142.462 45.5123 142.538 45.5886L145.44 48.4902C147.316 47.0641 149.605 46.2885 151.961 46.2812H152C154.373 46.2746 156.684 47.0439 158.579 48.4719L161.463 45.5876C161.539 45.5113 161.642 45.4685 161.75 45.4685C161.858 45.4685 161.961 45.5113 162.037 45.5876C162.114 45.6638 162.156 45.7672 162.156 45.875C162.156 45.9828 162.114 46.0862 162.037 46.1624L159.211 48.9869C159.392 49.1453 159.568 49.3088 159.74 49.4805C160.767 50.4967 161.581 51.707 162.135 53.0409C162.689 54.3748 162.973 55.8055 162.969 57.25ZM162.156 57.25C162.156 55.9162 161.894 54.5956 161.383 53.3634C160.873 52.1311 160.125 51.0115 159.182 50.0684C158.238 49.1253 157.119 48.3772 155.887 47.8668C154.654 47.3564 153.334 47.0937 152 47.0937H151.964C146.384 47.113 141.844 51.7209 141.844 57.3647V59.6875C141.844 59.7952 141.887 59.8986 141.963 59.9747C142.039 60.0509 142.142 60.0937 142.25 60.0937H161.75C161.858 60.0937 161.961 60.0509 162.037 59.9747C162.113 59.8986 162.156 59.7952 162.156 59.6875V57.25Z" fill="#6C757D"/>
<path d="M145.185 90.7031L144.224 92.3281C144.201 92.3799 144.167 92.4262 144.125 92.464C144.082 92.5018 144.032 92.5303 143.978 92.5476C143.924 92.565 143.867 92.5708 143.81 92.5646C143.754 92.5585 143.699 92.5405 143.65 92.5119C143.601 92.4834 143.558 92.4448 143.525 92.3987C143.492 92.3527 143.468 92.3001 143.457 92.2445C143.445 92.1889 143.445 92.1314 143.457 92.0758C143.469 92.0203 143.492 91.9678 143.526 91.9218L144.484 90.2968C144.542 90.2126 144.63 90.1534 144.73 90.131C144.83 90.1086 144.934 90.1246 145.023 90.1759C145.111 90.2272 145.177 90.3099 145.207 90.4077C145.237 90.5054 145.229 90.6109 145.185 90.7031ZM162.562 86.8437H157.476L154.234 81.3593C154.207 81.3134 154.171 81.2732 154.129 81.2411C154.086 81.2091 154.037 81.1857 153.986 81.1724C153.881 81.1456 153.771 81.1613 153.678 81.2161C153.585 81.2709 153.518 81.3603 153.491 81.4647C153.464 81.5691 153.48 81.6799 153.535 81.7727L159.776 92.3281C159.802 92.3762 159.837 92.4186 159.88 92.4527C159.923 92.4869 159.972 92.512 160.024 92.5267C160.077 92.5413 160.132 92.5452 160.187 92.538C160.241 92.5308 160.293 92.5127 160.34 92.4849C160.387 92.457 160.428 92.42 160.461 92.3759C160.493 92.3318 160.516 92.2816 160.529 92.2284C160.541 92.1751 160.543 92.1199 160.534 92.066C160.524 92.0121 160.504 91.9606 160.474 91.9147L157.957 87.6491H162.562C162.67 87.6491 162.774 87.6063 162.85 87.5301C162.926 87.4539 162.969 87.3506 162.969 87.2428C162.969 87.1351 162.926 87.0317 162.85 86.9556C162.774 86.8794 162.67 86.8366 162.562 86.8366V86.8437ZM153.47 86.8437H147.467L154.787 74.4531C154.82 74.4071 154.844 74.3546 154.856 74.299C154.867 74.2434 154.868 74.186 154.856 74.1303C154.844 74.0747 154.821 74.0222 154.788 73.9761C154.754 73.93 154.712 73.8915 154.663 73.8629C154.613 73.8343 154.559 73.8164 154.502 73.8102C154.446 73.8041 154.389 73.8099 154.334 73.8272C154.28 73.8445 154.23 73.873 154.188 73.9109C154.146 73.9487 154.112 73.995 154.088 74.0468L152 77.5761L149.912 74.0468C149.888 73.995 149.854 73.9487 149.812 73.9109C149.77 73.873 149.72 73.8445 149.666 73.8272C149.611 73.8099 149.554 73.8041 149.498 73.8102C149.441 73.8164 149.387 73.8343 149.337 73.8629C149.288 73.8915 149.246 73.93 149.212 73.9761C149.179 74.0222 149.156 74.0747 149.144 74.1303C149.132 74.186 149.133 74.2434 149.144 74.299C149.156 74.3546 149.18 74.4071 149.213 74.4531L151.528 78.3713L146.524 86.8437H141.438C141.33 86.8437 141.226 86.8865 141.15 86.9627C141.074 87.0389 141.031 87.1422 141.031 87.2499C141.031 87.3577 141.074 87.461 141.15 87.5372C141.226 87.6134 141.33 87.6562 141.438 87.6562H153.47C153.577 87.6562 153.681 87.6134 153.757 87.5372C153.833 87.461 153.876 87.3577 153.876 87.2499C153.876 87.1422 153.833 87.0389 153.757 86.9627C153.681 86.8865 153.577 86.8437 153.47 86.8437Z" fill="#6C757D"/>
<rect x="176" y="48" width="19" height="1" fill="#DEE2E6"/>
<rect x="176" y="73" width="19" height="1" fill="#DEE2E6"/>
<rect x="176" y="52" width="18" height="1" fill="#DEE2E6"/>
<rect x="176" y="77" width="18" height="1" fill="#DEE2E6"/>
<rect x="203" y="57" width="52" height="1" fill="#DEE2E6"/>
<rect x="203" y="83" width="52" height="1" fill="#DEE2E6"/>
<rect x="203" y="61" width="46" height="1" fill="#DEE2E6"/>
<rect x="203" y="87" width="46" height="1" fill="#DEE2E6"/>
<rect x="203" y="65" width="49" height="1" fill="#DEE2E6"/>
<rect x="203" y="91" width="49" height="1" fill="#DEE2E6"/>
<rect x="203" y="69" width="39" height="1" fill="#DEE2E6"/>
<rect x="203" y="95" width="39" height="1" fill="#DEE2E6"/>
<mask id="path-20-inside-1_14_1641" fill="white">
<path d="M32 42C32 39.2386 34.2386 37 37 37H88C90.7614 37 93 39.2386 93 42V109H32V42Z"/>
</mask>
<path d="M32 42C32 39.2386 34.2386 37 37 37H88C90.7614 37 93 39.2386 93 42V109H32V42Z" fill="white"/>
<path d="M30 42C30 38.134 33.134 35 37 35H88C91.866 35 95 38.134 95 42H91C91 40.3431 89.6569 39 88 39H37C35.3431 39 34 40.3431 34 42H30ZM93 109H32H93ZM30 109V42C30 38.134 33.134 35 37 35V39C35.3431 39 34 40.3431 34 42V109H30ZM88 35C91.866 35 95 38.134 95 42V109H91V42C91 40.3431 89.6569 39 88 39V35Z" fill="#DEE2E6" mask="url(#path-20-inside-1_14_1641)"/>
<ellipse cx="84.5539" cy="49" rx="2.81538" ry="3" fill="#D9D9D9"/>
<rect x="37.6309" y="46" width="20.6462" height="3" fill="#DEE2E6"/>
<rect x="37.8809" y="57.25" width="49.2385" height="11.5" fill="white" stroke="#DEE2E6" stroke-width="0.5"/>
<rect x="47.9539" y="61" width="29.9793" height="0.5" fill="#DEE2E6"/>
<rect x="47.9539" y="63" width="25.3385" height="0.5" fill="#DEE2E6"/>
<rect x="47.9539" y="65" width="25.3385" height="0.5" fill="#DEE2E6"/>
<ellipse cx="43.2614" cy="63" rx="2.81538" ry="3" fill="#D9D9D9"/>
<rect x="37.8809" y="92.25" width="49.2385" height="11.5" fill="white" stroke="#DEE2E6" stroke-width="0.5"/>
<rect x="47.9539" y="96" width="29.9793" height="0.5" fill="#DEE2E6"/>
<rect x="47.9539" y="98" width="25.3385" height="0.5" fill="#DEE2E6"/>
<rect x="47.9539" y="100" width="25.3385" height="0.5" fill="#DEE2E6"/>
<ellipse cx="43.2614" cy="98" rx="2.81538" ry="3" fill="#D9D9D9"/>
<rect x="37.6309" y="75" width="10.3231" height="11" fill="#DEE2E6"/>
<rect x="50.7695" y="75" width="10.3231" height="11" fill="#DEE2E6"/>
<rect x="63.9072" y="75" width="10.3231" height="11" fill="#DEE2E6"/>
<rect x="77.0459" y="75" width="10.3231" height="11" fill="#DEE2E6"/>
<path opacity="0.8" d="M18 22C18 18.6863 20.6863 16 24 16H272C275.314 16 278 18.6863 278 22V29H18V22Z" fill="#198754"/>
<path d="M259 22.994C259 24.0942 258.103 24.9881 257 24.9881C255.897 24.9881 255 24.0942 255 22.994C255 21.8939 255.897 21 257 21C258.103 21 259 21.8939 259 22.994Z" fill="white"/>
<path d="M264 22.994C264 24.0942 263.103 24.9881 262 24.9881C260.897 24.9881 260 24.0942 260 22.994C260 21.8939 260.897 21 262 21C263.103 21 264 21.8939 264 22.994Z" fill="#F8F9FA" fill-opacity="0.4"/>
<path d="M269 22.994C269 24.0942 268.103 24.9881 267 24.9881C265.897 24.9881 265 24.0942 265 22.994C265 21.8939 265.897 21 267 21C268.103 21 269 21.8939 269 22.994Z" fill="#F8F9FA" fill-opacity="0.4"/>
</svg>
