<svg width="42" height="42" viewBox="0 0 42 42" fill="none" xmlns="http://www.w3.org/2000/svg">
<rect width="42" height="42" fill="white"/>
<path d="M31.2421 10.758C32.3708 11.8868 32.9569 13.3007 32.9997 14.9999V27.0001C32.9569 28.6988 32.3709 30.1132 31.2421 31.242C30.1133 32.3707 28.6989 32.9568 26.9998 33H14.9999C13.3007 32.9569 11.8868 32.3708 10.758 31.242C9.62925 30.1133 9.04313 28.6989 9 27.0002V15C9.04313 13.3008 9.62916 11.8869 10.758 10.7581C11.8868 9.62925 13.3007 9.04313 14.9999 9H26.9998C28.6989 9.04313 30.1133 9.62916 31.2421 10.758ZM29.5869 20.4143C29.2098 20.0391 29.0137 19.5683 28.9982 19.0019V15C28.9862 14.4336 28.7917 13.962 28.4149 13.5852C28.0381 13.2081 27.5661 13.014 26.9998 13.0021H25.0018V22.9983L16.9983 13.0019H14.9999C14.4335 13.0139 13.9619 13.208 13.5851 13.5851C13.208 13.962 13.0139 14.4336 13.002 14.9998V19.0019C12.9864 19.5683 12.7903 20.0391 12.4132 20.4143C12.0363 20.789 11.5647 20.9843 10.9984 20.9999C11.5647 21.0158 12.0364 21.2111 12.4131 21.5858C12.7903 21.961 12.9864 22.4318 13.0019 22.9982V27.0001C13.0139 27.566 13.208 28.0381 13.5851 28.4149C13.962 28.7917 14.4336 28.9861 14.9998 28.998H16.9983V19.0019L25.0018 28.9983H26.9998C27.5661 28.9863 28.0382 28.7918 28.4149 28.415C28.7918 28.0382 28.9862 27.5662 28.9981 27.0004V22.9983C29.0137 22.4319 29.2098 21.9611 29.5869 21.5859C29.9638 21.2112 30.4354 21.0159 31.0017 21C30.4354 20.9843 29.9637 20.7891 29.587 20.4144L29.5869 20.4143Z" fill="#3C5AFD"/>
</svg>
