<svg width="42" height="42" viewBox="0 0 42 42" fill="none" xmlns="http://www.w3.org/2000/svg">
<rect width="42" height="42" fill="white"/>
<path fill-rule="evenodd" clip-rule="evenodd" d="M23.1315 9C22.9579 9 22.7968 9.03734 22.648 9.08711C22.9641 9.29868 23.1377 9.57869 23.2244 9.89603C23.2307 9.93959 23.243 9.9707 23.2492 10.0143C23.2555 10.0516 23.2616 10.0889 23.2616 10.1263C23.2864 10.6738 23.1191 10.7423 23.0013 11.0658C22.8216 11.4828 22.8712 11.9308 23.0881 12.2917C23.1067 12.3352 23.1315 12.385 23.1625 12.4286C22.9269 10.8543 24.2347 10.6178 24.4764 10.1263C24.495 9.69691 24.1418 9.41068 23.8628 9.21156C23.5963 9.04978 23.3546 9 23.1315 9ZM25.1025 9.35468C25.0777 9.4978 25.0962 9.46046 25.0901 9.53513C25.0839 9.58491 25.0839 9.64713 25.0777 9.69691C25.0653 9.74669 25.0529 9.79647 25.0343 9.84625C25.0219 9.89603 25.0033 9.94581 24.9847 9.99559C24.9599 10.0454 24.9413 10.0889 24.9165 10.1387C24.8979 10.1636 24.8855 10.1885 24.8669 10.2134C24.8546 10.232 24.8421 10.2507 24.8298 10.2694C24.7988 10.3129 24.7678 10.3565 24.7368 10.3938C24.6996 10.4312 24.6686 10.4747 24.6252 10.5058V10.5121C24.588 10.5432 24.5508 10.5805 24.5075 10.6116C24.3773 10.7112 24.2285 10.7858 24.0922 10.8792C24.0488 10.9103 24.0054 10.9352 23.9682 10.9725C23.9248 11.0036 23.8877 11.0347 23.8505 11.0721C23.8071 11.1094 23.7761 11.1468 23.7389 11.1903C23.7079 11.2276 23.6707 11.2712 23.6459 11.3148C23.6149 11.3583 23.584 11.4019 23.5592 11.4454C23.5344 11.4952 23.5158 11.5388 23.491 11.5885C23.4724 11.6383 23.4538 11.6819 23.4414 11.7317C23.4228 11.7877 23.4104 11.8374 23.398 11.8872C23.3918 11.9121 23.3918 11.9432 23.3856 11.9681C23.3794 11.993 23.3794 12.0179 23.3732 12.0428C23.3732 12.0926 23.367 12.1486 23.367 12.1983C23.367 12.2357 23.367 12.273 23.3732 12.3103C23.3732 12.3601 23.3794 12.4099 23.3918 12.4659C23.398 12.5157 23.4104 12.5655 23.4228 12.6152C23.4414 12.665 23.4538 12.7148 23.4724 12.7646C23.4848 12.7957 23.5034 12.8268 23.5158 12.8517L22.0902 12.2979C21.8485 12.2295 21.613 12.1672 21.3713 12.1112C21.2411 12.0801 21.111 12.049 20.9808 12.0179C20.6089 11.9432 20.2308 11.8872 19.8528 11.8499C19.8404 11.8499 19.8342 11.8437 19.8218 11.8437C19.4499 11.8063 19.0842 11.7877 18.7123 11.7877C18.4396 11.7877 18.1669 11.8001 17.9004 11.8188C17.5223 11.8437 17.1442 11.8934 16.7661 11.9557C16.6732 11.9681 16.5802 11.9868 16.4872 12.0054C16.2951 12.0428 16.1091 12.0863 15.9294 12.1299C15.8364 12.1548 15.7435 12.1797 15.6505 12.2046C15.5575 12.2419 15.4707 12.2854 15.384 12.3228C15.3158 12.3539 15.2476 12.385 15.1794 12.4161C15.167 12.4224 15.1546 12.4224 15.1484 12.4286C15.0865 12.4597 15.0307 12.4846 14.9749 12.5157C14.9563 12.5219 14.9439 12.5281 14.9315 12.5343C14.8633 12.5654 14.7952 12.6028 14.7394 12.6339C14.696 12.6526 14.6526 12.6775 14.6154 12.6961C14.5968 12.7086 14.572 12.721 14.5596 12.7272C14.5038 12.7583 14.4481 12.7895 14.3985 12.8206C14.3427 12.8517 14.2931 12.8828 14.2497 12.9139C14.2063 12.945 14.163 12.9699 14.1258 13.001C14.1196 13.0072 14.1134 13.0072 14.1072 13.0135C14.07 13.0384 14.0266 13.0695 13.9894 13.1006C13.9894 13.1006 13.9832 13.1068 13.977 13.113C13.946 13.1379 13.915 13.1628 13.8841 13.1877C13.8717 13.1939 13.8593 13.2063 13.8469 13.2126C13.8159 13.2375 13.7849 13.2686 13.7539 13.2935C13.7477 13.3059 13.7353 13.3121 13.7291 13.3184C13.6919 13.3557 13.6547 13.3868 13.6175 13.4241C13.6113 13.4241 13.6113 13.4304 13.6051 13.4366C13.568 13.4677 13.5308 13.505 13.4936 13.5424C13.4874 13.5486 13.4874 13.5548 13.4812 13.5548C13.4502 13.5859 13.4192 13.617 13.3882 13.6544C13.3758 13.6668 13.3572 13.6793 13.3448 13.6917C13.3138 13.729 13.2767 13.7664 13.2395 13.8037C13.2333 13.8161 13.2209 13.8224 13.2147 13.8348C13.1651 13.8846 13.1217 13.9344 13.0721 13.9841C13.0659 13.9904 13.0597 13.9966 13.0535 14.0028C12.9543 14.1086 12.849 14.2144 12.7374 14.3077C12.6259 14.4073 12.5081 14.5006 12.3903 14.5815C12.2664 14.6686 12.1486 14.7433 12.0184 14.818C11.8945 14.8864 11.7643 14.9486 11.628 15.0046C11.4978 15.0606 11.3615 15.1104 11.2251 15.154C10.9648 15.21 10.6983 15.3157 10.4689 15.3344C10.4193 15.3344 10.3636 15.3469 10.314 15.3531C10.2582 15.3655 10.2086 15.378 10.159 15.3904C10.1094 15.4091 10.0599 15.4278 10.0103 15.4464C9.9607 15.4651 9.91111 15.49 9.86153 15.5149C9.81814 15.546 9.76856 15.5709 9.72517 15.602C9.68178 15.6331 9.6384 15.6704 9.60121 15.7078C9.55782 15.7389 9.51444 15.7824 9.47725 15.8198C9.44006 15.8633 9.40287 15.9007 9.37188 15.9442C9.34089 15.994 9.3037 16.0376 9.27891 16.0873C9.24792 16.1309 9.21693 16.1807 9.19214 16.2304C9.16734 16.2864 9.14255 16.3362 9.12396 16.3922C9.10537 16.442 9.08677 16.498 9.06818 16.554C9.05579 16.6038 9.04338 16.6536 9.03719 16.7033C9.03719 16.7096 9.03098 16.7158 9.03098 16.722C9.01859 16.778 9.01859 16.8527 9.01239 16.89C9.00618 16.9336 9 16.9709 9 17.0145C9 17.0394 9 17.0705 9.00621 17.0954C9.01242 17.1389 9.01859 17.1763 9.03101 17.2136C9.0434 17.2509 9.05581 17.2883 9.07439 17.3256V17.3318C9.09299 17.3692 9.11778 17.4065 9.14257 17.4438C9.16737 17.4812 9.19216 17.5185 9.22315 17.5558C9.25414 17.587 9.29133 17.6243 9.32851 17.6554C9.3657 17.6927 9.40289 17.7238 9.44628 17.755C9.59503 17.8856 9.63222 17.9292 9.82436 18.0287C9.85535 18.0474 9.88634 18.0599 9.92353 18.0785C9.92974 18.0785 9.93591 18.0848 9.94212 18.0848C9.94212 18.0972 9.94212 18.1034 9.94833 18.1159C9.95454 18.1656 9.96692 18.2154 9.97932 18.2652C9.99171 18.3212 10.0103 18.371 10.0289 18.4145C10.0475 18.4519 10.0599 18.4892 10.0785 18.5265C10.0847 18.539 10.0909 18.5514 10.0971 18.5577C10.1219 18.6074 10.1467 18.651 10.1715 18.6946C10.2025 18.7381 10.2334 18.7817 10.2644 18.8252C10.2954 18.8626 10.3326 18.9061 10.3698 18.9435C10.407 18.9808 10.4442 19.0119 10.4876 19.0492C10.4876 19.0492 10.4938 19.0555 10.4999 19.0555C10.5371 19.0866 10.5743 19.1177 10.6115 19.1426C10.6549 19.1737 10.6983 19.1986 10.7479 19.2235C10.7913 19.2484 10.8408 19.2733 10.8904 19.2919C10.9276 19.3106 10.971 19.323 11.0144 19.3355C11.0206 19.3417 11.0268 19.3417 11.0392 19.3479C11.064 19.3542 11.095 19.3604 11.1198 19.3666C11.1012 19.7026 11.095 20.0199 11.1446 20.1319C11.2003 20.2564 11.4731 19.8768 11.7458 19.4413C11.7086 19.8706 11.6838 20.3746 11.7458 20.524C11.8139 20.6795 12.1858 20.1942 12.5081 19.659C16.9025 18.6386 20.9127 21.6876 21.3341 25.9935C21.2536 25.3215 20.4292 24.9481 20.0511 25.0414C19.8652 25.5019 19.5491 26.093 19.0409 26.4602C19.0842 26.0495 19.0657 25.6264 18.9789 25.2157C18.8425 25.7881 18.576 26.3233 18.2103 26.7837C17.6215 26.8273 17.0327 26.5411 16.7228 26.1117C16.698 26.093 16.6918 26.0557 16.6732 26.0308C16.6546 25.9873 16.636 25.9437 16.6236 25.9001C16.605 25.8566 16.5926 25.813 16.5864 25.7695C16.5802 25.7259 16.5802 25.6824 16.5802 25.6326C16.5802 25.6015 16.5802 25.5704 16.5802 25.5392C16.5864 25.4957 16.5988 25.4521 16.6112 25.4086C16.6236 25.365 16.636 25.3215 16.6546 25.2779C16.6794 25.2343 16.698 25.1908 16.729 25.1472C16.8343 24.8486 16.8343 24.6059 16.6422 24.4628C16.605 24.4379 16.5678 24.4192 16.5244 24.4005C16.4996 24.3943 16.4687 24.3819 16.4439 24.3756C16.4253 24.3694 16.4129 24.3632 16.3943 24.357C16.3509 24.3445 16.3075 24.3321 16.2641 24.3259C16.2207 24.3134 16.1774 24.3072 16.134 24.3072C16.0906 24.301 16.041 24.2948 15.9976 24.2948C15.9666 24.2948 15.9356 24.301 15.9046 24.301C15.8551 24.301 15.8117 24.3072 15.7683 24.3197C15.7249 24.3259 15.6815 24.3321 15.6381 24.3445C15.5947 24.357 15.5514 24.3694 15.508 24.3881C15.4646 24.4068 15.4274 24.4254 15.384 24.4441C15.3468 24.4628 15.3096 24.4877 15.2662 24.5063C13.8221 25.4521 14.6836 27.6673 15.6691 28.3082C15.2972 28.3767 14.9192 28.4576 14.8138 28.5385C14.8076 28.5447 14.8014 28.5509 14.8014 28.5509C15.0679 28.7127 15.3468 28.8496 15.6381 28.9678C16.0348 29.0985 16.4563 29.2167 16.6422 29.2665V29.2727C17.1567 29.3785 17.6773 29.4158 18.2041 29.3847C20.9499 29.1918 23.1997 27.0949 23.6088 24.3321C23.6212 24.3881 23.6336 24.4379 23.646 24.4939C23.6646 24.6059 23.6894 24.7241 23.7018 24.8423V24.8486C23.7142 24.9046 23.7204 24.9606 23.7266 25.0104V25.0353C23.7328 25.0913 23.739 25.1473 23.739 25.197C23.7452 25.2655 23.7514 25.3339 23.7514 25.4024V25.5019C23.7514 25.5331 23.7576 25.5704 23.7576 25.6015C23.7576 25.6388 23.7514 25.6762 23.7514 25.7135V25.8006C23.7514 25.8442 23.7451 25.8815 23.7451 25.9251C23.7451 25.95 23.7451 25.9749 23.7389 26.006C23.7389 26.0495 23.7327 26.0931 23.7327 26.1429C23.7265 26.1615 23.7265 26.1802 23.7265 26.1989C23.7203 26.2486 23.7141 26.2922 23.7079 26.342C23.7079 26.3606 23.7079 26.3793 23.7017 26.398C23.6955 26.4602 23.6831 26.5162 23.6769 26.5784V26.5847V26.5909C23.6645 26.6469 23.6521 26.7091 23.6397 26.7651V26.7838C23.6273 26.8398 23.6149 26.8958 23.6025 26.9518C23.6025 26.958 23.5963 26.9705 23.5963 26.9767C23.5839 27.0327 23.5715 27.0887 23.5529 27.1447V27.1634C23.5344 27.2256 23.5158 27.2816 23.5034 27.3376C23.4972 27.3438 23.4972 27.35 23.4972 27.35C23.4786 27.4123 23.46 27.4745 23.4414 27.5367C23.4166 27.5989 23.398 27.6549 23.3732 27.7172C23.3484 27.7794 23.3298 27.8416 23.305 27.8976C23.2802 27.9598 23.2554 28.0158 23.2306 28.0781H23.2244C23.1996 28.1341 23.1748 28.1963 23.1438 28.2523C23.1376 28.271 23.1315 28.2834 23.1253 28.2958C23.119 28.3021 23.119 28.3083 23.1129 28.3145C22.71 29.1297 22.115 29.8452 21.3712 30.4053C21.3216 30.4364 21.2721 30.4737 21.2225 30.511C21.2101 30.5235 21.1915 30.5297 21.1791 30.5421C21.1357 30.5733 21.0923 30.6044 21.0427 30.6355L21.0613 30.6728H21.0675C21.1543 30.6604 21.2411 30.6479 21.3278 30.6355H21.334C21.4952 30.6106 21.6563 30.5795 21.8175 30.5484C21.8609 30.5421 21.9105 30.5297 21.9539 30.5173C21.9848 30.511 22.0096 30.5048 22.0406 30.4986C22.084 30.4923 22.1274 30.4799 22.1708 30.4737C22.208 30.4613 22.2452 30.455 22.2824 30.4426C22.9022 30.2932 23.5034 30.0879 24.0798 29.8452C23.0943 31.1955 21.7741 32.2844 20.2308 33C20.9436 32.9502 21.6563 32.832 22.3443 32.6329C24.8421 31.8924 26.9433 30.2061 28.2015 27.9349C27.9474 29.3723 27.3771 30.7413 26.5342 31.936C27.1354 31.5377 27.687 31.0773 28.1891 30.5546C29.5774 29.0985 30.4886 27.2505 30.7985 25.2655C31.0092 26.2487 31.0712 27.2629 30.9782 28.2647C35.4532 21.9987 31.3501 15.5025 29.6332 13.7913C29.627 13.7789 29.6208 13.7727 29.6208 13.7602C29.6146 13.7665 29.6146 13.7665 29.6146 13.7727C29.6146 13.7664 29.6146 13.7664 29.6084 13.7602C29.6084 13.8349 29.6022 13.9096 29.596 13.9842C29.5774 14.1273 29.5588 14.2642 29.534 14.4011C29.5031 14.538 29.4659 14.6749 29.4287 14.8118C29.3853 14.9425 29.3357 15.0794 29.2799 15.21C29.2241 15.3345 29.1622 15.4652 29.094 15.5896C29.0258 15.7078 28.9514 15.8323 28.8709 15.9443C28.7903 16.0625 28.7035 16.1745 28.6167 16.2803C28.5238 16.3923 28.4246 16.4919 28.3254 16.5914C28.2634 16.6474 28.2077 16.6972 28.1457 16.747C28.0961 16.7905 28.0527 16.8279 28.0031 16.8714C27.8916 16.9586 27.78 17.0394 27.656 17.1141C27.5383 17.1888 27.4143 17.2635 27.2904 17.3257C27.1602 17.3879 27.03 17.4439 26.8999 17.4999C26.7697 17.5497 26.6334 17.5932 26.497 17.6306C26.3606 17.6679 26.2181 17.699 26.0817 17.7239C25.9392 17.7488 25.7966 17.7612 25.6603 17.7737C25.5611 17.7799 25.4619 17.7861 25.3628 17.7861C25.2202 17.7861 25.0777 17.7737 24.9413 17.7612C24.7987 17.7488 24.6562 17.7301 24.5198 17.699C24.3773 17.6741 24.2409 17.6368 24.1046 17.5932H24.0984C24.2347 17.5808 24.3711 17.5683 24.5074 17.5434C24.65 17.5185 24.7863 17.4874 24.9227 17.4501C25.0591 17.4128 25.1954 17.3692 25.3256 17.3194C25.4619 17.2697 25.5921 17.2074 25.716 17.1452C25.8462 17.083 25.964 17.0145 26.0879 16.9399C26.2057 16.859 26.3235 16.7781 26.435 16.691C26.5466 16.6039 26.6519 16.5105 26.7511 16.411C26.8565 16.3176 26.9495 16.2118 27.0424 16.1061C27.1354 15.9941 27.2222 15.8821 27.3027 15.77C27.3151 15.7514 27.3275 15.7265 27.3399 15.7078C27.4019 15.6083 27.4639 15.5087 27.5197 15.4091C27.5879 15.2847 27.6498 15.1602 27.7056 15.0296C27.7614 14.8989 27.811 14.7682 27.8544 14.6313C27.8978 14.5007 27.9287 14.3638 27.9597 14.2269C27.9845 14.0838 28.0093 13.9469 28.0217 13.81C28.0341 13.6669 28.0465 13.5237 28.0465 13.3869C28.0465 13.2873 28.0403 13.1877 28.0341 13.0882C28.0217 12.9451 28.0031 12.8082 27.9845 12.6713C27.9597 12.5282 27.9288 12.3913 27.8916 12.2544C27.8482 12.1237 27.8048 11.9868 27.7552 11.8561C27.7056 11.7255 27.6437 11.5948 27.5817 11.4703C27.5135 11.3459 27.4453 11.2214 27.3709 11.1032C27.2904 10.985 27.2098 10.873 27.123 10.761C27.0301 10.6552 26.9371 10.5494 26.8379 10.4436C26.7883 10.3939 26.7325 10.3379 26.6768 10.2881C26.3979 10.0703 26.1065 9.86495 25.8152 9.67828C25.7719 9.65338 25.7347 9.63472 25.6913 9.61605C25.4867 9.48539 25.2946 9.4169 25.1025 9.35468Z" fill="#E0234E"/>
</svg>
