<svg width="42" height="42" viewBox="0 0 42 42" fill="none" xmlns="http://www.w3.org/2000/svg">
<rect width="42" height="42" fill="white"/>
<path d="M20.2141 9.00646C20.1625 9.01115 19.9982 9.02757 19.8504 9.0393C16.4416 9.34658 13.2487 11.1856 11.2264 14.0122C10.1003 15.5838 9.38006 17.3665 9.10792 19.2548C9.01173 19.9139 9 20.1086 9 21.0023C9 21.8961 9.01173 22.0908 9.10792 22.7499C9.76012 27.256 12.9672 31.0419 17.3167 32.4447C18.0956 32.6956 18.9167 32.8669 19.8504 32.9701C20.2141 33.01 21.7859 33.01 22.1496 32.9701C23.7613 32.7918 25.1267 32.3931 26.4733 31.7058C26.6798 31.6002 26.7196 31.5721 26.6915 31.5486C26.6727 31.5345 25.793 30.3546 24.7372 28.9285L22.8182 26.3365L20.4135 22.778C19.0903 20.8217 18.0018 19.222 17.9924 19.222C17.983 19.2196 17.9736 20.8006 17.9689 22.7311C17.9619 26.1113 17.9595 26.2473 17.9173 26.3271C17.8563 26.442 17.8094 26.4889 17.7109 26.5405C17.6358 26.5781 17.5701 26.5851 17.2158 26.5851H16.81L16.7021 26.5171C16.6317 26.4725 16.5801 26.4139 16.5449 26.3458L16.4956 26.2403L16.5003 21.5372L16.5073 16.8317L16.5801 16.7402C16.6176 16.691 16.6974 16.6276 16.7537 16.5971C16.8499 16.5502 16.8874 16.5455 17.2933 16.5455C17.7718 16.5455 17.8516 16.5643 17.976 16.7003C18.0111 16.7379 19.3132 18.6989 20.871 21.061C22.4287 23.4231 24.5589 26.6484 25.6053 28.2318L27.5056 31.11L27.6018 31.0466C28.4534 30.493 29.3543 29.7049 30.0674 28.8839C31.5853 27.141 32.5636 25.0158 32.8921 22.7499C32.9883 22.0908 33 21.8961 33 21.0023C33 20.1086 32.9883 19.9139 32.8921 19.2548C32.2399 14.7487 29.0328 10.9628 24.6833 9.56004C23.9161 9.3114 23.0997 9.14016 22.1848 9.03695C21.9595 9.0135 20.4088 8.98769 20.2141 9.00646ZM25.1267 16.264C25.2393 16.3203 25.3308 16.4282 25.3636 16.5408C25.3824 16.6018 25.3871 17.906 25.3824 20.8452L25.3754 25.0627L24.6317 23.9227L23.8856 22.7827V19.7169C23.8856 17.7348 23.895 16.6206 23.9091 16.5666C23.9466 16.4353 24.0287 16.3321 24.1413 16.2711C24.2375 16.2218 24.2727 16.2171 24.6411 16.2171C24.9883 16.2171 25.0493 16.2218 25.1267 16.264Z" fill="black"/>
</svg>
