<svg width="42" height="42" viewBox="0 0 42 42" fill="none" xmlns="http://www.w3.org/2000/svg">
<rect width="42" height="42" fill="white"/>
<path d="M20.8627 28.3494C20.7835 28.3494 20.7049 28.3287 20.6354 28.2887L19.9118 27.8603C19.8038 27.7999 19.8565 27.7785 19.8921 27.7662C20.0362 27.7157 20.0655 27.7043 20.2193 27.617C20.2355 27.6077 20.2566 27.611 20.2732 27.6208L20.829 27.9506C20.8491 27.9615 20.8776 27.9615 20.8962 27.9506L23.0636 26.6996C23.0837 26.6882 23.0967 26.6648 23.0967 26.641V24.1399C23.0967 24.1149 23.0837 24.0927 23.0632 24.0802L20.8966 22.8302C20.8766 22.8183 20.85 22.8183 20.8299 22.8302L18.6638 24.0802C18.6428 24.0921 18.6294 24.1155 18.6294 24.1393V26.6404C18.6294 26.6643 18.6425 26.6871 18.6631 26.6985L19.2566 27.0413C19.5789 27.2025 19.7758 27.0126 19.7758 26.8216V24.3531C19.7758 24.3178 19.8035 24.2907 19.8388 24.2907H20.1133C20.1475 24.2907 20.1757 24.3178 20.1757 24.3531V26.8227C20.1757 27.2524 19.9413 27.4992 19.5338 27.4992C19.4085 27.4992 19.3098 27.4992 19.0342 27.3636L18.4656 27.0359C18.3251 26.9545 18.2383 26.8026 18.2383 26.6404V24.1393C18.2383 23.9766 18.3251 23.8247 18.4656 23.7444L20.6352 22.4928C20.7725 22.4152 20.9547 22.4152 21.0909 22.4928L23.2578 23.7449C23.3978 23.8258 23.4851 23.9771 23.4851 24.1399V26.641C23.4851 26.8032 23.3978 26.9545 23.2578 27.0359L21.0909 28.2875C21.0215 28.3277 20.9428 28.3483 20.8625 28.3483" fill="#689F63"/>
<path d="M21.532 26.6257C20.5836 26.6257 20.3848 26.1904 20.3848 25.8253C20.3848 25.7906 20.4128 25.7629 20.4475 25.7629H20.7275C20.7584 25.7629 20.7844 25.7854 20.7893 25.816C20.8316 26.1012 20.9575 26.2451 21.531 26.2451C21.9878 26.2451 22.182 26.1419 22.182 25.8997C22.182 25.7602 22.1267 25.6566 21.417 25.5872C20.8235 25.5286 20.4568 25.3978 20.4568 24.9231C20.4568 24.4858 20.8257 24.2254 21.4436 24.2254C22.1375 24.2254 22.4815 24.4663 22.5249 24.9839C22.5265 25.0018 22.52 25.0191 22.5081 25.0322C22.4961 25.0446 22.4793 25.0522 22.462 25.0522H22.1804C22.1511 25.0522 22.1256 25.0316 22.1196 25.0034C22.0518 24.7034 21.888 24.6074 21.4425 24.6074C20.944 24.6074 20.8859 24.781 20.8859 24.9112C20.8859 25.0691 20.9543 25.1152 21.627 25.2041C22.2932 25.2926 22.6095 25.4174 22.6095 25.8856C22.6095 26.3576 22.2156 26.6283 21.5288 26.6283M24.1688 23.9759H24.2415C24.3011 23.9759 24.3125 23.9341 24.3125 23.9097C24.3125 23.8456 24.2686 23.8456 24.2442 23.8456H24.1693L24.1688 23.9759ZM24.0803 23.7708H24.2415C24.2968 23.7708 24.4053 23.7708 24.4053 23.8945C24.4053 23.9807 24.35 23.9986 24.3169 24.0095C24.3814 24.0138 24.3858 24.0562 24.3945 24.1158C24.3988 24.1533 24.4059 24.2178 24.4189 24.2395H24.3196C24.3169 24.2178 24.3017 24.0985 24.3017 24.092C24.2952 24.0654 24.286 24.0524 24.2529 24.0524H24.1709V24.2401H24.0803V23.7708ZM23.8866 24.0041C23.8866 24.1983 24.0434 24.3556 24.236 24.3556C24.4303 24.3556 24.5871 24.195 24.5871 24.0041C24.5871 23.8093 24.4281 23.6547 24.2355 23.6547C24.0456 23.6547 23.8861 23.8071 23.8861 24.0035M24.6543 24.0052C24.6543 24.2352 24.4661 24.4229 24.2366 24.4229C24.0087 24.4229 23.8188 24.2374 23.8188 24.0052C23.8188 23.7686 24.0131 23.5874 24.2366 23.5874C24.4617 23.5874 24.6538 23.7692 24.6538 24.0052" fill="#689F63"/>
<path fill-rule="evenodd" clip-rule="evenodd" d="M14.1506 18.563C14.1506 18.4632 14.098 18.3715 14.0118 18.3219L11.7139 16.9997C11.6751 16.9769 11.6316 16.965 11.5876 16.9634H11.5638C11.5197 16.965 11.4763 16.9769 11.4368 16.9997L9.139 18.3219C9.05339 18.3718 9 18.4635 9 18.5633L9.00505 22.1245C9.00505 22.1738 9.03054 22.2199 9.07395 22.2444C9.11626 22.2704 9.16943 22.2704 9.21175 22.2444L10.5778 21.462C10.6641 21.4107 10.7167 21.32 10.7167 21.2211V19.5575C10.7167 19.4582 10.7694 19.3665 10.8554 19.3171L11.4369 18.9822C11.4801 18.9572 11.5275 18.9448 11.5758 18.9448C11.6234 18.9448 11.6719 18.9571 11.7139 18.9821L12.2952 19.317C12.3812 19.3663 12.4341 19.458 12.4341 19.5573V21.2209C12.4341 21.3196 12.4874 21.4108 12.5732 21.4618L13.9385 22.2435C13.9813 22.269 14.0346 22.269 14.0773 22.2435C14.1194 22.2191 14.1461 22.173 14.1461 22.1236L14.1506 18.563ZM24.9941 20.4172C24.9941 20.442 24.9809 20.4649 24.9593 20.4772L24.1701 20.9321C24.1486 20.9445 24.1222 20.9445 24.1008 20.9321L23.3114 20.4772C23.2897 20.4649 23.2767 20.4419 23.2767 20.4172V19.5059C23.2767 19.4811 23.2897 19.4582 23.3109 19.4457L24.0997 18.99C24.1214 18.9775 24.148 18.9775 24.1697 18.99L24.9591 19.4457C24.9808 19.4582 24.9938 19.4811 24.9938 19.5059L24.9941 20.4172ZM25.2073 13.668C25.1642 13.644 25.1118 13.6446 25.0693 13.6694C25.0269 13.6944 25.0008 13.74 25.0008 13.7893V17.3158C25.0008 17.3505 24.9823 17.3825 24.9523 17.3999C24.9225 17.4172 24.8853 17.4172 24.8552 17.3999L24.2796 17.0683C24.1938 17.0187 24.0883 17.0187 24.0022 17.0683L21.7035 18.395C21.6176 18.4444 21.5646 18.536 21.5646 18.6348V21.2889C21.5646 21.3881 21.6176 21.4793 21.7035 21.5292L24.0022 22.8568C24.088 22.9061 24.1937 22.9061 24.2798 22.8568L26.5785 21.5287C26.6643 21.4787 26.7174 21.3876 26.7174 21.2883V14.6738C26.7174 14.5731 26.6626 14.4805 26.5747 14.4312L25.2073 13.668ZM32.862 19.4819C32.9474 19.4324 33 19.3408 33 19.242V18.5988C33 18.4999 32.9474 18.4085 32.8618 18.3587L30.5778 17.0328C30.4915 16.9829 30.3857 16.9829 30.2994 17.0328L28.0013 18.3593C27.915 18.4092 27.8624 18.5003 27.8624 18.5996V21.2526C27.8624 21.3524 27.9161 21.4447 28.0024 21.494L30.2859 22.7956C30.37 22.8439 30.473 22.8444 30.5582 22.7972L31.9395 22.0295C31.9829 22.0051 32.0106 21.959 32.0106 21.9091C32.0106 21.8592 31.984 21.8125 31.9406 21.7881L29.6283 20.4611C29.5849 20.4366 29.5583 20.3905 29.5583 20.3412V19.5089C29.5583 19.4592 29.5844 19.4134 29.6278 19.3887L30.3472 18.9737C30.39 18.9487 30.4427 18.9487 30.4855 18.9737L31.2055 19.3887C31.2483 19.4131 31.2749 19.4592 31.2749 19.5086V20.1629C31.2749 20.2123 31.3015 20.2584 31.3444 20.2833C31.3872 20.3077 31.4404 20.3077 31.4832 20.2828L32.862 19.4819Z" fill="#333333"/>
<path fill-rule="evenodd" clip-rule="evenodd" d="M30.4054 19.3578C30.4217 19.3482 30.4421 19.3482 30.4586 19.3578L30.8997 19.6122C30.9162 19.6218 30.9263 19.6394 30.9263 19.6584V20.1678C30.9263 20.1868 30.9162 20.2044 30.8997 20.2139L30.4586 20.4684C30.4421 20.478 30.4217 20.478 30.4054 20.4684L29.9646 20.2139C29.9478 20.2044 29.9375 20.1868 29.9375 20.1678V19.6584C29.9375 19.6394 29.9473 19.6218 29.9641 19.6122L30.4054 19.3578Z" fill="#689F63"/>
<mask id="mask0_858_2175" style="mask-type:luminance" maskUnits="userSpaceOnUse" x="15" y="17" width="6" height="6">
<path d="M17.7197 17.0462L15.434 18.3654C15.3484 18.4148 15.2959 18.506 15.2959 18.6045V21.2449C15.2959 21.3435 15.3484 21.4346 15.434 21.4839L17.7199 22.8042C17.8053 22.8534 17.9107 22.8534 17.996 22.8042L20.2815 21.4839C20.3667 21.4346 20.4193 21.3434 20.4193 21.2449V18.6045C20.4193 18.506 20.3667 18.4148 20.281 18.3654L17.9958 17.0462C17.953 17.0216 17.9052 17.0093 17.8575 17.0093C17.8097 17.0093 17.762 17.0216 17.7191 17.0462" fill="white"/>
</mask>
<g mask="url(#mask0_858_2175)">
<path d="M22.7294 18.1414L16.2887 14.9844L12.9863 21.7212L19.4268 24.8784L22.7294 18.1414Z" fill="url(#paint0_linear_858_2175)"/>
</g>
<mask id="mask1_858_2175" style="mask-type:luminance" maskUnits="userSpaceOnUse" x="15" y="17" width="6" height="6">
<path d="M15.3525 21.4125C15.3744 21.4409 15.4017 21.4655 15.4339 21.4839L17.3946 22.6165L17.7212 22.8042C17.7701 22.8324 17.8257 22.8443 17.8804 22.8403C17.8986 22.8388 17.9169 22.8354 17.9347 22.8303L20.3454 18.4163C20.3269 18.3962 20.3053 18.3794 20.2811 18.3653L18.7845 17.501L17.9934 17.0458C17.9709 17.0328 17.9465 17.0236 17.9218 17.0171L15.3525 21.4125Z" fill="white"/>
</mask>
<g mask="url(#mask1_858_2175)">
<path d="M12.5684 19.0748L17.1161 25.23L23.1306 20.7864L18.5826 14.6313L12.5684 19.0748Z" fill="url(#paint1_linear_858_2175)"/>
</g>
<mask id="mask2_858_2175" style="mask-type:luminance" maskUnits="userSpaceOnUse" x="15" y="17" width="6" height="6">
<path d="M17.83 17.0108C17.7917 17.0146 17.7542 17.0265 17.7196 17.0462L15.4404 18.3616L17.8981 22.8381C17.9323 22.8332 17.9659 22.8218 17.9963 22.8042L20.282 21.4839C20.3525 21.443 20.4008 21.3738 20.4155 21.2953L17.91 17.0153C17.8916 17.0117 17.8731 17.0098 17.8542 17.0098C17.8466 17.0098 17.839 17.0101 17.8314 17.0109" fill="white"/>
</mask>
<g mask="url(#mask2_858_2175)">
<path d="M15.4404 17.0098V22.8382H20.4145V17.0098H15.4404Z" fill="url(#paint2_linear_858_2175)"/>
</g>
<defs>
<linearGradient id="paint0_linear_858_2175" x1="19.5071" y1="16.5579" x2="16.205" y2="23.2943" gradientUnits="userSpaceOnUse">
<stop offset="0.3" stop-color="#3E863D"/>
<stop offset="0.5" stop-color="#55934F"/>
<stop offset="0.8" stop-color="#5AAD45"/>
</linearGradient>
<linearGradient id="paint1_linear_858_2175" x1="14.8695" y1="22.1877" x2="20.8842" y2="17.7435" gradientUnits="userSpaceOnUse">
<stop offset="0.57" stop-color="#3E863D"/>
<stop offset="0.72" stop-color="#619857"/>
<stop offset="1" stop-color="#76AC64"/>
</linearGradient>
<linearGradient id="paint2_linear_858_2175" x1="15.4421" y1="19.9241" x2="20.4155" y2="19.9241" gradientUnits="userSpaceOnUse">
<stop offset="0.16" stop-color="#6BBF47"/>
<stop offset="0.38" stop-color="#79B461"/>
<stop offset="0.47" stop-color="#75AC64"/>
<stop offset="0.7" stop-color="#659E5A"/>
<stop offset="0.9" stop-color="#3E863D"/>
</linearGradient>
</defs>
</svg>
