<svg width="42" height="42" viewBox="0 0 42 42" fill="none" xmlns="http://www.w3.org/2000/svg">
<rect width="42" height="42" fill="white"/>
<g clip-path="url(#clip0_273_2484)">
<path d="M20.9996 23.5045C22.3779 23.5045 23.4952 22.3832 23.4952 21.0001C23.4952 19.6169 22.3779 18.4956 20.9996 18.4956C19.6212 18.4956 18.5039 19.6169 18.5039 21.0001C18.5039 22.3832 19.6212 23.5045 20.9996 23.5045Z" fill="#61DAFB"/>
<path d="M21.0007 26.1313C28.3965 26.1313 34.392 23.8341 34.392 21.0002C34.392 18.1664 28.3965 15.8691 21.0007 15.8691C13.6049 15.8691 7.60938 18.1664 7.60938 21.0002C7.60938 23.8341 13.6049 26.1313 21.0007 26.1313Z" stroke="#61DAFB"/>
<path d="M16.572 23.5656C20.2699 29.9932 25.2502 34.0551 27.6957 32.6382C30.1412 31.2213 29.126 24.8621 25.4281 18.4345C21.7302 12.007 16.7499 7.94502 14.3044 9.36193C11.8589 10.7788 12.8741 17.1381 16.572 23.5656Z" stroke="#61DAFB"/>
<path d="M16.5733 18.4348C12.8754 24.8624 11.8601 31.2216 14.3057 32.6385C16.7512 34.0554 21.7314 29.9935 25.4293 23.5659C29.1273 17.1383 30.1425 10.7791 27.697 9.36219C25.2514 7.94528 20.2712 12.0072 16.5733 18.4348Z" stroke="#61DAFB"/>
</g>
<defs>
<clipPath id="clip0_273_2484">
<rect width="28" height="25" fill="white" transform="translate(7 8.5)"/>
</clipPath>
</defs>
</svg>
