<svg width="42" height="42" viewBox="0 0 42 42" fill="none" xmlns="http://www.w3.org/2000/svg">
<rect width="42" height="42" fill="white"/>
<path d="M31.7626 18.6672C31.7626 17.2293 29.9619 15.8666 27.2011 15.0216C27.8382 12.2077 27.5551 9.96894 26.3073 9.25219C26.0197 9.08406 25.6836 9.00442 25.3163 9.00442V9.99106C25.5198 9.99106 25.6836 10.0309 25.8207 10.1061C26.4224 10.4512 26.6835 11.7652 26.4799 13.4553C26.4313 13.8712 26.3517 14.3092 26.2543 14.7561C25.3871 14.5437 24.4403 14.38 23.4448 14.2739C22.8475 13.4553 22.2281 12.712 21.6042 12.0617C23.0466 10.7211 24.4005 9.98663 25.3208 9.98663V9C24.104 9 22.5113 9.86718 20.9008 11.3715C19.2903 9.87603 17.6976 9.0177 16.4809 9.0177V10.0043C17.3967 10.0043 18.755 10.7344 20.1973 12.0661C19.5779 12.7165 18.9585 13.4553 18.37 14.2739C17.3701 14.38 16.4233 14.5437 15.5561 14.7605C15.4543 14.3181 15.3792 13.8889 15.326 13.4775C15.1182 11.7874 15.3747 10.4733 15.9721 10.1238C16.1047 10.0442 16.2773 10.0088 16.4809 10.0088V9.02212C16.1092 9.02212 15.7729 9.10176 15.481 9.26989C14.2377 9.98663 13.959 12.2209 14.6005 15.026C11.8485 15.8755 10.0566 17.2338 10.0566 18.6672C10.0566 20.1052 11.8574 21.4679 14.6182 22.3129C13.981 25.1269 14.2642 27.3655 15.5119 28.0823C15.7995 28.2504 16.1357 28.33 16.5074 28.33C17.7241 28.33 19.3169 27.4629 20.9273 25.9586C22.5378 27.4541 24.1306 28.3124 25.3473 28.3124C25.7189 28.3124 26.0552 28.2328 26.3472 28.0646C27.5904 27.3478 27.8692 25.1135 27.2276 22.3086C29.9707 21.4635 31.7626 20.1008 31.7626 18.6672ZM26.0021 15.7162C25.8384 16.287 25.6349 16.8753 25.4048 17.4638C25.2234 17.1099 25.0332 16.7559 24.8252 16.4019C24.6217 16.048 24.4048 15.7029 24.1881 15.3667C24.8163 15.4596 25.4225 15.5746 26.0021 15.7162ZM23.9757 20.4281C23.6306 21.0255 23.2767 21.5918 22.9095 22.1183C22.2502 22.1758 21.5822 22.2068 20.9096 22.2068C20.2415 22.2068 19.5734 22.1758 18.9187 22.1227C18.5515 21.5961 18.193 21.0343 17.8479 20.4414C17.5117 19.8618 17.2065 19.2734 16.9277 18.6806C17.202 18.0877 17.5117 17.4948 17.8436 16.9152C18.1887 16.318 18.5426 15.7516 18.9098 15.2251C19.5691 15.1676 20.2371 15.1366 20.9096 15.1366C21.5777 15.1366 22.2458 15.1676 22.9006 15.2207C23.2678 15.7472 23.6262 16.309 23.9713 16.902C24.3076 17.4815 24.6128 18.07 24.8916 18.6629C24.6128 19.2557 24.3076 19.8486 23.9757 20.4281ZM25.4048 19.853C25.637 20.4296 25.8408 21.0173 26.0154 21.6139C25.4357 21.7554 24.8252 21.8749 24.1925 21.9678C24.4093 21.6272 24.6261 21.2777 24.8297 20.9192C25.0332 20.5654 25.2234 20.2069 25.4048 19.853ZM20.9184 24.5738C20.507 24.149 20.0955 23.6756 19.6885 23.158C20.0867 23.1757 20.4937 23.189 20.9052 23.189C21.3211 23.189 21.7326 23.1802 22.1352 23.158C21.7554 23.6515 21.3492 24.1242 20.9184 24.5738ZM17.6267 21.9678C16.9985 21.8749 16.3923 21.7599 15.8128 21.6183C15.9764 21.0476 16.18 20.4591 16.41 19.8706C16.5915 20.2246 16.7817 20.5786 16.9896 20.9325C17.1976 21.2865 17.41 21.6316 17.6267 21.9678ZM20.8964 12.7607C21.3078 13.1855 21.7193 13.6589 22.1263 14.1765C21.7281 14.1588 21.3211 14.1456 20.9096 14.1456C20.4937 14.1456 20.0823 14.1544 19.6797 14.1765C20.0594 13.683 20.4656 13.2104 20.8964 12.7607ZM17.6223 15.3667C17.4055 15.7074 17.1887 16.0569 16.9852 16.4152C16.7817 16.7692 16.5915 17.1232 16.41 17.4771C16.1778 16.9005 15.974 16.3128 15.7995 15.7162C16.3791 15.579 16.9896 15.4596 17.6223 15.3667ZM13.6182 20.906C12.052 20.2379 11.0389 19.3619 11.0389 18.6672C11.0389 17.9726 12.052 17.0922 13.6182 16.4286C13.9987 16.2648 14.4147 16.1188 14.8438 15.9817C15.096 16.8488 15.4278 17.7514 15.8393 18.6761C15.4323 19.5964 15.1048 20.4945 14.8571 21.3573C14.4191 21.2201 14.0032 21.0697 13.6182 20.906ZM15.9986 27.2284C15.3969 26.8833 15.1358 25.5693 15.3394 23.8791C15.3881 23.4633 15.4676 23.0252 15.565 22.5784C16.4322 22.7908 17.379 22.9545 18.3745 23.0607C18.9717 23.8791 19.5911 24.6224 20.215 25.2728C18.7727 26.6135 17.4188 27.3478 16.4985 27.3478C16.2994 27.3435 16.1313 27.3036 15.9986 27.2284ZM26.4932 23.8571C26.7011 25.5472 26.4446 26.8612 25.8472 27.2107C25.7145 27.2904 25.542 27.3258 25.3384 27.3258C24.4226 27.3258 23.0643 26.5957 21.622 25.264C22.2414 24.6136 22.8608 23.8748 23.4493 23.0562C24.4492 22.95 25.396 22.7863 26.2631 22.5696C26.3649 23.0164 26.4446 23.4456 26.4932 23.8571ZM28.1966 20.906C27.8161 21.0697 27.4002 21.2157 26.971 21.3529C26.7188 20.4857 26.387 19.5831 25.9755 18.6584C26.3826 17.7381 26.71 16.84 26.9577 15.9772C27.3958 16.1144 27.8116 16.2648 28.201 16.4286C29.7672 17.0966 30.7804 17.9726 30.7804 18.6672C30.776 19.3619 29.7628 20.2423 28.1966 20.906Z" fill="#61DAFB"/>
<path d="M20.9051 20.6894C22.0218 20.6894 22.9271 19.7842 22.9271 18.6674C22.9271 17.5507 22.0218 16.6455 20.9051 16.6455C19.7884 16.6455 18.8832 17.5507 18.8832 18.6674C18.8832 19.7842 19.7884 20.6894 20.9051 20.6894ZM11.0422 31.8116H10.3747V32.9611H9.99805V30.1195H10.9387C11.2588 30.1195 11.5047 30.1925 11.6764 30.3382C11.8495 30.4838 11.936 30.6959 11.936 30.9743C11.936 31.1513 11.8879 31.3055 11.7916 31.4369C11.6966 31.5683 11.5639 31.6666 11.3935 31.7316L12.0609 32.9377V32.9611H11.6589L11.0422 31.8116ZM10.3747 31.5052H10.9504C11.1365 31.5052 11.2842 31.457 11.3935 31.3608C11.504 31.2645 11.5593 31.1357 11.5593 30.9743C11.5593 30.7987 11.5066 30.6641 11.4013 30.5704C11.2972 30.4767 11.1462 30.4292 10.9485 30.4279H10.3747V31.5052ZM13.2827 33.0002C12.9964 33.0002 12.7635 32.9065 12.5839 32.7191C12.4044 32.5304 12.3146 32.2787 12.3146 31.9639V31.8975C12.3146 31.688 12.3543 31.5013 12.4337 31.3374C12.5143 31.1721 12.6262 31.0433 12.7693 30.951C12.9138 30.8573 13.0699 30.8104 13.2377 30.8104C13.5123 30.8104 13.7257 30.9008 13.8778 31.0817C14.0301 31.2625 14.1062 31.5214 14.1062 31.8584V32.0087H12.6757C12.6809 32.2169 12.7414 32.3854 12.8572 32.5142C12.9743 32.6417 13.1226 32.7055 13.3021 32.7055C13.4297 32.7055 13.5376 32.6794 13.6261 32.6274C13.7146 32.5754 13.792 32.5064 13.8583 32.4205L14.0789 32.5923C13.9019 32.8642 13.6365 33.0002 13.2827 33.0002ZM13.2377 31.1071C13.092 31.1071 12.9697 31.1604 12.8708 31.2671C12.7719 31.3725 12.7108 31.5208 12.6874 31.7121H13.7452V31.6848C13.7348 31.5013 13.6853 31.3595 13.5969 31.2593C13.5083 31.1578 13.3886 31.1071 13.2377 31.1071ZM15.8295 32.9611C15.8086 32.9195 15.7917 32.8454 15.7787 32.7386C15.6109 32.9129 15.4105 33.0002 15.1776 33.0002C14.9695 33.0002 14.7984 32.9416 14.6644 32.8245C14.5317 32.7061 14.4653 32.5565 14.4653 32.3756C14.4653 32.1558 14.5486 31.9853 14.7151 31.8643C14.8829 31.7419 15.1185 31.6808 15.4216 31.6808H15.7729V31.515C15.7729 31.3888 15.7351 31.2885 15.6597 31.2144C15.5842 31.1389 15.4729 31.1013 15.3259 31.1013C15.1971 31.1013 15.0892 31.1337 15.002 31.1988C14.9149 31.2638 14.8712 31.3426 14.8712 31.435H14.5082C14.5082 31.3296 14.5453 31.2281 14.6194 31.1304C14.6949 31.0316 14.7964 30.9535 14.924 30.8963C15.0528 30.8391 15.1939 30.8104 15.3474 30.8104C15.5908 30.8104 15.7813 30.8715 15.9192 30.9939C16.0571 31.1149 16.1287 31.2821 16.1339 31.4954V32.4673C16.1339 32.6612 16.1586 32.8154 16.2081 32.9298V32.9611H15.8295ZM15.2304 32.686C15.3435 32.686 15.4509 32.6567 15.5524 32.5981C15.6538 32.5396 15.7273 32.4635 15.7729 32.3698V31.9366H15.4899C15.0475 31.9366 14.8263 32.066 14.8263 32.3249C14.8263 32.438 14.8641 32.5266 14.9395 32.5903C15.015 32.654 15.1119 32.686 15.2304 32.686ZM17.5469 32.7055C17.6757 32.7055 17.7883 32.6664 17.8845 32.5883C17.9808 32.5103 18.0341 32.4127 18.0445 32.2956H18.3861C18.3796 32.4166 18.338 32.5317 18.2612 32.6411C18.1844 32.7504 18.0816 32.8375 17.9528 32.9025C17.8253 32.9676 17.69 33.0002 17.5469 33.0002C17.2594 33.0002 17.0304 32.9045 16.8599 32.7133C16.6908 32.5207 16.6062 32.2579 16.6062 31.9248V31.8643C16.6062 31.6587 16.6439 31.4759 16.7194 31.3159C16.7949 31.1559 16.9028 31.0316 17.0434 30.9432C17.1852 30.8546 17.3524 30.8104 17.5449 30.8104C17.7817 30.8104 17.9782 30.8813 18.1343 31.0232C18.2918 31.165 18.3756 31.3491 18.3861 31.5754H18.0445C18.0341 31.4388 17.9821 31.3269 17.8884 31.2398C17.7961 31.1513 17.6815 31.1071 17.5449 31.1071C17.3615 31.1071 17.219 31.1734 17.1175 31.3061C17.0174 31.4375 16.9672 31.6282 16.9672 31.878V31.9462C16.9672 32.1895 17.0174 32.3769 17.1175 32.5083C17.2177 32.6398 17.3609 32.7055 17.5469 32.7055ZM19.2819 30.3382V30.8495H19.6761V31.1286H19.2819V32.438C19.2819 32.5226 19.2995 32.5863 19.3346 32.6293C19.3697 32.6709 19.4296 32.6918 19.5142 32.6918C19.5557 32.6918 19.613 32.684 19.6858 32.6684V32.9611C19.5908 32.9871 19.4985 33.0002 19.4087 33.0002C19.2474 33.0002 19.1258 32.9513 19.0437 32.8538C18.9618 32.7562 18.9209 32.6176 18.9209 32.438V31.1286H18.5363V30.8495H18.9209V30.3382H19.2819ZM23.3315 32.9611H22.9548L21.5243 30.7714V32.9611H21.1477V30.1195H21.5243L22.9587 32.319V30.1195H23.3315V32.9611ZM25.2441 32.9611C25.2232 32.9195 25.2063 32.8454 25.1933 32.7386C25.0255 32.9129 24.8251 33.0002 24.5922 33.0002C24.3841 33.0002 24.2129 32.9416 24.079 32.8245C23.9463 32.7061 23.8799 32.5565 23.8799 32.3756C23.8799 32.1558 23.9631 31.9853 24.1297 31.8643C24.2975 31.7419 24.5331 31.6808 24.8362 31.6808H25.1875V31.515C25.1875 31.3888 25.1497 31.2885 25.0742 31.2144C24.9988 31.1389 24.8875 31.1013 24.7405 31.1013C24.6117 31.1013 24.5038 31.1337 24.4166 31.1988C24.3295 31.2638 24.2858 31.3426 24.2858 31.435H23.9228C23.9228 31.3296 23.9599 31.2281 24.034 31.1304C24.1095 31.0316 24.211 30.9535 24.3386 30.8963C24.4674 30.8391 24.6084 30.8104 24.762 30.8104C25.0053 30.8104 25.1959 30.8715 25.3338 30.9939C25.4717 31.1149 25.5433 31.2821 25.5485 31.4954V32.4673C25.5485 32.6612 25.5732 32.8154 25.6227 32.9298V32.9611H25.2441ZM24.645 32.686C24.7581 32.686 24.8655 32.6567 24.967 32.5981C25.0684 32.5396 25.1419 32.4635 25.1875 32.3698V31.9366H24.9045C24.4621 31.9366 24.2409 32.066 24.2409 32.3249C24.2409 32.438 24.2787 32.5266 24.3541 32.5903C24.4296 32.654 24.5265 32.686 24.645 32.686ZM26.6043 30.3382V30.8495H26.9986V31.1286H26.6043V32.438C26.6043 32.5226 26.6219 32.5863 26.6571 32.6293C26.6922 32.6709 26.752 32.6918 26.8366 32.6918C26.8782 32.6918 26.9355 32.684 27.0084 32.6684V32.9611C26.9133 32.9871 26.821 33.0002 26.7312 33.0002C26.5699 33.0002 26.4482 32.9513 26.3662 32.8538C26.2843 32.7562 26.2433 32.6176 26.2433 32.438V31.1286H25.8589V30.8495H26.2433V30.3382H26.6043ZM27.8144 32.9611H27.4533V30.8495H27.8144V32.9611ZM27.424 30.2893C27.424 30.2308 27.4416 30.1814 27.4767 30.141C27.5131 30.1006 27.5665 30.0806 27.6367 30.0806C27.707 30.0806 27.7604 30.1006 27.7968 30.141C27.8332 30.1814 27.8514 30.2308 27.8514 30.2893C27.8514 30.3479 27.8332 30.3967 27.7968 30.4357C27.7604 30.4747 27.707 30.4943 27.6367 30.4943C27.5665 30.4943 27.5131 30.4747 27.4767 30.4357C27.4416 30.3967 27.424 30.3479 27.424 30.2893ZM29.0907 32.4713L29.6137 30.8495H29.9826L29.2254 32.9611H28.9501L28.1852 30.8495H28.554L29.0907 32.4713ZM31.1789 33.0002C30.8927 33.0002 30.6598 32.9065 30.4802 32.7191C30.3007 32.5304 30.2109 32.2787 30.2109 31.9639V31.8975C30.2109 31.688 30.2506 31.5013 30.33 31.3374C30.4106 31.1721 30.5225 31.0433 30.6656 30.951C30.8101 30.8573 30.9662 30.8104 31.134 30.8104C31.4085 30.8104 31.6219 30.9008 31.7742 31.0817C31.9264 31.2625 32.0025 31.5214 32.0025 31.8584V32.0087H30.572C30.5772 32.2169 30.6376 32.3854 30.7535 32.5142C30.8705 32.6417 31.0189 32.7055 31.1984 32.7055C31.3259 32.7055 31.434 32.6794 31.5224 32.6274C31.6109 32.5754 31.6883 32.5064 31.7547 32.4205L31.9752 32.5923C31.7982 32.8642 31.5328 33.0002 31.1789 33.0002ZM31.134 31.1071C30.9884 31.1071 30.866 31.1604 30.7671 31.2671C30.6682 31.3725 30.6071 31.5208 30.5837 31.7121H31.6414V31.6848C31.631 31.5013 31.5816 31.3595 31.4931 31.2593C31.4047 31.1578 31.285 31.1071 31.134 31.1071Z" fill="#61DAFB"/>
</svg>
