<svg width="42" height="42" viewBox="0 0 42 42" fill="none" xmlns="http://www.w3.org/2000/svg">
<rect width="42" height="42" fill="white"/>
<path d="M28.125 17.25C28.125 17.4725 28.059 17.69 27.9354 17.875C27.8118 18.06 27.6361 18.2042 27.4305 18.2894C27.225 18.3745 26.9988 18.3968 26.7805 18.3534C26.5623 18.31 26.3618 18.2028 26.2045 18.0455C26.0472 17.8882 25.94 17.6877 25.8966 17.4695C25.8532 17.2512 25.8755 17.025 25.9606 16.8195C26.0458 16.6139 26.19 16.4382 26.375 16.3146C26.56 16.191 26.7775 16.125 27 16.125C27.2984 16.125 27.5845 16.2435 27.7955 16.4545C28.0065 16.6655 28.125 16.9516 28.125 17.25ZM27 23.625C26.7775 23.625 26.56 23.691 26.375 23.8146C26.19 23.9382 26.0458 24.1139 25.9606 24.3195C25.8755 24.525 25.8532 24.7512 25.8966 24.9695C25.94 25.1877 26.0472 25.3882 26.2045 25.5455C26.3618 25.7028 26.5623 25.81 26.7805 25.8534C26.9988 25.8968 27.225 25.8745 27.4305 25.7894C27.6361 25.7042 27.8118 25.56 27.9354 25.375C28.059 25.19 28.125 24.9725 28.125 24.75C28.125 24.4516 28.0065 24.1655 27.7955 23.9545C27.5845 23.7435 27.2984 23.625 27 23.625ZM18 18.75C17.7033 18.75 17.4133 18.838 17.1666 19.0028C16.92 19.1676 16.7277 19.4019 16.6142 19.676C16.5006 19.9501 16.4709 20.2517 16.5288 20.5426C16.5867 20.8336 16.7296 21.1009 16.9393 21.3107C17.1491 21.5204 17.4164 21.6633 17.7074 21.7212C17.9983 21.7791 18.2999 21.7494 18.574 21.6358C18.8481 21.5223 19.0824 21.33 19.2472 21.0834C19.412 20.8367 19.5 20.5467 19.5 20.25C19.5 19.8522 19.342 19.4706 19.0607 19.1893C18.7794 18.908 18.3978 18.75 18 18.75ZM30.75 14.25V27.75C30.75 28.1478 30.592 28.5294 30.3107 28.8107C30.0294 29.092 29.6478 29.25 29.25 29.25H12.75C12.3522 29.25 11.9706 29.092 11.6893 28.8107C11.408 28.5294 11.25 28.1478 11.25 27.75V14.25C11.25 13.8522 11.408 13.4706 11.6893 13.1893C11.9706 12.908 12.3522 12.75 12.75 12.75H29.25C29.6478 12.75 30.0294 12.908 30.3107 13.1893C30.592 13.4706 30.75 13.8522 30.75 14.25ZM24.75 20.25H29.25V14.25H24.75V20.25ZM21.7266 24.5625C21.4839 23.6563 20.9084 22.875 20.115 22.3744C20.5363 21.9555 20.8238 21.421 20.941 20.8386C21.0582 20.2562 20.9999 19.652 20.7733 19.1028C20.5468 18.5536 20.1623 18.084 19.6686 17.7536C19.1748 17.4232 18.5941 17.2468 18 17.2468C17.4059 17.2468 16.8252 17.4232 16.3314 17.7536C15.8377 18.084 15.4532 18.5536 15.2267 19.1028C15.0001 19.652 14.9418 20.2562 15.059 20.8386C15.1762 21.421 15.4637 21.9555 15.885 22.3744C15.0921 22.8755 14.5168 23.6566 14.2734 24.5625C14.2237 24.7552 14.2526 24.9598 14.3537 25.1312C14.4548 25.3026 14.6198 25.4268 14.8125 25.4766C15.0052 25.5263 15.2098 25.4974 15.3812 25.3963C15.5526 25.2952 15.6768 25.1302 15.7266 24.9375C15.9741 23.9766 16.9509 23.25 18 23.25C19.0491 23.25 20.0269 23.9747 20.2734 24.9375C20.3232 25.1302 20.4474 25.2952 20.6188 25.3963C20.7902 25.4974 20.9948 25.5263 21.1875 25.4766C21.3802 25.4268 21.5452 25.3026 21.6463 25.1312C21.7474 24.9598 21.7763 24.7552 21.7266 24.5625ZM29.25 27.75V21.75H24.75V27.75H29.25Z" fill="#0D6EFD"/>
</svg>
