<svg width="42" height="42" viewBox="0 0 42 42" fill="none" xmlns="http://www.w3.org/2000/svg">
<rect width="42" height="42" fill="white"/>
<g clip-path="url(#clip0_858_2535)">
<path d="M29.9996 21C29.9996 20.46 29.9496 19.92 29.8496 19.37L32.8996 17.62L29.9096 12.42L26.8596 14.17C26.0196 13.45 25.0496 12.89 23.9996 12.52V9H17.9996V12.52C16.9496 12.89 15.9796 13.45 15.1396 14.17L12.0896 12.42L9.09961 17.62L12.1496 19.37C12.0496 19.91 11.9996 20.46 11.9996 21C11.9996 21.54 12.0496 22.08 12.1496 22.63L9.09961 24.38L12.0896 29.58L15.1396 27.83C15.9796 28.55 16.9496 29.11 17.9996 29.48V33H23.9996V29.48C25.0496 29.11 26.0196 28.55 26.8596 27.83L29.9096 29.58L32.8996 24.38L29.8496 22.63C29.9496 22.09 29.9996 21.54 29.9996 21ZM18.7096 22.75L17.2996 24.16L15.5896 22.45C14.8096 21.67 14.8096 20.41 15.5896 19.64L17.2996 17.93L18.7096 19.34L16.9996 21.05L18.7096 22.74V22.75ZM20.9796 26.2L19.0196 25.81L21.0196 15.81L22.9796 16.2L20.9796 26.2ZM26.4196 22.45L24.7096 24.16L23.2996 22.75L25.0096 21.04L23.2996 19.34L24.7096 17.93L26.4196 19.64C27.1996 20.42 27.1996 21.68 26.4196 22.45Z" fill="#FD7E14"/>
</g>
<defs>
<clipPath id="clip0_858_2535">
<rect width="24" height="24" fill="white" transform="translate(9 9)"/>
</clipPath>
</defs>
</svg>
