<svg width="42" height="42" viewBox="0 0 42 42" fill="none" xmlns="http://www.w3.org/2000/svg">
<rect width="42" height="42" fill="white"/>
<g clip-path="url(#clip0_273_2525)">
<path d="M29.7149 12.1727C27.4926 8.9795 23.0686 8.0439 19.8882 10.0575L14.2816 13.6371C12.7526 14.5931 11.6924 16.1592 11.3866 17.9286C11.1216 19.4134 11.3459 20.9388 12.0594 22.2609C11.5701 22.9931 11.2439 23.8066 11.1012 24.6609C10.775 26.471 11.2031 28.3422 12.2633 29.827C14.5059 33.0202 18.9096 33.9558 22.09 31.9422L27.6965 28.3829C29.2256 27.427 30.2857 25.8609 30.5915 24.0914C30.8566 22.6066 30.6323 21.0812 29.9187 19.7592C30.408 19.027 30.7342 18.2134 30.8769 17.3592C31.2235 15.5286 30.7954 13.6575 29.7149 12.1727Z" fill="#FF3E00"/>
<path d="M19.3383 30.1321C17.5238 30.5999 15.6278 29.888 14.5677 28.3626C13.9153 27.4677 13.6706 26.3491 13.8541 25.2508C13.8949 25.0677 13.9357 24.905 13.9764 24.7219L14.0784 24.3965L14.3638 24.5999C15.0366 25.088 15.7705 25.4541 16.5656 25.6982L16.7695 25.7592L16.7491 25.9626C16.7287 26.2474 16.8103 26.5525 16.9734 26.7965C17.2996 27.2643 17.8704 27.488 18.4209 27.3457C18.5432 27.305 18.6655 27.2643 18.7675 27.2033L24.3536 23.644C24.639 23.4609 24.8225 23.1965 24.8837 22.8711C24.9448 22.5457 24.8633 22.1999 24.6798 21.9355C24.3536 21.4677 23.7827 21.2643 23.2323 21.4067C23.11 21.4474 22.9876 21.488 22.8857 21.5491L20.745 22.9118C20.3984 23.1355 20.0111 23.2982 19.6033 23.3999C17.7889 23.8677 15.8928 23.1558 14.8327 21.6304C14.2007 20.7355 13.9357 19.6169 14.1395 18.5186C14.323 17.4609 14.9754 16.505 15.8928 15.9355L21.4994 12.3762C21.8459 12.1525 22.2333 11.9897 22.6411 11.8677C24.4555 11.3999 26.3516 12.1118 27.4117 13.6372C28.0641 14.5321 28.3087 15.6508 28.1253 16.7491C28.0845 16.9321 28.0437 17.0948 27.9825 17.2779L27.8806 17.6033L27.5952 17.3999C26.9224 16.9118 26.1885 16.5457 25.3933 16.3016L25.1895 16.2406L25.2099 16.0372C25.2302 15.7525 25.1487 15.4474 24.9856 15.2033C24.6594 14.7355 24.0886 14.5321 23.5381 14.6745C23.4158 14.7152 23.2934 14.7558 23.1915 14.8169L17.6054 18.3762C17.32 18.5592 17.1365 18.8236 17.0753 19.1491C17.0141 19.4745 17.0957 19.8203 17.2792 20.0847C17.6054 20.5525 18.1762 20.7558 18.7267 20.6135C18.849 20.5728 18.9713 20.5321 19.0733 20.4711L21.2139 19.1084C21.5605 18.8847 21.9479 18.7219 22.3556 18.5999C24.1701 18.1321 26.0661 18.844 27.1263 20.3694C27.7787 21.2643 28.0233 22.383 27.8398 23.4813C27.6563 24.5389 27.004 25.4948 26.0865 26.0643L20.48 29.6236C20.1334 29.8474 19.746 30.0101 19.3383 30.1321Z" fill="white"/>
</g>
<defs>
<clipPath id="clip0_273_2525">
<rect width="20" height="24" fill="white" transform="translate(11 9)"/>
</clipPath>
</defs>
</svg>
