<svg width="42" height="42" viewBox="0 0 42 42" fill="none" xmlns="http://www.w3.org/2000/svg">
<rect width="42" height="42" fill="white"/>
<path fill-rule="evenodd" clip-rule="evenodd" d="M23.853 22.4939C24.5262 22.4939 25.0771 21.9456 25.0771 21.2734C25.0771 20.6011 24.528 20.0527 23.853 20.0527C23.1799 20.0527 22.6309 20.6011 22.6309 21.2734C22.629 21.9456 23.1799 22.4939 23.853 22.4939Z" fill="#ECB32D"/>
<path fill-rule="evenodd" clip-rule="evenodd" d="M29.2881 18.533C29.9613 18.533 30.5122 17.9846 30.5122 17.3124C30.5122 16.6402 29.9631 16.0918 29.2881 16.0918C28.615 16.0918 28.0659 16.6402 28.0659 17.3124C28.0641 17.9846 28.6132 18.533 29.2881 18.533Z" fill="#E01A59"/>
<path fill-rule="evenodd" clip-rule="evenodd" d="M12.7118 18.533C13.3849 18.533 13.934 17.9846 13.934 17.3124C13.934 16.6402 13.3849 16.0918 12.7118 16.0918C12.0387 16.0918 11.4878 16.6402 11.4878 17.3124C11.4896 17.9846 12.0387 18.533 12.7118 18.533Z" fill="#63C1A0"/>
<path d="M18.2379 15.6839C18.9129 15.6839 19.46 15.1374 19.46 14.4633C19.46 13.7892 18.9129 13.2427 18.2379 13.2427C17.5628 13.2427 17.0156 13.7892 17.0156 14.4633C17.0156 15.1374 17.5628 15.6839 18.2379 15.6839Z" fill="#89D3DF"/>
<path fill-rule="evenodd" clip-rule="evenodd" d="M12.7122 19.3721C10.6691 19.3721 9 21.0408 9 23.0794V28.7543H14.5236V20.0953C14.5236 20.0133 14.5255 19.9313 14.5309 19.8512C13.9946 19.5469 13.3726 19.3721 12.7122 19.3721Z" fill="#63C1A0"/>
<path fill-rule="evenodd" clip-rule="evenodd" d="M14.5322 19.8524C15.6596 20.49 16.4257 21.7015 16.4257 23.0824V28.7573H20.0486V26.89C20.0486 25.5054 20.8183 24.2939 21.9512 23.6563V20.0983C21.9512 18.0579 20.2803 16.3892 18.239 16.3892C16.2762 16.3892 14.6599 17.9249 14.5322 19.8524Z" fill="#89D3DF"/>
<path fill-rule="evenodd" clip-rule="evenodd" d="M21.9502 23.6509V28.7538H25.5731V23.6509C25.0368 23.3485 24.4184 23.1773 23.7616 23.1773C23.1049 23.1754 22.4865 23.3485 21.9502 23.6509Z" fill="#ECB32D"/>
<path fill-rule="evenodd" clip-rule="evenodd" d="M25.5732 23.6532C26.7061 24.2909 27.4759 25.5042 27.4759 26.8869V28.7543H32.9995V23.0794C32.9995 21.039 31.3286 19.3721 29.2873 19.3721C27.2442 19.3721 25.5732 21.0408 25.5732 23.0794V23.6532Z" fill="#E01A59"/>
</svg>
