<svg width="282" height="170" viewBox="0 0 282 170" fill="none" xmlns="http://www.w3.org/2000/svg">
<path opacity="0.16" d="M0 0H282V170H0V0Z" fill="#198754"/>
<rect width="250" height="86" transform="translate(16 84)" fill="white"/>
<path fill-rule="evenodd" clip-rule="evenodd" d="M43.319 104.041C44.0132 104.041 44.5814 103.475 44.5814 102.782C44.5814 102.089 44.0151 101.523 43.319 101.523C42.6248 101.523 42.0586 102.089 42.0586 102.782C42.0567 103.475 42.6248 104.041 43.319 104.041Z" fill="#ECB32D"/>
<path fill-rule="evenodd" clip-rule="evenodd" d="M48.9201 99.956C49.6143 99.956 50.1824 99.3904 50.1824 98.6972C50.1824 98.0039 49.6161 97.4384 48.9201 97.4384C48.2259 97.4384 47.6597 98.0039 47.6597 98.6972C47.6578 99.3904 48.224 99.956 48.9201 99.956Z" fill="#E01A59"/>
<path fill-rule="evenodd" clip-rule="evenodd" d="M31.8302 99.956C32.5244 99.956 33.0906 99.3904 33.0906 98.6972C33.0906 98.0039 32.5244 97.4384 31.8302 97.4384C31.136 97.4384 30.5679 98.0039 30.5679 98.6972C30.5698 99.3904 31.136 99.956 31.8302 99.956Z" fill="#63C1A0"/>
<path d="M37.5285 97.0176C38.2246 97.0176 38.7889 96.454 38.7889 95.7588C38.7889 95.0636 38.2246 94.5 37.5285 94.5C36.8324 94.5 36.2681 95.0636 36.2681 95.7588C36.2681 96.454 36.8324 97.0176 37.5285 97.0176Z" fill="#89D3DF"/>
<path fill-rule="evenodd" clip-rule="evenodd" d="M31.8283 100.821C29.7213 100.821 28 102.542 28 104.644V110.497H33.6964V101.567C33.6964 101.482 33.6983 101.398 33.7039 101.315C33.1508 101.001 32.5093 100.821 31.8283 100.821Z" fill="#63C1A0"/>
<path fill-rule="evenodd" clip-rule="evenodd" d="M33.708 101.316C34.8706 101.973 35.6607 103.223 35.6607 104.647V110.499H39.3969V108.573C39.3969 107.146 40.1907 105.896 41.359 105.238V101.569C41.359 99.4649 39.6358 97.7439 37.5307 97.7439C35.5065 97.7439 33.8397 99.3277 33.708 101.316Z" fill="#89D3DF"/>
<path fill-rule="evenodd" clip-rule="evenodd" d="M41.3535 105.234V110.496H45.0897V105.234C44.5366 104.922 43.8989 104.745 43.2216 104.745C42.5444 104.743 41.9066 104.922 41.3535 105.234Z" fill="#ECB32D"/>
<path fill-rule="evenodd" clip-rule="evenodd" d="M45.0918 105.239C46.26 105.897 47.0539 107.148 47.0539 108.574V110.5H52.7503V104.647C52.7503 102.543 51.0271 100.824 48.922 100.824C46.815 100.824 45.0918 102.545 45.0918 104.647V105.239Z" fill="#E01A59"/>
<path d="M35.49 134.677L35.483 136H29.197V125.92H35.483V127.243H30.842V130.281H34.552V131.562H30.842V134.677H35.49ZM42.996 128.86L40.126 136H38.768L35.898 128.86H37.137C37.2536 128.86 37.3493 128.89 37.424 128.951C37.5033 129.007 37.5546 129.075 37.578 129.154L39.16 133.312C39.2253 133.508 39.2836 133.702 39.335 133.893C39.3863 134.084 39.4306 134.278 39.468 134.474C39.5053 134.278 39.5496 134.087 39.601 133.9C39.657 133.709 39.7176 133.513 39.783 133.312L41.393 129.154C41.421 129.07 41.4723 129 41.547 128.944C41.6216 128.888 41.7126 128.86 41.82 128.86H42.996ZM47.6754 132.878C47.1387 132.897 46.686 132.941 46.3174 133.011C45.9487 133.076 45.65 133.163 45.4214 133.27C45.1927 133.373 45.027 133.496 44.9244 133.641C44.8264 133.786 44.7774 133.944 44.7774 134.117C44.7774 134.285 44.803 134.43 44.8544 134.551C44.9104 134.668 44.985 134.766 45.0784 134.845C45.1764 134.92 45.2884 134.976 45.4144 135.013C45.545 135.046 45.6874 135.062 45.8414 135.062C46.2334 135.062 46.5694 134.99 46.8494 134.845C47.134 134.696 47.4094 134.481 47.6754 134.201V132.878ZM43.6854 129.854C44.4927 129.103 45.454 128.727 46.5694 128.727C46.98 128.727 47.344 128.795 47.6614 128.93C47.9834 129.061 48.2517 129.247 48.4664 129.49C48.6857 129.733 48.8514 130.022 48.9634 130.358C49.08 130.689 49.1384 131.058 49.1384 131.464V136H48.4664C48.3217 136 48.212 135.979 48.1374 135.937C48.0627 135.89 47.9997 135.799 47.9484 135.664L47.8014 135.083C47.6194 135.246 47.4397 135.393 47.2624 135.524C47.085 135.65 46.9007 135.757 46.7094 135.846C46.5227 135.935 46.3197 136 46.1004 136.042C45.8857 136.089 45.6477 136.112 45.3864 136.112C45.097 136.112 44.8264 136.072 44.5744 135.993C44.327 135.914 44.1124 135.795 43.9304 135.636C43.7484 135.473 43.6037 135.272 43.4964 135.034C43.3937 134.796 43.3424 134.516 43.3424 134.194C43.3424 133.919 43.4147 133.65 43.5594 133.389C43.7087 133.128 43.9514 132.894 44.2874 132.689C44.628 132.479 45.0737 132.306 45.6244 132.171C46.1797 132.036 46.8634 131.959 47.6754 131.94V131.464C47.6754 130.951 47.5657 130.568 47.3464 130.316C47.127 130.064 46.805 129.938 46.3804 129.938C46.091 129.938 45.8484 129.975 45.6524 130.05C45.4564 130.12 45.286 130.197 45.1414 130.281C44.9967 130.365 44.8684 130.444 44.7564 130.519C44.6444 130.589 44.5254 130.624 44.3994 130.624C44.2967 130.624 44.208 130.598 44.1334 130.547C44.0634 130.491 44.005 130.423 43.9584 130.344L43.6854 129.854ZM52.4344 125.64V136H50.9294V125.64H52.4344ZM60.312 128.86V136H59.402C59.2013 136 59.073 135.904 59.017 135.713L58.905 135.048C58.7557 135.207 58.597 135.351 58.429 135.482C58.2657 135.613 58.0907 135.725 57.904 135.818C57.7173 135.911 57.5167 135.984 57.302 136.035C57.092 136.086 56.8657 136.112 56.623 136.112C56.231 136.112 55.8857 136.047 55.587 135.916C55.2883 135.785 55.0363 135.601 54.831 135.363C54.6303 135.125 54.4787 134.84 54.376 134.509C54.2733 134.173 54.222 133.804 54.222 133.403V128.86H55.727V133.403C55.727 133.884 55.8367 134.257 56.056 134.523C56.28 134.789 56.6183 134.922 57.071 134.922C57.4023 134.922 57.7103 134.847 57.995 134.698C58.2843 134.544 58.555 134.334 58.807 134.068V128.86H60.312ZM65.9547 132.878C65.418 132.897 64.9653 132.941 64.5967 133.011C64.228 133.076 63.9293 133.163 63.7007 133.27C63.472 133.373 63.3063 133.496 63.2037 133.641C63.1057 133.786 63.0567 133.944 63.0567 134.117C63.0567 134.285 63.0823 134.43 63.1337 134.551C63.1897 134.668 63.2643 134.766 63.3577 134.845C63.4557 134.92 63.5677 134.976 63.6937 135.013C63.8243 135.046 63.9667 135.062 64.1207 135.062C64.5127 135.062 64.8487 134.99 65.1287 134.845C65.4133 134.696 65.6887 134.481 65.9547 134.201V132.878ZM61.9647 129.854C62.772 129.103 63.7333 128.727 64.8487 128.727C65.2593 128.727 65.6233 128.795 65.9407 128.93C66.2627 129.061 66.531 129.247 66.7457 129.49C66.965 129.733 67.1307 130.022 67.2427 130.358C67.3593 130.689 67.4177 131.058 67.4177 131.464V136H66.7457C66.601 136 66.4913 135.979 66.4167 135.937C66.342 135.89 66.279 135.799 66.2277 135.664L66.0807 135.083C65.8987 135.246 65.719 135.393 65.5417 135.524C65.3643 135.65 65.18 135.757 64.9887 135.846C64.802 135.935 64.599 136 64.3797 136.042C64.165 136.089 63.927 136.112 63.6657 136.112C63.3763 136.112 63.1057 136.072 62.8537 135.993C62.6063 135.914 62.3917 135.795 62.2097 135.636C62.0277 135.473 61.883 135.272 61.7757 135.034C61.673 134.796 61.6217 134.516 61.6217 134.194C61.6217 133.919 61.694 133.65 61.8387 133.389C61.988 133.128 62.2307 132.894 62.5667 132.689C62.9073 132.479 63.353 132.306 63.9037 132.171C64.459 132.036 65.1427 131.959 65.9547 131.94V131.464C65.9547 130.951 65.845 130.568 65.6257 130.316C65.4063 130.064 65.0843 129.938 64.6597 129.938C64.3703 129.938 64.1277 129.975 63.9317 130.05C63.7357 130.12 63.5653 130.197 63.4207 130.281C63.276 130.365 63.1477 130.444 63.0357 130.519C62.9237 130.589 62.8047 130.624 62.6787 130.624C62.576 130.624 62.4873 130.598 62.4127 130.547C62.3427 130.491 62.2843 130.423 62.2377 130.344L61.9647 129.854ZM71.374 136.112C70.7813 136.112 70.324 135.946 70.002 135.615C69.6846 135.279 69.526 134.808 69.526 134.201V130.043H68.742C68.658 130.043 68.5856 130.017 68.525 129.966C68.4643 129.91 68.434 129.828 68.434 129.721V129.112L69.589 128.944L69.918 126.879C69.9413 126.8 69.981 126.737 70.037 126.69C70.093 126.639 70.1676 126.613 70.261 126.613H71.031V128.958H73.012V130.043H71.031V134.096C71.031 134.353 71.094 134.549 71.22 134.684C71.346 134.819 71.514 134.887 71.724 134.887C71.8406 134.887 71.941 134.873 72.025 134.845C72.109 134.812 72.1813 134.78 72.242 134.747C72.3026 134.71 72.354 134.677 72.396 134.649C72.4426 134.616 72.487 134.6 72.529 134.6C72.613 134.6 72.6806 134.647 72.732 134.74L73.18 135.475C72.9466 135.68 72.6713 135.839 72.354 135.951C72.0366 136.058 71.71 136.112 71.374 136.112ZM78.8266 131.625C78.8266 131.373 78.7892 131.14 78.7146 130.925C78.6446 130.706 78.5396 130.517 78.3996 130.358C78.2596 130.195 78.0846 130.069 77.8746 129.98C77.6692 129.887 77.4312 129.84 77.1606 129.84C76.6146 129.84 76.1852 129.996 75.8726 130.309C75.5599 130.622 75.3616 131.06 75.2776 131.625H78.8266ZM75.2356 132.549C75.2542 132.955 75.3172 133.307 75.4246 133.606C75.5319 133.9 75.6742 134.145 75.8516 134.341C76.0336 134.537 76.2482 134.684 76.4956 134.782C76.7476 134.875 77.0276 134.922 77.3356 134.922C77.6296 134.922 77.8839 134.889 78.0986 134.824C78.3132 134.754 78.4999 134.679 78.6586 134.6C78.8172 134.516 78.9526 134.441 79.0646 134.376C79.1766 134.306 79.2792 134.271 79.3726 134.271C79.4939 134.271 79.5872 134.318 79.6526 134.411L80.0796 134.964C79.9022 135.174 79.7016 135.351 79.4776 135.496C79.2536 135.641 79.0156 135.76 78.7636 135.853C78.5116 135.942 78.2526 136.005 77.9866 136.042C77.7206 136.084 77.4616 136.105 77.2096 136.105C76.7149 136.105 76.2552 136.023 75.8306 135.86C75.4106 135.692 75.0442 135.447 74.7316 135.125C74.4236 134.803 74.1809 134.404 74.0036 133.928C73.8309 133.452 73.7446 132.904 73.7446 132.283C73.7446 131.788 73.8216 131.326 73.9756 130.897C74.1342 130.468 74.3582 130.094 74.6476 129.777C74.9416 129.46 75.2962 129.21 75.7116 129.028C76.1316 128.841 76.6052 128.748 77.1326 128.748C77.5712 128.748 77.9772 128.82 78.3506 128.965C78.7239 129.105 79.0459 129.313 79.3166 129.588C79.5872 129.863 79.7972 130.202 79.9466 130.603C80.1006 131 80.1776 131.452 80.1776 131.961C80.1776 132.194 80.1519 132.351 80.1006 132.43C80.0492 132.509 79.9559 132.549 79.8206 132.549H75.2356ZM89.0154 134.705C89.3841 134.705 89.6944 134.663 89.9464 134.579C90.2031 134.49 90.4107 134.371 90.5694 134.222C90.7327 134.073 90.8494 133.898 90.9194 133.697C90.9941 133.492 91.0314 133.272 91.0314 133.039C91.0314 132.563 90.8681 132.19 90.5414 131.919C90.2194 131.644 89.7084 131.506 89.0084 131.506H86.9854V134.705H89.0154ZM86.9854 127.201V130.351H88.6234C89.3234 130.351 89.8461 130.216 90.1914 129.945C90.5367 129.674 90.7094 129.285 90.7094 128.776C90.7094 128.221 90.5461 127.819 90.2194 127.572C89.8974 127.325 89.3911 127.201 88.7004 127.201H86.9854ZM88.7004 125.92C89.3444 125.92 89.8951 125.983 90.3524 126.109C90.8097 126.23 91.1854 126.405 91.4794 126.634C91.7734 126.863 91.9881 127.143 92.1234 127.474C92.2634 127.801 92.3334 128.169 92.3334 128.58C92.3334 128.818 92.2961 129.049 92.2214 129.273C92.1514 129.492 92.0394 129.7 91.8854 129.896C91.7361 130.087 91.5471 130.26 91.3184 130.414C91.0897 130.568 90.8191 130.696 90.5064 130.799C91.9344 131.102 92.6484 131.861 92.6484 133.074C92.6484 133.503 92.5667 133.898 92.4034 134.257C92.2447 134.612 92.0114 134.92 91.7034 135.181C91.4001 135.438 91.0244 135.638 90.5764 135.783C90.1284 135.928 89.6174 136 89.0434 136H85.3474V125.92H88.7004ZM98.7875 131.625C98.7875 131.373 98.7502 131.14 98.6755 130.925C98.6055 130.706 98.5005 130.517 98.3605 130.358C98.2205 130.195 98.0455 130.069 97.8355 129.98C97.6302 129.887 97.3922 129.84 97.1215 129.84C96.5755 129.84 96.1462 129.996 95.8335 130.309C95.5208 130.622 95.3225 131.06 95.2385 131.625H98.7875ZM95.1965 132.549C95.2152 132.955 95.2782 133.307 95.3855 133.606C95.4928 133.9 95.6352 134.145 95.8125 134.341C95.9945 134.537 96.2092 134.684 96.4565 134.782C96.7085 134.875 96.9885 134.922 97.2965 134.922C97.5905 134.922 97.8448 134.889 98.0595 134.824C98.2742 134.754 98.4608 134.679 98.6195 134.6C98.7782 134.516 98.9135 134.441 99.0255 134.376C99.1375 134.306 99.2402 134.271 99.3335 134.271C99.4548 134.271 99.5482 134.318 99.6135 134.411L100.041 134.964C99.8632 135.174 99.6625 135.351 99.4385 135.496C99.2145 135.641 98.9765 135.76 98.7245 135.853C98.4725 135.942 98.2135 136.005 97.9475 136.042C97.6815 136.084 97.4225 136.105 97.1705 136.105C96.6758 136.105 96.2162 136.023 95.7915 135.86C95.3715 135.692 95.0052 135.447 94.6925 135.125C94.3845 134.803 94.1418 134.404 93.9645 133.928C93.7918 133.452 93.7055 132.904 93.7055 132.283C93.7055 131.788 93.7825 131.326 93.9365 130.897C94.0952 130.468 94.3192 130.094 94.6085 129.777C94.9025 129.46 95.2572 129.21 95.6725 129.028C96.0925 128.841 96.5662 128.748 97.0935 128.748C97.5322 128.748 97.9382 128.82 98.3115 128.965C98.6848 129.105 99.0068 129.313 99.2775 129.588C99.5482 129.863 99.7582 130.202 99.9075 130.603C100.062 131 100.139 131.452 100.139 131.961C100.139 132.194 100.113 132.351 100.062 132.43C100.01 132.509 99.9168 132.549 99.7815 132.549H95.1965ZM101.929 136V130.057L101.229 129.959C101.113 129.936 101.017 129.894 100.942 129.833C100.872 129.772 100.837 129.686 100.837 129.574V128.958H101.929V128.356C101.929 127.95 101.988 127.586 102.104 127.264C102.226 126.942 102.396 126.669 102.615 126.445C102.839 126.221 103.11 126.051 103.427 125.934C103.745 125.813 104.102 125.752 104.498 125.752C104.662 125.752 104.816 125.764 104.96 125.787C105.11 125.81 105.254 125.845 105.394 125.892L105.366 126.648C105.357 126.774 105.294 126.849 105.177 126.872C105.065 126.895 104.923 126.907 104.75 126.907C104.54 126.907 104.351 126.933 104.183 126.984C104.015 127.031 103.871 127.112 103.749 127.229C103.633 127.346 103.542 127.5 103.476 127.691C103.416 127.882 103.385 128.12 103.385 128.405V128.958H105.338V130.043H103.434V136H101.929ZM109.291 128.748C109.818 128.748 110.294 128.834 110.719 129.007C111.148 129.18 111.512 129.425 111.811 129.742C112.114 130.059 112.348 130.444 112.511 130.897C112.674 131.35 112.756 131.858 112.756 132.423C112.756 132.988 112.674 133.496 112.511 133.949C112.348 134.402 112.114 134.789 111.811 135.111C111.512 135.428 111.148 135.673 110.719 135.846C110.294 136.019 109.818 136.105 109.291 136.105C108.759 136.105 108.278 136.019 107.849 135.846C107.424 135.673 107.06 135.428 106.757 135.111C106.454 134.789 106.22 134.402 106.057 133.949C105.894 133.496 105.812 132.988 105.812 132.423C105.812 131.858 105.894 131.35 106.057 130.897C106.22 130.444 106.454 130.059 106.757 129.742C107.06 129.425 107.424 129.18 107.849 129.007C108.278 128.834 108.759 128.748 109.291 128.748ZM109.291 134.929C109.935 134.929 110.413 134.714 110.726 134.285C111.043 133.851 111.202 133.233 111.202 132.43C111.202 131.627 111.043 131.009 110.726 130.575C110.413 130.136 109.935 129.917 109.291 129.917C108.638 129.917 108.152 130.136 107.835 130.575C107.518 131.009 107.359 131.627 107.359 132.43C107.359 133.233 107.518 133.851 107.835 134.285C108.152 134.714 108.638 134.929 109.291 134.929ZM115.623 130.183C115.847 129.73 116.118 129.376 116.435 129.119C116.752 128.858 117.133 128.727 117.576 128.727C117.73 128.727 117.875 128.746 118.01 128.783C118.145 128.816 118.267 128.867 118.374 128.937L118.269 130.071C118.25 130.15 118.22 130.206 118.178 130.239C118.141 130.267 118.089 130.281 118.024 130.281C117.954 130.281 117.854 130.269 117.723 130.246C117.592 130.218 117.455 130.204 117.31 130.204C117.1 130.204 116.913 130.234 116.75 130.295C116.591 130.356 116.447 130.444 116.316 130.561C116.19 130.678 116.078 130.82 115.98 130.988C115.882 131.156 115.791 131.347 115.707 131.562V136H114.202V128.86H115.077C115.236 128.86 115.345 128.89 115.406 128.951C115.467 129.007 115.509 129.107 115.532 129.252L115.623 130.183ZM123.807 131.625C123.807 131.373 123.77 131.14 123.695 130.925C123.625 130.706 123.52 130.517 123.38 130.358C123.24 130.195 123.065 130.069 122.855 129.98C122.65 129.887 122.412 129.84 122.141 129.84C121.595 129.84 121.166 129.996 120.853 130.309C120.54 130.622 120.342 131.06 120.258 131.625H123.807ZM120.216 132.549C120.235 132.955 120.298 133.307 120.405 133.606C120.512 133.9 120.655 134.145 120.832 134.341C121.014 134.537 121.229 134.684 121.476 134.782C121.728 134.875 122.008 134.922 122.316 134.922C122.61 134.922 122.864 134.889 123.079 134.824C123.294 134.754 123.48 134.679 123.639 134.6C123.798 134.516 123.933 134.441 124.045 134.376C124.157 134.306 124.26 134.271 124.353 134.271C124.474 134.271 124.568 134.318 124.633 134.411L125.06 134.964C124.883 135.174 124.682 135.351 124.458 135.496C124.234 135.641 123.996 135.76 123.744 135.853C123.492 135.942 123.233 136.005 122.967 136.042C122.701 136.084 122.442 136.105 122.19 136.105C121.695 136.105 121.236 136.023 120.811 135.86C120.391 135.692 120.025 135.447 119.712 135.125C119.404 134.803 119.161 134.404 118.984 133.928C118.811 133.452 118.725 132.904 118.725 132.283C118.725 131.788 118.802 131.326 118.956 130.897C119.115 130.468 119.339 130.094 119.628 129.777C119.922 129.46 120.277 129.21 120.692 129.028C121.112 128.841 121.586 128.748 122.113 128.748C122.552 128.748 122.958 128.82 123.331 128.965C123.704 129.105 124.026 129.313 124.297 129.588C124.568 129.863 124.778 130.202 124.927 130.603C125.081 131 125.158 131.452 125.158 131.961C125.158 132.194 125.132 132.351 125.081 132.43C125.03 132.509 124.936 132.549 124.801 132.549H120.216ZM133.841 132.052V136H132.21V132.052L128.528 125.92H129.963C130.108 125.92 130.222 125.955 130.306 126.025C130.39 126.095 130.46 126.184 130.516 126.291L132.581 129.903C132.675 130.085 132.759 130.258 132.833 130.421C132.913 130.584 132.983 130.745 133.043 130.904C133.095 130.741 133.158 130.58 133.232 130.421C133.307 130.258 133.391 130.085 133.484 129.903L135.535 126.291C135.582 126.198 135.65 126.114 135.738 126.039C135.827 125.96 135.941 125.92 136.081 125.92H137.523L133.841 132.052ZM139.93 128.748C140.457 128.748 140.933 128.834 141.358 129.007C141.787 129.18 142.151 129.425 142.45 129.742C142.753 130.059 142.986 130.444 143.15 130.897C143.313 131.35 143.395 131.858 143.395 132.423C143.395 132.988 143.313 133.496 143.15 133.949C142.986 134.402 142.753 134.789 142.45 135.111C142.151 135.428 141.787 135.673 141.358 135.846C140.933 136.019 140.457 136.105 139.93 136.105C139.398 136.105 138.917 136.019 138.488 135.846C138.063 135.673 137.699 135.428 137.396 135.111C137.092 134.789 136.859 134.402 136.696 133.949C136.532 133.496 136.451 132.988 136.451 132.423C136.451 131.858 136.532 131.35 136.696 130.897C136.859 130.444 137.092 130.059 137.396 129.742C137.699 129.425 138.063 129.18 138.488 129.007C138.917 128.834 139.398 128.748 139.93 128.748ZM139.93 134.929C140.574 134.929 141.052 134.714 141.365 134.285C141.682 133.851 141.841 133.233 141.841 132.43C141.841 131.627 141.682 131.009 141.365 130.575C141.052 130.136 140.574 129.917 139.93 129.917C139.276 129.917 138.791 130.136 138.474 130.575C138.156 131.009 137.998 131.627 137.998 132.43C137.998 133.233 138.156 133.851 138.474 134.285C138.791 134.714 139.276 134.929 139.93 134.929ZM150.861 128.86V136H149.951C149.75 136 149.622 135.904 149.566 135.713L149.454 135.048C149.304 135.207 149.146 135.351 148.978 135.482C148.814 135.613 148.639 135.725 148.453 135.818C148.266 135.911 148.065 135.984 147.851 136.035C147.641 136.086 147.414 136.112 147.172 136.112C146.78 136.112 146.434 136.047 146.136 135.916C145.837 135.785 145.585 135.601 145.38 135.363C145.179 135.125 145.027 134.84 144.925 134.509C144.822 134.173 144.771 133.804 144.771 133.403V128.86H146.276V133.403C146.276 133.884 146.385 134.257 146.605 134.523C146.829 134.789 147.167 134.922 147.62 134.922C147.951 134.922 148.259 134.847 148.544 134.698C148.833 134.544 149.104 134.334 149.356 134.068V128.86H150.861ZM163.455 133.753C163.543 133.753 163.62 133.788 163.686 133.858L164.337 134.565C163.926 135.06 163.422 135.442 162.825 135.713C162.227 135.979 161.513 136.112 160.683 136.112C159.945 136.112 159.278 135.986 158.681 135.734C158.088 135.477 157.582 135.123 157.162 134.67C156.742 134.213 156.417 133.669 156.189 133.039C155.965 132.409 155.853 131.716 155.853 130.96C155.853 130.204 155.972 129.511 156.21 128.881C156.452 128.246 156.791 127.703 157.225 127.25C157.663 126.793 158.186 126.438 158.793 126.186C159.404 125.934 160.076 125.808 160.809 125.808C161.537 125.808 162.178 125.927 162.734 126.165C163.294 126.398 163.779 126.711 164.19 127.103L163.651 127.866C163.613 127.917 163.569 127.962 163.518 127.999C163.466 128.036 163.396 128.055 163.308 128.055C163.214 128.055 163.107 128.013 162.986 127.929C162.869 127.84 162.717 127.745 162.531 127.642C162.349 127.535 162.118 127.439 161.838 127.355C161.562 127.266 161.217 127.222 160.802 127.222C160.321 127.222 159.88 127.306 159.479 127.474C159.077 127.642 158.732 127.887 158.443 128.209C158.153 128.531 157.927 128.923 157.764 129.385C157.605 129.847 157.526 130.372 157.526 130.96C157.526 131.553 157.61 132.082 157.778 132.549C157.946 133.011 158.177 133.403 158.471 133.725C158.765 134.042 159.11 134.285 159.507 134.453C159.903 134.621 160.33 134.705 160.788 134.705C161.068 134.705 161.317 134.691 161.537 134.663C161.761 134.63 161.966 134.581 162.153 134.516C162.339 134.446 162.514 134.36 162.678 134.257C162.846 134.154 163.011 134.028 163.175 133.879C163.268 133.795 163.361 133.753 163.455 133.753ZM168.408 128.748C168.936 128.748 169.412 128.834 169.836 129.007C170.266 129.18 170.63 129.425 170.928 129.742C171.232 130.059 171.465 130.444 171.628 130.897C171.792 131.35 171.873 131.858 171.873 132.423C171.873 132.988 171.792 133.496 171.628 133.949C171.465 134.402 171.232 134.789 170.928 135.111C170.63 135.428 170.266 135.673 169.836 135.846C169.412 136.019 168.936 136.105 168.408 136.105C167.876 136.105 167.396 136.019 166.966 135.846C166.542 135.673 166.178 135.428 165.874 135.111C165.571 134.789 165.338 134.402 165.174 133.949C165.011 133.496 164.929 132.988 164.929 132.423C164.929 131.858 165.011 131.35 165.174 130.897C165.338 130.444 165.571 130.059 165.874 129.742C166.178 129.425 166.542 129.18 166.966 129.007C167.396 128.834 167.876 128.748 168.408 128.748ZM168.408 134.929C169.052 134.929 169.531 134.714 169.843 134.285C170.161 133.851 170.319 133.233 170.319 132.43C170.319 131.627 170.161 131.009 169.843 130.575C169.531 130.136 169.052 129.917 168.408 129.917C167.755 129.917 167.27 130.136 166.952 130.575C166.635 131.009 166.476 131.627 166.476 132.43C166.476 133.233 166.635 133.851 166.952 134.285C167.27 134.714 167.755 134.929 168.408 134.929ZM173.319 136V128.86H174.229C174.435 128.86 174.565 128.956 174.621 129.147L174.719 129.77C174.85 129.621 174.985 129.485 175.125 129.364C175.265 129.238 175.415 129.131 175.573 129.042C175.737 128.949 175.909 128.876 176.091 128.825C176.278 128.774 176.479 128.748 176.693 128.748C176.922 128.748 177.132 128.781 177.323 128.846C177.515 128.911 177.683 129.005 177.827 129.126C177.977 129.247 178.105 129.394 178.212 129.567C178.32 129.74 178.408 129.933 178.478 130.148C178.586 129.901 178.721 129.688 178.884 129.511C179.048 129.334 179.23 129.189 179.43 129.077C179.631 128.965 179.843 128.883 180.067 128.832C180.296 128.776 180.527 128.748 180.76 128.748C181.143 128.748 181.484 128.809 181.782 128.93C182.086 129.051 182.34 129.229 182.545 129.462C182.755 129.691 182.914 129.973 183.021 130.309C183.129 130.645 183.182 131.028 183.182 131.457V136H181.677V131.457C181.677 130.953 181.568 130.575 181.348 130.323C181.134 130.066 180.814 129.938 180.389 129.938C180.198 129.938 180.018 129.971 179.85 130.036C179.682 130.101 179.535 130.197 179.409 130.323C179.283 130.449 179.183 130.608 179.108 130.799C179.038 130.986 179.003 131.205 179.003 131.457V136H177.498V131.457C177.498 130.934 177.393 130.552 177.183 130.309C176.973 130.062 176.665 129.938 176.259 129.938C175.979 129.938 175.72 130.01 175.482 130.155C175.244 130.295 175.025 130.489 174.824 130.736V136H173.319ZM184.94 136V128.86H185.85C186.056 128.86 186.186 128.956 186.242 129.147L186.34 129.77C186.471 129.621 186.606 129.485 186.746 129.364C186.886 129.238 187.036 129.131 187.194 129.042C187.358 128.949 187.53 128.876 187.712 128.825C187.899 128.774 188.1 128.748 188.314 128.748C188.543 128.748 188.753 128.781 188.944 128.846C189.136 128.911 189.304 129.005 189.448 129.126C189.598 129.247 189.726 129.394 189.833 129.567C189.941 129.74 190.029 129.933 190.099 130.148C190.207 129.901 190.342 129.688 190.505 129.511C190.669 129.334 190.851 129.189 191.051 129.077C191.252 128.965 191.464 128.883 191.688 128.832C191.917 128.776 192.148 128.748 192.381 128.748C192.764 128.748 193.105 128.809 193.403 128.93C193.707 129.051 193.961 129.229 194.166 129.462C194.376 129.691 194.535 129.973 194.642 130.309C194.75 130.645 194.803 131.028 194.803 131.457V136H193.298V131.457C193.298 130.953 193.189 130.575 192.969 130.323C192.755 130.066 192.435 129.938 192.01 129.938C191.819 129.938 191.639 129.971 191.471 130.036C191.303 130.101 191.156 130.197 191.03 130.323C190.904 130.449 190.804 130.608 190.729 130.799C190.659 130.986 190.624 131.205 190.624 131.457V136H189.119V131.457C189.119 130.934 189.014 130.552 188.804 130.309C188.594 130.062 188.286 129.938 187.88 129.938C187.6 129.938 187.341 130.01 187.103 130.155C186.865 130.295 186.646 130.489 186.445 130.736V136H184.94ZM198.13 128.86V136H196.625V128.86H198.13ZM198.382 126.704C198.382 126.839 198.354 126.968 198.298 127.089C198.246 127.21 198.174 127.318 198.081 127.411C197.987 127.5 197.878 127.572 197.752 127.628C197.63 127.679 197.5 127.705 197.36 127.705C197.224 127.705 197.096 127.679 196.975 127.628C196.858 127.572 196.755 127.5 196.667 127.411C196.578 127.318 196.506 127.21 196.45 127.089C196.398 126.968 196.373 126.839 196.373 126.704C196.373 126.564 196.398 126.433 196.45 126.312C196.506 126.191 196.578 126.086 196.667 125.997C196.755 125.904 196.858 125.831 196.975 125.78C197.096 125.724 197.224 125.696 197.36 125.696C197.5 125.696 197.63 125.724 197.752 125.78C197.878 125.831 197.987 125.904 198.081 125.997C198.174 126.086 198.246 126.191 198.298 126.312C198.354 126.433 198.382 126.564 198.382 126.704ZM202.31 136.112C201.717 136.112 201.26 135.946 200.938 135.615C200.62 135.279 200.462 134.808 200.462 134.201V130.043H199.678C199.594 130.043 199.521 130.017 199.461 129.966C199.4 129.91 199.37 129.828 199.37 129.721V129.112L200.525 128.944L200.854 126.879C200.877 126.8 200.917 126.737 200.973 126.69C201.029 126.639 201.103 126.613 201.197 126.613H201.967V128.958H203.948V130.043H201.967V134.096C201.967 134.353 202.03 134.549 202.156 134.684C202.282 134.819 202.45 134.887 202.66 134.887C202.776 134.887 202.877 134.873 202.961 134.845C203.045 134.812 203.117 134.78 203.178 134.747C203.238 134.71 203.29 134.677 203.332 134.649C203.378 134.616 203.423 134.6 203.465 134.6C203.549 134.6 203.616 134.647 203.668 134.74L204.116 135.475C203.882 135.68 203.607 135.839 203.29 135.951C202.972 136.058 202.646 136.112 202.31 136.112Z" fill="#212529"/>
<path d="M34.912 150.38H32.128V158H30.97V150.38H28.18V149.402H34.912V150.38ZM38.539 154.298C38.539 154.05 38.503 153.824 38.431 153.62C38.363 153.412 38.261 153.234 38.125 153.086C37.993 152.934 37.831 152.818 37.639 152.738C37.447 152.654 37.229 152.612 36.985 152.612C36.473 152.612 36.067 152.762 35.767 153.062C35.471 153.358 35.287 153.77 35.215 154.298H38.539ZM39.403 157.148C39.271 157.308 39.113 157.448 38.929 157.568C38.745 157.684 38.547 157.78 38.335 157.856C38.127 157.932 37.911 157.988 37.687 158.024C37.463 158.064 37.241 158.084 37.021 158.084C36.601 158.084 36.213 158.014 35.857 157.874C35.505 157.73 35.199 157.522 34.939 157.25C34.683 156.974 34.483 156.634 34.339 156.23C34.195 155.826 34.123 155.362 34.123 154.838C34.123 154.414 34.187 154.018 34.315 153.65C34.447 153.282 34.635 152.964 34.879 152.696C35.123 152.424 35.421 152.212 35.773 152.06C36.125 151.904 36.521 151.826 36.961 151.826C37.325 151.826 37.661 151.888 37.969 152.012C38.281 152.132 38.549 152.308 38.773 152.54C39.001 152.768 39.179 153.052 39.307 153.392C39.435 153.728 39.499 154.112 39.499 154.544C39.499 154.712 39.481 154.824 39.445 154.88C39.409 154.936 39.341 154.964 39.241 154.964H35.179C35.191 155.348 35.243 155.682 35.335 155.966C35.431 156.25 35.563 156.488 35.731 156.68C35.899 156.868 36.099 157.01 36.331 157.106C36.563 157.198 36.823 157.244 37.111 157.244C37.379 157.244 37.609 157.214 37.801 157.154C37.997 157.09 38.165 157.022 38.305 156.95C38.445 156.878 38.561 156.812 38.653 156.752C38.749 156.688 38.831 156.656 38.899 156.656C38.987 156.656 39.055 156.69 39.103 156.758L39.403 157.148ZM44.3508 152.924C44.3028 153.012 44.2288 153.056 44.1288 153.056C44.0688 153.056 44.0008 153.034 43.9248 152.99C43.8488 152.946 43.7548 152.898 43.6428 152.846C43.5348 152.79 43.4048 152.74 43.2528 152.696C43.1008 152.648 42.9208 152.624 42.7128 152.624C42.5328 152.624 42.3708 152.648 42.2268 152.696C42.0828 152.74 41.9588 152.802 41.8548 152.882C41.7548 152.962 41.6768 153.056 41.6208 153.164C41.5688 153.268 41.5428 153.382 41.5428 153.506C41.5428 153.662 41.5868 153.792 41.6748 153.896C41.7668 154 41.8868 154.09 42.0348 154.166C42.1828 154.242 42.3508 154.31 42.5388 154.37C42.7268 154.426 42.9188 154.488 43.1148 154.556C43.3148 154.62 43.5088 154.692 43.6968 154.772C43.8848 154.852 44.0528 154.952 44.2008 155.072C44.3488 155.192 44.4668 155.34 44.5548 155.516C44.6468 155.688 44.6928 155.896 44.6928 156.14C44.6928 156.42 44.6428 156.68 44.5428 156.92C44.4428 157.156 44.2948 157.362 44.0988 157.538C43.9028 157.71 43.6628 157.846 43.3788 157.946C43.0948 158.046 42.7668 158.096 42.3948 158.096C41.9708 158.096 41.5868 158.028 41.2428 157.892C40.8988 157.752 40.6068 157.574 40.3668 157.358L40.6188 156.95C40.6508 156.898 40.6888 156.858 40.7328 156.83C40.7768 156.802 40.8328 156.788 40.9008 156.788C40.9728 156.788 41.0488 156.816 41.1288 156.872C41.2088 156.928 41.3048 156.99 41.4168 157.058C41.5328 157.126 41.6728 157.188 41.8368 157.244C42.0008 157.3 42.2048 157.328 42.4488 157.328C42.6568 157.328 42.8388 157.302 42.9948 157.25C43.1508 157.194 43.2808 157.12 43.3848 157.028C43.4888 156.936 43.5648 156.83 43.6128 156.71C43.6648 156.59 43.6908 156.462 43.6908 156.326C43.6908 156.158 43.6448 156.02 43.5528 155.912C43.4648 155.8 43.3468 155.706 43.1988 155.63C43.0508 155.55 42.8808 155.482 42.6888 155.426C42.5008 155.366 42.3068 155.304 42.1068 155.24C41.9108 155.176 41.7168 155.104 41.5248 155.024C41.3368 154.94 41.1688 154.836 41.0208 154.712C40.8728 154.588 40.7528 154.436 40.6608 154.256C40.5728 154.072 40.5288 153.85 40.5288 153.59C40.5288 153.358 40.5768 153.136 40.6728 152.924C40.7688 152.708 40.9088 152.52 41.0928 152.36C41.2768 152.196 41.5028 152.066 41.7708 151.97C42.0388 151.874 42.3448 151.826 42.6888 151.826C43.0888 151.826 43.4468 151.89 43.7628 152.018C44.0828 152.142 44.3588 152.314 44.5908 152.534L44.3508 152.924ZM47.8683 158.096C47.3883 158.096 47.0183 157.962 46.7583 157.694C46.5023 157.426 46.3743 157.04 46.3743 156.536V152.816H45.6423C45.5783 152.816 45.5243 152.798 45.4803 152.762C45.4363 152.722 45.4143 152.662 45.4143 152.582V152.156L46.4103 152.03L46.6562 150.152C46.6683 150.092 46.6943 150.044 46.7343 150.008C46.7783 149.968 46.8343 149.948 46.9023 149.948H47.4423V152.042H49.2003V152.816H47.4423V156.464C47.4423 156.72 47.5043 156.91 47.6283 157.034C47.7523 157.158 47.9123 157.22 48.1083 157.22C48.2203 157.22 48.3163 157.206 48.3963 157.178C48.4803 157.146 48.5523 157.112 48.6123 157.076C48.6723 157.04 48.7223 157.008 48.7623 156.98C48.8063 156.948 48.8443 156.932 48.8763 156.932C48.9323 156.932 48.9823 156.966 49.0263 157.034L49.3383 157.544C49.1543 157.716 48.9323 157.852 48.6723 157.952C48.4123 158.048 48.1443 158.096 47.8683 158.096ZM57.3333 153.368C57.1333 153.1 56.9173 152.914 56.6853 152.81C56.4533 152.702 56.1933 152.648 55.9053 152.648C55.3413 152.648 54.9073 152.85 54.6033 153.254C54.2993 153.658 54.1473 154.234 54.1473 154.982C54.1473 155.378 54.1813 155.718 54.2493 156.002C54.3173 156.282 54.4173 156.514 54.5493 156.698C54.6813 156.878 54.8433 157.01 55.0353 157.094C55.2273 157.178 55.4453 157.22 55.6893 157.22C56.0413 157.22 56.3473 157.14 56.6073 156.98C56.8713 156.82 57.1133 156.594 57.3333 156.302V153.368ZM58.4013 149.162V158H57.7653C57.6133 158 57.5173 157.926 57.4773 157.778L57.3813 157.04C57.1213 157.352 56.8253 157.604 56.4933 157.796C56.1613 157.988 55.7773 158.084 55.3413 158.084C54.9933 158.084 54.6773 158.018 54.3933 157.886C54.1093 157.75 53.8673 157.552 53.6673 157.292C53.4673 157.032 53.3133 156.708 53.2053 156.32C53.0973 155.932 53.0433 155.486 53.0433 154.982C53.0433 154.534 53.1033 154.118 53.2233 153.734C53.3433 153.346 53.5153 153.01 53.7393 152.726C53.9633 152.442 54.2373 152.22 54.5613 152.06C54.8893 151.896 55.2573 151.814 55.6653 151.814C56.0373 151.814 56.3553 151.878 56.6193 152.006C56.8873 152.13 57.1253 152.304 57.3333 152.528V149.162H58.4013ZM64.1562 154.298C64.1562 154.05 64.1202 153.824 64.0482 153.62C63.9802 153.412 63.8782 153.234 63.7422 153.086C63.6102 152.934 63.4482 152.818 63.2562 152.738C63.0642 152.654 62.8462 152.612 62.6022 152.612C62.0902 152.612 61.6842 152.762 61.3842 153.062C61.0882 153.358 60.9042 153.77 60.8322 154.298H64.1562ZM65.0202 157.148C64.8882 157.308 64.7302 157.448 64.5462 157.568C64.3622 157.684 64.1642 157.78 63.9522 157.856C63.7442 157.932 63.5282 157.988 63.3042 158.024C63.0802 158.064 62.8582 158.084 62.6382 158.084C62.2182 158.084 61.8302 158.014 61.4742 157.874C61.1222 157.73 60.8162 157.522 60.5562 157.25C60.3002 156.974 60.1002 156.634 59.9562 156.23C59.8122 155.826 59.7402 155.362 59.7402 154.838C59.7402 154.414 59.8042 154.018 59.9322 153.65C60.0642 153.282 60.2522 152.964 60.4962 152.696C60.7402 152.424 61.0382 152.212 61.3902 152.06C61.7422 151.904 62.1382 151.826 62.5782 151.826C62.9422 151.826 63.2782 151.888 63.5862 152.012C63.8982 152.132 64.1662 152.308 64.3902 152.54C64.6182 152.768 64.7962 153.052 64.9242 153.392C65.0522 153.728 65.1162 154.112 65.1162 154.544C65.1162 154.712 65.0982 154.824 65.0622 154.88C65.0262 154.936 64.9582 154.964 64.8582 154.964H60.7962C60.8082 155.348 60.8602 155.682 60.9522 155.966C61.0482 156.25 61.1802 156.488 61.3482 156.68C61.5162 156.868 61.7162 157.01 61.9482 157.106C62.1802 157.198 62.4402 157.244 62.7282 157.244C62.9962 157.244 63.2262 157.214 63.4182 157.154C63.6142 157.09 63.7822 157.022 63.9222 156.95C64.0622 156.878 64.1782 156.812 64.2702 156.752C64.3662 156.688 64.4482 156.656 64.5162 156.656C64.6042 156.656 64.6722 156.69 64.7202 156.758L65.0202 157.148ZM71.5071 151.922L69.0291 158H68.0691L65.5911 151.922H66.4611C66.5491 151.922 66.6211 151.944 66.6771 151.988C66.7331 152.032 66.7711 152.084 66.7911 152.144L68.3331 156.056C68.3811 156.204 68.4231 156.348 68.4591 156.488C68.4951 156.628 68.5291 156.768 68.5611 156.908C68.5931 156.768 68.6271 156.628 68.6631 156.488C68.6991 156.348 68.7431 156.204 68.7951 156.056L70.3551 152.144C70.3791 152.08 70.4191 152.028 70.4751 151.988C70.5311 151.944 70.5971 151.922 70.6731 151.922H71.5071ZM76.3906 154.298C76.3906 154.05 76.3546 153.824 76.2826 153.62C76.2146 153.412 76.1126 153.234 75.9766 153.086C75.8446 152.934 75.6826 152.818 75.4906 152.738C75.2986 152.654 75.0806 152.612 74.8366 152.612C74.3246 152.612 73.9186 152.762 73.6186 153.062C73.3226 153.358 73.1386 153.77 73.0666 154.298H76.3906ZM77.2546 157.148C77.1226 157.308 76.9646 157.448 76.7806 157.568C76.5966 157.684 76.3986 157.78 76.1866 157.856C75.9786 157.932 75.7626 157.988 75.5386 158.024C75.3146 158.064 75.0926 158.084 74.8726 158.084C74.4526 158.084 74.0646 158.014 73.7086 157.874C73.3566 157.73 73.0506 157.522 72.7906 157.25C72.5346 156.974 72.3346 156.634 72.1906 156.23C72.0466 155.826 71.9746 155.362 71.9746 154.838C71.9746 154.414 72.0386 154.018 72.1666 153.65C72.2986 153.282 72.4866 152.964 72.7306 152.696C72.9746 152.424 73.2726 152.212 73.6246 152.06C73.9766 151.904 74.3726 151.826 74.8126 151.826C75.1766 151.826 75.5126 151.888 75.8206 152.012C76.1326 152.132 76.4006 152.308 76.6246 152.54C76.8526 152.768 77.0306 153.052 77.1586 153.392C77.2866 153.728 77.3506 154.112 77.3506 154.544C77.3506 154.712 77.3326 154.824 77.2966 154.88C77.2606 154.936 77.1926 154.964 77.0926 154.964H73.0306C73.0426 155.348 73.0946 155.682 73.1866 155.966C73.2826 156.25 73.4146 156.488 73.5826 156.68C73.7506 156.868 73.9506 157.01 74.1826 157.106C74.4146 157.198 74.6746 157.244 74.9626 157.244C75.2306 157.244 75.4606 157.214 75.6526 157.154C75.8486 157.09 76.0166 157.022 76.1566 156.95C76.2966 156.878 76.4126 156.812 76.5046 156.752C76.6006 156.688 76.6826 156.656 76.7506 156.656C76.8386 156.656 76.9066 156.69 76.9546 156.758L77.2546 157.148ZM79.7664 149.162V158H78.6984V149.162H79.7664ZM84.0603 151.826C84.5043 151.826 84.9043 151.9 85.2603 152.048C85.6163 152.196 85.9203 152.406 86.1723 152.678C86.4243 152.95 86.6163 153.28 86.7483 153.668C86.8843 154.052 86.9523 154.482 86.9523 154.958C86.9523 155.438 86.8843 155.87 86.7483 156.254C86.6163 156.638 86.4243 156.966 86.1723 157.238C85.9203 157.51 85.6163 157.72 85.2603 157.868C84.9043 158.012 84.5043 158.084 84.0603 158.084C83.6123 158.084 83.2083 158.012 82.8483 157.868C82.4923 157.72 82.1883 157.51 81.9363 157.238C81.6843 156.966 81.4903 156.638 81.3543 156.254C81.2223 155.87 81.1563 155.438 81.1563 154.958C81.1563 154.482 81.2223 154.052 81.3543 153.668C81.4903 153.28 81.6843 152.95 81.9363 152.678C82.1883 152.406 82.4923 152.196 82.8483 152.048C83.2083 151.9 83.6123 151.826 84.0603 151.826ZM84.0603 157.25C84.6603 157.25 85.1083 157.05 85.4043 156.65C85.7003 156.246 85.8483 155.684 85.8483 154.964C85.8483 154.24 85.7003 153.676 85.4043 153.272C85.1083 152.868 84.6603 152.666 84.0603 152.666C83.7563 152.666 83.4903 152.718 83.2623 152.822C83.0383 152.926 82.8503 153.076 82.6983 153.272C82.5503 153.468 82.4383 153.71 82.3623 153.998C82.2903 154.282 82.2543 154.604 82.2543 154.964C82.2543 155.684 82.4023 156.246 82.6983 156.65C82.9983 157.05 83.4523 157.25 84.0603 157.25ZM89.3809 156.536C89.5769 156.8 89.7909 156.986 90.0229 157.094C90.2549 157.202 90.5149 157.256 90.8029 157.256C91.3709 157.256 91.8069 157.054 92.1109 156.65C92.4149 156.246 92.5669 155.67 92.5669 154.922C92.5669 154.526 92.5309 154.186 92.4589 153.902C92.3909 153.618 92.2909 153.386 92.1589 153.206C92.0269 153.022 91.8649 152.888 91.6729 152.804C91.4809 152.72 91.2629 152.678 91.0189 152.678C90.6709 152.678 90.3649 152.758 90.1009 152.918C89.8409 153.078 89.6009 153.304 89.3809 153.596V156.536ZM89.3269 152.864C89.5829 152.548 89.8789 152.294 90.2149 152.102C90.5509 151.91 90.9349 151.814 91.3669 151.814C91.7189 151.814 92.0369 151.882 92.3209 152.018C92.6049 152.15 92.8469 152.348 93.0469 152.612C93.2469 152.872 93.4009 153.196 93.5089 153.584C93.6169 153.972 93.6709 154.418 93.6709 154.922C93.6709 155.37 93.6109 155.788 93.4909 156.176C93.3709 156.56 93.1969 156.894 92.9689 157.178C92.7449 157.458 92.4689 157.68 92.1409 157.844C91.8169 158.004 91.4509 158.084 91.0429 158.084C90.6709 158.084 90.3509 158.022 90.0829 157.898C89.8189 157.77 89.5849 157.594 89.3809 157.37V160.058H88.3069V151.922H88.9489C89.1009 151.922 89.1949 151.996 89.2309 152.144L89.3269 152.864ZM99.1015 154.298C99.1015 154.05 99.0655 153.824 98.9935 153.62C98.9255 153.412 98.8235 153.234 98.6875 153.086C98.5555 152.934 98.3935 152.818 98.2015 152.738C98.0095 152.654 97.7915 152.612 97.5475 152.612C97.0355 152.612 96.6295 152.762 96.3295 153.062C96.0335 153.358 95.8495 153.77 95.7775 154.298H99.1015ZM99.9655 157.148C99.8335 157.308 99.6755 157.448 99.4915 157.568C99.3075 157.684 99.1095 157.78 98.8975 157.856C98.6895 157.932 98.4735 157.988 98.2495 158.024C98.0255 158.064 97.8035 158.084 97.5835 158.084C97.1635 158.084 96.7755 158.014 96.4195 157.874C96.0675 157.73 95.7615 157.522 95.5015 157.25C95.2455 156.974 95.0455 156.634 94.9015 156.23C94.7575 155.826 94.6855 155.362 94.6855 154.838C94.6855 154.414 94.7495 154.018 94.8775 153.65C95.0095 153.282 95.1975 152.964 95.4415 152.696C95.6855 152.424 95.9835 152.212 96.3355 152.06C96.6875 151.904 97.0835 151.826 97.5235 151.826C97.8875 151.826 98.2235 151.888 98.5315 152.012C98.8435 152.132 99.1115 152.308 99.3355 152.54C99.5635 152.768 99.7415 153.052 99.8695 153.392C99.9975 153.728 100.062 154.112 100.062 154.544C100.062 154.712 100.044 154.824 100.008 154.88C99.9715 154.936 99.9035 154.964 99.8035 154.964H95.7415C95.7535 155.348 95.8055 155.682 95.8975 155.966C95.9935 156.25 96.1255 156.488 96.2935 156.68C96.4615 156.868 96.6615 157.01 96.8935 157.106C97.1255 157.198 97.3855 157.244 97.6735 157.244C97.9415 157.244 98.1715 157.214 98.3635 157.154C98.5595 157.09 98.7275 157.022 98.8675 156.95C99.0075 156.878 99.1235 156.812 99.2155 156.752C99.3115 156.688 99.3935 156.656 99.4615 156.656C99.5495 156.656 99.6175 156.69 99.6655 156.758L99.9655 157.148ZM102.387 153.14C102.579 152.724 102.815 152.4 103.095 152.168C103.375 151.932 103.717 151.814 104.121 151.814C104.249 151.814 104.371 151.828 104.487 151.856C104.607 151.884 104.713 151.928 104.805 151.988L104.727 152.786C104.703 152.886 104.643 152.936 104.547 152.936C104.491 152.936 104.409 152.924 104.301 152.9C104.193 152.876 104.071 152.864 103.935 152.864C103.743 152.864 103.571 152.892 103.419 152.948C103.271 153.004 103.137 153.088 103.017 153.2C102.901 153.308 102.795 153.444 102.699 153.608C102.607 153.768 102.523 153.952 102.447 154.16V158H101.373V151.922H101.985C102.101 151.922 102.181 151.944 102.225 151.988C102.269 152.032 102.299 152.108 102.315 152.216L102.387 153.14ZM109.249 152.924C109.201 153.012 109.127 153.056 109.027 153.056C108.967 153.056 108.899 153.034 108.823 152.99C108.747 152.946 108.653 152.898 108.541 152.846C108.433 152.79 108.303 152.74 108.151 152.696C107.999 152.648 107.819 152.624 107.611 152.624C107.431 152.624 107.269 152.648 107.125 152.696C106.981 152.74 106.857 152.802 106.753 152.882C106.653 152.962 106.575 153.056 106.519 153.164C106.467 153.268 106.441 153.382 106.441 153.506C106.441 153.662 106.485 153.792 106.573 153.896C106.665 154 106.785 154.09 106.933 154.166C107.081 154.242 107.249 154.31 107.437 154.37C107.625 154.426 107.817 154.488 108.013 154.556C108.213 154.62 108.407 154.692 108.595 154.772C108.783 154.852 108.951 154.952 109.099 155.072C109.247 155.192 109.365 155.34 109.453 155.516C109.545 155.688 109.591 155.896 109.591 156.14C109.591 156.42 109.541 156.68 109.441 156.92C109.341 157.156 109.193 157.362 108.997 157.538C108.801 157.71 108.561 157.846 108.277 157.946C107.993 158.046 107.665 158.096 107.293 158.096C106.869 158.096 106.485 158.028 106.141 157.892C105.797 157.752 105.505 157.574 105.265 157.358L105.517 156.95C105.549 156.898 105.587 156.858 105.631 156.83C105.675 156.802 105.731 156.788 105.799 156.788C105.871 156.788 105.947 156.816 106.027 156.872C106.107 156.928 106.203 156.99 106.315 157.058C106.431 157.126 106.571 157.188 106.735 157.244C106.899 157.3 107.103 157.328 107.347 157.328C107.555 157.328 107.737 157.302 107.893 157.25C108.049 157.194 108.179 157.12 108.283 157.028C108.387 156.936 108.463 156.83 108.511 156.71C108.563 156.59 108.589 156.462 108.589 156.326C108.589 156.158 108.543 156.02 108.451 155.912C108.363 155.8 108.245 155.706 108.097 155.63C107.949 155.55 107.779 155.482 107.587 155.426C107.399 155.366 107.205 155.304 107.005 155.24C106.809 155.176 106.615 155.104 106.423 155.024C106.235 154.94 106.067 154.836 105.919 154.712C105.771 154.588 105.651 154.436 105.559 154.256C105.471 154.072 105.427 153.85 105.427 153.59C105.427 153.358 105.475 153.136 105.571 152.924C105.667 152.708 105.807 152.52 105.991 152.36C106.175 152.196 106.401 152.066 106.669 151.97C106.937 151.874 107.243 151.826 107.587 151.826C107.987 151.826 108.345 151.89 108.661 152.018C108.981 152.142 109.257 152.314 109.489 152.534L109.249 152.924ZM111.557 148.826C111.725 149.11 111.839 149.41 111.899 149.726C111.959 150.042 111.965 150.354 111.917 150.662C111.869 150.97 111.769 151.266 111.617 151.55C111.465 151.834 111.263 152.086 111.011 152.306L110.687 152.096C110.627 152.06 110.599 152.014 110.603 151.958C110.611 151.898 110.631 151.85 110.663 151.814C110.767 151.686 110.855 151.532 110.927 151.352C111.003 151.168 111.051 150.972 111.071 150.764C111.095 150.552 111.085 150.334 111.041 150.11C111.001 149.886 110.919 149.67 110.795 149.462C110.743 149.378 110.727 149.304 110.747 149.24C110.771 149.172 110.821 149.122 110.897 149.09L111.557 148.826ZM119.89 152.924C119.842 153.012 119.768 153.056 119.668 153.056C119.608 153.056 119.54 153.034 119.464 152.99C119.388 152.946 119.294 152.898 119.182 152.846C119.074 152.79 118.944 152.74 118.792 152.696C118.64 152.648 118.46 152.624 118.252 152.624C118.072 152.624 117.91 152.648 117.766 152.696C117.622 152.74 117.498 152.802 117.394 152.882C117.294 152.962 117.216 153.056 117.16 153.164C117.108 153.268 117.082 153.382 117.082 153.506C117.082 153.662 117.126 153.792 117.214 153.896C117.306 154 117.426 154.09 117.574 154.166C117.722 154.242 117.89 154.31 118.078 154.37C118.266 154.426 118.458 154.488 118.654 154.556C118.854 154.62 119.048 154.692 119.236 154.772C119.424 154.852 119.592 154.952 119.74 155.072C119.888 155.192 120.006 155.34 120.094 155.516C120.186 155.688 120.232 155.896 120.232 156.14C120.232 156.42 120.182 156.68 120.082 156.92C119.982 157.156 119.834 157.362 119.638 157.538C119.442 157.71 119.202 157.846 118.918 157.946C118.634 158.046 118.306 158.096 117.934 158.096C117.51 158.096 117.126 158.028 116.782 157.892C116.438 157.752 116.146 157.574 115.906 157.358L116.158 156.95C116.19 156.898 116.228 156.858 116.272 156.83C116.316 156.802 116.372 156.788 116.44 156.788C116.512 156.788 116.588 156.816 116.668 156.872C116.748 156.928 116.844 156.99 116.956 157.058C117.072 157.126 117.212 157.188 117.376 157.244C117.54 157.3 117.744 157.328 117.988 157.328C118.196 157.328 118.378 157.302 118.534 157.25C118.69 157.194 118.82 157.12 118.924 157.028C119.028 156.936 119.104 156.83 119.152 156.71C119.204 156.59 119.23 156.462 119.23 156.326C119.23 156.158 119.184 156.02 119.092 155.912C119.004 155.8 118.886 155.706 118.738 155.63C118.59 155.55 118.42 155.482 118.228 155.426C118.04 155.366 117.846 155.304 117.646 155.24C117.45 155.176 117.256 155.104 117.064 155.024C116.876 154.94 116.708 154.836 116.56 154.712C116.412 154.588 116.292 154.436 116.2 154.256C116.112 154.072 116.068 153.85 116.068 153.59C116.068 153.358 116.116 153.136 116.212 152.924C116.308 152.708 116.448 152.52 116.632 152.36C116.816 152.196 117.042 152.066 117.31 151.97C117.578 151.874 117.884 151.826 118.228 151.826C118.628 151.826 118.986 151.89 119.302 152.018C119.622 152.142 119.898 152.314 120.13 152.534L119.89 152.924ZM122.615 149.162V154.364H122.891C122.971 154.364 123.037 154.354 123.089 154.334C123.145 154.31 123.203 154.264 123.263 154.196L125.183 152.138C125.239 152.07 125.297 152.018 125.357 151.982C125.421 151.942 125.505 151.922 125.609 151.922H126.575L124.337 154.304C124.229 154.44 124.113 154.546 123.989 154.622C124.061 154.67 124.125 154.726 124.181 154.79C124.241 154.85 124.297 154.92 124.349 155L126.725 158H125.771C125.679 158 125.599 157.986 125.531 157.958C125.467 157.926 125.411 157.87 125.363 157.79L123.365 155.3C123.305 155.216 123.245 155.162 123.185 155.138C123.129 155.11 123.041 155.096 122.921 155.096H122.615V158H121.541V149.162H122.615ZM128.763 151.922V158H127.695V151.922H128.763ZM128.991 150.014C128.991 150.118 128.969 150.216 128.925 150.308C128.885 150.396 128.829 150.476 128.757 150.548C128.689 150.616 128.607 150.67 128.511 150.71C128.419 150.75 128.321 150.77 128.217 150.77C128.113 150.77 128.015 150.75 127.923 150.71C127.835 150.67 127.757 150.616 127.689 150.548C127.621 150.476 127.567 150.396 127.527 150.308C127.487 150.216 127.467 150.118 127.467 150.014C127.467 149.91 127.487 149.812 127.527 149.72C127.567 149.624 127.621 149.542 127.689 149.474C127.757 149.402 127.835 149.346 127.923 149.306C128.015 149.266 128.113 149.246 128.217 149.246C128.321 149.246 128.419 149.266 128.511 149.306C128.607 149.346 128.689 149.402 128.757 149.474C128.829 149.542 128.885 149.624 128.925 149.72C128.969 149.812 128.991 149.91 128.991 150.014ZM131.622 149.162V158H130.554V149.162H131.622ZM134.458 149.162V158H133.39V149.162H134.458ZM139.73 152.924C139.682 153.012 139.608 153.056 139.508 153.056C139.448 153.056 139.38 153.034 139.304 152.99C139.228 152.946 139.134 152.898 139.022 152.846C138.914 152.79 138.784 152.74 138.632 152.696C138.48 152.648 138.3 152.624 138.092 152.624C137.912 152.624 137.75 152.648 137.606 152.696C137.462 152.74 137.338 152.802 137.234 152.882C137.134 152.962 137.056 153.056 137 153.164C136.948 153.268 136.922 153.382 136.922 153.506C136.922 153.662 136.966 153.792 137.054 153.896C137.146 154 137.266 154.09 137.414 154.166C137.562 154.242 137.73 154.31 137.918 154.37C138.106 154.426 138.298 154.488 138.494 154.556C138.694 154.62 138.888 154.692 139.076 154.772C139.264 154.852 139.432 154.952 139.58 155.072C139.728 155.192 139.846 155.34 139.934 155.516C140.026 155.688 140.072 155.896 140.072 156.14C140.072 156.42 140.022 156.68 139.922 156.92C139.822 157.156 139.674 157.362 139.478 157.538C139.282 157.71 139.042 157.846 138.758 157.946C138.474 158.046 138.146 158.096 137.774 158.096C137.35 158.096 136.966 158.028 136.622 157.892C136.278 157.752 135.986 157.574 135.746 157.358L135.998 156.95C136.03 156.898 136.068 156.858 136.112 156.83C136.156 156.802 136.212 156.788 136.28 156.788C136.352 156.788 136.428 156.816 136.508 156.872C136.588 156.928 136.684 156.99 136.796 157.058C136.912 157.126 137.052 157.188 137.216 157.244C137.38 157.3 137.584 157.328 137.828 157.328C138.036 157.328 138.218 157.302 138.374 157.25C138.53 157.194 138.66 157.12 138.764 157.028C138.868 156.936 138.944 156.83 138.992 156.71C139.044 156.59 139.07 156.462 139.07 156.326C139.07 156.158 139.024 156.02 138.932 155.912C138.844 155.8 138.726 155.706 138.578 155.63C138.43 155.55 138.26 155.482 138.068 155.426C137.88 155.366 137.686 155.304 137.486 155.24C137.29 155.176 137.096 155.104 136.904 155.024C136.716 154.94 136.548 154.836 136.4 154.712C136.252 154.588 136.132 154.436 136.04 154.256C135.952 154.072 135.908 153.85 135.908 153.59C135.908 153.358 135.956 153.136 136.052 152.924C136.148 152.708 136.288 152.52 136.472 152.36C136.656 152.196 136.882 152.066 137.15 151.97C137.418 151.874 137.724 151.826 138.068 151.826C138.468 151.826 138.826 151.89 139.142 152.018C139.462 152.142 139.738 152.314 139.97 152.534L139.73 152.924ZM145.525 156.536C145.721 156.8 145.935 156.986 146.167 157.094C146.403 157.202 146.661 157.256 146.941 157.256C147.513 157.256 147.951 157.054 148.255 156.65C148.559 156.246 148.711 155.644 148.711 154.844C148.711 154.1 148.575 153.554 148.303 153.206C148.035 152.854 147.651 152.678 147.151 152.678C146.803 152.678 146.499 152.758 146.239 152.918C145.983 153.078 145.745 153.304 145.525 153.596V156.536ZM145.525 152.798C145.781 152.502 146.069 152.266 146.389 152.09C146.713 151.914 147.085 151.826 147.505 151.826C147.861 151.826 148.181 151.894 148.465 152.03C148.753 152.166 148.997 152.364 149.197 152.624C149.397 152.88 149.549 153.192 149.653 153.56C149.761 153.928 149.815 154.342 149.815 154.802C149.815 155.294 149.755 155.742 149.635 156.146C149.515 156.55 149.341 156.896 149.113 157.184C148.889 157.468 148.615 157.69 148.291 157.85C147.967 158.006 147.603 158.084 147.199 158.084C146.799 158.084 146.461 158.01 146.185 157.862C145.913 157.71 145.675 157.496 145.471 157.22L145.417 157.772C145.385 157.924 145.293 158 145.141 158H144.451V149.162H145.525V152.798ZM155.234 154.298C155.234 154.05 155.198 153.824 155.126 153.62C155.058 153.412 154.956 153.234 154.82 153.086C154.688 152.934 154.526 152.818 154.334 152.738C154.142 152.654 153.924 152.612 153.68 152.612C153.168 152.612 152.762 152.762 152.462 153.062C152.166 153.358 151.982 153.77 151.91 154.298H155.234ZM156.098 157.148C155.966 157.308 155.808 157.448 155.624 157.568C155.44 157.684 155.242 157.78 155.03 157.856C154.822 157.932 154.606 157.988 154.382 158.024C154.158 158.064 153.936 158.084 153.716 158.084C153.296 158.084 152.908 158.014 152.552 157.874C152.2 157.73 151.894 157.522 151.634 157.25C151.378 156.974 151.178 156.634 151.034 156.23C150.89 155.826 150.818 155.362 150.818 154.838C150.818 154.414 150.882 154.018 151.01 153.65C151.142 153.282 151.33 152.964 151.574 152.696C151.818 152.424 152.116 152.212 152.468 152.06C152.82 151.904 153.216 151.826 153.656 151.826C154.02 151.826 154.356 151.888 154.664 152.012C154.976 152.132 155.244 152.308 155.468 152.54C155.696 152.768 155.874 153.052 156.002 153.392C156.13 153.728 156.194 154.112 156.194 154.544C156.194 154.712 156.176 154.824 156.14 154.88C156.104 154.936 156.036 154.964 155.936 154.964H151.874C151.886 155.348 151.938 155.682 152.03 155.966C152.126 156.25 152.258 156.488 152.426 156.68C152.594 156.868 152.794 157.01 153.026 157.106C153.258 157.198 153.518 157.244 153.806 157.244C154.074 157.244 154.304 157.214 154.496 157.154C154.692 157.09 154.86 157.022 155 156.95C155.14 156.878 155.256 156.812 155.348 156.752C155.444 156.688 155.526 156.656 155.594 156.656C155.682 156.656 155.75 156.69 155.798 156.758L156.098 157.148ZM157.844 158V152.834L157.172 152.756C157.088 152.736 157.018 152.706 156.962 152.666C156.91 152.622 156.884 152.56 156.884 152.48V152.042H157.844V151.454C157.844 151.106 157.892 150.798 157.988 150.53C158.088 150.258 158.228 150.03 158.408 149.846C158.592 149.658 158.812 149.516 159.068 149.42C159.324 149.324 159.612 149.276 159.932 149.276C160.204 149.276 160.454 149.316 160.682 149.396L160.658 149.93C160.65 150.026 160.596 150.078 160.496 150.086C160.4 150.094 160.27 150.098 160.106 150.098C159.922 150.098 159.754 150.122 159.602 150.17C159.454 150.218 159.326 150.296 159.218 150.404C159.11 150.512 159.026 150.654 158.966 150.83C158.91 151.006 158.882 151.224 158.882 151.484V152.042H160.634V152.816H158.918V158H157.844ZM164.017 151.826C164.461 151.826 164.861 151.9 165.217 152.048C165.573 152.196 165.877 152.406 166.129 152.678C166.381 152.95 166.573 153.28 166.705 153.668C166.841 154.052 166.909 154.482 166.909 154.958C166.909 155.438 166.841 155.87 166.705 156.254C166.573 156.638 166.381 156.966 166.129 157.238C165.877 157.51 165.573 157.72 165.217 157.868C164.861 158.012 164.461 158.084 164.017 158.084C163.569 158.084 163.165 158.012 162.805 157.868C162.449 157.72 162.145 157.51 161.893 157.238C161.641 156.966 161.447 156.638 161.311 156.254C161.179 155.87 161.113 155.438 161.113 154.958C161.113 154.482 161.179 154.052 161.311 153.668C161.447 153.28 161.641 152.95 161.893 152.678C162.145 152.406 162.449 152.196 162.805 152.048C163.165 151.9 163.569 151.826 164.017 151.826ZM164.017 157.25C164.617 157.25 165.065 157.05 165.361 156.65C165.657 156.246 165.805 155.684 165.805 154.964C165.805 154.24 165.657 153.676 165.361 153.272C165.065 152.868 164.617 152.666 164.017 152.666C163.713 152.666 163.447 152.718 163.219 152.822C162.995 152.926 162.807 153.076 162.655 153.272C162.507 153.468 162.395 153.71 162.319 153.998C162.247 154.282 162.211 154.604 162.211 154.964C162.211 155.684 162.359 156.246 162.655 156.65C162.955 157.05 163.409 157.25 164.017 157.25ZM169.278 153.14C169.47 152.724 169.706 152.4 169.986 152.168C170.266 151.932 170.608 151.814 171.012 151.814C171.14 151.814 171.262 151.828 171.378 151.856C171.498 151.884 171.604 151.928 171.696 151.988L171.618 152.786C171.594 152.886 171.534 152.936 171.438 152.936C171.382 152.936 171.3 152.924 171.192 152.9C171.084 152.876 170.962 152.864 170.826 152.864C170.634 152.864 170.462 152.892 170.31 152.948C170.162 153.004 170.028 153.088 169.908 153.2C169.792 153.308 169.686 153.444 169.59 153.608C169.498 153.768 169.414 153.952 169.338 154.16V158H168.264V151.922H168.876C168.992 151.922 169.072 151.944 169.116 151.988C169.16 152.032 169.19 152.108 169.206 152.216L169.278 153.14ZM176.457 154.298C176.457 154.05 176.421 153.824 176.349 153.62C176.281 153.412 176.179 153.234 176.043 153.086C175.911 152.934 175.749 152.818 175.557 152.738C175.365 152.654 175.147 152.612 174.903 152.612C174.391 152.612 173.985 152.762 173.685 153.062C173.389 153.358 173.205 153.77 173.133 154.298H176.457ZM177.321 157.148C177.189 157.308 177.031 157.448 176.847 157.568C176.663 157.684 176.465 157.78 176.253 157.856C176.045 157.932 175.829 157.988 175.605 158.024C175.381 158.064 175.159 158.084 174.939 158.084C174.519 158.084 174.131 158.014 173.775 157.874C173.423 157.73 173.117 157.522 172.857 157.25C172.601 156.974 172.401 156.634 172.257 156.23C172.113 155.826 172.041 155.362 172.041 154.838C172.041 154.414 172.105 154.018 172.233 153.65C172.365 153.282 172.553 152.964 172.797 152.696C173.041 152.424 173.339 152.212 173.691 152.06C174.043 151.904 174.439 151.826 174.879 151.826C175.243 151.826 175.579 151.888 175.887 152.012C176.199 152.132 176.467 152.308 176.691 152.54C176.919 152.768 177.097 153.052 177.225 153.392C177.353 153.728 177.417 154.112 177.417 154.544C177.417 154.712 177.399 154.824 177.363 154.88C177.327 154.936 177.259 154.964 177.159 154.964H173.097C173.109 155.348 173.161 155.682 173.253 155.966C173.349 156.25 173.481 156.488 173.649 156.68C173.817 156.868 174.017 157.01 174.249 157.106C174.481 157.198 174.741 157.244 175.029 157.244C175.297 157.244 175.527 157.214 175.719 157.154C175.915 157.09 176.083 157.022 176.223 156.95C176.363 156.878 176.479 156.812 176.571 156.752C176.667 156.688 176.749 156.656 176.817 156.656C176.905 156.656 176.973 156.69 177.021 156.758L177.321 157.148ZM186.738 151.922L183.348 159.794C183.312 159.874 183.266 159.938 183.21 159.986C183.158 160.034 183.076 160.058 182.964 160.058H182.172L183.282 157.646L180.774 151.922H181.698C181.79 151.922 181.862 151.946 181.914 151.994C181.97 152.038 182.008 152.088 182.028 152.144L183.654 155.972C183.718 156.14 183.772 156.316 183.816 156.5C183.872 156.312 183.932 156.134 183.996 155.966L185.574 152.144C185.598 152.08 185.638 152.028 185.694 151.988C185.754 151.944 185.82 151.922 185.892 151.922H186.738ZM190.08 151.826C190.524 151.826 190.924 151.9 191.28 152.048C191.636 152.196 191.94 152.406 192.192 152.678C192.444 152.95 192.636 153.28 192.768 153.668C192.904 154.052 192.972 154.482 192.972 154.958C192.972 155.438 192.904 155.87 192.768 156.254C192.636 156.638 192.444 156.966 192.192 157.238C191.94 157.51 191.636 157.72 191.28 157.868C190.924 158.012 190.524 158.084 190.08 158.084C189.632 158.084 189.228 158.012 188.868 157.868C188.512 157.72 188.208 157.51 187.956 157.238C187.704 156.966 187.51 156.638 187.374 156.254C187.242 155.87 187.176 155.438 187.176 154.958C187.176 154.482 187.242 154.052 187.374 153.668C187.51 153.28 187.704 152.95 187.956 152.678C188.208 152.406 188.512 152.196 188.868 152.048C189.228 151.9 189.632 151.826 190.08 151.826ZM190.08 157.25C190.68 157.25 191.128 157.05 191.424 156.65C191.72 156.246 191.868 155.684 191.868 154.964C191.868 154.24 191.72 153.676 191.424 153.272C191.128 152.868 190.68 152.666 190.08 152.666C189.776 152.666 189.51 152.718 189.282 152.822C189.058 152.926 188.87 153.076 188.718 153.272C188.57 153.468 188.458 153.71 188.382 153.998C188.31 154.282 188.274 154.604 188.274 154.964C188.274 155.684 188.422 156.246 188.718 156.65C189.018 157.05 189.472 157.25 190.08 157.25ZM199.324 151.922V158H198.688C198.536 158 198.44 157.926 198.4 157.778L198.316 157.124C198.052 157.416 197.756 157.652 197.428 157.832C197.1 158.008 196.724 158.096 196.3 158.096C195.968 158.096 195.674 158.042 195.418 157.934C195.166 157.822 194.954 157.666 194.782 157.466C194.61 157.266 194.48 157.024 194.392 156.74C194.308 156.456 194.266 156.142 194.266 155.798V151.922H195.334V155.798C195.334 156.258 195.438 156.614 195.646 156.866C195.858 157.118 196.18 157.244 196.612 157.244C196.928 157.244 197.222 157.17 197.494 157.022C197.77 156.87 198.024 156.662 198.256 156.398V151.922H199.324ZM208.048 153.368C207.848 153.1 207.632 152.914 207.4 152.81C207.168 152.702 206.908 152.648 206.62 152.648C206.056 152.648 205.622 152.85 205.318 153.254C205.014 153.658 204.862 154.234 204.862 154.982C204.862 155.378 204.896 155.718 204.964 156.002C205.032 156.282 205.132 156.514 205.264 156.698C205.396 156.878 205.558 157.01 205.75 157.094C205.942 157.178 206.16 157.22 206.404 157.22C206.756 157.22 207.062 157.14 207.322 156.98C207.586 156.82 207.828 156.594 208.048 156.302V153.368ZM209.116 149.162V158H208.48C208.328 158 208.232 157.926 208.192 157.778L208.096 157.04C207.836 157.352 207.54 157.604 207.208 157.796C206.876 157.988 206.492 158.084 206.056 158.084C205.708 158.084 205.392 158.018 205.108 157.886C204.824 157.75 204.582 157.552 204.382 157.292C204.182 157.032 204.028 156.708 203.92 156.32C203.812 155.932 203.758 155.486 203.758 154.982C203.758 154.534 203.818 154.118 203.938 153.734C204.058 153.346 204.23 153.01 204.454 152.726C204.678 152.442 204.952 152.22 205.276 152.06C205.604 151.896 205.972 151.814 206.38 151.814C206.752 151.814 207.07 151.878 207.334 152.006C207.602 152.13 207.84 152.304 208.048 152.528V149.162H209.116ZM214.871 154.298C214.871 154.05 214.835 153.824 214.763 153.62C214.695 153.412 214.593 153.234 214.457 153.086C214.325 152.934 214.163 152.818 213.971 152.738C213.779 152.654 213.561 152.612 213.317 152.612C212.805 152.612 212.399 152.762 212.099 153.062C211.803 153.358 211.619 153.77 211.547 154.298H214.871ZM215.735 157.148C215.603 157.308 215.445 157.448 215.261 157.568C215.077 157.684 214.879 157.78 214.667 157.856C214.459 157.932 214.243 157.988 214.019 158.024C213.795 158.064 213.573 158.084 213.353 158.084C212.933 158.084 212.545 158.014 212.189 157.874C211.837 157.73 211.531 157.522 211.271 157.25C211.015 156.974 210.815 156.634 210.671 156.23C210.527 155.826 210.455 155.362 210.455 154.838C210.455 154.414 210.519 154.018 210.647 153.65C210.779 153.282 210.967 152.964 211.211 152.696C211.455 152.424 211.753 152.212 212.105 152.06C212.457 151.904 212.853 151.826 213.293 151.826C213.657 151.826 213.993 151.888 214.301 152.012C214.613 152.132 214.881 152.308 215.105 152.54C215.333 152.768 215.511 153.052 215.639 153.392C215.767 153.728 215.831 154.112 215.831 154.544C215.831 154.712 215.813 154.824 215.777 154.88C215.741 154.936 215.673 154.964 215.573 154.964H211.511C211.523 155.348 211.575 155.682 211.667 155.966C211.763 156.25 211.895 156.488 212.063 156.68C212.231 156.868 212.431 157.01 212.663 157.106C212.895 157.198 213.155 157.244 213.443 157.244C213.711 157.244 213.941 157.214 214.133 157.154C214.329 157.09 214.497 157.022 214.637 156.95C214.777 156.878 214.893 156.812 214.985 156.752C215.081 156.688 215.163 156.656 215.231 156.656C215.319 156.656 215.387 156.69 215.435 156.758L215.735 157.148ZM221.373 153.002C221.341 153.046 221.309 153.08 221.277 153.104C221.245 153.128 221.201 153.14 221.145 153.14C221.085 153.14 221.019 153.116 220.947 153.068C220.875 153.016 220.785 152.96 220.677 152.9C220.573 152.84 220.443 152.786 220.287 152.738C220.135 152.686 219.947 152.66 219.723 152.66C219.423 152.66 219.159 152.714 218.931 152.822C218.703 152.926 218.511 153.078 218.355 153.278C218.203 153.478 218.087 153.72 218.007 154.004C217.931 154.288 217.893 154.606 217.893 154.958C217.893 155.326 217.935 155.654 218.019 155.942C218.103 156.226 218.221 156.466 218.373 156.662C218.529 156.854 218.715 157.002 218.931 157.106C219.151 157.206 219.397 157.256 219.669 157.256C219.929 157.256 220.143 157.226 220.311 157.166C220.479 157.102 220.617 157.032 220.725 156.956C220.837 156.88 220.929 156.812 221.001 156.752C221.077 156.688 221.151 156.656 221.223 156.656C221.311 156.656 221.379 156.69 221.427 156.758L221.727 157.148C221.595 157.312 221.445 157.452 221.277 157.568C221.109 157.684 220.927 157.782 220.731 157.862C220.539 157.938 220.337 157.994 220.125 158.03C219.913 158.066 219.697 158.084 219.477 158.084C219.097 158.084 218.743 158.014 218.415 157.874C218.091 157.734 217.809 157.532 217.569 157.268C217.329 157 217.141 156.672 217.005 156.284C216.869 155.896 216.801 155.454 216.801 154.958C216.801 154.506 216.863 154.088 216.987 153.704C217.115 153.32 217.299 152.99 217.539 152.714C217.783 152.434 218.081 152.216 218.433 152.06C218.789 151.904 219.197 151.826 219.657 151.826C220.085 151.826 220.461 151.896 220.785 152.036C221.113 152.172 221.403 152.366 221.655 152.618L221.373 153.002ZM224.001 151.922V158H222.933V151.922H224.001ZM224.229 150.014C224.229 150.118 224.207 150.216 224.163 150.308C224.123 150.396 224.067 150.476 223.995 150.548C223.927 150.616 223.845 150.67 223.749 150.71C223.657 150.75 223.559 150.77 223.455 150.77C223.351 150.77 223.253 150.75 223.161 150.71C223.073 150.67 222.995 150.616 222.927 150.548C222.859 150.476 222.805 150.396 222.765 150.308C222.725 150.216 222.705 150.118 222.705 150.014C222.705 149.91 222.725 149.812 222.765 149.72C222.805 149.624 222.859 149.542 222.927 149.474C222.995 149.402 223.073 149.346 223.161 149.306C223.253 149.266 223.351 149.246 223.455 149.246C223.559 149.246 223.657 149.266 223.749 149.306C223.845 149.346 223.927 149.402 223.995 149.474C224.067 149.542 224.123 149.624 224.163 149.72C224.207 149.812 224.229 149.91 224.229 150.014ZM229.716 153.368C229.516 153.1 229.3 152.914 229.068 152.81C228.836 152.702 228.576 152.648 228.288 152.648C227.724 152.648 227.29 152.85 226.986 153.254C226.682 153.658 226.53 154.234 226.53 154.982C226.53 155.378 226.564 155.718 226.632 156.002C226.7 156.282 226.8 156.514 226.932 156.698C227.064 156.878 227.226 157.01 227.418 157.094C227.61 157.178 227.828 157.22 228.072 157.22C228.424 157.22 228.73 157.14 228.99 156.98C229.254 156.82 229.496 156.594 229.716 156.302V153.368ZM230.784 149.162V158H230.148C229.996 158 229.9 157.926 229.86 157.778L229.764 157.04C229.504 157.352 229.208 157.604 228.876 157.796C228.544 157.988 228.16 158.084 227.724 158.084C227.376 158.084 227.06 158.018 226.776 157.886C226.492 157.75 226.25 157.552 226.05 157.292C225.85 157.032 225.696 156.708 225.588 156.32C225.48 155.932 225.426 155.486 225.426 154.982C225.426 154.534 225.486 154.118 225.606 153.734C225.726 153.346 225.898 153.01 226.122 152.726C226.346 152.442 226.62 152.22 226.944 152.06C227.272 151.896 227.64 151.814 228.048 151.814C228.42 151.814 228.738 151.878 229.002 152.006C229.27 152.13 229.508 152.304 229.716 152.528V149.162H230.784ZM236.539 154.298C236.539 154.05 236.503 153.824 236.431 153.62C236.363 153.412 236.261 153.234 236.125 153.086C235.993 152.934 235.831 152.818 235.639 152.738C235.447 152.654 235.229 152.612 234.985 152.612C234.473 152.612 234.067 152.762 233.767 153.062C233.471 153.358 233.287 153.77 233.215 154.298H236.539ZM237.403 157.148C237.271 157.308 237.113 157.448 236.929 157.568C236.745 157.684 236.547 157.78 236.335 157.856C236.127 157.932 235.911 157.988 235.687 158.024C235.463 158.064 235.241 158.084 235.021 158.084C234.601 158.084 234.213 158.014 233.857 157.874C233.505 157.73 233.199 157.522 232.939 157.25C232.683 156.974 232.483 156.634 232.339 156.23C232.195 155.826 232.123 155.362 232.123 154.838C232.123 154.414 232.187 154.018 232.315 153.65C232.447 153.282 232.635 152.964 232.879 152.696C233.123 152.424 233.421 152.212 233.773 152.06C234.125 151.904 234.521 151.826 234.961 151.826C235.325 151.826 235.661 151.888 235.969 152.012C236.281 152.132 236.549 152.308 236.773 152.54C237.001 152.768 237.179 153.052 237.307 153.392C237.435 153.728 237.499 154.112 237.499 154.544C237.499 154.712 237.481 154.824 237.445 154.88C237.409 154.936 237.341 154.964 237.241 154.964H233.179C233.191 155.348 233.243 155.682 233.335 155.966C233.431 156.25 233.563 156.488 233.731 156.68C233.899 156.868 234.099 157.01 234.331 157.106C234.563 157.198 234.823 157.244 235.111 157.244C235.379 157.244 235.609 157.214 235.801 157.154C235.997 157.09 236.165 157.022 236.305 156.95C236.445 156.878 236.561 156.812 236.653 156.752C236.749 156.688 236.831 156.656 236.899 156.656C236.987 156.656 237.055 156.69 237.103 156.758L237.403 157.148ZM238.631 157.34C238.631 157.236 238.649 157.138 238.685 157.046C238.725 156.954 238.777 156.874 238.841 156.806C238.909 156.738 238.989 156.684 239.081 156.644C239.173 156.604 239.271 156.584 239.375 156.584C239.479 156.584 239.577 156.604 239.669 156.644C239.761 156.684 239.841 156.738 239.909 156.806C239.977 156.874 240.031 156.954 240.071 157.046C240.111 157.138 240.131 157.236 240.131 157.34C240.131 157.448 240.111 157.548 240.071 157.64C240.031 157.728 239.977 157.806 239.909 157.874C239.841 157.942 239.761 157.994 239.669 158.03C239.577 158.07 239.479 158.09 239.375 158.09C239.271 158.09 239.173 158.07 239.081 158.03C238.989 157.994 238.909 157.942 238.841 157.874C238.777 157.806 238.725 157.728 238.685 157.64C238.649 157.548 238.631 157.448 238.631 157.34Z" fill="#6C757D"/>
<path d="M23.392 25.448C23.3333 25.544 23.272 25.616 23.208 25.664C23.144 25.7067 23.064 25.728 22.968 25.728C22.8667 25.728 22.752 25.6853 22.624 25.6C22.5013 25.5147 22.3467 25.4213 22.16 25.32C21.9787 25.2133 21.7627 25.1173 21.512 25.032C21.2613 24.9413 20.9627 24.896 20.616 24.896C20.296 24.896 20.0133 24.936 19.768 25.016C19.528 25.096 19.3253 25.208 19.16 25.352C18.9947 25.496 18.8693 25.6667 18.784 25.864C18.704 26.056 18.664 26.2667 18.664 26.496C18.664 26.7893 18.7413 27.0347 18.896 27.232C19.0507 27.424 19.2533 27.5893 19.504 27.728C19.76 27.8667 20.0507 27.9893 20.376 28.096C20.7013 28.1973 21.032 28.3067 21.368 28.424C21.7093 28.5413 22.0427 28.6747 22.368 28.824C22.6933 28.9733 22.9813 29.1627 23.232 29.392C23.488 29.6213 23.6933 29.9013 23.848 30.232C24.0027 30.5627 24.08 30.9653 24.08 31.44C24.08 31.952 23.992 32.432 23.816 32.88C23.64 33.328 23.384 33.72 23.048 34.056C22.7173 34.3867 22.3067 34.648 21.816 34.84C21.3307 35.032 20.776 35.128 20.152 35.128C19.784 35.128 19.424 35.0907 19.072 35.016C18.7253 34.9467 18.392 34.848 18.072 34.72C17.7573 34.5867 17.4613 34.4267 17.184 34.24C16.9067 34.0533 16.6587 33.8453 16.44 33.616L16.984 32.72C17.032 32.6453 17.0933 32.5867 17.168 32.544C17.2427 32.5013 17.3253 32.48 17.416 32.48C17.5387 32.48 17.6747 32.5387 17.824 32.656C17.9733 32.768 18.152 32.8933 18.36 33.032C18.5733 33.1653 18.8293 33.2907 19.128 33.408C19.4267 33.52 19.784 33.576 20.2 33.576C20.8773 33.576 21.4 33.4107 21.768 33.08C22.1413 32.7493 22.328 32.2933 22.328 31.712C22.328 31.3867 22.2507 31.1227 22.096 30.92C21.9413 30.712 21.736 30.5387 21.48 30.4C21.2293 30.2613 20.9413 30.144 20.616 30.048C20.2907 29.952 19.96 29.8507 19.624 29.744C19.288 29.632 18.9573 29.504 18.632 29.36C18.3067 29.2107 18.016 29.0187 17.76 28.784C17.5093 28.544 17.3067 28.2507 17.152 27.904C16.9973 27.552 16.92 27.1147 16.92 26.592C16.92 26.176 17 25.7733 17.16 25.384C17.3253 24.9947 17.5627 24.6507 17.872 24.352C18.1867 24.048 18.5733 23.8053 19.032 23.624C19.4907 23.4427 20.0133 23.352 20.6 23.352C21.2613 23.352 21.8667 23.456 22.416 23.664C22.9707 23.872 23.448 24.168 23.848 24.552L23.392 25.448ZM28.039 35.128C27.3617 35.128 26.839 34.9387 26.471 34.56C26.1083 34.176 25.927 33.6373 25.927 32.944V28.192H25.031C24.935 28.192 24.8523 28.1627 24.783 28.104C24.7137 28.04 24.679 27.9467 24.679 27.824V27.128L25.999 26.936L26.375 24.576C26.4017 24.4853 26.447 24.4133 26.511 24.36C26.575 24.3013 26.6603 24.272 26.767 24.272H27.647V26.952H29.911V28.192H27.647V32.824C27.647 33.1173 27.719 33.3413 27.863 33.496C28.007 33.6507 28.199 33.728 28.439 33.728C28.5723 33.728 28.687 33.712 28.783 33.68C28.879 33.6427 28.9617 33.6053 29.031 33.568C29.1003 33.5253 29.159 33.488 29.207 33.456C29.2603 33.4187 29.311 33.4 29.359 33.4C29.455 33.4 29.5323 33.4533 29.591 33.56L30.103 34.4C29.8363 34.6347 29.5217 34.816 29.159 34.944C28.7963 35.0667 28.423 35.128 28.039 35.128ZM35.6268 31.432C35.0134 31.4533 34.4961 31.504 34.0748 31.584C33.6534 31.6587 33.3121 31.7573 33.0508 31.88C32.7894 31.9973 32.6001 32.1387 32.4828 32.304C32.3708 32.4693 32.3148 32.6507 32.3148 32.848C32.3148 33.04 32.3441 33.2053 32.4028 33.344C32.4668 33.4773 32.5521 33.5893 32.6588 33.68C32.7708 33.7653 32.8988 33.8293 33.0428 33.872C33.1921 33.9093 33.3548 33.928 33.5308 33.928C33.9788 33.928 34.3628 33.8453 34.6828 33.68C35.0081 33.5093 35.3228 33.264 35.6268 32.944V31.432ZM31.0668 27.976C31.9894 27.1173 33.0881 26.688 34.3628 26.688C34.8321 26.688 35.2481 26.7653 35.6108 26.92C35.9788 27.0693 36.2854 27.2827 36.5308 27.56C36.7814 27.8373 36.9708 28.168 37.0988 28.552C37.2321 28.9307 37.2988 29.352 37.2988 29.816V35H36.5308C36.3654 35 36.2401 34.976 36.1548 34.928C36.0694 34.8747 35.9974 34.7707 35.9388 34.616L35.7708 33.952C35.5628 34.1387 35.3574 34.3067 35.1548 34.456C34.9521 34.6 34.7414 34.7227 34.5228 34.824C34.3094 34.9253 34.0774 35 33.8268 35.048C33.5814 35.1013 33.3094 35.128 33.0108 35.128C32.6801 35.128 32.3708 35.0827 32.0828 34.992C31.8001 34.9013 31.5548 34.7653 31.3468 34.584C31.1388 34.3973 30.9734 34.168 30.8508 33.896C30.7334 33.624 30.6748 33.304 30.6748 32.936C30.6748 32.6213 30.7574 32.3147 30.9228 32.016C31.0934 31.7173 31.3708 31.4507 31.7548 31.216C32.1441 30.976 32.6534 30.7787 33.2828 30.624C33.9174 30.4693 34.6988 30.3813 35.6268 30.36V29.816C35.6268 29.2293 35.5014 28.792 35.2508 28.504C35.0001 28.216 34.6321 28.072 34.1468 28.072C33.8161 28.072 33.5388 28.1147 33.3148 28.2C33.0908 28.28 32.8961 28.368 32.7308 28.464C32.5654 28.56 32.4188 28.6507 32.2908 28.736C32.1628 28.816 32.0268 28.856 31.8828 28.856C31.7654 28.856 31.6641 28.8267 31.5788 28.768C31.4988 28.704 31.4321 28.6267 31.3788 28.536L31.0668 27.976ZM40.9376 28.352C41.1936 27.8347 41.503 27.4293 41.8656 27.136C42.2283 26.8373 42.663 26.688 43.1696 26.688C43.3456 26.688 43.511 26.7093 43.6656 26.752C43.8203 26.7893 43.959 26.848 44.0816 26.928L43.9616 28.224C43.9403 28.3147 43.9056 28.3787 43.8576 28.416C43.815 28.448 43.7563 28.464 43.6816 28.464C43.6016 28.464 43.487 28.4507 43.3376 28.424C43.1883 28.392 43.031 28.376 42.8656 28.376C42.6256 28.376 42.4123 28.4107 42.2256 28.48C42.0443 28.5493 41.879 28.6507 41.7296 28.784C41.5856 28.9173 41.4576 29.08 41.3456 29.272C41.2336 29.464 41.1296 29.6827 41.0336 29.928V35H39.3136V26.84H40.3136C40.495 26.84 40.6203 26.8747 40.6896 26.944C40.759 27.008 40.807 27.1227 40.8336 27.288L40.9376 28.352ZM47.8359 35.128C47.1585 35.128 46.6359 34.9387 46.2679 34.56C45.9052 34.176 45.7239 33.6373 45.7239 32.944V28.192H44.8279C44.7319 28.192 44.6492 28.1627 44.5799 28.104C44.5105 28.04 44.4759 27.9467 44.4759 27.824V27.128L45.7959 26.936L46.1719 24.576C46.1985 24.4853 46.2439 24.4133 46.3079 24.36C46.3719 24.3013 46.4572 24.272 46.5639 24.272H47.4439V26.952H49.7079V28.192H47.4439V32.824C47.4439 33.1173 47.5159 33.3413 47.6599 33.496C47.8039 33.6507 47.9959 33.728 48.2359 33.728C48.3692 33.728 48.4839 33.712 48.5799 33.68C48.6759 33.6427 48.7585 33.6053 48.8279 33.568C48.8972 33.5253 48.9559 33.488 49.0039 33.456C49.0572 33.4187 49.1079 33.4 49.1559 33.4C49.2519 33.4 49.3292 33.4533 49.3879 33.56L49.8999 34.4C49.6332 34.6347 49.3185 34.816 48.9559 34.944C48.5932 35.0667 48.2199 35.128 47.8359 35.128ZM66.1839 26.84L63.5679 35H62.1999C62.0399 35 61.9279 34.896 61.8639 34.688L60.2399 29.608C60.1972 29.464 60.1572 29.32 60.1199 29.176C60.0879 29.032 60.0585 28.8907 60.0319 28.752C59.9732 29.04 59.9012 29.328 59.8159 29.616L58.1679 34.688C58.1092 34.896 57.9839 35 57.7919 35H56.4879L53.8719 26.84H55.2319C55.3652 26.84 55.4745 26.8747 55.5599 26.944C55.6505 27.008 55.7092 27.0853 55.7359 27.176L57.0959 31.928C57.1492 32.1467 57.1945 32.36 57.2319 32.568C57.2745 32.7707 57.3119 32.9733 57.3439 33.176C57.3972 32.9733 57.4532 32.7707 57.5119 32.568C57.5705 32.36 57.6319 32.1467 57.6959 31.928L59.2239 27.152C59.2505 27.056 59.3039 26.9787 59.3839 26.92C59.4692 26.856 59.5705 26.824 59.6879 26.824H60.4399C60.5625 26.824 60.6665 26.856 60.7519 26.92C60.8372 26.9787 60.8932 27.056 60.9199 27.152L62.4079 31.928C62.4719 32.1467 62.5305 32.36 62.5839 32.568C62.6425 32.776 62.6959 32.984 62.7439 33.192C62.7812 32.9893 62.8212 32.784 62.8639 32.576C62.9065 32.368 62.9572 32.152 63.0159 31.928L64.3999 27.176C64.4319 27.08 64.4905 27 64.5759 26.936C64.6612 26.872 64.7652 26.84 64.8879 26.84H66.1839ZM69.2306 26.84V35H67.5106V26.84H69.2306ZM69.5186 24.376C69.5186 24.5307 69.4866 24.6773 69.4226 24.816C69.364 24.9547 69.2813 25.0773 69.1746 25.184C69.068 25.2853 68.9426 25.368 68.7986 25.432C68.66 25.4907 68.5106 25.52 68.3506 25.52C68.196 25.52 68.0493 25.4907 67.9106 25.432C67.7773 25.368 67.66 25.2853 67.5586 25.184C67.4573 25.0773 67.3746 24.9547 67.3106 24.816C67.252 24.6773 67.2226 24.5307 67.2226 24.376C67.2226 24.216 67.252 24.0667 67.3106 23.928C67.3746 23.7893 67.4573 23.6693 67.5586 23.568C67.66 23.4613 67.7773 23.3787 67.9106 23.32C68.0493 23.256 68.196 23.224 68.3506 23.224C68.5106 23.224 68.66 23.256 68.7986 23.32C68.9426 23.3787 69.068 23.4613 69.1746 23.568C69.2813 23.6693 69.364 23.7893 69.4226 23.928C69.4866 24.0667 69.5186 24.216 69.5186 24.376ZM74.0078 35.128C73.3304 35.128 72.8078 34.9387 72.4398 34.56C72.0771 34.176 71.8958 33.6373 71.8958 32.944V28.192H70.9998C70.9038 28.192 70.8211 28.1627 70.7518 28.104C70.6824 28.04 70.6478 27.9467 70.6478 27.824V27.128L71.9678 26.936L72.3438 24.576C72.3704 24.4853 72.4158 24.4133 72.4798 24.36C72.5438 24.3013 72.6291 24.272 72.7358 24.272H73.6158V26.952H75.8798V28.192H73.6158V32.824C73.6158 33.1173 73.6878 33.3413 73.8318 33.496C73.9758 33.6507 74.1678 33.728 74.4078 33.728C74.5411 33.728 74.6558 33.712 74.7517 33.68C74.8478 33.6427 74.9304 33.6053 74.9998 33.568C75.0691 33.5253 75.1278 33.488 75.1758 33.456C75.2291 33.4187 75.2798 33.4 75.3278 33.4C75.4238 33.4 75.5011 33.4533 75.5598 33.56L76.0718 34.4C75.8051 34.6347 75.4904 34.816 75.1278 34.944C74.7651 35.0667 74.3918 35.128 74.0078 35.128ZM78.9555 27.808C79.2915 27.4773 79.6595 27.2133 80.0595 27.016C80.4595 26.8133 80.9262 26.712 81.4595 26.712C81.9075 26.712 82.2995 26.7867 82.6355 26.936C82.9768 27.0853 83.2622 27.296 83.4915 27.568C83.7262 27.84 83.9022 28.168 84.0195 28.552C84.1368 28.9307 84.1955 29.3493 84.1955 29.808V35H82.4835V29.808C82.4835 29.2587 82.3555 28.832 82.0995 28.528C81.8488 28.224 81.4648 28.072 80.9475 28.072C80.5635 28.072 80.2062 28.16 79.8755 28.336C79.5502 28.512 79.2435 28.752 78.9555 29.056V35H77.2355V23.16H78.9555V27.808ZM94.5486 31.432C93.9353 31.4533 93.418 31.504 92.9966 31.584C92.5753 31.6587 92.234 31.7573 91.9726 31.88C91.7113 31.9973 91.522 32.1387 91.4046 32.304C91.2926 32.4693 91.2366 32.6507 91.2366 32.848C91.2366 33.04 91.266 33.2053 91.3246 33.344C91.3886 33.4773 91.474 33.5893 91.5806 33.68C91.6926 33.7653 91.8206 33.8293 91.9646 33.872C92.114 33.9093 92.2766 33.928 92.4526 33.928C92.9006 33.928 93.2846 33.8453 93.6046 33.68C93.93 33.5093 94.2446 33.264 94.5486 32.944V31.432ZM89.9886 27.976C90.9113 27.1173 92.01 26.688 93.2846 26.688C93.754 26.688 94.17 26.7653 94.5326 26.92C94.9006 27.0693 95.2073 27.2827 95.4526 27.56C95.7033 27.8373 95.8926 28.168 96.0206 28.552C96.154 28.9307 96.2206 29.352 96.2206 29.816V35H95.4526C95.2873 35 95.162 34.976 95.0766 34.928C94.9913 34.8747 94.9193 34.7707 94.8606 34.616L94.6926 33.952C94.4846 34.1387 94.2793 34.3067 94.0766 34.456C93.874 34.6 93.6633 34.7227 93.4446 34.824C93.2313 34.9253 92.9993 35 92.7486 35.048C92.5033 35.1013 92.2313 35.128 91.9326 35.128C91.602 35.128 91.2926 35.0827 91.0046 34.992C90.722 34.9013 90.4766 34.7653 90.2686 34.584C90.0606 34.3973 89.8953 34.168 89.7726 33.896C89.6553 33.624 89.5966 33.304 89.5966 32.936C89.5966 32.6213 89.6793 32.3147 89.8446 32.016C90.0153 31.7173 90.2926 31.4507 90.6766 31.216C91.066 30.976 91.5753 30.7787 92.2046 30.624C92.8393 30.4693 93.6206 30.3813 94.5486 30.36V29.816C94.5486 29.2293 94.4233 28.792 94.1726 28.504C93.922 28.216 93.554 28.072 93.0686 28.072C92.738 28.072 92.4606 28.1147 92.2366 28.2C92.0126 28.28 91.818 28.368 91.6526 28.464C91.4873 28.56 91.3406 28.6507 91.2126 28.736C91.0846 28.816 90.9486 28.856 90.8046 28.856C90.6873 28.856 90.586 28.8267 90.5006 28.768C90.4206 28.704 90.354 28.6267 90.3006 28.536L89.9886 27.976Z" fill="black"/>
<path d="M20.712 55C21.1387 55 21.512 54.9493 21.832 54.848C22.152 54.7413 22.4187 54.5947 22.632 54.408C22.8453 54.2213 23.0053 54 23.112 53.744C23.2187 53.4827 23.272 53.1947 23.272 52.88C23.272 52.2507 23.064 51.7707 22.648 51.44C22.232 51.1093 21.6027 50.944 20.76 50.944H19.24V55H20.712ZM26.136 61H24.464C24.1333 61 23.8933 60.872 23.744 60.616L21.056 56.736C20.9653 56.6027 20.8667 56.5067 20.76 56.448C20.6533 56.3893 20.4933 56.36 20.28 56.36H19.24V61H17.368V49.48H20.76C21.5173 49.48 22.168 49.5573 22.712 49.712C23.2613 49.8667 23.712 50.088 24.064 50.376C24.416 50.6587 24.6747 51 24.84 51.4C25.0107 51.8 25.096 52.2453 25.096 52.736C25.096 53.136 25.0347 53.5093 24.912 53.856C24.7947 54.2027 24.6213 54.5173 24.392 54.8C24.168 55.0827 23.8907 55.328 23.56 55.536C23.2293 55.744 22.8533 55.9067 22.432 56.024C22.6613 56.1627 22.8587 56.3573 23.024 56.608L26.136 61ZM28.8869 52.84V61H27.1669V52.84H28.8869ZM29.1749 50.376C29.1749 50.5307 29.1429 50.6773 29.0789 50.816C29.0202 50.9547 28.9375 51.0773 28.8309 51.184C28.7242 51.2853 28.5989 51.368 28.4549 51.432C28.3162 51.4907 28.1669 51.52 28.0069 51.52C27.8522 51.52 27.7055 51.4907 27.5669 51.432C27.4335 51.368 27.3162 51.2853 27.2149 51.184C27.1135 51.0773 27.0309 50.9547 26.9669 50.816C26.9082 50.6773 26.8789 50.5307 26.8789 50.376C26.8789 50.216 26.9082 50.0667 26.9669 49.928C27.0309 49.7893 27.1135 49.6693 27.2149 49.568C27.3162 49.4613 27.4335 49.3787 27.5669 49.32C27.7055 49.256 27.8522 49.224 28.0069 49.224C28.1669 49.224 28.3162 49.256 28.4549 49.32C28.5989 49.3787 28.7242 49.4613 28.8309 49.568C28.9375 49.6693 29.0202 49.7893 29.0789 49.928C29.1429 50.0667 29.1749 50.216 29.1749 50.376ZM35.92 54.32C35.8773 54.3947 35.8293 54.448 35.776 54.48C35.7227 54.512 35.656 54.528 35.576 54.528C35.4853 54.528 35.3867 54.5013 35.28 54.448C35.1733 54.3893 35.048 54.3253 34.904 54.256C34.76 54.1867 34.5893 54.1253 34.392 54.072C34.2 54.0133 33.9733 53.984 33.712 53.984C33.4987 53.984 33.304 54.0107 33.128 54.064C32.9573 54.112 32.8107 54.184 32.688 54.28C32.5707 54.3707 32.48 54.48 32.416 54.608C32.352 54.7307 32.32 54.864 32.32 55.008C32.32 55.2 32.3787 55.36 32.496 55.488C32.6133 55.616 32.768 55.728 32.96 55.824C33.152 55.9147 33.3707 55.9973 33.616 56.072C33.8613 56.1467 34.112 56.2267 34.368 56.312C34.624 56.3973 34.8747 56.496 35.12 56.608C35.3653 56.72 35.584 56.8587 35.776 57.024C35.968 57.184 36.1227 57.3813 36.24 57.616C36.3573 57.8453 36.416 58.1253 36.416 58.456C36.416 58.84 36.3467 59.1947 36.208 59.52C36.0693 59.8453 35.8667 60.128 35.6 60.368C35.3333 60.608 35 60.7947 34.6 60.928C34.2053 61.0613 33.752 61.128 33.24 61.128C32.9573 61.128 32.6827 61.1013 32.416 61.048C32.1547 61 31.904 60.9333 31.664 60.848C31.4293 60.7573 31.208 60.6507 31 60.528C30.7973 60.4053 30.616 60.272 30.456 60.128L30.856 59.472C30.904 59.392 30.9627 59.3307 31.032 59.288C31.1067 59.24 31.1973 59.216 31.304 59.216C31.416 59.216 31.5253 59.2533 31.632 59.328C31.744 59.3973 31.872 59.4747 32.016 59.56C32.1653 59.6453 32.344 59.7253 32.552 59.8C32.76 59.8693 33.0187 59.904 33.328 59.904C33.584 59.904 33.8053 59.8747 33.992 59.816C34.1787 59.752 34.3333 59.6667 34.456 59.56C34.5787 59.4533 34.6693 59.3333 34.728 59.2C34.7867 59.0613 34.816 58.9147 34.816 58.76C34.816 58.552 34.7573 58.3813 34.64 58.248C34.5227 58.1147 34.3653 58 34.168 57.904C33.976 57.808 33.7547 57.7227 33.504 57.648C33.2587 57.5733 33.008 57.4933 32.752 57.408C32.496 57.3227 32.2427 57.224 31.992 57.112C31.7467 57 31.5253 56.8587 31.328 56.688C31.136 56.512 30.9813 56.3013 30.864 56.056C30.7467 55.8053 30.688 55.5013 30.688 55.144C30.688 54.8187 30.752 54.5093 30.88 54.216C31.0133 53.9227 31.2053 53.664 31.456 53.44C31.712 53.216 32.024 53.04 32.392 52.912C32.7653 52.7787 33.1947 52.712 33.68 52.712C34.2293 52.712 34.728 52.8 35.176 52.976C35.624 53.152 36 53.392 36.304 53.696L35.92 54.32ZM39.7524 49.16V56.024H40.1204C40.2377 56.024 40.3337 56.008 40.4084 55.976C40.483 55.944 40.5604 55.8773 40.6404 55.776L42.9284 53.16C43.0084 53.0533 43.0964 52.9733 43.1924 52.92C43.2884 52.8667 43.411 52.84 43.5604 52.84H45.1204L42.3684 55.944C42.2084 56.152 42.0324 56.3173 41.8404 56.44C41.947 56.5147 42.0404 56.6 42.1204 56.696C42.2004 56.7867 42.2777 56.8907 42.3524 57.008L45.2884 61H43.7524C43.6137 61 43.4937 60.9787 43.3924 60.936C43.2964 60.888 43.211 60.8027 43.1364 60.68L40.7764 57.48C40.6964 57.3573 40.6164 57.28 40.5364 57.248C40.4564 57.2107 40.3364 57.192 40.1764 57.192H39.7524V61H38.0324V49.16H39.7524ZM45.952 55.456H50.008V56.912H45.952V55.456ZM52.5531 61V54.208L51.7531 54.096C51.6198 54.0693 51.5105 54.0213 51.4251 53.952C51.3451 53.8827 51.3051 53.784 51.3051 53.656V52.952H52.5531V52.264C52.5531 51.8 52.6198 51.384 52.7531 51.016C52.8918 50.648 53.0865 50.336 53.3371 50.08C53.5931 49.824 53.9025 49.6293 54.2651 49.496C54.6278 49.3573 55.0358 49.288 55.4891 49.288C55.6758 49.288 55.8518 49.3013 56.0171 49.328C56.1878 49.3547 56.3531 49.3947 56.5131 49.448L56.4811 50.312C56.4705 50.456 56.3985 50.5413 56.2651 50.568C56.1371 50.5947 55.9745 50.608 55.7771 50.608C55.5371 50.608 55.3211 50.6373 55.1291 50.696C54.9371 50.7493 54.7718 50.8427 54.6331 50.976C54.4998 51.1093 54.3958 51.2853 54.3211 51.504C54.2518 51.7227 54.2171 51.9947 54.2171 52.32V52.952H56.4491V54.192H54.2731V61H52.5531ZM59.297 54.352C59.553 53.8347 59.8623 53.4293 60.225 53.136C60.5877 52.8373 61.0223 52.688 61.529 52.688C61.705 52.688 61.8703 52.7093 62.025 52.752C62.1797 52.7893 62.3183 52.848 62.441 52.928L62.321 54.224C62.2997 54.3147 62.265 54.3787 62.217 54.416C62.1743 54.448 62.1157 54.464 62.041 54.464C61.961 54.464 61.8463 54.4507 61.697 54.424C61.5477 54.392 61.3903 54.376 61.225 54.376C60.985 54.376 60.7717 54.4107 60.585 54.48C60.4037 54.5493 60.2383 54.6507 60.089 54.784C59.945 54.9173 59.817 55.08 59.705 55.272C59.593 55.464 59.489 55.6827 59.393 55.928V61H57.673V52.84H58.673C58.8543 52.84 58.9797 52.8747 59.049 52.944C59.1183 53.008 59.1663 53.1227 59.193 53.288L59.297 54.352ZM68.65 56C68.65 55.712 68.6073 55.4453 68.522 55.2C68.442 54.9493 68.322 54.7333 68.162 54.552C68.002 54.3653 67.802 54.2213 67.562 54.12C67.3273 54.0133 67.0553 53.96 66.746 53.96C66.122 53.96 65.6313 54.1387 65.274 54.496C64.9167 54.8533 64.69 55.3547 64.594 56H68.65ZM64.546 57.056C64.5673 57.52 64.6393 57.9227 64.762 58.264C64.8847 58.6 65.0473 58.88 65.25 59.104C65.458 59.328 65.7033 59.496 65.986 59.608C66.274 59.7147 66.594 59.768 66.946 59.768C67.282 59.768 67.5727 59.7307 67.818 59.656C68.0633 59.576 68.2767 59.4907 68.458 59.4C68.6393 59.304 68.794 59.2187 68.922 59.144C69.05 59.064 69.1673 59.024 69.274 59.024C69.4127 59.024 69.5193 59.0773 69.594 59.184L70.082 59.816C69.8793 60.056 69.65 60.2587 69.394 60.424C69.138 60.5893 68.866 60.7253 68.578 60.832C68.29 60.9333 67.994 61.0053 67.69 61.048C67.386 61.096 67.09 61.12 66.802 61.12C66.2367 61.12 65.7113 61.0267 65.226 60.84C64.746 60.648 64.3273 60.368 63.97 60C63.618 59.632 63.3407 59.176 63.138 58.632C62.9407 58.088 62.842 57.4613 62.842 56.752C62.842 56.1867 62.93 55.6587 63.106 55.168C63.2873 54.6773 63.5433 54.2507 63.874 53.888C64.21 53.5253 64.6153 53.24 65.09 53.032C65.57 52.8187 66.1113 52.712 66.714 52.712C67.2153 52.712 67.6793 52.7947 68.106 52.96C68.5327 53.12 68.9007 53.3573 69.21 53.672C69.5193 53.9867 69.7593 54.3733 69.93 54.832C70.106 55.2853 70.194 55.8027 70.194 56.384C70.194 56.6507 70.1647 56.8293 70.106 56.92C70.0473 57.0107 69.9407 57.056 69.786 57.056H64.546ZM77.15 56C77.15 55.712 77.1073 55.4453 77.022 55.2C76.942 54.9493 76.822 54.7333 76.662 54.552C76.502 54.3653 76.302 54.2213 76.062 54.12C75.8273 54.0133 75.5553 53.96 75.246 53.96C74.622 53.96 74.1313 54.1387 73.774 54.496C73.4167 54.8533 73.19 55.3547 73.094 56H77.15ZM73.046 57.056C73.0673 57.52 73.1393 57.9227 73.262 58.264C73.3847 58.6 73.5473 58.88 73.75 59.104C73.958 59.328 74.2033 59.496 74.486 59.608C74.774 59.7147 75.094 59.768 75.446 59.768C75.782 59.768 76.0727 59.7307 76.318 59.656C76.5633 59.576 76.7767 59.4907 76.958 59.4C77.1393 59.304 77.294 59.2187 77.422 59.144C77.55 59.064 77.6673 59.024 77.774 59.024C77.9127 59.024 78.0193 59.0773 78.094 59.184L78.582 59.816C78.3793 60.056 78.15 60.2587 77.894 60.424C77.638 60.5893 77.366 60.7253 77.078 60.832C76.79 60.9333 76.494 61.0053 76.19 61.048C75.886 61.096 75.59 61.12 75.302 61.12C74.7367 61.12 74.2113 61.0267 73.726 60.84C73.246 60.648 72.8273 60.368 72.47 60C72.118 59.632 71.8407 59.176 71.638 58.632C71.4407 58.088 71.342 57.4613 71.342 56.752C71.342 56.1867 71.43 55.6587 71.606 55.168C71.7873 54.6773 72.0433 54.2507 72.374 53.888C72.71 53.5253 73.1153 53.24 73.59 53.032C74.07 52.8187 74.6113 52.712 75.214 52.712C75.7153 52.712 76.1793 52.7947 76.606 52.96C77.0327 53.12 77.4007 53.3573 77.71 53.672C78.0193 53.9867 78.2593 54.3733 78.43 54.832C78.606 55.2853 78.694 55.8027 78.694 56.384C78.694 56.6507 78.6647 56.8293 78.606 56.92C78.5473 57.0107 78.4407 57.056 78.286 57.056H73.046ZM86.8984 61.128C86.221 61.128 85.6984 60.9387 85.3304 60.56C84.9677 60.176 84.7864 59.6373 84.7864 58.944V54.192H83.8904C83.7944 54.192 83.7117 54.1627 83.6424 54.104C83.573 54.04 83.5384 53.9467 83.5384 53.824V53.128L84.8584 52.936L85.2344 50.576C85.261 50.4853 85.3064 50.4133 85.3704 50.36C85.4344 50.3013 85.5197 50.272 85.6264 50.272H86.5064V52.952H88.7704V54.192H86.5064V58.824C86.5064 59.1173 86.5784 59.3413 86.7224 59.496C86.8664 59.6507 87.0584 59.728 87.2984 59.728C87.4317 59.728 87.5464 59.712 87.6424 59.68C87.7384 59.6427 87.821 59.6053 87.8904 59.568C87.9597 59.5253 88.0184 59.488 88.0664 59.456C88.1197 59.4187 88.1704 59.4 88.2184 59.4C88.3144 59.4 88.3917 59.4533 88.4504 59.56L88.9624 60.4C88.6957 60.6347 88.381 60.816 88.0184 60.944C87.6557 61.0667 87.2824 61.128 86.8984 61.128ZM91.7501 54.352C92.0061 53.8347 92.3155 53.4293 92.6781 53.136C93.0408 52.8373 93.4755 52.688 93.9821 52.688C94.1581 52.688 94.3235 52.7093 94.4781 52.752C94.6328 52.7893 94.7715 52.848 94.8941 52.928L94.7741 54.224C94.7528 54.3147 94.7181 54.3787 94.6701 54.416C94.6275 54.448 94.5688 54.464 94.4941 54.464C94.4141 54.464 94.2995 54.4507 94.1501 54.424C94.0008 54.392 93.8435 54.376 93.6781 54.376C93.4381 54.376 93.2248 54.4107 93.0381 54.48C92.8568 54.5493 92.6915 54.6507 92.5421 54.784C92.3981 54.9173 92.2701 55.08 92.1581 55.272C92.0461 55.464 91.9421 55.6827 91.8461 55.928V61H90.1261V52.84H91.1261C91.3075 52.84 91.4328 52.8747 91.5021 52.944C91.5715 53.008 91.6195 53.1227 91.6461 53.288L91.7501 54.352ZM97.8244 52.84V61H96.1044V52.84H97.8244ZM98.1124 50.376C98.1124 50.5307 98.0804 50.6773 98.0164 50.816C97.9577 50.9547 97.875 51.0773 97.7684 51.184C97.6617 51.2853 97.5364 51.368 97.3924 51.432C97.2537 51.4907 97.1044 51.52 96.9444 51.52C96.7897 51.52 96.643 51.4907 96.5044 51.432C96.371 51.368 96.2537 51.2853 96.1524 51.184C96.051 51.0773 95.9684 50.9547 95.9044 50.816C95.8457 50.6773 95.8164 50.5307 95.8164 50.376C95.8164 50.216 95.8457 50.0667 95.9044 49.928C95.9684 49.7893 96.051 49.6693 96.1524 49.568C96.2537 49.4613 96.371 49.3787 96.5044 49.32C96.643 49.256 96.7897 49.224 96.9444 49.224C97.1044 49.224 97.2537 49.256 97.3924 49.32C97.5364 49.3787 97.6617 49.4613 97.7684 49.568C97.875 49.6693 97.9577 49.7893 98.0164 49.928C98.0804 50.0667 98.1124 50.216 98.1124 50.376ZM104.346 57.432C103.732 57.4533 103.215 57.504 102.794 57.584C102.372 57.6587 102.031 57.7573 101.77 57.88C101.508 57.9973 101.319 58.1387 101.202 58.304C101.09 58.4693 101.034 58.6507 101.034 58.848C101.034 59.04 101.063 59.2053 101.122 59.344C101.186 59.4773 101.271 59.5893 101.378 59.68C101.49 59.7653 101.618 59.8293 101.762 59.872C101.911 59.9093 102.074 59.928 102.25 59.928C102.698 59.928 103.082 59.8453 103.402 59.68C103.727 59.5093 104.042 59.264 104.346 58.944V57.432ZM99.7855 53.976C100.708 53.1173 101.807 52.688 103.082 52.688C103.551 52.688 103.967 52.7653 104.33 52.92C104.698 53.0693 105.004 53.2827 105.25 53.56C105.5 53.8373 105.69 54.168 105.818 54.552C105.951 54.9307 106.018 55.352 106.018 55.816V61H105.25C105.084 61 104.959 60.976 104.874 60.928C104.788 60.8747 104.716 60.7707 104.658 60.616L104.49 59.952C104.282 60.1387 104.076 60.3067 103.874 60.456C103.671 60.6 103.46 60.7227 103.242 60.824C103.028 60.9253 102.796 61 102.546 61.048C102.3 61.1013 102.028 61.128 101.73 61.128C101.399 61.128 101.09 61.0827 100.802 60.992C100.519 60.9013 100.274 60.7653 100.066 60.584C99.8575 60.3973 99.6922 60.168 99.5695 59.896C99.4522 59.624 99.3935 59.304 99.3935 58.936C99.3935 58.6213 99.4762 58.3147 99.6415 58.016C99.8122 57.7173 100.09 57.4507 100.474 57.216C100.863 56.976 101.372 56.7787 102.002 56.624C102.636 56.4693 103.418 56.3813 104.346 56.36V55.816C104.346 55.2293 104.22 54.792 103.97 54.504C103.719 54.216 103.351 54.072 102.866 54.072C102.535 54.072 102.258 54.1147 102.034 54.2C101.81 54.28 101.615 54.368 101.45 54.464C101.284 54.56 101.138 54.6507 101.01 54.736C100.882 54.816 100.746 54.856 100.602 54.856C100.484 54.856 100.383 54.8267 100.298 54.768C100.218 54.704 100.151 54.6267 100.098 54.536L99.7855 53.976ZM109.784 49.16V61H108.064V49.16H109.784Z" fill="#198754"/>
</svg>
