<svg width="21" height="20" viewBox="0 0 21 20" fill="none" xmlns="http://www.w3.org/2000/svg">
<path d="M18.442 3.75H3.44202C3.27626 3.75 3.11729 3.81585 3.00007 3.93306C2.88286 4.05027 2.81702 4.20924 2.81702 4.375V15C2.81702 15.3315 2.94871 15.6495 3.18313 15.8839C3.41755 16.1183 3.7355 16.25 4.06702 16.25H17.817C18.1485 16.25 18.4665 16.1183 18.7009 15.8839C18.9353 15.6495 19.067 15.3315 19.067 15V4.375C19.067 4.20924 19.0012 4.05027 18.884 3.93306C18.7667 3.81585 18.6078 3.75 18.442 3.75ZM17.817 15H4.06702V5.79609L10.5194 11.7109C10.6347 11.8168 10.7855 11.8755 10.942 11.8755C11.0985 11.8755 11.2494 11.8168 11.3647 11.7109L17.817 5.79609V15Z" fill="#495057"/>
</svg>
