<svg width="110" height="24" viewBox="0 0 110 24" fill="none" xmlns="http://www.w3.org/2000/svg">
<path d="M2.64173 23.0076V10.0755H0.113892V6.72708H2.64173V5.77452C2.64173 2.62396 4.93869 0.359985 8.61563 0.359985H10.4865V3.57652H8.77925C7.07204 3.57652 6.2844 4.39714 6.2844 5.90645V6.72708H10.7491V10.0755H6.2844V23.0076H2.64173Z" fill="#343A40"/>
<path d="M11.1748 14.8696C11.1748 10.1109 14.9493 6.40088 19.7742 6.40088C24.599 6.40088 28.3406 10.1095 28.3406 14.8696C28.3406 19.6298 24.566 23.3385 19.7742 23.3385C14.9824 23.3385 11.1748 19.6298 11.1748 14.8696ZM24.6979 14.8696C24.6979 11.9486 22.6305 9.81529 19.7742 9.81529C16.9178 9.81529 14.8175 11.9486 14.8175 14.8696C14.8175 17.7907 16.9178 19.924 19.7742 19.924C22.6305 19.924 24.6979 17.7907 24.6979 14.8696Z" fill="#343A40"/>
<path d="M54.9758 23.0099V6.72939H58.4549V8.40361C59.5051 7.15685 61.1794 6.40088 63.2467 6.40088C67.2509 6.40088 70.1072 9.25724 70.1072 13.7535V23.0099H66.4646V14.0821C66.4646 11.4235 65.0199 9.84831 62.657 9.84831C60.2941 9.84831 58.6198 11.4895 58.6198 14.0821V23.0099H54.9758Z" fill="#343A40"/>
<path d="M72.3392 14.8673C72.3392 10.1085 75.8844 6.39857 80.5457 6.39857C82.7445 6.39857 84.6159 7.25217 85.8292 8.72848V0.359985H89.4733V23.0076H85.9943V20.8413C84.812 22.4166 82.844 23.3362 80.5457 23.3362C75.8844 23.3362 72.3392 19.6275 72.3392 14.8673ZM85.8623 14.8673C85.8623 11.9463 83.7948 9.81299 80.9386 9.81299C78.0824 9.81299 75.9817 11.9463 75.9817 14.8673C75.9817 17.7883 78.0824 19.8887 80.9386 19.8887C83.7948 19.8887 85.8623 17.7883 85.8623 14.8673Z" fill="#343A40"/>
<path d="M92.7546 2.10037C92.7546 0.88659 93.6406 0 94.8546 0C96.0686 0 96.9553 0.88659 96.9553 2.10037C96.9553 3.31416 96.0686 4.16777 94.8546 4.16777C93.6406 4.16777 92.7546 3.28117 92.7546 2.10037ZM93.017 23.0091V6.72859H96.6612V23.0091H93.017Z" fill="#343A40"/>
<path d="M106.901 23.0082C103.193 23.0082 101.42 21.3999 101.42 18.0184V10.0748H98.7277V6.72628H100.599C101.091 6.72628 101.42 6.39777 101.42 5.80671V2.65747H105.064V6.7276H109.396V10.0761H105.064V17.6583C105.064 18.938 105.687 19.595 107.164 19.595H109.396V23.0082H106.901Z" fill="#343A40"/>
<path d="M29.7049 8.56511C29.6969 8.68251 29.6798 8.95562 29.6639 9.34092C29.6481 9.72615 29.6349 10.2275 29.6349 10.8107C29.6349 11.8239 29.6758 13.0852 29.8223 14.4243C29.9317 15.4296 30.1006 16.4785 30.3592 17.5023C30.5532 18.2702 30.7959 19.0248 31.106 19.7373C31.5704 20.8046 32.1826 21.7809 33.0137 22.5434C33.428 22.9234 33.8977 23.248 34.4228 23.4933C34.9479 23.74 35.5257 23.9063 36.1511 23.9788L36.196 23.9828C36.4123 23.9947 36.6274 24 36.8411 24C38.4243 24 39.902 23.6807 41.2569 23.1239C42.443 22.6384 43.538 21.9735 44.5433 21.1885C46.3034 19.8137 47.7929 18.0735 49.0489 16.241C50.9303 13.4915 52.2852 10.5323 53.1771 8.25242C54.0676 5.97265 54.4924 4.37493 54.4977 4.35515C54.602 3.96331 54.3684 3.55959 53.9753 3.45536C53.5834 3.35114 53.1797 3.58465 53.0754 3.97782C53.0702 3.99761 52.7509 5.18896 52.0952 6.95819C51.1123 9.61139 49.3629 13.5667 46.8113 16.807C45.5368 18.4271 44.0645 19.8665 42.4061 20.8903C41.5762 21.4022 40.7015 21.8125 39.7753 22.0936C38.8504 22.3759 37.8741 22.5302 36.8398 22.5302C36.6537 22.5302 36.4651 22.5249 36.2738 22.5144L36.2342 23.248L36.3187 22.5184C35.7566 22.4524 35.2711 22.2928 34.8357 22.0566C34.4544 21.8495 34.1114 21.5817 33.7974 21.2584C33.2486 20.6924 32.7934 19.9509 32.4293 19.1C31.8817 17.8229 31.544 16.307 31.3501 14.8333C31.1561 13.3596 31.102 11.9281 31.102 10.8107C31.102 10.2512 31.1152 9.76966 31.1297 9.40162C31.1442 9.03215 31.1614 8.77752 31.1693 8.66148C31.1957 8.25642 30.8883 7.90678 30.4832 7.88039C30.0783 7.854 29.7286 8.16141 29.7022 8.56647L29.7049 8.56511Z" fill="#343A40"/>
<path d="M29.6739 8.5056C29.6699 8.53064 29.5208 9.59667 29.5208 11.0941C29.5208 11.9609 29.571 12.9728 29.7332 14.0164C29.8546 14.7988 30.0394 15.5983 30.319 16.3688C30.5288 16.9466 30.7913 17.5074 31.1251 18.0285C31.6238 18.8096 32.2875 19.5049 33.1464 19.9969C34.0039 20.4904 35.0475 20.7687 36.256 20.7675C37.4672 20.7675 38.6137 20.5167 39.6757 20.0867C41.5386 19.3307 43.1469 18.0364 44.5243 16.5456C46.589 14.3066 48.1471 11.6086 49.2026 9.46343C50.2568 7.31817 50.8043 5.72574 50.8122 5.70463C50.9507 5.30091 50.7357 4.86026 50.332 4.72173C49.9283 4.5832 49.4876 4.79824 49.349 5.20196C49.3451 5.21384 49.0338 6.11626 48.4348 7.45802C47.5389 9.46999 45.9887 12.4714 43.8976 14.9215C42.854 16.1471 41.6758 17.2316 40.3974 17.9982C39.7575 18.3821 39.0939 18.6868 38.4039 18.8966C37.7152 19.1064 37.0014 19.2198 36.256 19.2198C35.6781 19.2198 35.1768 19.1433 34.7388 19.0088C34.3548 18.8913 34.0185 18.7304 33.7163 18.5312C33.1886 18.1842 32.7598 17.7198 32.4075 17.1604C31.8798 16.3239 31.5355 15.2738 31.3349 14.1958C31.1317 13.1193 31.0697 12.0202 31.0697 11.0941C31.0697 10.3975 31.1053 9.79716 31.1396 9.37499C31.1568 9.16394 31.1739 8.99768 31.1871 8.88555C31.1938 8.82878 31.199 8.78655 31.203 8.75888C31.2043 8.7444 31.2056 8.73513 31.2069 8.72857V8.72193L30.947 8.68634L31.2069 8.72329C31.2663 8.29976 30.9721 7.90925 30.5486 7.84855C30.1251 7.78785 29.7346 8.08335 29.6739 8.50689V8.5056Z" fill="#343A40"/>
<path d="M29.6657 8.60796V8.62643C29.6657 8.74119 29.6709 9.32307 29.7686 10.1397C29.8425 10.7532 29.9678 11.4986 30.1881 12.2849C30.3531 12.8734 30.5708 13.4842 30.8636 14.0779C31.0827 14.5226 31.3452 14.9579 31.6592 15.3629C32.1315 15.9698 32.7265 16.5121 33.4667 16.8986C34.2055 17.2852 35.0828 17.5095 36.0776 17.5082C36.9299 17.5082 37.7387 17.3393 38.4868 17.0504C39.7982 16.5438 40.9275 15.6809 41.8919 14.6954C43.3379 13.2137 44.4264 11.4432 45.1665 10.0368C45.9067 8.63043 46.2932 7.58679 46.3011 7.5644C46.4502 7.1633 46.2457 6.71869 45.8446 6.56961C45.4436 6.42052 44.9989 6.62501 44.8499 7.02609C44.8433 7.04588 44.623 7.63301 44.2074 8.49712C43.586 9.79403 42.5199 11.7137 41.1109 13.2652C40.4077 14.041 39.6201 14.7231 38.777 15.2006C37.9313 15.6796 37.0394 15.958 36.0763 15.958C35.4694 15.958 34.9601 15.8537 34.5195 15.6796C34.1343 15.5265 33.7978 15.3181 33.497 15.0621C32.9719 14.6162 32.5524 14.0186 32.2292 13.3523C31.7437 12.3535 31.4797 11.2097 31.3491 10.2967C31.2172 9.38377 31.2119 8.70425 31.2119 8.62643V8.61852C31.2146 8.19106 30.8716 7.84278 30.4441 7.83878C30.0166 7.83486 29.6683 8.17915 29.6644 8.60668L29.6657 8.60796Z" fill="#343A40"/>
</svg>
