<svg width="17" height="16" viewBox="0 0 17 16" fill="none" xmlns="http://www.w3.org/2000/svg">
<path d="M15.4401 8.00004V11.5C15.4401 11.8979 15.282 12.2794 15.0007 12.5607C14.7194 12.842 14.3379 13 13.9401 13H12.9401C12.5422 13 12.1607 12.842 11.8794 12.5607C11.5981 12.2794 11.4401 11.8979 11.4401 11.5V9.00004C11.4401 8.60221 11.5981 8.22068 11.8794 7.93938C12.1607 7.65807 12.5422 7.50004 12.9401 7.50004H14.4182C14.2981 6.13885 13.6739 4.87159 12.6681 3.94666C11.6622 3.02173 10.3472 2.50581 8.98069 2.50004H8.94006C7.56788 2.49997 6.24524 3.01283 5.23179 3.93793C4.21835 4.86302 3.58731 6.13354 3.46256 7.50004H4.94006C5.33789 7.50004 5.71942 7.65807 6.00072 7.93938C6.28203 8.22068 6.44006 8.60221 6.44006 9.00004V11.5C6.44006 11.8979 6.28203 12.2794 6.00072 12.5607C5.71942 12.842 5.33789 13 4.94006 13H3.94006C3.54224 13 3.16071 12.842 2.8794 12.5607C2.5981 12.2794 2.44006 11.8979 2.44006 11.5V8.00004C2.44147 6.71247 2.82483 5.45427 3.54163 4.38468C4.25843 3.31509 5.27644 2.48221 6.46681 1.99144C7.65718 1.50068 8.96638 1.37411 10.2287 1.62774C11.4911 1.88138 12.6498 2.50382 13.5582 3.41629C14.158 4.01898 14.6329 4.73409 14.9558 5.52066C15.2788 6.30722 15.4433 7.14977 15.4401 8.00004Z" fill="#212529"/>
</svg>
