<svg width="357" height="227" viewBox="0 0 357 227" fill="none" xmlns="http://www.w3.org/2000/svg">
<path d="M0 10C0 4.47716 4.47715 0 10 0H347C352.523 0 357 4.47715 357 10V226H0V10Z" fill="url(#paint0_linear_1_2805)" fill-opacity="0.8"/>
<path d="M32 36C32 30.4771 36.4772 26 42 26H315C320.523 26 325 30.4772 325 36V227H32V36Z" fill="url(#paint1_linear_1_2805)"/>
<path d="M91.5312 114.502H52V137.5H305V72.1094H282.072L272.584 94.5017H254.31L222.775 129.045H196.684L176.919 107.394H150.828L141.341 85.0017H104.03L91.5312 114.502Z" fill="url(#paint2_linear_1_2805)"/>
<path d="M305 71V73H283.125L273.824 95.4834H254.928L224.162 130H195.318L176.034 108.365H149.511L140.255 85.9902H104.754L92.5597 115.468H52V113.468H90.1168L102.311 83.9902H142.696L151.572 105.984H177.5L197.165 128H222.315L253.08 93.4834H271.383L280.684 71H305Z" fill="#FD7E14"/>
<path d="M65.734 167.78C66.1073 167.78 66.4013 167.887 66.616 168.102C66.84 168.307 66.952 168.583 66.952 168.928V171H53.064V169.852C53.064 169.619 53.1107 169.376 53.204 169.124C53.3067 168.863 53.4653 168.629 53.68 168.424L59.826 162.264C60.3393 161.741 60.7967 161.242 61.198 160.766C61.6087 160.29 61.9493 159.819 62.22 159.352C62.4907 158.885 62.696 158.414 62.836 157.938C62.9853 157.453 63.06 156.944 63.06 156.412C63.06 155.927 62.99 155.502 62.85 155.138C62.71 154.765 62.5093 154.452 62.248 154.2C61.996 153.948 61.688 153.761 61.324 153.64C60.9693 153.509 60.568 153.444 60.12 153.444C59.7093 153.444 59.3267 153.505 58.972 153.626C58.6267 153.738 58.3187 153.901 58.048 154.116C57.7773 154.321 57.5487 154.564 57.362 154.844C57.1753 155.124 57.0353 155.432 56.942 155.768C56.7833 156.197 56.578 156.482 56.326 156.622C56.074 156.762 55.71 156.795 55.234 156.72L53.414 156.398C53.554 155.427 53.8247 154.578 54.226 153.85C54.6273 153.113 55.1267 152.501 55.724 152.016C56.3307 151.521 57.0213 151.153 57.796 150.91C58.58 150.658 59.42 150.532 60.316 150.532C61.2493 150.532 62.1033 150.672 62.878 150.952C63.6527 151.223 64.3153 151.61 64.866 152.114C65.4167 152.618 65.846 153.225 66.154 153.934C66.462 154.643 66.616 155.432 66.616 156.3C66.616 157.047 66.504 157.737 66.28 158.372C66.0653 159.007 65.7713 159.613 65.398 160.192C65.034 160.771 64.6047 161.331 64.11 161.872C63.6153 162.413 63.0973 162.964 62.556 163.524L57.992 168.186C58.4307 168.055 58.8647 167.957 59.294 167.892C59.7327 167.817 60.148 167.78 60.54 167.78H65.734ZM78.2102 163.37V156.748C78.2102 156.123 78.2522 155.432 78.3362 154.676L72.0502 163.37H78.2102ZM83.7682 163.37V165.372C83.7682 165.559 83.7075 165.722 83.5862 165.862C83.4649 165.993 83.2922 166.058 83.0682 166.058H81.2202V171H78.2102V166.058H69.6702C69.4369 166.058 69.2315 165.988 69.0542 165.848C68.8769 165.699 68.7649 165.517 68.7182 165.302L68.3542 163.552L77.9442 150.742H81.2202V163.37H83.7682ZM85.6884 169.096C85.6884 168.807 85.7397 168.531 85.8424 168.27C85.9544 168.009 86.1037 167.785 86.2904 167.598C86.477 167.411 86.701 167.262 86.9624 167.15C87.2237 167.038 87.5037 166.982 87.8024 166.982C88.101 166.982 88.3764 167.038 88.6284 167.15C88.8897 167.262 89.1137 167.411 89.3004 167.598C89.4964 167.785 89.6504 168.009 89.7624 168.27C89.8744 168.531 89.9304 168.807 89.9304 169.096C89.9304 169.395 89.8744 169.675 89.7624 169.936C89.6504 170.188 89.4964 170.407 89.3004 170.594C89.1137 170.781 88.8897 170.925 88.6284 171.028C88.3764 171.14 88.101 171.196 87.8024 171.196C87.5037 171.196 87.2237 171.14 86.9624 171.028C86.701 170.925 86.477 170.781 86.2904 170.594C86.1037 170.407 85.9544 170.188 85.8424 169.936C85.7397 169.675 85.6884 169.395 85.6884 169.096ZM92.6409 156.398C92.7809 155.427 93.0516 154.578 93.4529 153.85C93.8542 153.113 94.3536 152.501 94.9509 152.016C95.5576 151.521 96.2482 151.153 97.0229 150.91C97.8069 150.658 98.6469 150.532 99.5429 150.532C100.476 150.532 101.316 150.667 102.063 150.938C102.819 151.199 103.463 151.568 103.995 152.044C104.527 152.511 104.933 153.061 105.213 153.696C105.502 154.331 105.647 155.017 105.647 155.754C105.647 156.398 105.572 156.967 105.423 157.462C105.283 157.947 105.078 158.372 104.807 158.736C104.536 159.1 104.2 159.408 103.799 159.66C103.398 159.912 102.945 160.122 102.441 160.29C103.654 160.673 104.56 161.256 105.157 162.04C105.754 162.824 106.053 163.809 106.053 164.994C106.053 166.002 105.866 166.893 105.493 167.668C105.12 168.443 104.616 169.096 103.981 169.628C103.346 170.151 102.609 170.547 101.769 170.818C100.938 171.089 100.056 171.224 99.1229 171.224C98.1056 171.224 97.2189 171.107 96.4629 170.874C95.7069 170.641 95.0489 170.295 94.4889 169.838C93.9289 169.381 93.4529 168.821 93.0609 168.158C92.6689 167.495 92.3329 166.73 92.0529 165.862L93.5789 165.232C93.9802 165.064 94.3536 165.022 94.6989 165.106C95.0536 165.181 95.3102 165.367 95.4689 165.666C95.6369 165.993 95.8189 166.315 96.0149 166.632C96.2202 166.949 96.4629 167.234 96.7429 167.486C97.0229 167.729 97.3496 167.929 97.7229 168.088C98.1056 168.237 98.5582 168.312 99.0809 168.312C99.6689 168.312 100.182 168.219 100.621 168.032C101.06 167.836 101.424 167.584 101.713 167.276C102.012 166.968 102.231 166.627 102.371 166.254C102.52 165.871 102.595 165.489 102.595 165.106C102.595 164.621 102.544 164.182 102.441 163.79C102.338 163.389 102.124 163.048 101.797 162.768C101.47 162.488 100.999 162.269 100.383 162.11C99.7762 161.951 98.9596 161.872 97.9329 161.872V159.408C98.7822 159.399 99.4869 159.319 100.047 159.17C100.607 159.021 101.05 158.815 101.377 158.554C101.713 158.283 101.946 157.961 102.077 157.588C102.208 157.215 102.273 156.804 102.273 156.356C102.273 155.404 102.007 154.681 101.475 154.186C100.943 153.691 100.234 153.444 99.3469 153.444C98.9362 153.444 98.5582 153.505 98.2129 153.626C97.8676 153.738 97.5549 153.901 97.2749 154.116C97.0042 154.321 96.7756 154.564 96.5889 154.844C96.4022 155.124 96.2622 155.432 96.1689 155.768C96.0102 156.197 95.8002 156.482 95.5389 156.622C95.2869 156.762 94.9276 156.795 94.4609 156.72L92.6409 156.398ZM112.537 150.196V162.11H113.181C113.414 162.11 113.596 162.082 113.727 162.026C113.867 161.961 114.007 161.835 114.147 161.648L117.717 157.238C117.866 157.042 118.03 156.893 118.207 156.79C118.394 156.687 118.632 156.636 118.921 156.636H122.085L117.619 161.97C117.302 162.39 116.956 162.712 116.583 162.936C116.779 163.076 116.952 163.239 117.101 163.426C117.26 163.613 117.409 163.813 117.549 164.028L122.337 171H119.215C118.944 171 118.711 170.958 118.515 170.874C118.319 170.781 118.156 170.617 118.025 170.384L114.357 164.938C114.226 164.723 114.091 164.583 113.951 164.518C113.811 164.453 113.601 164.42 113.321 164.42H112.537V171H109.079V150.196H112.537Z" fill="#343A40"/>
<path d="M134.408 167.52H132.08V169.992H130.874V167.52H128.558V166.422H130.874V163.962H132.08V166.422H134.408V167.52ZM140.847 169.62C141.007 169.62 141.133 169.666 141.225 169.758C141.321 169.846 141.369 169.964 141.369 170.112V171H135.417V170.508C135.417 170.408 135.437 170.304 135.477 170.196C135.521 170.084 135.589 169.984 135.681 169.896L138.315 167.256C138.535 167.032 138.731 166.818 138.903 166.614C139.079 166.41 139.225 166.208 139.341 166.008C139.457 165.808 139.545 165.606 139.605 165.402C139.669 165.194 139.701 164.976 139.701 164.748C139.701 164.54 139.671 164.358 139.611 164.202C139.551 164.042 139.465 163.908 139.353 163.8C139.245 163.692 139.113 163.612 138.957 163.56C138.805 163.504 138.633 163.476 138.441 163.476C138.265 163.476 138.101 163.502 137.949 163.554C137.801 163.602 137.669 163.672 137.553 163.764C137.437 163.852 137.339 163.956 137.259 164.076C137.179 164.196 137.119 164.328 137.079 164.472C137.011 164.656 136.923 164.778 136.815 164.838C136.707 164.898 136.551 164.912 136.347 164.88L135.567 164.742C135.627 164.326 135.743 163.962 135.915 163.65C136.087 163.334 136.301 163.072 136.557 162.864C136.817 162.652 137.113 162.494 137.445 162.39C137.781 162.282 138.141 162.228 138.525 162.228C138.925 162.228 139.291 162.288 139.623 162.408C139.955 162.524 140.239 162.69 140.475 162.906C140.711 163.122 140.895 163.382 141.027 163.686C141.159 163.99 141.225 164.328 141.225 164.7C141.225 165.02 141.177 165.316 141.081 165.588C140.989 165.86 140.863 166.12 140.703 166.368C140.547 166.616 140.363 166.856 140.151 167.088C139.939 167.32 139.717 167.556 139.485 167.796L137.529 169.794C137.717 169.738 137.903 169.696 138.087 169.668C138.275 169.636 138.453 169.62 138.621 169.62H140.847ZM144.358 165.474C144.55 165.434 144.734 165.406 144.91 165.39C145.086 165.37 145.256 165.36 145.42 165.36C145.876 165.36 146.278 165.428 146.626 165.564C146.974 165.7 147.266 165.888 147.502 166.128C147.738 166.368 147.916 166.65 148.036 166.974C148.156 167.294 148.216 167.64 148.216 168.012C148.216 168.472 148.134 168.892 147.97 169.272C147.81 169.652 147.586 169.978 147.298 170.25C147.01 170.518 146.668 170.726 146.272 170.874C145.88 171.022 145.452 171.096 144.988 171.096C144.716 171.096 144.458 171.068 144.214 171.012C143.97 170.956 143.74 170.882 143.524 170.79C143.312 170.694 143.114 170.586 142.93 170.466C142.75 170.342 142.588 170.212 142.444 170.076L142.9 169.446C142.996 169.31 143.122 169.242 143.278 169.242C143.378 169.242 143.48 169.274 143.584 169.338C143.688 169.402 143.806 169.472 143.938 169.548C144.074 169.624 144.232 169.694 144.412 169.758C144.596 169.822 144.816 169.854 145.072 169.854C145.344 169.854 145.584 169.81 145.792 169.722C146 169.634 146.172 169.512 146.308 169.356C146.448 169.196 146.552 169.008 146.62 168.792C146.692 168.572 146.728 168.334 146.728 168.078C146.728 167.606 146.59 167.238 146.314 166.974C146.042 166.706 145.638 166.572 145.102 166.572C144.69 166.572 144.268 166.648 143.836 166.8L142.912 166.536L143.632 162.324H147.916V162.954C147.916 163.166 147.85 163.338 147.718 163.47C147.586 163.602 147.362 163.668 147.046 163.668H144.664L144.358 165.474ZM149.399 170.184C149.399 170.06 149.421 169.942 149.465 169.83C149.513 169.718 149.577 169.622 149.657 169.542C149.737 169.462 149.833 169.398 149.945 169.35C150.057 169.302 150.177 169.278 150.305 169.278C150.433 169.278 150.551 169.302 150.659 169.35C150.771 169.398 150.867 169.462 150.947 169.542C151.031 169.622 151.097 169.718 151.145 169.83C151.193 169.942 151.217 170.06 151.217 170.184C151.217 170.312 151.193 170.432 151.145 170.544C151.097 170.652 151.031 170.746 150.947 170.826C150.867 170.906 150.771 170.968 150.659 171.012C150.551 171.06 150.433 171.084 150.305 171.084C150.177 171.084 150.057 171.06 149.945 171.012C149.833 170.968 149.737 170.906 149.657 170.826C149.577 170.746 149.513 170.652 149.465 170.544C149.421 170.432 149.399 170.312 149.399 170.184ZM154.862 165.474L154.562 165.846C154.73 165.762 154.91 165.698 155.102 165.654C155.298 165.606 155.508 165.582 155.732 165.582C156.06 165.582 156.378 165.636 156.686 165.744C156.998 165.852 157.272 166.016 157.508 166.236C157.744 166.452 157.934 166.722 158.078 167.046C158.222 167.37 158.294 167.748 158.294 168.18C158.294 168.584 158.22 168.964 158.072 169.32C157.924 169.672 157.716 169.98 157.448 170.244C157.18 170.508 156.856 170.716 156.476 170.868C156.1 171.02 155.684 171.096 155.228 171.096C154.764 171.096 154.348 171.022 153.98 170.874C153.612 170.726 153.298 170.52 153.038 170.256C152.778 169.988 152.578 169.668 152.438 169.296C152.302 168.92 152.234 168.504 152.234 168.048C152.234 167.64 152.316 167.222 152.48 166.794C152.648 166.362 152.906 165.914 153.254 165.45L155.324 162.672C155.396 162.576 155.5 162.494 155.636 162.426C155.776 162.358 155.936 162.324 156.116 162.324H157.436L154.862 165.474ZM155.198 169.884C155.434 169.884 155.65 169.844 155.846 169.764C156.046 169.684 156.216 169.572 156.356 169.428C156.5 169.284 156.612 169.116 156.692 168.924C156.772 168.728 156.812 168.516 156.812 168.288C156.812 168.04 156.774 167.818 156.698 167.622C156.622 167.422 156.514 167.254 156.374 167.118C156.234 166.978 156.066 166.872 155.87 166.8C155.674 166.728 155.458 166.692 155.222 166.692C154.986 166.692 154.772 166.732 154.58 166.812C154.388 166.892 154.224 167.004 154.088 167.148C153.952 167.288 153.846 167.456 153.77 167.652C153.694 167.844 153.656 168.052 153.656 168.276C153.656 168.516 153.688 168.736 153.752 168.936C153.82 169.132 153.918 169.3 154.046 169.44C154.178 169.58 154.34 169.69 154.532 169.77C154.724 169.846 154.946 169.884 155.198 169.884ZM163.161 164.424C163.161 164.752 163.105 165.048 162.993 165.312C162.885 165.576 162.739 165.802 162.555 165.99C162.371 166.174 162.157 166.316 161.913 166.416C161.669 166.516 161.415 166.566 161.151 166.566C160.863 166.566 160.597 166.516 160.353 166.416C160.109 166.316 159.897 166.174 159.717 165.99C159.541 165.802 159.403 165.576 159.303 165.312C159.203 165.048 159.153 164.752 159.153 164.424C159.153 164.088 159.203 163.784 159.303 163.512C159.403 163.24 159.541 163.01 159.717 162.822C159.897 162.634 160.109 162.49 160.353 162.39C160.597 162.286 160.863 162.234 161.151 162.234C161.439 162.234 161.705 162.286 161.949 162.39C162.197 162.49 162.411 162.634 162.591 162.822C162.771 163.01 162.911 163.24 163.011 163.512C163.111 163.784 163.161 164.088 163.161 164.424ZM162.021 164.424C162.021 164.192 161.997 163.998 161.949 163.842C161.905 163.686 161.843 163.56 161.763 163.464C161.687 163.368 161.595 163.3 161.487 163.26C161.383 163.216 161.271 163.194 161.151 163.194C161.031 163.194 160.919 163.216 160.815 163.26C160.711 163.3 160.621 163.368 160.545 163.464C160.473 163.56 160.415 163.686 160.371 163.842C160.327 163.998 160.305 164.192 160.305 164.424C160.305 164.648 160.327 164.836 160.371 164.988C160.415 165.136 160.473 165.256 160.545 165.348C160.621 165.44 160.711 165.506 160.815 165.546C160.919 165.586 161.031 165.606 161.151 165.606C161.271 165.606 161.383 165.586 161.487 165.546C161.595 165.506 161.687 165.44 161.763 165.348C161.843 165.256 161.905 165.136 161.949 164.988C161.997 164.836 162.021 164.648 162.021 164.424ZM166.047 162.558C166.099 162.498 166.159 162.444 166.227 162.396C166.299 162.348 166.399 162.324 166.527 162.324H167.607L161.163 170.778C161.111 170.842 161.049 170.896 160.977 170.94C160.905 170.98 160.817 171 160.713 171H159.609L166.047 162.558ZM168.063 168.96C168.063 169.288 168.007 169.584 167.895 169.848C167.787 170.112 167.641 170.338 167.457 170.526C167.273 170.71 167.059 170.854 166.815 170.958C166.571 171.058 166.317 171.108 166.053 171.108C165.765 171.108 165.499 171.058 165.255 170.958C165.011 170.854 164.799 170.71 164.619 170.526C164.443 170.338 164.305 170.112 164.205 169.848C164.105 169.584 164.055 169.288 164.055 168.96C164.055 168.624 164.105 168.32 164.205 168.048C164.305 167.776 164.443 167.546 164.619 167.358C164.799 167.17 165.011 167.026 165.255 166.926C165.499 166.822 165.765 166.77 166.053 166.77C166.341 166.77 166.607 166.822 166.851 166.926C167.099 167.026 167.311 167.17 167.487 167.358C167.667 167.546 167.807 167.776 167.907 168.048C168.011 168.32 168.063 168.624 168.063 168.96ZM166.917 168.96C166.917 168.728 166.895 168.534 166.851 168.378C166.807 168.222 166.745 168.096 166.665 168C166.589 167.904 166.497 167.836 166.389 167.796C166.285 167.752 166.173 167.73 166.053 167.73C165.933 167.73 165.821 167.752 165.717 167.796C165.613 167.836 165.523 167.904 165.447 168C165.371 168.096 165.311 168.222 165.267 168.378C165.227 168.534 165.207 168.728 165.207 168.96C165.207 169.184 165.227 169.372 165.267 169.524C165.311 169.676 165.371 169.798 165.447 169.89C165.523 169.982 165.613 170.048 165.717 170.088C165.821 170.128 165.933 170.148 166.053 170.148C166.173 170.148 166.285 170.128 166.389 170.088C166.497 170.048 166.589 169.982 166.665 169.89C166.745 169.798 166.807 169.676 166.851 169.524C166.895 169.372 166.917 169.184 166.917 168.96Z" fill="#00CC83"/>
<path d="M177.813 163.5V167.562C177.813 167.645 177.78 167.725 177.721 167.783C177.662 167.842 177.583 167.875 177.5 167.875C177.417 167.875 177.338 167.842 177.279 167.783C177.22 167.725 177.188 167.645 177.188 167.562V164.254L172.721 168.721C172.663 168.78 172.583 168.813 172.5 168.813C172.417 168.813 172.338 168.78 172.279 168.721C172.22 168.662 172.187 168.583 172.187 168.5C172.187 168.417 172.22 168.338 172.279 168.279L176.746 163.812H173.438C173.355 163.812 173.275 163.78 173.217 163.721C173.158 163.662 173.125 163.583 173.125 163.5C173.125 163.417 173.158 163.338 173.217 163.279C173.275 163.22 173.355 163.188 173.438 163.188H177.5C177.583 163.188 177.662 163.22 177.721 163.279C177.78 163.338 177.813 163.417 177.813 163.5Z" fill="#00CC83"/>
<path d="M57.586 186.902C57.538 186.986 57.486 187.048 57.43 187.088C57.378 187.124 57.312 187.142 57.232 187.142C57.148 187.142 57.056 187.112 56.956 187.052C56.86 186.988 56.744 186.918 56.608 186.842C56.472 186.766 56.312 186.698 56.128 186.638C55.948 186.574 55.734 186.542 55.486 186.542C55.262 186.542 55.066 186.57 54.898 186.626C54.73 186.678 54.588 186.752 54.472 186.848C54.36 186.944 54.276 187.06 54.22 187.196C54.164 187.328 54.136 187.474 54.136 187.634C54.136 187.838 54.192 188.008 54.304 188.144C54.42 188.28 54.572 188.396 54.76 188.492C54.948 188.588 55.162 188.674 55.402 188.75C55.642 188.826 55.888 188.908 56.14 188.996C56.392 189.08 56.638 189.18 56.878 189.296C57.118 189.408 57.332 189.552 57.52 189.728C57.708 189.9 57.858 190.112 57.97 190.364C58.086 190.616 58.144 190.922 58.144 191.282C58.144 191.674 58.076 192.042 57.94 192.386C57.808 192.726 57.612 193.024 57.352 193.28C57.096 193.532 56.782 193.732 56.41 193.88C56.038 194.024 55.612 194.096 55.132 194.096C54.856 194.096 54.584 194.068 54.316 194.012C54.048 193.96 53.79 193.884 53.542 193.784C53.298 193.684 53.068 193.564 52.852 193.424C52.636 193.284 52.444 193.128 52.276 192.956L52.75 192.182C52.79 192.126 52.842 192.08 52.906 192.044C52.97 192.004 53.038 191.984 53.11 191.984C53.21 191.984 53.318 192.026 53.434 192.11C53.55 192.19 53.688 192.28 53.848 192.38C54.008 192.48 54.194 192.572 54.406 192.656C54.622 192.736 54.88 192.776 55.18 192.776C55.64 192.776 55.996 192.668 56.248 192.452C56.5 192.232 56.626 191.918 56.626 191.51C56.626 191.282 56.568 191.096 56.452 190.952C56.34 190.808 56.19 190.688 56.002 190.592C55.814 190.492 55.6 190.408 55.36 190.34C55.12 190.272 54.876 190.198 54.628 190.118C54.38 190.038 54.136 189.942 53.896 189.83C53.656 189.718 53.442 189.572 53.254 189.392C53.066 189.212 52.914 188.988 52.798 188.72C52.686 188.448 52.63 188.114 52.63 187.718C52.63 187.402 52.692 187.094 52.816 186.794C52.944 186.494 53.128 186.228 53.368 185.996C53.608 185.764 53.904 185.578 54.256 185.438C54.608 185.298 55.012 185.228 55.468 185.228C55.98 185.228 56.452 185.308 56.884 185.468C57.316 185.628 57.684 185.852 57.988 186.14L57.586 186.902ZM60.7179 185.084V190.19H60.9939C61.0939 190.19 61.1719 190.178 61.2279 190.154C61.2879 190.126 61.3479 190.072 61.4079 189.992L62.9379 188.102C63.0019 188.018 63.0719 187.954 63.1479 187.91C63.2279 187.866 63.3299 187.844 63.4539 187.844H64.8099L62.8959 190.13C62.7599 190.31 62.6119 190.448 62.4519 190.544C62.5359 190.604 62.6099 190.674 62.6739 190.754C62.7419 190.834 62.8059 190.92 62.8659 191.012L64.9179 194H63.5799C63.4639 194 63.3639 193.982 63.2799 193.946C63.1959 193.906 63.1259 193.836 63.0699 193.736L61.4979 191.402C61.4419 191.31 61.3839 191.25 61.3239 191.222C61.2639 191.194 61.1739 191.18 61.0539 191.18H60.7179V194H59.2359V185.084H60.7179ZM67.1821 187.844V194H65.6941V187.844H67.1821ZM67.3861 186.05C67.3861 186.178 67.3601 186.298 67.3081 186.41C67.2561 186.522 67.1861 186.62 67.0981 186.704C67.0141 186.788 66.9141 186.856 66.7981 186.908C66.6821 186.956 66.5581 186.98 66.4261 186.98C66.2981 186.98 66.1761 186.956 66.0601 186.908C65.9481 186.856 65.8501 186.788 65.7661 186.704C65.6821 186.62 65.6141 186.522 65.5621 186.41C65.5141 186.298 65.4901 186.178 65.4901 186.05C65.4901 185.918 65.5141 185.794 65.5621 185.678C65.6141 185.562 65.6821 185.462 65.7661 185.378C65.8501 185.294 65.9481 185.228 66.0601 185.18C66.1761 185.128 66.2981 185.102 66.4261 185.102C66.5581 185.102 66.6821 185.128 66.7981 185.18C66.9141 185.228 67.0141 185.294 67.0981 185.378C67.1861 185.462 67.2561 185.562 67.3081 185.678C67.3601 185.794 67.3861 185.918 67.3861 186.05ZM70.1929 185.084V194H68.7109V185.084H70.1929ZM73.1695 185.084V194H71.6875V185.084H73.1695ZM78.6121 190.214C78.6121 190.022 78.5841 189.842 78.5281 189.674C78.4761 189.502 78.3961 189.352 78.2881 189.224C78.1801 189.096 78.0421 188.996 77.8741 188.924C77.7101 188.848 77.5181 188.81 77.2981 188.81C76.8701 188.81 76.5321 188.932 76.2841 189.176C76.0401 189.42 75.8841 189.766 75.8161 190.214H78.6121ZM75.7861 191.108C75.8101 191.424 75.8661 191.698 75.9541 191.93C76.0421 192.158 76.1581 192.348 76.3021 192.5C76.4461 192.648 76.6161 192.76 76.8121 192.836C77.0121 192.908 77.2321 192.944 77.4721 192.944C77.7121 192.944 77.9181 192.916 78.0901 192.86C78.2661 192.804 78.4181 192.742 78.5461 192.674C78.6781 192.606 78.7921 192.544 78.8881 192.488C78.9881 192.432 79.0841 192.404 79.1761 192.404C79.3001 192.404 79.3921 192.45 79.4521 192.542L79.8781 193.082C79.7141 193.274 79.5301 193.436 79.3261 193.568C79.1221 193.696 78.9081 193.8 78.6841 193.88C78.4641 193.956 78.2381 194.01 78.0061 194.042C77.7781 194.074 77.5561 194.09 77.3401 194.09C76.9121 194.09 76.5141 194.02 76.1461 193.88C75.7781 193.736 75.4581 193.526 75.1861 193.25C74.9141 192.97 74.7001 192.626 74.5441 192.218C74.3881 191.806 74.3101 191.33 74.3101 190.79C74.3101 190.37 74.3781 189.976 74.5141 189.608C74.6501 189.236 74.8441 188.914 75.0961 188.642C75.3521 188.366 75.6621 188.148 76.0261 187.988C76.3941 187.828 76.8081 187.748 77.2681 187.748C77.6561 187.748 78.0141 187.81 78.3421 187.934C78.6701 188.058 78.9521 188.24 79.1881 188.48C79.4241 188.716 79.6081 189.008 79.7401 189.356C79.8761 189.7 79.9441 190.094 79.9441 190.538C79.9441 190.762 79.9201 190.914 79.8721 190.994C79.8241 191.07 79.7321 191.108 79.5961 191.108H75.7861ZM84.9202 189.416C84.7522 189.212 84.5682 189.068 84.3682 188.984C84.1722 188.9 83.9602 188.858 83.7322 188.858C83.5082 188.858 83.3062 188.9 83.1262 188.984C82.9462 189.068 82.7922 189.196 82.6642 189.368C82.5362 189.536 82.4382 189.752 82.3702 190.016C82.3022 190.276 82.2682 190.584 82.2682 190.94C82.2682 191.3 82.2962 191.606 82.3522 191.858C82.4122 192.106 82.4962 192.31 82.6042 192.47C82.7122 192.626 82.8442 192.74 83.0002 192.812C83.1562 192.88 83.3302 192.914 83.5222 192.914C83.8302 192.914 84.0922 192.85 84.3082 192.722C84.5242 192.594 84.7282 192.412 84.9202 192.176V189.416ZM86.4022 185.084V194H85.4962C85.3002 194 85.1762 193.91 85.1242 193.73L84.9982 193.136C84.7502 193.42 84.4642 193.65 84.1402 193.826C83.8202 194.002 83.4462 194.09 83.0182 194.09C82.6822 194.09 82.3742 194.02 82.0942 193.88C81.8142 193.74 81.5722 193.538 81.3682 193.274C81.1682 193.006 81.0122 192.676 80.9002 192.284C80.7922 191.892 80.7382 191.444 80.7382 190.94C80.7382 190.484 80.8002 190.06 80.9242 189.668C81.0482 189.276 81.2262 188.936 81.4582 188.648C81.6902 188.36 81.9682 188.136 82.2922 187.976C82.6162 187.812 82.9802 187.73 83.3842 187.73C83.7282 187.73 84.0222 187.784 84.2662 187.892C84.5102 188 84.7282 188.146 84.9202 188.33V185.084H86.4022ZM94.7488 190.214C94.7488 190.022 94.7208 189.842 94.6648 189.674C94.6128 189.502 94.5328 189.352 94.4248 189.224C94.3168 189.096 94.1788 188.996 94.0108 188.924C93.8468 188.848 93.6548 188.81 93.4348 188.81C93.0068 188.81 92.6688 188.932 92.4208 189.176C92.1768 189.42 92.0208 189.766 91.9528 190.214H94.7488ZM91.9228 191.108C91.9468 191.424 92.0028 191.698 92.0908 191.93C92.1788 192.158 92.2948 192.348 92.4388 192.5C92.5828 192.648 92.7528 192.76 92.9488 192.836C93.1488 192.908 93.3688 192.944 93.6088 192.944C93.8488 192.944 94.0548 192.916 94.2268 192.86C94.4028 192.804 94.5548 192.742 94.6828 192.674C94.8148 192.606 94.9288 192.544 95.0248 192.488C95.1248 192.432 95.2208 192.404 95.3128 192.404C95.4368 192.404 95.5288 192.45 95.5888 192.542L96.0148 193.082C95.8508 193.274 95.6668 193.436 95.4628 193.568C95.2588 193.696 95.0448 193.8 94.8208 193.88C94.6008 193.956 94.3748 194.01 94.1428 194.042C93.9148 194.074 93.6928 194.09 93.4768 194.09C93.0488 194.09 92.6508 194.02 92.2828 193.88C91.9148 193.736 91.5948 193.526 91.3228 193.25C91.0508 192.97 90.8368 192.626 90.6808 192.218C90.5248 191.806 90.4468 191.33 90.4468 190.79C90.4468 190.37 90.5148 189.976 90.6508 189.608C90.7868 189.236 90.9808 188.914 91.2328 188.642C91.4888 188.366 91.7988 188.148 92.1628 187.988C92.5308 187.828 92.9448 187.748 93.4048 187.748C93.7928 187.748 94.1508 187.81 94.4788 187.934C94.8068 188.058 95.0888 188.24 95.3248 188.48C95.5608 188.716 95.7448 189.008 95.8768 189.356C96.0128 189.7 96.0808 190.094 96.0808 190.538C96.0808 190.762 96.0568 190.914 96.0088 190.994C95.9608 191.07 95.8688 191.108 95.7328 191.108H91.9228ZM102.595 194H101.167C101.059 194 100.971 193.972 100.903 193.916C100.839 193.86 100.785 193.796 100.741 193.724L99.4392 191.582C99.4192 191.65 99.3952 191.714 99.3672 191.774C99.3432 191.834 99.3152 191.89 99.2832 191.942L98.1312 193.724C98.0872 193.792 98.0332 193.856 97.9692 193.916C97.9052 193.972 97.8252 194 97.7292 194H96.4032L98.5152 190.826L96.4872 187.844H97.9152C98.0232 187.844 98.1032 187.86 98.1552 187.892C98.2072 187.92 98.2532 187.968 98.2932 188.036L99.5832 190.088C99.6272 189.952 99.6892 189.818 99.7692 189.686L100.807 188.066C100.895 187.918 101.009 187.844 101.149 187.844H102.511L100.489 190.76L102.595 194ZM104.851 192.404C105.019 192.608 105.201 192.752 105.397 192.836C105.597 192.92 105.813 192.962 106.045 192.962C106.269 192.962 106.471 192.92 106.651 192.836C106.831 192.752 106.983 192.624 107.107 192.452C107.235 192.28 107.333 192.064 107.401 191.804C107.469 191.54 107.503 191.23 107.503 190.874C107.503 190.514 107.473 190.21 107.413 189.962C107.357 189.71 107.275 189.506 107.167 189.35C107.059 189.194 106.927 189.08 106.771 189.008C106.619 188.936 106.445 188.9 106.249 188.9C105.941 188.9 105.679 188.966 105.463 189.098C105.247 189.226 105.043 189.408 104.851 189.644V192.404ZM104.773 188.684C105.025 188.4 105.311 188.17 105.631 187.994C105.951 187.818 106.327 187.73 106.759 187.73C107.095 187.73 107.401 187.8 107.677 187.94C107.957 188.08 108.197 188.284 108.397 188.552C108.601 188.816 108.757 189.144 108.865 189.536C108.977 189.924 109.033 190.37 109.033 190.874C109.033 191.334 108.971 191.76 108.847 192.152C108.723 192.544 108.545 192.884 108.313 193.172C108.085 193.46 107.807 193.686 107.479 193.85C107.155 194.01 106.791 194.09 106.387 194.09C106.043 194.09 105.749 194.038 105.505 193.934C105.261 193.826 105.043 193.678 104.851 193.49V196.01H103.369V187.844H104.275C104.467 187.844 104.593 187.934 104.653 188.114L104.773 188.684ZM114.155 190.214C114.155 190.022 114.127 189.842 114.071 189.674C114.019 189.502 113.939 189.352 113.831 189.224C113.723 189.096 113.585 188.996 113.417 188.924C113.253 188.848 113.061 188.81 112.841 188.81C112.413 188.81 112.075 188.932 111.827 189.176C111.583 189.42 111.427 189.766 111.359 190.214H114.155ZM111.329 191.108C111.353 191.424 111.409 191.698 111.497 191.93C111.585 192.158 111.701 192.348 111.845 192.5C111.989 192.648 112.159 192.76 112.355 192.836C112.555 192.908 112.775 192.944 113.015 192.944C113.255 192.944 113.461 192.916 113.633 192.86C113.809 192.804 113.961 192.742 114.089 192.674C114.221 192.606 114.335 192.544 114.431 192.488C114.531 192.432 114.627 192.404 114.719 192.404C114.843 192.404 114.935 192.45 114.995 192.542L115.421 193.082C115.257 193.274 115.073 193.436 114.869 193.568C114.665 193.696 114.451 193.8 114.227 193.88C114.007 193.956 113.781 194.01 113.549 194.042C113.321 194.074 113.099 194.09 112.883 194.09C112.455 194.09 112.057 194.02 111.689 193.88C111.321 193.736 111.001 193.526 110.729 193.25C110.457 192.97 110.243 192.626 110.087 192.218C109.931 191.806 109.853 191.33 109.853 190.79C109.853 190.37 109.921 189.976 110.057 189.608C110.193 189.236 110.387 188.914 110.639 188.642C110.895 188.366 111.205 188.148 111.569 187.988C111.937 187.828 112.351 187.748 112.811 187.748C113.199 187.748 113.557 187.81 113.885 187.934C114.213 188.058 114.495 188.24 114.731 188.48C114.967 188.716 115.151 189.008 115.283 189.356C115.419 189.7 115.487 190.094 115.487 190.538C115.487 190.762 115.463 190.914 115.415 190.994C115.367 191.07 115.275 191.108 115.139 191.108H111.329ZM117.997 188.912C118.189 188.544 118.417 188.256 118.681 188.048C118.945 187.836 119.257 187.73 119.617 187.73C119.901 187.73 120.129 187.792 120.301 187.916L120.205 189.026C120.185 189.098 120.155 189.15 120.115 189.182C120.079 189.21 120.029 189.224 119.965 189.224C119.905 189.224 119.815 189.214 119.695 189.194C119.579 189.174 119.465 189.164 119.353 189.164C119.189 189.164 119.043 189.188 118.915 189.236C118.787 189.284 118.671 189.354 118.567 189.446C118.467 189.534 118.377 189.642 118.297 189.77C118.221 189.898 118.149 190.044 118.081 190.208V194H116.599V187.844H117.469C117.621 187.844 117.727 187.872 117.787 187.928C117.847 187.98 117.887 188.076 117.907 188.216L117.997 188.912ZM123.128 194.096C122.592 194.096 122.18 193.946 121.892 193.646C121.608 193.342 121.466 192.924 121.466 192.392V188.954H120.836C120.756 188.954 120.688 188.928 120.632 188.876C120.576 188.824 120.548 188.746 120.548 188.642V188.054L121.538 187.892L121.85 186.212C121.87 186.132 121.908 186.07 121.964 186.026C122.02 185.982 122.092 185.96 122.18 185.96H122.948V187.898H124.592V188.954H122.948V192.29C122.948 192.482 122.994 192.632 123.086 192.74C123.182 192.848 123.312 192.902 123.476 192.902C123.568 192.902 123.644 192.892 123.704 192.872C123.768 192.848 123.822 192.824 123.866 192.8C123.914 192.776 123.956 192.754 123.992 192.734C124.028 192.71 124.064 192.698 124.1 192.698C124.144 192.698 124.18 192.71 124.208 192.734C124.236 192.754 124.266 192.786 124.298 192.83L124.742 193.55C124.526 193.73 124.278 193.866 123.998 193.958C123.718 194.05 123.428 194.096 123.128 194.096ZM129.297 189.044C129.257 189.108 129.215 189.154 129.171 189.182C129.127 189.206 129.071 189.218 129.003 189.218C128.931 189.218 128.853 189.198 128.769 189.158C128.689 189.118 128.595 189.074 128.487 189.026C128.379 188.974 128.255 188.928 128.115 188.888C127.979 188.848 127.817 188.828 127.629 188.828C127.337 188.828 127.107 188.89 126.939 189.014C126.775 189.138 126.693 189.3 126.693 189.5C126.693 189.632 126.735 189.744 126.819 189.836C126.907 189.924 127.021 190.002 127.161 190.07C127.305 190.138 127.467 190.2 127.647 190.256C127.827 190.308 128.009 190.366 128.193 190.43C128.381 190.494 128.565 190.568 128.745 190.652C128.925 190.732 129.085 190.836 129.225 190.964C129.369 191.088 129.483 191.238 129.567 191.414C129.655 191.59 129.699 191.802 129.699 192.05C129.699 192.346 129.645 192.62 129.537 192.872C129.433 193.12 129.277 193.336 129.069 193.52C128.861 193.7 128.603 193.842 128.295 193.946C127.991 194.046 127.639 194.096 127.239 194.096C127.027 194.096 126.819 194.076 126.615 194.036C126.415 194 126.221 193.948 126.033 193.88C125.849 193.812 125.677 193.732 125.517 193.64C125.361 193.548 125.223 193.448 125.103 193.34L125.445 192.776C125.489 192.708 125.541 192.656 125.601 192.62C125.661 192.584 125.737 192.566 125.829 192.566C125.921 192.566 126.007 192.592 126.087 192.644C126.171 192.696 126.267 192.752 126.375 192.812C126.483 192.872 126.609 192.928 126.753 192.98C126.901 193.032 127.087 193.058 127.311 193.058C127.487 193.058 127.637 193.038 127.761 192.998C127.889 192.954 127.993 192.898 128.073 192.83C128.157 192.762 128.217 192.684 128.253 192.596C128.293 192.504 128.313 192.41 128.313 192.314C128.313 192.17 128.269 192.052 128.181 191.96C128.097 191.868 127.983 191.788 127.839 191.72C127.699 191.652 127.537 191.592 127.353 191.54C127.173 191.484 126.987 191.424 126.795 191.36C126.607 191.296 126.421 191.222 126.237 191.138C126.057 191.05 125.895 190.94 125.751 190.808C125.611 190.676 125.497 190.514 125.409 190.322C125.325 190.13 125.283 189.898 125.283 189.626C125.283 189.374 125.333 189.134 125.433 188.906C125.533 188.678 125.679 188.48 125.871 188.312C126.067 188.14 126.309 188.004 126.597 187.904C126.889 187.8 127.225 187.748 127.605 187.748C128.029 187.748 128.415 187.818 128.763 187.958C129.111 188.098 129.401 188.282 129.633 188.51L129.297 189.044ZM136.984 191.372C136.556 191.392 136.196 191.43 135.904 191.486C135.612 191.538 135.378 191.606 135.202 191.69C135.026 191.774 134.9 191.872 134.824 191.984C134.748 192.096 134.71 192.218 134.71 192.35C134.71 192.61 134.786 192.796 134.938 192.908C135.094 193.02 135.296 193.076 135.544 193.076C135.848 193.076 136.11 193.022 136.33 192.914C136.554 192.802 136.772 192.634 136.984 192.41V191.372ZM133.588 188.702C134.296 188.054 135.148 187.73 136.144 187.73C136.504 187.73 136.826 187.79 137.11 187.91C137.394 188.026 137.634 188.19 137.83 188.402C138.026 188.61 138.174 188.86 138.274 189.152C138.378 189.444 138.43 189.764 138.43 190.112V194H137.758C137.618 194 137.51 193.98 137.434 193.94C137.358 193.896 137.298 193.81 137.254 193.682L137.122 193.238C136.966 193.378 136.814 193.502 136.666 193.61C136.518 193.714 136.364 193.802 136.204 193.874C136.044 193.946 135.872 194 135.688 194.036C135.508 194.076 135.308 194.096 135.088 194.096C134.828 194.096 134.588 194.062 134.368 193.994C134.148 193.922 133.958 193.816 133.798 193.676C133.638 193.536 133.514 193.362 133.426 193.154C133.338 192.946 133.294 192.704 133.294 192.428C133.294 192.272 133.32 192.118 133.372 191.966C133.424 191.81 133.508 191.662 133.624 191.522C133.744 191.382 133.898 191.25 134.086 191.126C134.274 191.002 134.504 190.894 134.776 190.802C135.052 190.71 135.372 190.636 135.736 190.58C136.1 190.52 136.516 190.484 136.984 190.472V190.112C136.984 189.7 136.896 189.396 136.72 189.2C136.544 189 136.29 188.9 135.958 188.9C135.718 188.9 135.518 188.928 135.358 188.984C135.202 189.04 135.064 189.104 134.944 189.176C134.824 189.244 134.714 189.306 134.614 189.362C134.518 189.418 134.41 189.446 134.29 189.446C134.186 189.446 134.098 189.42 134.026 189.368C133.954 189.312 133.896 189.248 133.852 189.176L133.588 188.702ZM144.236 189.146C144.192 189.202 144.148 189.246 144.104 189.278C144.064 189.31 144.004 189.326 143.924 189.326C143.848 189.326 143.774 189.304 143.702 189.26C143.63 189.212 143.544 189.16 143.444 189.104C143.344 189.044 143.224 188.992 143.084 188.948C142.948 188.9 142.778 188.876 142.574 188.876C142.314 188.876 142.086 188.924 141.89 189.02C141.694 189.112 141.53 189.246 141.398 189.422C141.27 189.598 141.174 189.812 141.11 190.064C141.046 190.312 141.014 190.594 141.014 190.91C141.014 191.238 141.048 191.53 141.116 191.786C141.188 192.042 141.29 192.258 141.422 192.434C141.554 192.606 141.714 192.738 141.902 192.83C142.09 192.918 142.302 192.962 142.538 192.962C142.774 192.962 142.964 192.934 143.108 192.878C143.256 192.818 143.38 192.754 143.48 192.686C143.58 192.614 143.666 192.55 143.738 192.494C143.814 192.434 143.898 192.404 143.99 192.404C144.11 192.404 144.2 192.45 144.26 192.542L144.686 193.082C144.522 193.274 144.344 193.436 144.152 193.568C143.96 193.696 143.76 193.8 143.552 193.88C143.348 193.956 143.136 194.01 142.916 194.042C142.7 194.074 142.484 194.09 142.268 194.09C141.888 194.09 141.53 194.02 141.194 193.88C140.858 193.736 140.564 193.528 140.312 193.256C140.06 192.984 139.86 192.652 139.712 192.26C139.568 191.864 139.496 191.414 139.496 190.91C139.496 190.458 139.56 190.04 139.688 189.656C139.82 189.268 140.012 188.934 140.264 188.654C140.516 188.37 140.828 188.148 141.2 187.988C141.572 187.828 142 187.748 142.484 187.748C142.944 187.748 143.346 187.822 143.69 187.97C144.038 188.118 144.35 188.33 144.626 188.606L144.236 189.146ZM147.013 188.912C147.205 188.544 147.433 188.256 147.697 188.048C147.961 187.836 148.273 187.73 148.633 187.73C148.917 187.73 149.145 187.792 149.317 187.916L149.221 189.026C149.201 189.098 149.171 189.15 149.131 189.182C149.095 189.21 149.045 189.224 148.981 189.224C148.921 189.224 148.831 189.214 148.711 189.194C148.595 189.174 148.481 189.164 148.369 189.164C148.205 189.164 148.059 189.188 147.931 189.236C147.803 189.284 147.687 189.354 147.583 189.446C147.483 189.534 147.393 189.642 147.313 189.77C147.237 189.898 147.165 190.044 147.097 190.208V194H145.615V187.844H146.485C146.637 187.844 146.743 187.872 146.803 187.928C146.863 187.98 146.903 188.076 146.923 188.216L147.013 188.912ZM152.64 187.748C153.096 187.748 153.51 187.822 153.882 187.97C154.258 188.118 154.578 188.328 154.842 188.6C155.11 188.872 155.316 189.204 155.46 189.596C155.604 189.988 155.676 190.426 155.676 190.91C155.676 191.398 155.604 191.838 155.46 192.23C155.316 192.622 155.11 192.956 154.842 193.232C154.578 193.508 154.258 193.72 153.882 193.868C153.51 194.016 153.096 194.09 152.64 194.09C152.18 194.09 151.762 194.016 151.386 193.868C151.01 193.72 150.688 193.508 150.42 193.232C150.156 192.956 149.95 192.622 149.802 192.23C149.658 191.838 149.586 191.398 149.586 190.91C149.586 190.426 149.658 189.988 149.802 189.596C149.95 189.204 150.156 188.872 150.42 188.6C150.688 188.328 151.01 188.118 151.386 187.97C151.762 187.822 152.18 187.748 152.64 187.748ZM152.64 192.95C153.152 192.95 153.53 192.778 153.774 192.434C154.022 192.09 154.146 191.586 154.146 190.922C154.146 190.258 154.022 189.752 153.774 189.404C153.53 189.056 153.152 188.882 152.64 188.882C152.12 188.882 151.734 189.058 151.482 189.41C151.234 189.758 151.11 190.262 151.11 190.922C151.11 191.582 151.234 192.086 151.482 192.434C151.734 192.778 152.12 192.95 152.64 192.95ZM160.562 189.044C160.522 189.108 160.48 189.154 160.436 189.182C160.392 189.206 160.336 189.218 160.268 189.218C160.196 189.218 160.118 189.198 160.034 189.158C159.954 189.118 159.86 189.074 159.752 189.026C159.644 188.974 159.52 188.928 159.38 188.888C159.244 188.848 159.082 188.828 158.894 188.828C158.602 188.828 158.372 188.89 158.204 189.014C158.04 189.138 157.958 189.3 157.958 189.5C157.958 189.632 158 189.744 158.084 189.836C158.172 189.924 158.286 190.002 158.426 190.07C158.57 190.138 158.732 190.2 158.912 190.256C159.092 190.308 159.274 190.366 159.458 190.43C159.646 190.494 159.83 190.568 160.01 190.652C160.19 190.732 160.35 190.836 160.49 190.964C160.634 191.088 160.748 191.238 160.832 191.414C160.92 191.59 160.964 191.802 160.964 192.05C160.964 192.346 160.91 192.62 160.802 192.872C160.698 193.12 160.542 193.336 160.334 193.52C160.126 193.7 159.868 193.842 159.56 193.946C159.256 194.046 158.904 194.096 158.504 194.096C158.292 194.096 158.084 194.076 157.88 194.036C157.68 194 157.486 193.948 157.298 193.88C157.114 193.812 156.942 193.732 156.782 193.64C156.626 193.548 156.488 193.448 156.368 193.34L156.71 192.776C156.754 192.708 156.806 192.656 156.866 192.62C156.926 192.584 157.002 192.566 157.094 192.566C157.186 192.566 157.272 192.592 157.352 192.644C157.436 192.696 157.532 192.752 157.64 192.812C157.748 192.872 157.874 192.928 158.018 192.98C158.166 193.032 158.352 193.058 158.576 193.058C158.752 193.058 158.902 193.038 159.026 192.998C159.154 192.954 159.258 192.898 159.338 192.83C159.422 192.762 159.482 192.684 159.518 192.596C159.558 192.504 159.578 192.41 159.578 192.314C159.578 192.17 159.534 192.052 159.446 191.96C159.362 191.868 159.248 191.788 159.104 191.72C158.964 191.652 158.802 191.592 158.618 191.54C158.438 191.484 158.252 191.424 158.06 191.36C157.872 191.296 157.686 191.222 157.502 191.138C157.322 191.05 157.16 190.94 157.016 190.808C156.876 190.676 156.762 190.514 156.674 190.322C156.59 190.13 156.548 189.898 156.548 189.626C156.548 189.374 156.598 189.134 156.698 188.906C156.798 188.678 156.944 188.48 157.136 188.312C157.332 188.14 157.574 188.004 157.862 187.904C158.154 187.8 158.49 187.748 158.87 187.748C159.294 187.748 159.68 187.818 160.028 187.958C160.376 188.098 160.666 188.282 160.898 188.51L160.562 189.044ZM165.836 189.044C165.796 189.108 165.754 189.154 165.71 189.182C165.666 189.206 165.61 189.218 165.542 189.218C165.47 189.218 165.392 189.198 165.308 189.158C165.228 189.118 165.134 189.074 165.026 189.026C164.918 188.974 164.794 188.928 164.654 188.888C164.518 188.848 164.356 188.828 164.168 188.828C163.876 188.828 163.646 188.89 163.478 189.014C163.314 189.138 163.232 189.3 163.232 189.5C163.232 189.632 163.274 189.744 163.358 189.836C163.446 189.924 163.56 190.002 163.7 190.07C163.844 190.138 164.006 190.2 164.186 190.256C164.366 190.308 164.548 190.366 164.732 190.43C164.92 190.494 165.104 190.568 165.284 190.652C165.464 190.732 165.624 190.836 165.764 190.964C165.908 191.088 166.022 191.238 166.106 191.414C166.194 191.59 166.238 191.802 166.238 192.05C166.238 192.346 166.184 192.62 166.076 192.872C165.972 193.12 165.816 193.336 165.608 193.52C165.4 193.7 165.142 193.842 164.834 193.946C164.53 194.046 164.178 194.096 163.778 194.096C163.566 194.096 163.358 194.076 163.154 194.036C162.954 194 162.76 193.948 162.572 193.88C162.388 193.812 162.216 193.732 162.056 193.64C161.9 193.548 161.762 193.448 161.642 193.34L161.984 192.776C162.028 192.708 162.08 192.656 162.14 192.62C162.2 192.584 162.276 192.566 162.368 192.566C162.46 192.566 162.546 192.592 162.626 192.644C162.71 192.696 162.806 192.752 162.914 192.812C163.022 192.872 163.148 192.928 163.292 192.98C163.44 193.032 163.626 193.058 163.85 193.058C164.026 193.058 164.176 193.038 164.3 192.998C164.428 192.954 164.532 192.898 164.612 192.83C164.696 192.762 164.756 192.684 164.792 192.596C164.832 192.504 164.852 192.41 164.852 192.314C164.852 192.17 164.808 192.052 164.72 191.96C164.636 191.868 164.522 191.788 164.378 191.72C164.238 191.652 164.076 191.592 163.892 191.54C163.712 191.484 163.526 191.424 163.334 191.36C163.146 191.296 162.96 191.222 162.776 191.138C162.596 191.05 162.434 190.94 162.29 190.808C162.15 190.676 162.036 190.514 161.948 190.322C161.864 190.13 161.822 189.898 161.822 189.626C161.822 189.374 161.872 189.134 161.972 188.906C162.072 188.678 162.218 188.48 162.41 188.312C162.606 188.14 162.848 188.004 163.136 187.904C163.428 187.8 163.764 187.748 164.144 187.748C164.568 187.748 164.954 187.818 165.302 187.958C165.65 188.098 165.94 188.282 166.172 188.51L165.836 189.044ZM174.135 189.416C173.967 189.212 173.783 189.068 173.583 188.984C173.387 188.9 173.175 188.858 172.947 188.858C172.723 188.858 172.521 188.9 172.341 188.984C172.161 189.068 172.007 189.196 171.879 189.368C171.751 189.536 171.653 189.752 171.585 190.016C171.517 190.276 171.483 190.584 171.483 190.94C171.483 191.3 171.511 191.606 171.567 191.858C171.627 192.106 171.711 192.31 171.819 192.47C171.927 192.626 172.059 192.74 172.215 192.812C172.371 192.88 172.545 192.914 172.737 192.914C173.045 192.914 173.307 192.85 173.523 192.722C173.739 192.594 173.943 192.412 174.135 192.176V189.416ZM175.617 185.084V194H174.711C174.515 194 174.391 193.91 174.339 193.73L174.213 193.136C173.965 193.42 173.679 193.65 173.355 193.826C173.035 194.002 172.661 194.09 172.233 194.09C171.897 194.09 171.589 194.02 171.309 193.88C171.029 193.74 170.787 193.538 170.583 193.274C170.383 193.006 170.227 192.676 170.115 192.284C170.007 191.892 169.953 191.444 169.953 190.94C169.953 190.484 170.015 190.06 170.139 189.668C170.263 189.276 170.441 188.936 170.673 188.648C170.905 188.36 171.183 188.136 171.507 187.976C171.831 187.812 172.195 187.73 172.599 187.73C172.943 187.73 173.237 187.784 173.481 187.892C173.725 188 173.943 188.146 174.135 188.33V185.084H175.617ZM179.804 187.748C180.26 187.748 180.674 187.822 181.046 187.97C181.422 188.118 181.742 188.328 182.006 188.6C182.274 188.872 182.48 189.204 182.624 189.596C182.768 189.988 182.84 190.426 182.84 190.91C182.84 191.398 182.768 191.838 182.624 192.23C182.48 192.622 182.274 192.956 182.006 193.232C181.742 193.508 181.422 193.72 181.046 193.868C180.674 194.016 180.26 194.09 179.804 194.09C179.344 194.09 178.926 194.016 178.55 193.868C178.174 193.72 177.852 193.508 177.584 193.232C177.32 192.956 177.114 192.622 176.966 192.23C176.822 191.838 176.75 191.398 176.75 190.91C176.75 190.426 176.822 189.988 176.966 189.596C177.114 189.204 177.32 188.872 177.584 188.6C177.852 188.328 178.174 188.118 178.55 187.97C178.926 187.822 179.344 187.748 179.804 187.748ZM179.804 192.95C180.316 192.95 180.694 192.778 180.938 192.434C181.186 192.09 181.31 191.586 181.31 190.922C181.31 190.258 181.186 189.752 180.938 189.404C180.694 189.056 180.316 188.882 179.804 188.882C179.284 188.882 178.898 189.058 178.646 189.41C178.398 189.758 178.274 190.262 178.274 190.922C178.274 191.582 178.398 192.086 178.646 192.434C178.898 192.778 179.284 192.95 179.804 192.95ZM183.97 194V187.844H184.876C185.068 187.844 185.194 187.934 185.254 188.114L185.35 188.57C185.458 188.45 185.57 188.34 185.686 188.24C185.806 188.14 185.932 188.054 186.064 187.982C186.2 187.91 186.344 187.854 186.496 187.814C186.652 187.77 186.822 187.748 187.006 187.748C187.394 187.748 187.712 187.854 187.96 188.066C188.212 188.274 188.4 188.552 188.524 188.9C188.62 188.696 188.74 188.522 188.884 188.378C189.028 188.23 189.186 188.11 189.358 188.018C189.53 187.926 189.712 187.858 189.904 187.814C190.1 187.77 190.296 187.748 190.492 187.748C190.832 187.748 191.134 187.8 191.398 187.904C191.662 188.008 191.884 188.16 192.064 188.36C192.244 188.56 192.38 188.804 192.472 189.092C192.568 189.38 192.616 189.71 192.616 190.082V194H191.134V190.082C191.134 189.69 191.048 189.396 190.876 189.2C190.704 189 190.452 188.9 190.12 188.9C189.968 188.9 189.826 188.926 189.694 188.978C189.566 189.03 189.452 189.106 189.352 189.206C189.256 189.302 189.18 189.424 189.124 189.572C189.068 189.72 189.04 189.89 189.04 190.082V194H187.552V190.082C187.552 189.67 187.468 189.37 187.3 189.182C187.136 188.994 186.894 188.9 186.574 188.9C186.358 188.9 186.156 188.954 185.968 189.062C185.784 189.166 185.612 189.31 185.452 189.494V194H183.97ZM197.277 191.372C196.849 191.392 196.489 191.43 196.197 191.486C195.905 191.538 195.671 191.606 195.495 191.69C195.319 191.774 195.193 191.872 195.117 191.984C195.041 192.096 195.003 192.218 195.003 192.35C195.003 192.61 195.079 192.796 195.231 192.908C195.387 193.02 195.589 193.076 195.837 193.076C196.141 193.076 196.403 193.022 196.623 192.914C196.847 192.802 197.065 192.634 197.277 192.41V191.372ZM193.881 188.702C194.589 188.054 195.441 187.73 196.437 187.73C196.797 187.73 197.119 187.79 197.403 187.91C197.687 188.026 197.927 188.19 198.123 188.402C198.319 188.61 198.467 188.86 198.567 189.152C198.671 189.444 198.723 189.764 198.723 190.112V194H198.051C197.911 194 197.803 193.98 197.727 193.94C197.651 193.896 197.591 193.81 197.547 193.682L197.415 193.238C197.259 193.378 197.107 193.502 196.959 193.61C196.811 193.714 196.657 193.802 196.497 193.874C196.337 193.946 196.165 194 195.981 194.036C195.801 194.076 195.601 194.096 195.381 194.096C195.121 194.096 194.881 194.062 194.661 193.994C194.441 193.922 194.251 193.816 194.091 193.676C193.931 193.536 193.807 193.362 193.719 193.154C193.631 192.946 193.587 192.704 193.587 192.428C193.587 192.272 193.613 192.118 193.665 191.966C193.717 191.81 193.801 191.662 193.917 191.522C194.037 191.382 194.191 191.25 194.379 191.126C194.567 191.002 194.797 190.894 195.069 190.802C195.345 190.71 195.665 190.636 196.029 190.58C196.393 190.52 196.809 190.484 197.277 190.472V190.112C197.277 189.7 197.189 189.396 197.013 189.2C196.837 189 196.583 188.9 196.251 188.9C196.011 188.9 195.811 188.928 195.651 188.984C195.495 189.04 195.357 189.104 195.237 189.176C195.117 189.244 195.007 189.306 194.907 189.362C194.811 189.418 194.703 189.446 194.583 189.446C194.479 189.446 194.391 189.42 194.319 189.368C194.247 189.312 194.189 189.248 194.145 189.176L193.881 188.702ZM201.655 187.844V194H200.167V187.844H201.655ZM201.859 186.05C201.859 186.178 201.833 186.298 201.781 186.41C201.729 186.522 201.659 186.62 201.571 186.704C201.487 186.788 201.387 186.856 201.271 186.908C201.155 186.956 201.031 186.98 200.899 186.98C200.771 186.98 200.649 186.956 200.533 186.908C200.421 186.856 200.323 186.788 200.239 186.704C200.155 186.62 200.087 186.522 200.035 186.41C199.987 186.298 199.963 186.178 199.963 186.05C199.963 185.918 199.987 185.794 200.035 185.678C200.087 185.562 200.155 185.462 200.239 185.378C200.323 185.294 200.421 185.228 200.533 185.18C200.649 185.128 200.771 185.102 200.899 185.102C201.031 185.102 201.155 185.128 201.271 185.18C201.387 185.228 201.487 185.294 201.571 185.378C201.659 185.462 201.729 185.562 201.781 185.678C201.833 185.794 201.859 185.918 201.859 186.05ZM204.552 188.6C204.676 188.476 204.806 188.362 204.942 188.258C205.082 188.15 205.228 188.06 205.38 187.988C205.536 187.912 205.702 187.854 205.878 187.814C206.054 187.77 206.246 187.748 206.454 187.748C206.79 187.748 207.088 187.806 207.348 187.922C207.608 188.034 207.824 188.194 207.996 188.402C208.172 188.606 208.304 188.852 208.392 189.14C208.484 189.424 208.53 189.738 208.53 190.082V194H207.048V190.082C207.048 189.706 206.962 189.416 206.79 189.212C206.618 189.004 206.356 188.9 206.004 188.9C205.748 188.9 205.508 188.958 205.284 189.074C205.06 189.19 204.848 189.348 204.648 189.548V194H203.166V187.844H204.072C204.264 187.844 204.39 187.934 204.45 188.114L204.552 188.6ZM213.695 189.044C213.655 189.108 213.613 189.154 213.569 189.182C213.525 189.206 213.469 189.218 213.401 189.218C213.329 189.218 213.251 189.198 213.167 189.158C213.087 189.118 212.993 189.074 212.885 189.026C212.777 188.974 212.653 188.928 212.513 188.888C212.377 188.848 212.215 188.828 212.027 188.828C211.735 188.828 211.505 188.89 211.337 189.014C211.173 189.138 211.091 189.3 211.091 189.5C211.091 189.632 211.133 189.744 211.217 189.836C211.305 189.924 211.419 190.002 211.559 190.07C211.703 190.138 211.865 190.2 212.045 190.256C212.225 190.308 212.407 190.366 212.591 190.43C212.779 190.494 212.963 190.568 213.143 190.652C213.323 190.732 213.483 190.836 213.623 190.964C213.767 191.088 213.881 191.238 213.965 191.414C214.053 191.59 214.097 191.802 214.097 192.05C214.097 192.346 214.043 192.62 213.935 192.872C213.831 193.12 213.675 193.336 213.467 193.52C213.259 193.7 213.001 193.842 212.693 193.946C212.389 194.046 212.037 194.096 211.637 194.096C211.425 194.096 211.217 194.076 211.013 194.036C210.813 194 210.619 193.948 210.431 193.88C210.247 193.812 210.075 193.732 209.915 193.64C209.759 193.548 209.621 193.448 209.501 193.34L209.843 192.776C209.887 192.708 209.939 192.656 209.999 192.62C210.059 192.584 210.135 192.566 210.227 192.566C210.319 192.566 210.405 192.592 210.485 192.644C210.569 192.696 210.665 192.752 210.773 192.812C210.881 192.872 211.007 192.928 211.151 192.98C211.299 193.032 211.485 193.058 211.709 193.058C211.885 193.058 212.035 193.038 212.159 192.998C212.287 192.954 212.391 192.898 212.471 192.83C212.555 192.762 212.615 192.684 212.651 192.596C212.691 192.504 212.711 192.41 212.711 192.314C212.711 192.17 212.667 192.052 212.579 191.96C212.495 191.868 212.381 191.788 212.237 191.72C212.097 191.652 211.935 191.592 211.751 191.54C211.571 191.484 211.385 191.424 211.193 191.36C211.005 191.296 210.819 191.222 210.635 191.138C210.455 191.05 210.293 190.94 210.149 190.808C210.009 190.676 209.895 190.514 209.807 190.322C209.723 190.13 209.681 189.898 209.681 189.626C209.681 189.374 209.731 189.134 209.831 188.906C209.931 188.678 210.077 188.48 210.269 188.312C210.465 188.14 210.707 188.004 210.995 187.904C211.287 187.8 211.623 187.748 212.003 187.748C212.427 187.748 212.813 187.818 213.161 187.958C213.509 188.098 213.799 188.282 214.031 188.51L213.695 189.044Z" fill="#6C757D"/>
<path d="M61.45 50.037V54.027C60.4467 54.7503 59.28 55.112 57.95 55.112C57.1333 55.112 56.3937 54.986 55.731 54.734C55.073 54.4773 54.5107 54.1227 54.044 53.67C53.5773 53.2127 53.218 52.669 52.966 52.039C52.714 51.409 52.588 50.716 52.588 49.96C52.588 49.1993 52.7093 48.504 52.952 47.874C53.1947 47.2393 53.5423 46.6957 53.995 46.243C54.4477 45.7857 54.9937 45.4333 55.633 45.186C56.2723 44.934 56.991 44.808 57.789 44.808C58.195 44.808 58.5707 44.8407 58.916 44.906C59.266 44.9667 59.5903 45.053 59.889 45.165C60.1877 45.277 60.463 45.4123 60.715 45.571C60.967 45.7297 61.198 45.907 61.408 46.103L60.939 46.852C60.8643 46.9687 60.7687 47.041 60.652 47.069C60.5353 47.097 60.4093 47.069 60.274 46.985C60.1387 46.9057 59.994 46.8217 59.84 46.733C59.6907 46.6443 59.518 46.5627 59.322 46.488C59.126 46.4087 58.8997 46.3457 58.643 46.299C58.3863 46.2477 58.083 46.222 57.733 46.222C57.201 46.222 56.7203 46.3107 56.291 46.488C55.8663 46.6607 55.5023 46.9103 55.199 47.237C54.8957 47.559 54.6623 47.951 54.499 48.413C54.3357 48.875 54.254 49.3907 54.254 49.96C54.254 50.562 54.3403 51.101 54.513 51.577C54.6857 52.0483 54.9307 52.4497 55.248 52.781C55.5653 53.1077 55.948 53.3573 56.396 53.53C56.8487 53.7027 57.3527 53.789 57.908 53.789C58.3233 53.789 58.692 53.7447 59.014 53.656C59.3407 53.5673 59.6603 53.4437 59.973 53.285V51.283H58.566C58.4587 51.283 58.3747 51.255 58.314 51.199C58.2533 51.1383 58.223 51.0613 58.223 50.968V50.037H61.45ZM64.5809 44.64V55H63.0759V44.64H64.5809ZM69.5255 47.748C70.0528 47.748 70.5288 47.8343 70.9535 48.007C71.3828 48.1797 71.7468 48.4247 72.0455 48.742C72.3488 49.0593 72.5822 49.4443 72.7455 49.897C72.9088 50.3497 72.9905 50.8583 72.9905 51.423C72.9905 51.9877 72.9088 52.4963 72.7455 52.949C72.5822 53.4017 72.3488 53.789 72.0455 54.111C71.7468 54.4283 71.3828 54.6733 70.9535 54.846C70.5288 55.0187 70.0528 55.105 69.5255 55.105C68.9935 55.105 68.5128 55.0187 68.0835 54.846C67.6588 54.6733 67.2948 54.4283 66.9915 54.111C66.6882 53.789 66.4548 53.4017 66.2915 52.949C66.1282 52.4963 66.0465 51.9877 66.0465 51.423C66.0465 50.8583 66.1282 50.3497 66.2915 49.897C66.4548 49.4443 66.6882 49.0593 66.9915 48.742C67.2948 48.4247 67.6588 48.1797 68.0835 48.007C68.5128 47.8343 68.9935 47.748 69.5255 47.748ZM69.5255 53.929C70.1695 53.929 70.6478 53.7143 70.9605 53.285C71.2778 52.851 71.4365 52.2327 71.4365 51.43C71.4365 50.6273 71.2778 50.009 70.9605 49.575C70.6478 49.1363 70.1695 48.917 69.5255 48.917C68.8722 48.917 68.3868 49.1363 68.0695 49.575C67.7522 50.009 67.5935 50.6273 67.5935 51.43C67.5935 52.2327 67.7522 52.851 68.0695 53.285C68.3868 53.7143 68.8722 53.929 69.5255 53.929ZM75.9415 53.208C76.1515 53.4787 76.3802 53.67 76.6275 53.782C76.8795 53.8893 77.1525 53.943 77.4465 53.943C78.0392 53.943 78.5012 53.7283 78.8325 53.299C79.1639 52.8697 79.3295 52.2047 79.3295 51.304C79.3295 50.4827 79.1849 49.883 78.8955 49.505C78.6109 49.127 78.2025 48.938 77.6705 48.938C77.3019 48.938 76.9799 49.022 76.7045 49.19C76.4339 49.3533 76.1795 49.589 75.9415 49.897V53.208ZM75.9415 48.805C76.2355 48.483 76.5645 48.2263 76.9285 48.035C77.2925 47.8437 77.7079 47.748 78.1745 47.748C78.5899 47.748 78.9632 47.8297 79.2945 47.993C79.6305 48.1517 79.9152 48.3827 80.1485 48.686C80.3819 48.9893 80.5615 49.358 80.6875 49.792C80.8135 50.2213 80.8765 50.7067 80.8765 51.248C80.8765 51.8267 80.8042 52.354 80.6595 52.83C80.5195 53.3013 80.3165 53.7073 80.0505 54.048C79.7845 54.384 79.4625 54.6453 79.0845 54.832C78.7065 55.014 78.2842 55.105 77.8175 55.105C77.5889 55.105 77.3812 55.0817 77.1945 55.035C77.0079 54.993 76.8352 54.93 76.6765 54.846C76.5179 54.762 76.3709 54.6617 76.2355 54.545C76.1049 54.4283 75.9789 54.2953 75.8575 54.146L75.7945 54.699C75.7712 54.8063 75.7292 54.8833 75.6685 54.93C75.6079 54.9767 75.5239 55 75.4165 55H74.4365V44.64H75.9415V48.805ZM86.1539 51.878C85.6172 51.8967 85.1645 51.941 84.7959 52.011C84.4272 52.0763 84.1285 52.1627 83.8999 52.27C83.6712 52.3727 83.5055 52.4963 83.4029 52.641C83.3049 52.7857 83.2559 52.9443 83.2559 53.117C83.2559 53.285 83.2815 53.4297 83.3329 53.551C83.3889 53.6677 83.4635 53.7657 83.5569 53.845C83.6549 53.9197 83.7669 53.9757 83.8929 54.013C84.0235 54.0457 84.1659 54.062 84.3199 54.062C84.7119 54.062 85.0479 53.9897 85.3279 53.845C85.6125 53.6957 85.8879 53.481 86.1539 53.201V51.878ZM82.1639 48.854C82.9712 48.1027 83.9325 47.727 85.0479 47.727C85.4585 47.727 85.8225 47.7947 86.1399 47.93C86.4619 48.0607 86.7302 48.2473 86.9449 48.49C87.1642 48.7327 87.3299 49.022 87.4419 49.358C87.5585 49.6893 87.6169 50.058 87.6169 50.464V55H86.9449C86.8002 55 86.6905 54.979 86.6159 54.937C86.5412 54.8903 86.4782 54.7993 86.4269 54.664L86.2799 54.083C86.0979 54.2463 85.9182 54.3933 85.7409 54.524C85.5635 54.65 85.3792 54.7573 85.1879 54.846C85.0012 54.9347 84.7982 55 84.5789 55.042C84.3642 55.0887 84.1262 55.112 83.8649 55.112C83.5755 55.112 83.3049 55.0723 83.0529 54.993C82.8055 54.9137 82.5909 54.7947 82.4089 54.636C82.2269 54.4727 82.0822 54.272 81.9749 54.034C81.8722 53.796 81.8209 53.516 81.8209 53.194C81.8209 52.9187 81.8932 52.6503 82.0379 52.389C82.1872 52.1277 82.4299 51.8943 82.7659 51.689C83.1065 51.479 83.5522 51.3063 84.1029 51.171C84.6582 51.0357 85.3419 50.9587 86.1539 50.94V50.464C86.1539 49.9507 86.0442 49.568 85.8249 49.316C85.6055 49.064 85.2835 48.938 84.8589 48.938C84.5695 48.938 84.3269 48.9753 84.1309 49.05C83.9349 49.12 83.7645 49.197 83.6199 49.281C83.4752 49.365 83.3469 49.4443 83.2349 49.519C83.1229 49.589 83.0039 49.624 82.8779 49.624C82.7752 49.624 82.6865 49.5983 82.6119 49.547C82.5419 49.491 82.4835 49.4233 82.4369 49.344L82.1639 48.854ZM90.9129 44.64V55H89.4079V44.64H90.9129ZM98.5458 55.112C97.9532 55.112 97.4958 54.9463 97.1738 54.615C96.8565 54.279 96.6978 53.8077 96.6978 53.201V49.043H95.9138C95.8298 49.043 95.7575 49.0173 95.6968 48.966C95.6362 48.91 95.6058 48.8283 95.6058 48.721V48.112L96.7608 47.944L97.0898 45.879C97.1132 45.7997 97.1528 45.7367 97.2088 45.69C97.2648 45.6387 97.3395 45.613 97.4328 45.613H98.2028V47.958H100.184V49.043H98.2028V53.096C98.2028 53.3527 98.2658 53.5487 98.3918 53.684C98.5178 53.8193 98.6858 53.887 98.8958 53.887C99.0125 53.887 99.1128 53.873 99.1968 53.845C99.2808 53.8123 99.3532 53.7797 99.4138 53.747C99.4745 53.7097 99.5258 53.677 99.5678 53.649C99.6145 53.6163 99.6588 53.6 99.7008 53.6C99.7848 53.6 99.8525 53.6467 99.9038 53.74L100.352 54.475C100.119 54.6803 99.8432 54.839 99.5258 54.951C99.2085 55.0583 98.8818 55.112 98.5458 55.112ZM105.185 51.878C104.648 51.8967 104.196 51.941 103.827 52.011C103.458 52.0763 103.16 52.1627 102.931 52.27C102.702 52.3727 102.537 52.4963 102.434 52.641C102.336 52.7857 102.287 52.9443 102.287 53.117C102.287 53.285 102.313 53.4297 102.364 53.551C102.42 53.6677 102.495 53.7657 102.588 53.845C102.686 53.9197 102.798 53.9757 102.924 54.013C103.055 54.0457 103.197 54.062 103.351 54.062C103.743 54.062 104.079 53.9897 104.359 53.845C104.644 53.6957 104.919 53.481 105.185 53.201V51.878ZM101.195 48.854C102.002 48.1027 102.964 47.727 104.079 47.727C104.49 47.727 104.854 47.7947 105.171 47.93C105.493 48.0607 105.761 48.2473 105.976 48.49C106.195 48.7327 106.361 49.022 106.473 49.358C106.59 49.6893 106.648 50.058 106.648 50.464V55H105.976C105.831 55 105.722 54.979 105.647 54.937C105.572 54.8903 105.509 54.7993 105.458 54.664L105.311 54.083C105.129 54.2463 104.949 54.3933 104.772 54.524C104.595 54.65 104.41 54.7573 104.219 54.846C104.032 54.9347 103.829 55 103.61 55.042C103.395 55.0887 103.157 55.112 102.896 55.112C102.607 55.112 102.336 55.0723 102.084 54.993C101.837 54.9137 101.622 54.7947 101.44 54.636C101.258 54.4727 101.113 54.272 101.006 54.034C100.903 53.796 100.852 53.516 100.852 53.194C100.852 52.9187 100.924 52.6503 101.069 52.389C101.218 52.1277 101.461 51.8943 101.797 51.689C102.138 51.479 102.583 51.3063 103.134 51.171C103.689 51.0357 104.373 50.9587 105.185 50.94V50.464C105.185 49.9507 105.075 49.568 104.856 49.316C104.637 49.064 104.315 48.938 103.89 48.938C103.601 48.938 103.358 48.9753 103.162 49.05C102.966 49.12 102.796 49.197 102.651 49.281C102.506 49.365 102.378 49.4443 102.266 49.519C102.154 49.589 102.035 49.624 101.909 49.624C101.806 49.624 101.718 49.5983 101.643 49.547C101.573 49.491 101.515 49.4233 101.468 49.344L101.195 48.854ZM109.944 44.64V55H108.439V44.64H109.944ZM116.485 50.625C116.485 50.373 116.447 50.1397 116.373 49.925C116.303 49.7057 116.198 49.5167 116.058 49.358C115.918 49.1947 115.743 49.0687 115.533 48.98C115.327 48.8867 115.089 48.84 114.819 48.84C114.273 48.84 113.843 48.9963 113.531 49.309C113.218 49.6217 113.02 50.0603 112.936 50.625H116.485ZM112.894 51.549C112.912 51.955 112.975 52.3073 113.083 52.606C113.19 52.9 113.332 53.145 113.51 53.341C113.692 53.537 113.906 53.684 114.154 53.782C114.406 53.8753 114.686 53.922 114.994 53.922C115.288 53.922 115.542 53.8893 115.757 53.824C115.971 53.754 116.158 53.6793 116.317 53.6C116.475 53.516 116.611 53.4413 116.723 53.376C116.835 53.306 116.937 53.271 117.031 53.271C117.152 53.271 117.245 53.3177 117.311 53.411L117.738 53.964C117.56 54.174 117.36 54.3513 117.136 54.496C116.912 54.6407 116.674 54.7597 116.422 54.853C116.17 54.9417 115.911 55.0047 115.645 55.042C115.379 55.084 115.12 55.105 114.868 55.105C114.373 55.105 113.913 55.0233 113.489 54.86C113.069 54.692 112.702 54.447 112.39 54.125C112.082 53.803 111.839 53.404 111.662 52.928C111.489 52.452 111.403 51.9037 111.403 51.283C111.403 50.7883 111.48 50.3263 111.634 49.897C111.792 49.4677 112.016 49.0943 112.306 48.777C112.6 48.4597 112.954 48.21 113.37 48.028C113.79 47.8413 114.263 47.748 114.791 47.748C115.229 47.748 115.635 47.8203 116.009 47.965C116.382 48.105 116.704 48.3127 116.975 48.588C117.245 48.8633 117.455 49.2017 117.605 49.603C117.759 49.9997 117.836 50.4523 117.836 50.961C117.836 51.1943 117.81 51.3507 117.759 51.43C117.707 51.5093 117.614 51.549 117.479 51.549H112.894ZM120.646 48.805C120.8 48.6463 120.959 48.504 121.122 48.378C121.29 48.2473 121.468 48.1353 121.654 48.042C121.841 47.9487 122.039 47.8763 122.249 47.825C122.459 47.7737 122.688 47.748 122.935 47.748C123.327 47.748 123.67 47.8133 123.964 47.944C124.263 48.0747 124.513 48.259 124.713 48.497C124.919 48.735 125.073 49.022 125.175 49.358C125.278 49.6893 125.329 50.0557 125.329 50.457V55H123.831V50.457C123.831 49.9763 123.719 49.603 123.495 49.337C123.276 49.071 122.94 48.938 122.487 48.938C122.151 48.938 121.839 49.015 121.549 49.169C121.265 49.323 120.996 49.533 120.744 49.799V55H119.239V47.86H120.149C120.355 47.86 120.485 47.9557 120.541 48.147L120.646 48.805ZM129.28 55.112C128.688 55.112 128.23 54.9463 127.908 54.615C127.591 54.279 127.432 53.8077 127.432 53.201V49.043H126.648C126.564 49.043 126.492 49.0173 126.431 48.966C126.371 48.91 126.34 48.8283 126.34 48.721V48.112L127.495 47.944L127.824 45.879C127.848 45.7997 127.887 45.7367 127.943 45.69C127.999 45.6387 128.074 45.613 128.167 45.613H128.937V47.958H130.918V49.043H128.937V53.096C128.937 53.3527 129 53.5487 129.126 53.684C129.252 53.8193 129.42 53.887 129.63 53.887C129.747 53.887 129.847 53.873 129.931 53.845C130.015 53.8123 130.088 53.7797 130.148 53.747C130.209 53.7097 130.26 53.677 130.302 53.649C130.349 53.6163 130.393 53.6 130.435 53.6C130.519 53.6 130.587 53.6467 130.638 53.74L131.086 54.475C130.853 54.6803 130.578 54.839 130.26 54.951C129.943 55.0583 129.616 55.112 129.28 55.112ZM137.096 53.208C137.306 53.4787 137.534 53.67 137.782 53.782C138.034 53.8893 138.311 53.943 138.615 53.943C139.203 53.943 139.66 53.7283 139.987 53.299C140.318 52.8697 140.484 52.2303 140.484 51.381C140.484 50.9423 140.446 50.569 140.372 50.261C140.297 49.9483 140.19 49.694 140.05 49.498C139.91 49.302 139.739 49.1597 139.539 49.071C139.338 48.9823 139.112 48.938 138.86 48.938C138.477 48.938 138.146 49.022 137.866 49.19C137.59 49.3533 137.334 49.589 137.096 49.897V53.208ZM137.019 48.896C137.317 48.546 137.656 48.2637 138.034 48.049C138.416 47.8343 138.86 47.727 139.364 47.727C139.765 47.727 140.129 47.8087 140.456 47.972C140.782 48.1307 141.062 48.364 141.296 48.672C141.529 48.98 141.709 49.3627 141.835 49.82C141.965 50.2727 142.031 50.793 142.031 51.381C142.031 51.9083 141.958 52.4007 141.814 52.858C141.674 53.3107 141.471 53.705 141.205 54.041C140.939 54.3723 140.617 54.6337 140.239 54.825C139.861 55.0117 139.434 55.105 138.958 55.105C138.538 55.105 138.181 55.0373 137.887 54.902C137.597 54.7667 137.334 54.58 137.096 54.342V57.373H135.591V47.86H136.501C136.706 47.86 136.837 47.9557 136.893 48.147L137.019 48.896ZM146.58 47.748C147.108 47.748 147.584 47.8343 148.008 48.007C148.438 48.1797 148.802 48.4247 149.1 48.742C149.404 49.0593 149.637 49.4443 149.8 49.897C149.964 50.3497 150.045 50.8583 150.045 51.423C150.045 51.9877 149.964 52.4963 149.8 52.949C149.637 53.4017 149.404 53.789 149.1 54.111C148.802 54.4283 148.438 54.6733 148.008 54.846C147.584 55.0187 147.108 55.105 146.58 55.105C146.048 55.105 145.568 55.0187 145.138 54.846C144.714 54.6733 144.35 54.4283 144.046 54.111C143.743 53.789 143.51 53.4017 143.346 52.949C143.183 52.4963 143.101 51.9877 143.101 51.423C143.101 50.8583 143.183 50.3497 143.346 49.897C143.51 49.4443 143.743 49.0593 144.046 48.742C144.35 48.4247 144.714 48.1797 145.138 48.007C145.568 47.8343 146.048 47.748 146.58 47.748ZM146.58 53.929C147.224 53.929 147.703 53.7143 148.015 53.285C148.333 52.851 148.491 52.2327 148.491 51.43C148.491 50.6273 148.333 50.009 148.015 49.575C147.703 49.1363 147.224 48.917 146.58 48.917C145.927 48.917 145.442 49.1363 145.124 49.575C144.807 50.009 144.648 50.6273 144.648 51.43C144.648 52.2327 144.807 52.851 145.124 53.285C145.442 53.7143 145.927 53.929 146.58 53.929ZM154.578 47.748C155.106 47.748 155.582 47.8343 156.006 48.007C156.436 48.1797 156.8 48.4247 157.098 48.742C157.402 49.0593 157.635 49.4443 157.798 49.897C157.962 50.3497 158.043 50.8583 158.043 51.423C158.043 51.9877 157.962 52.4963 157.798 52.949C157.635 53.4017 157.402 53.789 157.098 54.111C156.8 54.4283 156.436 54.6733 156.006 54.846C155.582 55.0187 155.106 55.105 154.578 55.105C154.046 55.105 153.566 55.0187 153.136 54.846C152.712 54.6733 152.348 54.4283 152.044 54.111C151.741 53.789 151.508 53.4017 151.344 52.949C151.181 52.4963 151.099 51.9877 151.099 51.423C151.099 50.8583 151.181 50.3497 151.344 49.897C151.508 49.4443 151.741 49.0593 152.044 48.742C152.348 48.4247 152.712 48.1797 153.136 48.007C153.566 47.8343 154.046 47.748 154.578 47.748ZM154.578 53.929C155.222 53.929 155.701 53.7143 156.013 53.285C156.331 52.851 156.489 52.2327 156.489 51.43C156.489 50.6273 156.331 50.009 156.013 49.575C155.701 49.1363 155.222 48.917 154.578 48.917C153.925 48.917 153.44 49.1363 153.122 49.575C152.805 50.009 152.646 50.6273 152.646 51.43C152.646 52.2327 152.805 52.851 153.122 53.285C153.44 53.7143 153.925 53.929 154.578 53.929ZM161.022 44.64V55H159.517V44.64H161.022Z" fill="#343A40"/>
<defs>
<linearGradient id="paint0_linear_1_2805" x1="179" y1="4.49348e-08" x2="179.179" y2="226" gradientUnits="userSpaceOnUse">
<stop stop-color="#FD7E14" stop-opacity="0.4"/>
<stop offset="0.929298" stop-color="#F8F9FA"/>
<stop offset="1" stop-color="#F8F9FA"/>
</linearGradient>
<linearGradient id="paint1_linear_1_2805" x1="178.5" y1="26" x2="178.952" y2="249" gradientUnits="userSpaceOnUse">
<stop offset="0.621716" stop-color="white"/>
<stop offset="0.786941" stop-color="white" stop-opacity="0"/>
<stop offset="1" stop-color="#FD7E14" stop-opacity="0"/>
</linearGradient>
<linearGradient id="paint2_linear_1_2805" x1="178.5" y1="72.1094" x2="178.5" y2="137.5" gradientUnits="userSpaceOnUse">
<stop stop-color="#FD7E14" stop-opacity="0.4"/>
<stop offset="1" stop-color="#FD7E14" stop-opacity="0"/>
</linearGradient>
</defs>
</svg>
