<svg width="42" height="42" viewBox="0 0 42 42" fill="none" xmlns="http://www.w3.org/2000/svg">
<rect width="42" height="42" fill="white"/>
<path d="M32.8406 19.1163L30.4481 14.3295C30.36 14.1533 30.238 13.9962 30.0891 13.8671C29.9403 13.7381 29.7675 13.6396 29.5806 13.5774C29.3936 13.5151 29.1963 13.4903 28.9998 13.5044C28.8033 13.5184 28.6115 13.571 28.4353 13.6591L26.1037 14.8245L21.1922 13.5251C21.0662 13.4923 20.9338 13.4923 20.8078 13.5251L15.8962 14.8245L13.5647 13.6591C13.3885 13.571 13.1967 13.5184 13.0002 13.5044C12.8037 13.4903 12.6063 13.5151 12.4194 13.5774C12.2325 13.6396 12.0597 13.7381 11.9108 13.8671C11.762 13.9962 11.64 14.1533 11.5519 14.3295L9.15937 19.1154C9.07121 19.2916 9.01861 19.4834 9.00458 19.6799C8.99055 19.8764 9.01537 20.0737 9.07761 20.2606C9.13986 20.4476 9.23831 20.6204 9.36736 20.7692C9.4964 20.9181 9.6535 21.0401 9.82968 21.1282L12.3609 22.3948L17.5631 26.1101C17.6398 26.1646 17.7259 26.2044 17.8172 26.2273L23.8172 27.7273C23.9428 27.7588 24.0745 27.7572 24.1994 27.7227C24.3242 27.6882 24.438 27.622 24.5297 27.5304L28.2797 23.7804L29.6934 22.3666L32.1703 21.1282C32.5259 20.9502 32.7962 20.6383 32.9219 20.261C33.0476 19.8838 33.0184 19.472 32.8406 19.1163ZM27.6947 22.2448L24.4687 19.661C24.3242 19.5453 24.142 19.4871 23.9572 19.4977C23.7723 19.5082 23.5979 19.5868 23.4675 19.7182C21.7978 21.4001 19.9369 21.1873 18.75 20.4373L22.8037 16.4998H25.7859L28.3369 21.6007L27.6947 22.2448ZM23.7694 26.1691L18.3206 24.807L13.7081 21.5126L16.3331 16.2626L21 15.026L21.9187 15.2688L17.7 19.3638L17.6925 19.3723C17.5337 19.5311 17.4126 19.7235 17.3381 19.9354C17.2636 20.1473 17.2376 20.3732 17.2621 20.5964C17.2866 20.8197 17.3609 21.0346 17.4795 21.2253C17.5981 21.416 17.7581 21.5776 17.9475 21.6982C19.875 22.9291 22.2009 22.7295 24.0328 21.2295L26.625 23.3116L23.7694 26.1691ZM21.3581 29.4316C21.3176 29.5937 21.2241 29.7377 21.0925 29.8406C20.9609 29.9435 20.7986 29.9995 20.6316 29.9998C20.5699 29.9997 20.5086 29.9921 20.4487 29.9773L16.5384 28.9995C16.4471 28.9769 16.3608 28.9371 16.2844 28.8823L13.8141 27.1179C13.6622 26.9986 13.5621 26.8254 13.5348 26.6342C13.5074 26.443 13.5549 26.2487 13.6672 26.0916C13.7796 25.9346 13.9482 25.8269 14.138 25.791C14.3277 25.7552 14.524 25.7939 14.6859 25.8991L17.04 27.581L20.8125 28.5223C21.0054 28.5705 21.1713 28.6934 21.2736 28.864C21.3759 29.0345 21.4063 29.2387 21.3581 29.4316Z" fill="#0D6EFD"/>
</svg>
