<svg width="42" height="42" viewBox="0 0 42 42" fill="none" xmlns="http://www.w3.org/2000/svg">
<rect width="42" height="42" fill="white"/>
<path d="M24.8972 15.8055C24.2184 14.2164 23.0118 12.9104 21.4812 12.1083C19.9506 11.3063 18.1901 11.0573 16.4971 11.4036C14.8042 11.7499 13.2827 12.6701 12.19 14.0087C11.0973 15.3473 10.5003 17.0222 10.5 18.7502V24.7502C10.5 25.148 10.658 25.5295 10.9393 25.8108C11.2206 26.0921 11.6022 26.2502 12 26.2502H17.1253C17.7106 27.5867 18.6723 28.724 19.8931 29.5231C21.1139 30.3222 22.5409 30.7486 24 30.7502H30C30.3978 30.7502 30.7794 30.5921 31.0607 30.3108C31.342 30.0295 31.5 29.648 31.5 29.2502V23.2502C31.4996 21.4167 30.8277 19.6468 29.6111 18.2751C28.3945 16.9034 26.7175 16.0248 24.8972 15.8055ZM30 29.2502H24C22.939 29.249 21.8973 28.9671 20.9805 28.4331C20.0637 27.8991 19.3045 27.1321 18.78 26.2099C19.8072 26.1033 20.8013 25.7855 21.6999 25.2765C22.5985 24.7674 23.3822 24.0782 24.0018 23.2519C24.6213 22.4256 25.0634 21.4802 25.3003 20.475C25.5371 19.4698 25.5636 18.4264 25.3781 17.4105C26.6937 17.721 27.8659 18.4666 28.7048 19.5265C29.5436 20.5864 30 21.8985 30 23.2502V29.2502Z" fill="#198754"/>
</svg>
