<svg width="42" height="42" viewBox="0 0 42 42" fill="none" xmlns="http://www.w3.org/2000/svg">
<rect width="42" height="42" fill="white"/>
<path d="M15.0113 22.8564C15.0138 22.9072 15.006 22.958 14.9883 23.0057C14.9706 23.0533 14.9434 23.0969 14.9083 23.1338C14.8732 23.1706 14.831 23.1999 14.7842 23.2199C14.7375 23.2399 14.6871 23.2502 14.6363 23.2501H10.5C10.3307 23.2504 10.1663 23.1934 10.0336 23.0884C9.90081 22.9833 9.80748 22.8365 9.76876 22.6717C9.74465 22.5589 9.74576 22.4422 9.77202 22.3299C9.79827 22.2176 9.84902 22.1124 9.92064 22.022C10.5823 21.1445 11.4603 20.4536 12.4688 20.0167C12.026 19.613 11.6864 19.1091 11.4785 18.5472C11.2705 17.9853 11.2002 17.3817 11.2735 16.7871C11.3467 16.1924 11.5614 15.6239 11.8995 15.1293C12.2377 14.6347 12.6894 14.2283 13.2169 13.9441C13.7444 13.66 14.3323 13.5064 14.9314 13.4962C15.5305 13.4859 16.1233 13.6194 16.6601 13.8854C17.197 14.1514 17.6624 14.5422 18.0171 15.025C18.3719 15.5078 18.6059 16.0686 18.6994 16.6605C18.7115 16.74 18.6972 16.8214 18.6588 16.8921C18.6204 16.9629 18.5599 17.0191 18.4866 17.0523C17.4463 17.5332 16.5653 18.3017 15.9475 19.267C15.3298 20.2322 15.001 21.3541 15 22.5001C15 22.6201 15 22.7383 15.0113 22.8564ZM32.0738 22.0211C31.4136 21.1446 30.5376 20.454 29.5313 20.0167C29.974 19.613 30.3136 19.1091 30.5216 18.5472C30.7295 17.9853 30.7998 17.3817 30.7266 16.7871C30.6533 16.1924 30.4386 15.6239 30.1005 15.1293C29.7623 14.6347 29.3106 14.2283 28.7831 13.9441C28.2556 13.66 27.6677 13.5064 27.0686 13.4962C26.4696 13.4859 25.8768 13.6194 25.3399 13.8854C24.803 14.1514 24.3377 14.5422 23.9829 15.025C23.6281 15.5078 23.3941 16.0686 23.3006 16.6605C23.2886 16.74 23.3028 16.8214 23.3412 16.8921C23.3796 16.9629 23.4401 17.0191 23.5134 17.0523C24.5537 17.5332 25.4347 18.3017 26.0525 19.267C26.6702 20.2322 26.999 21.3541 27 22.5001C27 22.6201 27 22.7383 26.9888 22.8564C26.9862 22.9072 26.994 22.958 27.0117 23.0057C27.0294 23.0533 27.0567 23.0969 27.0917 23.1338C27.1268 23.1706 27.169 23.1999 27.2158 23.2199C27.2626 23.2399 27.3129 23.2502 27.3638 23.2501H31.5C31.6693 23.2504 31.8337 23.1934 31.9664 23.0884C32.0992 22.9833 32.1925 22.8365 32.2313 22.6717C32.2555 22.5587 32.2544 22.4417 32.228 22.3292C32.2015 22.2167 32.1505 22.1115 32.0784 22.0211H32.0738ZM23.73 26.0692C24.4768 25.4973 25.0256 24.7058 25.2992 23.8059C25.5729 22.9059 25.5577 21.9429 25.2558 21.0521C24.9538 20.1612 24.3804 19.3874 23.6159 18.8394C22.8515 18.2913 21.9345 17.9966 20.9939 17.9966C20.0533 17.9966 19.1364 18.2913 18.3719 18.8394C17.6075 19.3874 17.034 20.1612 16.7321 21.0521C16.4301 21.9429 16.4149 22.9059 16.6886 23.8059C16.9623 24.7058 17.5111 25.4973 18.2578 26.0692C16.9327 26.6434 15.8262 27.6267 15.1003 28.8751C15.0345 28.9892 14.9998 29.1185 14.9998 29.2502C14.9998 29.3819 15.0345 29.5112 15.1004 29.6252C15.1662 29.7392 15.2609 29.8339 15.375 29.8997C15.489 29.9655 15.6183 30.0002 15.75 30.0001H26.25C26.3817 30.0002 26.511 29.9655 26.6251 29.8997C26.7391 29.8339 26.8338 29.7392 26.8997 29.6252C26.9655 29.5112 27.0002 29.3819 27.0002 29.2502C27.0002 29.1185 26.9655 28.9892 26.8997 28.8751C26.1723 27.6258 25.0637 26.6425 23.7366 26.0692H23.73Z" fill="#6610F2"/>
</svg>
