<svg width="42" height="42" viewBox="0 0 42 42" fill="none" xmlns="http://www.w3.org/2000/svg">
<rect width="42" height="42" fill="white"/>
<path d="M31.4747 28.4998H30V17.9998C30 17.602 29.842 17.2204 29.5607 16.9391C29.2794 16.6578 28.8978 16.4998 28.5 16.4998H24.375C24.2755 16.4998 24.1802 16.5393 24.1098 16.6096C24.0395 16.68 24 16.7753 24 16.8748V28.4998H22.5V12.0382C22.5025 11.8046 22.4518 11.5735 22.3517 11.3623C22.2517 11.1512 22.1049 10.9655 21.9225 10.8195C21.6739 10.6257 21.3705 10.5151 21.0555 10.5035C20.7404 10.4918 20.4297 10.5798 20.1675 10.7548L12.6675 15.7498C12.4618 15.8871 12.2931 16.0731 12.1767 16.2913C12.0602 16.5095 11.9995 16.7531 12 17.0004V28.4998H10.5253C10.3315 28.4969 10.1438 28.5676 9.99995 28.6975C9.85611 28.8274 9.7668 29.007 9.75 29.2001C9.74319 29.3027 9.75754 29.4056 9.79217 29.5024C9.8268 29.5992 9.88096 29.6879 9.9513 29.7629C10.0216 29.8379 10.1066 29.8976 10.201 29.9384C10.2954 29.9791 10.3972 30 10.5 29.9998H31.5C31.6028 30 31.7046 29.9791 31.799 29.9384C31.8934 29.8976 31.9784 29.8379 32.0487 29.7629C32.119 29.6879 32.1732 29.5992 32.2078 29.5024C32.2425 29.4056 32.2568 29.3027 32.25 29.2001C32.2332 29.007 32.1439 28.8274 32 28.6975C31.8562 28.5676 31.6685 28.4969 31.4747 28.4998ZM16.125 26.2498C16.1252 26.3526 16.1043 26.4544 16.0635 26.5488C16.0228 26.6432 15.9631 26.7282 15.8881 26.7985C15.8131 26.8688 15.7244 26.923 15.6276 26.9576C15.5308 26.9923 15.4279 27.0066 15.3253 26.9998C15.132 26.983 14.9523 26.8936 14.8224 26.7495C14.6924 26.6055 14.6219 26.4175 14.625 26.2236V24.7751C14.6224 24.5814 14.6931 24.3938 14.823 24.25C14.9528 24.1062 15.1323 24.0168 15.3253 23.9998C15.4279 23.993 15.5308 24.0073 15.6276 24.042C15.7244 24.0766 15.8131 24.1308 15.8881 24.2011C15.9631 24.2714 16.0228 24.3564 16.0635 24.4508C16.1043 24.5452 16.1252 24.647 16.125 24.7498V26.2498ZM16.125 20.9998C16.1252 21.1026 16.1043 21.2044 16.0635 21.2988C16.0228 21.3932 15.9631 21.4782 15.8881 21.5485C15.8131 21.6188 15.7244 21.673 15.6276 21.7076C15.5308 21.7423 15.4279 21.7566 15.3253 21.7498C15.1321 21.7328 14.9525 21.6433 14.8226 21.4993C14.6927 21.3553 14.6221 21.1675 14.625 20.9736V19.5251C14.6224 19.3314 14.6931 19.1438 14.823 19C14.9528 18.8562 15.1323 18.7668 15.3253 18.7498C15.4279 18.743 15.5308 18.7573 15.6276 18.792C15.7244 18.8266 15.8131 18.8808 15.8881 18.9511C15.9631 19.0214 16.0228 19.1064 16.0635 19.2008C16.1043 19.2952 16.1252 19.397 16.125 19.4998V20.9998ZM19.875 26.2498C19.8752 26.3526 19.8543 26.4544 19.8135 26.5488C19.7728 26.6432 19.7131 26.7282 19.6381 26.7985C19.5631 26.8688 19.4744 26.923 19.3776 26.9576C19.2808 26.9923 19.1779 27.0066 19.0753 26.9998C18.8824 26.983 18.7029 26.8938 18.573 26.7502C18.4431 26.6066 18.3724 26.4191 18.375 26.2254V24.7751C18.3726 24.5815 18.4434 24.3942 18.5733 24.2506C18.7031 24.107 18.8825 24.0177 19.0753 24.0007C19.1779 23.9939 19.2808 24.0083 19.3776 24.0429C19.4744 24.0775 19.5631 24.1317 19.6381 24.202C19.7131 24.2724 19.7728 24.3574 19.8135 24.4518C19.8543 24.5462 19.8752 24.6479 19.875 24.7507V26.2498ZM19.875 20.9998C19.8752 21.1026 19.8543 21.2044 19.8135 21.2988C19.7728 21.3932 19.7131 21.4782 19.6381 21.5485C19.5631 21.6188 19.4744 21.673 19.3776 21.7076C19.2808 21.7423 19.1779 21.7566 19.0753 21.7498C18.8825 21.7328 18.7031 21.6436 18.5733 21.5C18.4434 21.3564 18.3726 21.169 18.375 20.9754V19.5251C18.3726 19.3315 18.4434 19.1442 18.5733 19.0006C18.7031 18.857 18.8825 18.7677 19.0753 18.7507C19.1779 18.7439 19.2808 18.7583 19.3776 18.7929C19.4744 18.8275 19.5631 18.8817 19.6381 18.952C19.7131 19.0224 19.7728 19.1074 19.8135 19.2018C19.8543 19.2962 19.8752 19.3979 19.875 19.5007V20.9998Z" fill="#FD7E14"/>
</svg>
