<svg width="149" height="32" viewBox="0 0 149 32" fill="none" xmlns="http://www.w3.org/2000/svg">
<path d="M9.28268 31.4446C8.76313 31.7127 7.61542 32 6.16367 32C2.32965 32 0 29.5803 0 25.9068C0 21.9293 2.75899 19.5279 6.45102 19.5279C7.90277 19.5279 8.94188 19.8328 9.3896 20.065L8.9068 21.8215C8.33211 21.571 7.54442 21.3563 6.54123 21.3563C4.08628 21.3563 2.31127 22.8965 2.31127 25.7999C2.31127 28.4518 3.86994 30.1541 6.52369 30.1541C7.41829 30.1541 8.35049 29.9745 8.92434 29.7055" fill="#4E84C4"/>
<path d="M12.4013 25.8183C12.4013 28.2731 13.6376 30.2443 15.7517 30.2443C17.8843 30.2443 19.0846 28.2539 19.0846 25.728C19.0846 23.4536 17.9569 21.2845 15.7517 21.2845C13.5666 21.2845 12.4013 23.3275 12.4013 25.8183ZM21.4142 25.6387C21.4142 29.6888 18.9593 32 15.6264 32C12.2209 32 10.0709 29.4007 10.0709 25.8533C10.0709 22.1448 12.4013 19.5279 15.806 19.5279C19.3368 19.5279 21.4142 22.1991 21.4142 25.6387Z" fill="#4E84C4"/>
<path d="M33.5086 26.8755C33.4376 25.3161 33.3482 23.4351 33.3657 21.7863H33.3114C32.9188 23.2739 32.4168 24.9043 31.8781 26.427L30.1223 31.6599H28.4208L26.807 26.4988C26.3417 24.9586 25.9107 23.3098 25.5883 21.7863H25.5523C25.4997 23.3817 25.4279 25.2994 25.3385 26.9474L25.0687 31.8027H23.0089L23.8141 19.7257H26.7176L28.2946 24.5819C28.724 25.9977 29.1015 27.431 29.4064 28.7749H29.459C29.7823 27.4669 30.1958 25.9802 30.661 24.5644L32.3258 19.7257H35.1942L35.8925 31.8027H33.7433" fill="#4E84C4"/>
<path d="M48.3281 26.8755C48.2571 25.3161 48.166 23.4351 48.1844 21.7863H48.1309C47.7367 23.2739 47.2355 24.9043 46.6967 26.427L44.9409 31.6599H43.2386L41.6256 26.4988C41.1595 24.9586 40.7302 23.3098 40.4069 21.7863H40.371C40.3176 23.3817 40.2457 25.2994 40.1563 26.9474L39.8874 31.8027H37.8267L38.6328 19.7257H41.5363L43.1133 24.5819C43.5435 25.9977 43.9194 27.431 44.2242 28.7749H44.2785C44.601 27.4669 45.0128 25.9802 45.4789 24.5644L47.1453 19.7257H50.0112L50.712 31.8027H48.5611" fill="#4E84C4"/>
<path d="M55.1365 19.7244V26.7665C55.1365 29.1319 56.1222 30.2244 57.609 30.2244C59.2044 30.2244 60.1533 29.1319 60.1533 26.7665V19.7244H62.3585V26.6228C62.3585 30.3506 60.4398 31.9985 57.5372 31.9985C54.7422 31.9985 52.933 30.4399 52.933 26.6404V19.7244" fill="#4E84C4"/>
<path d="M64.8853 31.8027V19.7257H67.3937L70.5118 24.9043C71.3179 26.2483 72.0154 27.6465 72.5708 28.9545H72.6076C72.4648 27.3408 72.4121 25.7822 72.4121 23.9363V19.7257H74.4536V31.8027H72.1774L69.0242 26.4813C68.254 25.1733 67.448 23.6857 66.8557 22.3242L66.8023 22.3418C66.8908 23.9012 66.9092 25.4957 66.9092 27.4845V31.8027" fill="#4E84C4"/>
<path d="M76.9969 31.8026H79.2012V19.7256H76.9969V31.8026Z" fill="#4E84C4"/>
<path d="M90.3834 31.4446C89.8639 31.7127 88.7154 32 87.2653 32C83.4296 32 81.1008 29.5803 81.1008 25.9068C81.1008 21.9293 83.8598 19.5279 87.5526 19.5279C89.0027 19.5279 90.0443 19.8328 90.4895 20.065L90.0059 21.8215C89.432 21.571 88.6435 21.3563 87.6412 21.3563C85.1845 21.3563 83.4104 22.8965 83.4104 25.7999C83.4104 28.4518 84.9715 30.1541 87.6245 30.1541C88.5182 30.1541 89.4521 29.9745 90.0234 29.7055" fill="#4E84C4"/>
<path d="M98.267 26.7143L97.3173 23.7392C97.0834 23.005 96.8863 22.1806 96.7075 21.4823H96.6708C96.4912 22.1806 96.3149 23.0217 96.0986 23.7392L95.1672 26.7143H98.267ZM94.8097 28.3798L93.7689 31.8027H91.4936L95.3635 19.7257H98.1777L102.102 31.8027H99.7372L98.6429 28.3798" fill="#4E84C4"/>
<path d="M104.645 21.5717H101.203V19.7266H110.326V21.5717H106.85V31.8027H104.645" fill="#4E84C4"/>
<path d="M111.742 31.8026H113.946V19.7256H111.742V31.8026Z" fill="#4E84C4"/>
<path d="M118.173 25.8183C118.173 28.2731 119.409 30.2443 121.524 30.2443C123.656 30.2443 124.857 28.2539 124.857 25.728C124.857 23.4536 123.729 21.2845 121.524 21.2845C119.338 21.2845 118.173 23.3275 118.173 25.8183ZM127.188 25.6387C127.188 29.6888 124.732 32 121.398 32C117.994 32 115.845 29.4007 115.845 25.8533C115.845 22.1448 118.173 19.5279 121.579 19.5279C125.108 19.5279 127.188 22.1991 127.188 25.6387Z" fill="#4E84C4"/>
<path d="M129.085 31.8027V19.7257H131.595L134.713 24.9043C135.52 26.2483 136.219 27.6465 136.774 28.9545H136.811C136.667 27.3408 136.613 25.7822 136.613 23.9363V19.7257H138.657V31.8027H136.379L133.227 26.4813C132.456 25.1733 131.648 23.6857 131.057 22.3242L131.003 22.3418C131.094 23.9012 131.112 25.4957 131.112 27.4845V31.8027" fill="#4E84C4"/>
<path d="M141.144 29.4007C141.861 29.815 142.937 30.1716 144.066 30.1716C145.483 30.1716 146.272 29.5093 146.272 28.5228C146.272 27.6091 145.661 27.072 144.119 26.5157C142.13 25.7999 140.858 24.7433 140.858 23.0043C140.858 21.0339 142.507 19.5279 145.123 19.5279C146.432 19.5279 147.398 19.8144 148.025 20.1368L147.489 21.9109C147.061 21.6787 146.216 21.3379 145.087 21.3379C143.69 21.3379 143.08 22.0905 143.08 22.7896C143.08 23.7218 143.779 24.1511 145.393 24.7784C147.489 25.5668 148.511 26.6243 148.511 28.3633C148.511 30.2969 147.04 32 143.923 32C142.651 32 141.325 31.6241 140.661 31.2299" fill="#4E84C4"/>
<path fill-rule="evenodd" clip-rule="evenodd" d="M3.44728 12.1079V3.55654H0V1.43051e-05H11.7268V3.55654H8.38306V12.1079" fill="#4E84C4"/>
<path fill-rule="evenodd" clip-rule="evenodd" d="M26.8457 12.1079V3.55654H23.4001V1.43051e-05H35.1269V3.55654H31.7815V12.1079" fill="#4E84C4"/>
<path fill-rule="evenodd" clip-rule="evenodd" d="M10.6071 12.124L15.0426 0.0161285L20.0903 0.0144577L24.7997 12.124H20.0444L17.5936 4.80383L15.1528 12.124" fill="#4E84C4"/>
<path fill-rule="evenodd" clip-rule="evenodd" d="M33.9961 12.1211L38.4291 0.0140333H43.4233L48.1879 12.1211H43.4317L41.0369 4.8034L38.5393 12.1211" fill="#4E84C4"/>
</svg>
