<svg width="150" height="32" viewBox="0 0 150 32" fill="none" xmlns="http://www.w3.org/2000/svg">
<path d="M9.88531 31.4446C9.36576 31.7127 8.21805 32 6.7663 32C2.93228 32 0.602631 29.5803 0.602631 25.9068C0.602631 21.9293 3.36162 19.5279 7.05365 19.5279C8.5054 19.5279 9.54451 19.8328 9.99223 20.065L9.50943 21.8215C8.93474 21.571 8.14705 21.3563 7.14386 21.3563C4.68891 21.3563 2.9139 22.8965 2.9139 25.7999C2.9139 28.4518 4.47257 30.1541 7.12632 30.1541C8.02092 30.1541 8.95312 29.9745 9.52697 29.7055" fill="#343A40"/>
<path d="M13.004 25.8183C13.004 28.2731 14.2402 30.2443 16.3544 30.2443C18.4869 30.2443 19.6872 28.2539 19.6872 25.728C19.6872 23.4536 18.5596 21.2845 16.3544 21.2845C14.1692 21.2845 13.004 23.3275 13.004 25.8183ZM22.0169 25.6387C22.0169 29.6888 19.5619 32 16.2291 32C12.8236 32 10.6735 29.4007 10.6735 25.8533C10.6735 22.1448 13.004 19.5279 16.4087 19.5279C19.9395 19.5279 22.0169 22.1991 22.0169 25.6387Z" fill="#343A40"/>
<path d="M34.1112 26.8752C34.0402 25.3158 33.9508 23.4348 33.9684 21.786H33.9141C33.5215 23.2736 33.0195 24.904 32.4807 26.4266L30.7249 31.6595H29.0234L27.4096 26.4985C26.9443 24.9583 26.5133 23.3095 26.1909 21.786H26.155C26.1023 23.3813 26.0305 25.2991 25.9411 26.947L25.6713 31.8024H23.6115L24.4167 19.7254H27.3202L28.8973 24.5816C29.3266 25.9973 29.7042 27.4306 30.009 28.7746H30.0617C30.3849 27.4665 30.7984 25.9798 31.2637 24.564L32.9284 19.7254H35.7968L36.4951 31.8024H34.3459" fill="#343A40"/>
<path d="M48.9307 26.8752C48.8597 25.3158 48.7687 23.4348 48.787 21.786H48.7336C48.3393 23.2736 47.8381 24.904 47.2994 26.4266L45.5436 31.6595H43.8412L42.2283 26.4985C41.7622 24.9583 41.3328 23.3095 41.0096 21.786H40.9736C40.9202 23.3813 40.8483 25.2991 40.759 26.947L40.49 31.8024H38.4293L39.2354 19.7254H42.1389L43.7159 24.5816C44.1461 25.9973 44.522 27.4306 44.8269 28.7746H44.8812C45.2036 27.4665 45.6154 25.9798 46.0815 24.564L47.7479 19.7254H50.6138L51.3146 31.8024H49.1638" fill="#343A40"/>
<path d="M55.7391 19.7243V26.7664C55.7391 29.1318 56.7248 30.2243 58.2116 30.2243C59.807 30.2243 60.7559 29.1318 60.7559 26.7664V19.7243H62.9611V26.6227C62.9611 30.3504 61.0424 31.9984 58.1398 31.9984C55.3449 31.9984 53.5356 30.4398 53.5356 26.6402V19.7243" fill="#343A40"/>
<path d="M65.4879 31.8024V19.7254H67.9963L71.1145 24.904C71.9205 26.2479 72.618 27.6461 73.1735 28.9541H73.2102C73.0674 27.3404 73.0148 25.7818 73.0148 23.9359V19.7254H75.0562V31.8024H72.78L69.6268 26.4809C68.8566 25.1729 68.0506 23.6853 67.4584 22.3239L67.4049 22.3414C67.4934 23.9008 67.5118 25.4953 67.5118 27.4841V31.8024" fill="#343A40"/>
<path d="M77.5995 31.8026H79.8039V19.7256H77.5995V31.8026Z" fill="#343A40"/>
<path d="M90.9861 31.4446C90.4665 31.7127 89.318 32 87.8679 32C84.0322 32 81.7034 29.5803 81.7034 25.9068C81.7034 21.9293 84.4624 19.5279 88.1553 19.5279C89.6053 19.5279 90.6469 19.8328 91.0922 20.065L90.6085 21.8215C90.0347 21.571 89.2462 21.3563 88.2438 21.3563C85.7872 21.3563 84.013 22.8965 84.013 25.7999C84.013 28.4518 85.5742 30.1541 88.2271 30.1541C89.1209 30.1541 90.0547 29.9745 90.6261 29.7055" fill="#343A40"/>
<path d="M98.8696 26.714L97.9199 23.7388C97.686 23.0046 97.4889 22.1802 97.3101 21.4819H97.2734C97.0938 22.1802 96.9175 23.0213 96.7012 23.7388L95.7698 26.714H98.8696ZM95.4123 28.3795L94.3715 31.8024H92.0962L95.9661 19.7254H98.7803L102.704 31.8024H100.34L99.2455 28.3795" fill="#343A40"/>
<path d="M105.248 21.5713H101.806V19.7262H110.928V21.5713H107.453V31.8024H105.248" fill="#343A40"/>
<path d="M112.345 31.8026H114.548V19.7256H112.345V31.8026Z" fill="#343A40"/>
<path d="M118.776 25.8183C118.776 28.2731 120.011 30.2443 122.127 30.2443C124.259 30.2443 125.46 28.2539 125.46 25.728C125.46 23.4536 124.331 21.2845 122.127 21.2845C119.94 21.2845 118.776 23.3275 118.776 25.8183ZM127.79 25.6387C127.79 29.6888 125.335 32 122.001 32C118.596 32 116.448 29.4007 116.448 25.8533C116.448 22.1448 118.776 19.5279 122.181 19.5279C125.71 19.5279 127.79 22.1991 127.79 25.6387Z" fill="#343A40"/>
<path d="M129.688 31.8024V19.7254H132.198L135.316 24.904C136.122 26.2479 136.821 27.6461 137.377 28.9541H137.413C137.27 27.3404 137.216 25.7818 137.216 23.9359V19.7254H139.259V31.8024H136.982L133.829 26.4809C133.059 25.1729 132.251 23.6853 131.66 22.3239L131.606 22.3414C131.697 23.9008 131.715 25.4953 131.715 27.4841V31.8024" fill="#343A40"/>
<path d="M141.747 29.4007C142.463 29.815 143.539 30.1716 144.669 30.1716C146.085 30.1716 146.875 29.5093 146.875 28.5228C146.875 27.6091 146.263 27.072 144.722 26.5157C142.732 25.7999 141.461 24.7433 141.461 23.0043C141.461 21.0339 143.11 19.5279 145.726 19.5279C147.034 19.5279 148.001 19.8144 148.628 20.1368L148.092 21.9109C147.663 21.6787 146.819 21.3379 145.689 21.3379C144.293 21.3379 143.683 22.0905 143.683 22.7896C143.683 23.7218 144.382 24.1511 145.996 24.7784C148.092 25.5668 149.114 26.6243 149.114 28.3633C149.114 30.2969 147.642 32 144.526 32C143.254 32 141.928 31.6241 141.264 31.2299" fill="#343A40"/>
<path fill-rule="evenodd" clip-rule="evenodd" d="M4.04991 12.1079V3.55654H0.602631V1.43051e-05H12.3294V3.55654H8.98569V12.1079" fill="#343A40"/>
<path fill-rule="evenodd" clip-rule="evenodd" d="M27.4484 12.1079V3.55654H24.0027V1.43051e-05H35.7295V3.55654H32.3841V12.1079" fill="#343A40"/>
<path fill-rule="evenodd" clip-rule="evenodd" d="M11.2098 12.1238L15.6452 0.0158844L20.6929 0.0142136L25.4023 12.1238H20.647L18.1962 4.80358L15.7555 12.1238" fill="#343A40"/>
<path fill-rule="evenodd" clip-rule="evenodd" d="M34.5988 12.1206L39.0317 0.013545H44.0259L48.7905 12.1206H44.0343L41.6395 4.80291L39.1419 12.1206" fill="#343A40"/>
</svg>
