<svg width="25" height="24" viewBox="0 0 25 24" fill="none" xmlns="http://www.w3.org/2000/svg">
<path d="M6.95328 13.8563C6.95582 13.9071 6.948 13.9579 6.9303 14.0055C6.91259 14.0532 6.88538 14.0968 6.8503 14.1336C6.81522 14.1705 6.77301 14.1998 6.72625 14.2198C6.67949 14.2398 6.62914 14.2501 6.57828 14.25H2.44203C2.27275 14.2503 2.10836 14.1933 1.9756 14.0882C1.84283 13.9832 1.7495 13.8364 1.71078 13.6716C1.68667 13.5588 1.68778 13.4421 1.71403 13.3297C1.74029 13.2174 1.79104 13.1123 1.86265 13.0219C2.52435 12.1444 3.4023 11.4535 4.41078 11.0166C3.96802 10.6129 3.62844 10.109 3.42047 9.54709C3.21251 8.98517 3.14221 8.38161 3.21548 7.78694C3.28874 7.19228 3.50343 6.62382 3.84156 6.12919C4.1797 5.63456 4.63143 5.22815 5.15893 4.944C5.68643 4.65986 6.27433 4.50624 6.87341 4.49603C7.47248 4.48581 8.06528 4.6193 8.60216 4.8853C9.13904 5.1513 9.60437 5.54207 9.95917 6.02489C10.314 6.50771 10.5479 7.06851 10.6414 7.66033C10.6535 7.73992 10.6392 7.82127 10.6008 7.89201C10.5624 7.96275 10.5019 8.019 10.4286 8.05221C9.38833 8.53312 8.50734 9.30156 7.88956 10.2668C7.27179 11.2321 6.94301 12.354 6.94203 13.5C6.94203 13.62 6.94203 13.7381 6.95328 13.8563ZM24.0158 13.021C23.3556 12.1445 22.4797 11.4539 21.4733 11.0166C21.916 10.6129 22.2556 10.109 22.4636 9.54709C22.6715 8.98517 22.7418 8.38161 22.6686 7.78694C22.5953 7.19228 22.3806 6.62382 22.0425 6.12919C21.7044 5.63456 21.2526 5.22815 20.7251 4.944C20.1976 4.65986 19.6097 4.50624 19.0106 4.49603C18.4116 4.48581 17.8188 4.6193 17.2819 4.8853C16.745 5.1513 16.2797 5.54207 15.9249 6.02489C15.5701 6.50771 15.3361 7.06851 15.2427 7.66033C15.2306 7.73992 15.2448 7.82127 15.2832 7.89201C15.3217 7.96275 15.3821 8.019 15.4555 8.05221C16.4957 8.53312 17.3767 9.30156 17.9945 10.2668C18.6123 11.2321 18.941 12.354 18.942 13.5C18.942 13.62 18.942 13.7381 18.9308 13.8563C18.9282 13.9071 18.9361 13.9579 18.9538 14.0055C18.9715 14.0532 18.9987 14.0968 19.0338 14.1336C19.0688 14.1705 19.111 14.1998 19.1578 14.2198C19.2046 14.2398 19.2549 14.2501 19.3058 14.25H23.442C23.6113 14.2503 23.7757 14.1933 23.9085 14.0882C24.0412 13.9832 24.1346 13.8364 24.1733 13.6716C24.1975 13.5586 24.1964 13.4416 24.17 13.3291C24.1436 13.2166 24.0925 13.1113 24.0205 13.021H24.0158ZM15.672 17.0691C16.4188 16.4972 16.9676 15.7056 17.2412 14.8057C17.5149 13.9058 17.4997 12.9428 17.1978 12.0519C16.8959 11.1611 16.3224 10.3873 15.5579 9.83924C14.7935 9.29118 13.8765 8.99644 12.9359 8.99644C11.9953 8.99644 11.0784 9.29118 10.3139 9.83924C9.54949 10.3873 8.976 11.1611 8.67407 12.0519C8.37214 12.9428 8.35694 13.9058 8.63062 14.8057C8.90429 15.7056 9.45307 16.4972 10.1998 17.0691C8.87472 17.6432 7.76821 18.6265 7.04234 19.875C6.97651 19.989 6.94185 20.1184 6.94186 20.2501C6.94187 20.3817 6.97653 20.5111 7.04238 20.6251C7.10823 20.7391 7.20293 20.8338 7.31697 20.8996C7.43101 20.9654 7.56036 21.0001 7.69203 21H18.192C18.3237 21.0001 18.453 20.9654 18.5671 20.8996C18.6811 20.8338 18.7758 20.7391 18.8417 20.6251C18.9075 20.5111 18.9422 20.3817 18.9422 20.2501C18.9422 20.1184 18.9075 19.989 18.8417 19.875C18.1143 18.6257 17.0057 17.6423 15.6786 17.0691H15.672Z" fill="white"/>
</svg>
