<svg width="25" height="24" viewBox="0 0 25 24" fill="none" xmlns="http://www.w3.org/2000/svg">
<path d="M22.557 10.3763C22.8997 12.413 22.5861 14.506 21.6617 16.353C20.7373 18.2 19.2498 19.7054 17.4141 20.6518C15.5783 21.5983 13.4893 21.9369 11.4485 21.6187C9.40778 21.3005 7.52098 20.342 6.06052 18.8815C4.60007 17.421 3.64154 15.5342 3.32333 13.4935C3.00512 11.4528 3.3437 9.36371 4.29018 7.52795C5.23666 5.69218 6.74207 4.20471 8.58904 3.2803C10.436 2.35589 12.529 2.04237 14.5658 2.38501C14.7604 2.41944 14.9337 2.52935 15.0477 2.69083C15.1618 2.85232 15.2075 3.05231 15.1749 3.24731C15.1423 3.4423 15.034 3.61653 14.8735 3.73209C14.7131 3.84766 14.5136 3.8952 14.3183 3.86439C13.1353 3.66538 11.9231 3.72655 10.7661 4.04364C9.60919 4.36073 8.53523 4.92613 7.619 5.70048C6.70277 6.47483 5.96628 7.43954 5.4608 8.52746C4.95531 9.61538 4.69296 10.8004 4.69201 12C4.69023 14.0196 5.43249 15.969 6.77701 17.4759C7.32228 16.6851 8.01492 16.0068 8.81701 15.4781C8.88549 15.4327 8.96697 15.4111 9.04895 15.4165C9.13093 15.4219 9.20886 15.4541 9.27076 15.5081C10.2896 16.3898 11.5919 16.875 12.9392 16.875C14.2865 16.875 15.5888 16.3898 16.6076 15.5081C16.6695 15.4541 16.7475 15.4219 16.8294 15.4165C16.9114 15.4111 16.9929 15.4327 17.0614 15.4781C17.8643 16.0068 18.5578 16.685 19.1042 17.4759C20.4497 15.9694 21.193 14.0199 21.192 12C21.192 11.5389 21.1538 11.0786 21.0776 10.6238C21.0604 10.5262 21.0626 10.4262 21.0842 10.3295C21.1059 10.2328 21.1464 10.1414 21.2036 10.0604C21.2608 9.97951 21.3334 9.91072 21.4173 9.85802C21.5012 9.80533 21.5947 9.76978 21.6924 9.75343C21.7901 9.73709 21.8901 9.74026 21.9866 9.76278C22.0831 9.78529 22.1742 9.8267 22.2546 9.88461C22.3349 9.94252 22.4031 10.0158 22.455 10.1002C22.5069 10.1846 22.5416 10.2784 22.557 10.3763ZM8.81701 11.25C8.81701 12.0659 9.05894 12.8634 9.5122 13.5417C9.96546 14.2201 10.6097 14.7488 11.3634 15.061C12.1172 15.3732 12.9466 15.4549 13.7468 15.2957C14.5469 15.1366 15.2819 14.7437 15.8588 14.1668C16.4357 13.5899 16.8286 12.8549 16.9878 12.0548C17.1469 11.2546 17.0652 10.4252 16.753 9.67144C16.4408 8.9177 15.9121 8.27346 15.2337 7.8202C14.5554 7.36694 13.7579 7.12501 12.942 7.12501C11.848 7.12501 10.7988 7.55961 10.0252 8.33319C9.25161 9.10678 8.81701 10.156 8.81701 11.25ZM23.2226 3.21939C23.153 3.14965 23.0703 3.09433 22.9792 3.05659C22.8882 3.01885 22.7906 2.99942 22.692 2.99942C22.5934 2.99942 22.4959 3.01885 22.4048 3.05659C22.3138 3.09433 22.231 3.14965 22.1614 3.21939L19.692 5.6897L18.7226 4.71939C18.653 4.6497 18.5702 4.59443 18.4792 4.55672C18.3881 4.519 18.2906 4.49959 18.192 4.49959C18.0935 4.49959 17.9959 4.519 17.9048 4.55672C17.8138 4.59443 17.7311 4.6497 17.6614 4.71939C17.5917 4.78907 17.5364 4.87179 17.4987 4.96284C17.461 5.05388 17.4416 5.15146 17.4416 5.25001C17.4416 5.34856 17.461 5.44614 17.4987 5.53718C17.5364 5.62823 17.5917 5.71095 17.6614 5.78064L19.1614 7.28064C19.231 7.35037 19.3138 7.40569 19.4048 7.44343C19.4959 7.48117 19.5934 7.5006 19.692 7.5006C19.7906 7.5006 19.8882 7.48117 19.9792 7.44343C20.0703 7.40569 20.153 7.35037 20.2226 7.28064L23.2226 4.28064C23.2924 4.21098 23.3477 4.12826 23.3854 4.03722C23.4232 3.94617 23.4426 3.84857 23.4426 3.75001C23.4426 3.65145 23.4232 3.55385 23.3854 3.46281C23.3477 3.37176 23.2924 3.28904 23.2226 3.21939Z" fill="white"/>
</svg>
