<svg width="149" height="149" viewBox="0 0 149 149" fill="none" xmlns="http://www.w3.org/2000/svg">
<path d="M74.5001 148.664C115.46 148.664 148.664 115.46 148.664 74.5001C148.664 33.5404 115.46 0.335938 74.5001 0.335938C33.5404 0.335938 0.335938 33.5404 0.335938 74.5001C0.335938 115.46 33.5404 148.664 74.5001 148.664Z" fill="white"/>
<path d="M74.5 149C54.6011 149 35.8913 141.251 21.8209 127.179C7.74889 113.109 0 94.3989 0 74.5C0 54.6011 7.74889 35.8913 21.8209 21.8209C35.8913 7.75043 54.6011 0 74.5 0C94.3989 0 113.109 7.7489 127.179 21.8209C141.251 35.8913 149 54.6011 149 74.5C149 94.3989 141.251 113.109 127.179 127.179C113.109 141.25 94.3989 149 74.5 149ZM74.5 0.673221C33.7908 0.673221 0.673226 33.7923 0.673226 74.5C0.673226 115.208 33.7923 148.327 74.5 148.327C115.208 148.327 148.327 115.208 148.327 74.5C148.327 33.7923 115.208 0.673221 74.5 0.673221Z" fill="black"/>
<mask id="mask0_1_2701" style="mask-type:luminance" maskUnits="userSpaceOnUse" x="0" y="0" width="149" height="149">
<path d="M74.5001 148.664C115.46 148.664 148.664 115.46 148.664 74.5001C148.664 33.5404 115.46 0.335938 74.5001 0.335938C33.5404 0.335938 0.335938 33.5404 0.335938 74.5001C0.335938 115.46 33.5404 148.664 74.5001 148.664Z" fill="white"/>
</mask>
<g mask="url(#mask0_1_2701)">
<path d="M25.8632 79.8097C25.1549 80.0951 24.6801 80.7439 24.6358 81.4874C24.4954 83.82 22.9352 89.4408 20.8713 91.1369C15.2489 95.7578 18.1753 104.319 21.8803 106.415C25.5854 108.511 27.0936 108.776 27.0341 112.13C26.9761 115.484 26.0861 128.369 26.8891 131.82C27.692 135.272 29.5712 140.944 30.7345 142.335C31.8977 143.726 34.841 144.756 33.464 139.841C32.087 134.925 31.1696 132.58 33.5968 130.193C36.0241 127.804 40.2481 122.117 40.7809 119.795C41.3137 117.475 42.7502 116.235 43.9272 116.087C45.1042 115.939 47.6322 115.382 48.4367 114.632C49.2412 113.883 48.0505 111.369 47.8352 109.244C47.62 107.119 47.7497 105.873 51.5127 104.615C55.2757 103.357 54.0423 98.4568 49.29 96.6631C44.5378 94.8693 41.7961 91.9002 42.6433 89.3355C43.4921 86.7693 39.5856 86.6121 37.4179 85.1084C35.2501 83.6047 35.5234 81.6553 33.0625 80.4356C29.7376 78.7869 27.2341 79.2586 25.8632 79.8112V79.8097Z" fill="#F3F3F3"/>
<path d="M49.394 42.523C50.2916 40.3827 50.5893 37.3387 50.0382 36.1571C49.4871 34.9756 47.675 32.9513 43.6525 35.3007C39.6315 37.6501 38.6988 37.5448 37.8485 35.3496C36.9982 33.1544 39.8269 28.0098 44.4921 28.5334C49.1589 29.057 50.2641 27.5015 50.5282 26.2695C50.7908 25.0391 49.4688 23.4896 47.8979 23.0332C46.3271 22.5767 45.9592 23.5156 39.0056 25.5368C35.4014 26.584 32.2643 26.2924 30.0782 25.7673C29.0875 25.5291 28.2814 24.7964 27.9089 23.8148C27.2281 22.018 26.0053 19.8625 22.7659 21.2654C18.5052 23.111 16.3268 26.4558 14.7941 25.5444C13.2614 24.633 13.0981 22.2912 12.5149 21.0654C11.9303 19.838 6.0102 15.1606 1.24728 16.9498C-3.51564 18.7389 -11.579 21.9508 -10.5791 24.0697C-9.57922 26.1886 -6.3734 26.6527 -1.33875 26.1626C3.6959 25.6711 1.99683 29.283 2.47007 30.6019C2.94331 31.9224 4.30654 32.4979 4.12487 35.2229C3.94321 37.9478 3.58904 39.3859 1.75104 40.4468C-0.0884857 41.5078 -1.24411 43.2389 -1.24869 45.8127C-1.27006 60.8862 7.74285 69.8411 10.2586 71.0745C12.7744 72.3065 13.4782 72.3859 14.6216 74.0987C14.6521 74.1429 14.6827 74.175 14.7147 74.2025C16.4138 77.5976 18.1373 80.2264 18.9785 80.8752C21.1004 82.5132 21.7935 79.26 22.0667 76.6297C22.34 73.9995 21.7003 70.7372 20.6852 67.542C19.6685 64.3469 19.8715 62.4097 20.3997 61.2083C20.9294 60.0069 22.572 59.7718 23.5093 61.1365C24.4467 62.5013 26.8953 63.895 28.2081 63.2539C29.8217 62.4662 29.6218 58.6543 30.2858 57.4682C30.9484 56.282 33.9679 55.7813 35.4411 53.2853C36.9142 50.7894 41.4878 52.0259 44.1548 51.5954C47.4705 51.0596 49.6245 49.5956 50.0321 48.7621C51.3236 46.1242 48.4964 44.6632 49.3925 42.523H49.394Z" fill="#F3F3F3"/>
<path d="M55.6183 23.7117C54.1207 24.1361 53.2933 25.7833 53.8185 27.2992C53.9971 27.8152 54.2276 28.2884 54.5146 28.5678C55.4275 29.4562 59.392 30.363 59.9385 32.0636C60.485 33.7642 57.4884 41.6322 60.1049 43.4122C61.7735 44.548 73.0671 41.362 78.2712 37.341C83.4753 33.32 85.8751 30.6317 83.173 30.134C80.471 29.6364 74.0319 29.9142 70.0673 29.0074C66.1028 28.1006 59.7462 24.0476 57.6853 23.5896C56.9953 23.4369 56.2747 23.5255 55.6198 23.7102L55.6183 23.7117Z" fill="white"/>
<path d="M154.208 56.5986C153.724 56.4032 153.283 56.1803 152.903 55.9239C149.268 53.4691 151.272 52.1593 146.798 50.2923C142.324 48.4253 132.427 47.8238 129.996 48.7444C127.566 49.6649 127.082 51.3151 117.216 51.912C107.35 52.5074 107.675 46.4057 103.883 45.4668C100.089 44.528 97.6285 44.2517 92.4732 47.4239C87.318 50.5961 84.5091 52.1563 86.6096 52.9043C88.7102 53.6523 88.9483 54.3606 92.4381 53.7302C95.9279 53.0997 96.5828 51.2968 97.7781 51.7731C98.9734 52.2479 100.047 53.9042 96.5873 55.7315C93.1281 57.5588 92.7419 55.2995 90.6718 55.7483C88.6018 56.1971 89.3315 58.1557 87.5164 59.1449C85.7013 60.1342 85.7944 57.7573 83.2405 59.8578C80.6865 61.9584 80.4759 63.9811 79.4301 65.0574C78.3844 66.1336 76.8365 63.0606 75.3786 65.1138C73.9192 67.1671 74.5253 70.3042 76.7144 70.2096C78.9035 70.1149 81.2727 66.7992 84.3839 66.8084C87.495 66.8175 90.1849 64.9032 90.075 67.448C89.9651 69.9943 89.6658 72.8597 90.9314 72.6597C92.1969 72.4613 92.2106 67.8586 93.2701 68.1472C94.3295 68.4372 95.2073 71.9468 97.256 73.2001C99.3047 74.4534 101.972 74.2428 103.848 75.6472C105.724 77.0517 108.603 78.45 103.306 81.9215C103.306 81.9215 94.7921 82.8939 91.7481 80.1934C88.7041 77.4929 91.9801 74.2168 86.976 73.4398C81.9704 72.6628 72.5407 71.1728 68.7121 79.7461C64.8834 88.3193 64.6575 92.3663 68.8998 96.7018C73.1422 101.037 80.9323 97.6269 82.2131 100.343C83.4939 103.058 82.6527 104.628 82.7046 108.759C82.8573 121.031 85.1029 133.785 88.6644 136.01C90.7909 137.338 96.4866 136.032 99.2497 132.056C102.013 128.079 104.617 125.853 105.382 122.028C105.979 119.042 103.078 115.981 106.719 112.96C110.36 109.939 115.111 109.401 115.354 107.072C115.596 104.741 114.117 103.932 112.248 103.078C110.381 102.225 106.012 97.2315 106.73 94.0974C107.447 90.9634 108.629 89.4872 109.446 90.6031C110.262 91.7175 109.64 94.7172 110.267 96.1522C110.896 97.5872 111.858 101.788 114.631 100.566C117.405 99.3428 118.278 98.4176 119.852 98.2543C121.426 98.091 122.67 93.6257 121.58 92.1388C120.49 90.652 119.19 91.1878 118.526 90.0902C117.862 88.9926 116.724 86.4768 119.115 87.4278C121.506 88.3789 119.929 90.078 124.165 91.2366C128.401 92.3953 132.221 96.0652 133.1 99.5748C133.979 103.084 134.546 108.093 136.22 108.452C137.895 108.811 138.136 102.016 141.134 100.137C144.133 98.2574 146.105 95.7507 147.758 97.8116C149.41 99.874 151.978 105.107 153.835 106.681C153.951 106.779 154.077 106.879 154.211 106.982V56.6032L154.208 56.5986Z" fill="#F3F3F3"/>
</g>
<path d="M74.5 149C54.6011 149 35.8913 141.251 21.8209 127.179C7.74889 113.109 0 94.3989 0 74.5C0 54.6011 7.74889 35.8913 21.8209 21.8209C35.8913 7.75043 54.6011 0 74.5 0C94.3989 0 113.109 7.7489 127.179 21.8209C141.251 35.8913 149 54.6011 149 74.5C149 94.3989 141.251 113.109 127.179 127.179C113.109 141.25 94.3989 149 74.5 149ZM74.5 0.673221C33.7908 0.673221 0.673226 33.7923 0.673226 74.5C0.673226 115.208 33.7923 148.327 74.5 148.327C115.208 148.327 148.327 115.208 148.327 74.5C148.327 33.7923 115.208 0.673221 74.5 0.673221Z" fill="white"/>
<path d="M28.69 42.9347C30.5111 42.9347 31.9874 41.4584 31.9874 39.6373C31.9874 37.8161 30.5111 36.3398 28.69 36.3398C26.8689 36.3398 25.3926 37.8161 25.3926 39.6373C25.3926 41.4584 26.8689 42.9347 28.69 42.9347Z" fill="#343A40"/>
<path d="M107.319 61.4432C109.126 61.2206 110.411 59.5749 110.189 57.7675C109.966 55.96 108.32 54.6752 106.513 54.8978C104.705 55.1204 103.421 56.766 103.643 58.5735C103.866 60.3809 105.511 61.6657 107.319 61.4432Z" fill="#343A40"/>
<path d="M95.7349 122.2C97.556 122.2 99.0323 120.724 99.0323 118.903C99.0323 117.082 97.556 115.605 95.7349 115.605C93.9138 115.605 92.4375 117.082 92.4375 118.903C92.4375 120.724 93.9138 122.2 95.7349 122.2Z" fill="#343A40"/>
<path d="M80.1685 84.7003C81.9896 84.7003 83.4659 83.224 83.4659 81.4029C83.4659 79.5818 81.9896 78.1055 80.1685 78.1055C78.3474 78.1055 76.8711 79.5818 76.8711 81.4029C76.8711 83.224 78.3474 84.7003 80.1685 84.7003Z" fill="#343A40"/>
<path d="M28.69 96.9073C30.5111 96.9073 31.9874 95.431 31.9874 93.6099C31.9874 91.7888 30.5111 90.3125 28.69 90.3125C26.8689 90.3125 25.3926 91.7888 25.3926 93.6099C25.3926 95.431 26.8689 96.9073 28.69 96.9073Z" fill="#343A40"/>
<path d="M95.7354 119.241C95.6331 119.241 95.5323 119.194 95.4667 119.107C90.6686 112.724 80.0131 101.183 62.5537 95.6098C48.8587 91.2392 36.6171 92.2895 28.7614 93.9397C28.6255 93.9687 28.4881 93.9122 28.4118 93.7977C28.3354 93.6833 28.337 93.5336 28.4148 93.4207C32.1229 88.009 38.1269 76.7321 36.6812 62.0114C35.7027 52.0581 31.6481 44.4557 28.4164 39.8302C28.311 39.6775 28.3476 39.4684 28.5003 39.3615C28.653 39.2547 28.8621 39.2929 28.969 39.444C32.245 44.1352 36.3591 51.8459 37.3514 61.9442C38.7604 76.2833 33.2037 87.3968 29.43 93.1169C37.385 91.5491 49.3854 90.6988 62.7598 94.9686C79.3048 100.251 89.8015 110.836 95.0392 117.447C92.9768 108.529 91.6472 95.3411 95.8559 80.6463C98.132 72.7005 101.761 65.2187 106.641 58.4102C106.75 58.259 106.959 58.2239 107.11 58.3323C107.261 58.4407 107.296 58.6514 107.188 58.801C102.352 65.5469 98.7564 72.9584 96.5017 80.831C92.0853 96.251 93.8256 110.001 96.0636 118.82C96.1032 118.976 96.0269 119.137 95.8819 119.206C95.8346 119.229 95.7857 119.24 95.7368 119.24L95.7354 119.241Z" fill="#343A40"/>
<path d="M94.8033 119.113C94.6461 119.113 94.5041 119.001 94.4736 118.839C92.8417 110.353 90.2099 102.093 86.6514 94.2874C84.6088 89.8069 82.2335 85.421 79.5895 81.2504C79.4902 81.0932 79.536 80.8856 79.6933 80.7863C79.8505 80.6871 80.0581 80.7345 80.1573 80.8902C82.8166 85.0852 85.2073 89.4985 87.262 94.008C90.8419 101.862 93.4904 110.173 95.133 118.713C95.1682 118.894 95.0491 119.071 94.8659 119.106C94.8445 119.111 94.8232 119.113 94.8018 119.113H94.8033Z" fill="#343A40"/>
</svg>
