<svg width="172" height="114" viewBox="0 0 172 114" fill="none" xmlns="http://www.w3.org/2000/svg">
<path d="M170.977 0.207031H0.740234V113.446H170.977V0.207031Z" fill="white"/>
<path d="M170.976 113.655H0.739682C0.624098 113.655 0.53125 113.562 0.53125 113.446V0.208431C0.53125 0.0937939 0.624098 0 0.739682 0H170.977C171.092 0 171.185 0.0928465 171.185 0.208431V113.447C171.185 113.562 171.092 113.655 170.977 113.655L170.976 113.655ZM0.948114 113.239H170.768V0.416862H0.948114V113.239Z" fill="#E2EAFF"/>
<path d="M56.6872 16.2526H40.3784C40.2629 16.2526 40.17 16.1597 40.17 16.0441C40.17 15.9285 40.2629 15.8357 40.3784 15.8357H56.6872C56.8028 15.8357 56.8957 15.9285 56.8957 16.0441C56.8957 16.1597 56.8028 16.2526 56.6872 16.2526Z" fill="#343A40"/>
<path d="M36.7125 16.2526H10.6577C10.5422 16.2526 10.4493 16.1597 10.4493 16.0441C10.4493 15.9285 10.5422 15.8357 10.6577 15.8357H36.7125C36.8281 15.8357 36.921 15.9285 36.921 16.0441C36.921 16.1597 36.8281 16.2526 36.7125 16.2526Z" fill="#343A40"/>
<path d="M36.7125 19.8932H10.6577C10.5422 19.8932 10.4493 19.8003 10.4493 19.6847C10.4493 19.5692 10.5422 19.4763 10.6577 19.4763H36.7125C36.8281 19.4763 36.921 19.5692 36.921 19.6847C36.921 19.8003 36.8281 19.8932 36.7125 19.8932Z" fill="#343A40"/>
<path d="M36.7125 23.5338H10.6577C10.5422 23.5338 10.4493 23.441 10.4493 23.3254C10.4493 23.2098 10.5422 23.1169 10.6577 23.1169H36.7125C36.8281 23.1169 36.921 23.2098 36.921 23.3254C36.921 23.441 36.8281 23.5338 36.7125 23.5338Z" fill="#343A40"/>
<path d="M87.6088 108.165C87.4932 108.165 87.4004 108.073 87.4004 107.957V15.4591C87.4004 9.47619 82.5326 4.60838 76.5497 4.60838C70.5667 4.60838 65.6989 9.47619 65.6989 15.4591V19.2071C65.6989 19.3198 65.6099 19.4117 65.4971 19.4155C54.2324 19.7736 45.4082 28.8877 45.4082 40.1639C45.4082 44.7872 48.3499 48.8905 52.7298 50.3741C52.8217 50.4054 52.8795 50.4954 52.87 50.592C52.8605 50.6887 52.7866 50.7654 52.691 50.7787C44.5423 51.8748 38.3964 58.9113 38.3964 67.1462C38.3964 73.9372 42.655 80.1352 48.9941 82.5691C49.0794 82.6023 49.1334 82.6866 49.1277 82.7785C49.1211 82.8695 49.0557 82.9462 48.9667 82.967C46.1614 83.6151 44.2021 86.0812 44.2021 88.9632C44.2021 99.3222 52.6303 107.75 62.9893 107.75H74.3005C78.0665 107.75 81.1314 104.686 81.1314 100.92V74.2774C81.1314 74.1627 81.2242 74.0689 81.3398 74.0689C81.4554 74.0689 81.5482 74.1618 81.5482 74.2774V100.92C81.5482 104.916 78.2967 108.167 74.3005 108.167H62.9893C52.4001 108.167 43.7853 99.5525 43.7853 88.9632C43.7853 86.0945 45.6034 83.6122 48.276 82.7283C45.358 81.4853 42.8625 79.4607 41.0302 76.843C39.0349 73.9922 37.9805 70.6393 37.9805 67.1471C37.9805 58.9691 43.8914 51.944 51.8553 50.4907C47.7189 48.7569 44.9923 44.7029 44.9923 40.1667C44.9923 34.6291 47.1154 29.3927 50.9714 25.4202C54.7715 21.5046 59.8468 19.2336 65.283 19.0091V15.462C65.283 9.24881 70.3375 4.19531 76.5497 4.19531C82.7619 4.19531 87.8163 9.24976 87.8163 15.462V107.96C87.8163 108.074 87.7234 108.168 87.6079 108.168L87.6088 108.165Z" fill="#343A40"/>
<path d="M59.3382 82.9676H48.9233C48.8077 82.9676 48.7148 82.8748 48.7148 82.7592C48.7148 82.6436 48.8077 82.5508 48.9233 82.5508H59.3382C59.4538 82.5508 59.5466 82.6436 59.5466 82.7592C59.5466 82.8748 59.4538 82.9676 59.3382 82.9676Z" fill="#343A40"/>
<path d="M72.5333 95.4862C72.4177 95.4862 72.3248 95.3934 72.3248 95.2778V70.5238L52.5201 50.719C52.4386 50.6376 52.4386 50.5059 52.5201 50.4244C52.6016 50.3429 52.7333 50.3429 52.8147 50.4244L72.6811 70.2907C72.7199 70.3295 72.7417 70.3826 72.7417 70.4385V95.2787C72.7417 95.3934 72.6488 95.4872 72.5333 95.4872V95.4862Z" fill="#343A40"/>
<path d="M77.4888 58.7912C77.4357 58.7912 77.3817 58.7713 77.341 58.7306L65.3458 46.7354C65.3069 46.6966 65.2852 46.6435 65.2852 46.5876V19.2045C65.2852 19.0899 65.378 18.9961 65.4936 18.9961C65.6092 18.9961 65.702 19.0889 65.702 19.2045V46.5014L77.6366 58.435C77.7181 58.5165 77.7181 58.6482 77.6366 58.7297C77.5958 58.7704 77.5428 58.7903 77.4888 58.7903V58.7912Z" fill="#343A40"/>
<path d="M76.7214 39.0282C76.6058 39.0282 76.513 38.9354 76.513 38.8198V19.413H65.4936C65.378 19.413 65.2852 19.3201 65.2852 19.2045C65.2852 19.0889 65.378 18.9961 65.4936 18.9961H76.7214C76.837 18.9961 76.9298 19.0889 76.9298 19.2045V38.8198C76.9298 38.9344 76.837 39.0282 76.7214 39.0282Z" fill="#343A40"/>
<path d="M76.7224 43.4018C78.3402 43.4018 79.6518 42.0902 79.6518 40.4724C79.6518 38.8545 78.3402 37.543 76.7224 37.543C75.1045 37.543 73.793 38.8545 73.793 40.4724C73.793 42.0902 75.1045 43.4018 76.7224 43.4018Z" fill="#343A40"/>
<path d="M82.0133 75.162C83.5879 74.7904 84.5631 73.2127 84.1914 71.6381C83.8198 70.0635 82.2421 69.0883 80.6675 69.4599C79.0929 69.8315 78.1177 71.4093 78.4893 72.9839C78.861 74.5585 80.4387 75.5337 82.0133 75.162Z" fill="#E2EAFF"/>
<path d="M64.4818 82.7614C64.4818 84.3796 63.1706 85.6908 61.5525 85.6908C59.9343 85.6908 58.623 84.3787 58.623 82.7614C58.623 81.1442 59.9352 79.832 61.5525 79.832C63.1697 79.832 64.4818 81.1442 64.4818 82.7614Z" fill="#343A40"/>
<path d="M74.6048 99.8956C75.7488 98.7516 75.7488 96.8968 74.6048 95.7528C73.4608 94.6088 71.606 94.6088 70.462 95.7528C69.318 96.8968 69.318 98.7516 70.462 99.8956C71.606 101.04 73.4608 101.04 74.6048 99.8956Z" fill="#343A40"/>
<path d="M68.3268 56.827C68.2738 56.827 68.2198 56.8071 68.179 56.7663L56.6017 45.189C56.5628 45.1501 56.541 45.0971 56.541 45.0412V32.4093C56.541 32.3543 56.5628 32.3013 56.6017 32.2615L62.6575 26.2056C62.739 26.1242 62.8707 26.1242 62.9522 26.2056C63.0336 26.2871 63.0336 26.4188 62.9522 26.5003L56.9579 32.4946V44.9531L68.4737 56.4689C68.5552 56.5503 68.5552 56.682 68.4737 56.7635C68.4329 56.8042 68.3799 56.8241 68.3259 56.8241L68.3268 56.827Z" fill="#343A40"/>
<path d="M58.6128 51.6181C58.5597 51.6181 58.5057 51.5982 58.465 51.5575L52.4669 45.5594C52.428 45.5206 52.4062 45.4675 52.4062 45.4116V36.4311C52.4062 36.3165 52.4991 36.2227 52.6147 36.2227C52.7303 36.2227 52.8231 36.3155 52.8231 36.4311V45.3254L58.7605 51.2628C58.842 51.3443 58.842 51.476 58.7605 51.5575C58.7198 51.5982 58.6668 51.6181 58.6128 51.6181Z" fill="#343A40"/>
<path d="M57.3313 80.3586H50.0315C49.9765 80.3586 49.9235 80.3368 49.8837 80.298L42.0372 72.4515C41.9984 72.4127 41.9766 72.3596 41.9766 72.3037V62.6117C41.9766 62.5567 41.9984 62.5037 42.0372 62.4639L47.2139 57.2872C47.2527 57.2484 47.3058 57.2266 47.3617 57.2266H51.5606C51.6146 57.2266 51.6667 57.2474 51.7056 57.2853C51.7444 57.3232 55.6657 61.1062 59.5151 64.8873C67.4061 72.6381 67.3312 72.802 67.2365 73.0086C67.1882 73.1128 67.065 73.1592 66.9599 73.1109C66.8935 73.0806 66.8509 73.019 66.8405 72.9517C66.4009 72.172 57.4649 63.4217 51.4763 57.6434H47.4469L42.3925 62.6979V72.2175L50.1167 79.9417H57.3303C57.4459 79.9417 57.5388 80.0346 57.5388 80.1502C57.5388 80.2658 57.4459 80.3586 57.3303 80.3586H57.3313Z" fill="#343A40"/>
<path d="M67.05 78.6138C66.9969 78.6138 66.9429 78.5939 66.9022 78.5532L51.3362 62.9872H47.3627C47.2471 62.9872 47.1543 62.8943 47.1543 62.7787C47.1543 62.6632 47.2471 62.5703 47.3627 62.5703H51.4224C51.4773 62.5703 51.5304 62.5921 51.5702 62.6309L67.1968 78.2576C67.2783 78.3391 67.2783 78.4707 67.1968 78.5522C67.1561 78.593 67.103 78.6129 67.049 78.6129L67.05 78.6138Z" fill="#343A40"/>
<path d="M82.7941 37.7521C82.6785 37.7521 82.5857 37.6592 82.5857 37.5437V17.2169L77.0708 11.702H69.9623C69.8467 11.702 69.7539 11.6092 69.7539 11.4936C69.7539 11.378 69.8467 11.2852 69.9623 11.2852H77.157C77.2119 11.2852 77.265 11.3069 77.3048 11.3458L82.9419 16.9829C82.9807 17.0217 83.0025 17.0748 83.0025 17.1307V37.5437C83.0025 37.6583 82.9097 37.7521 82.7941 37.7521Z" fill="#343A40"/>
<path d="M78.3593 52.006C78.3062 52.006 78.2522 51.9861 78.2115 51.9454L69.8145 43.5485C69.7757 43.5096 69.7539 43.4566 69.7539 43.4007V22.6694C69.7539 22.5547 69.8467 22.4609 69.9623 22.4609C70.0779 22.4609 70.1708 22.5538 70.1708 22.6694V43.3144L78.5061 51.6498C78.5876 51.7313 78.5876 51.863 78.5061 51.9444C78.4654 51.9852 78.4123 52.0051 78.3583 52.0051L78.3593 52.006Z" fill="#343A40"/>
<path d="M58.6227 77.4572C58.5697 77.4572 58.5157 77.4373 58.4749 77.3965L49.0084 67.93C48.9269 67.8485 48.9269 67.7168 49.0084 67.6353C49.0899 67.5538 49.2215 67.5538 49.303 67.6353L58.7696 77.1019C58.8511 77.1834 58.8511 77.3151 58.7696 77.3965C58.7288 77.4373 58.6758 77.4572 58.6218 77.4572H58.6227Z" fill="#343A40"/>
<path d="M121.812 108.164H110.501C106.505 108.164 103.253 104.913 103.253 100.917V74.2744C103.253 74.1598 103.346 74.066 103.462 74.066C103.577 74.066 103.67 74.1588 103.67 74.2744V100.917C103.67 104.683 106.734 107.747 110.501 107.747H121.812C132.171 107.747 140.599 99.3193 140.599 88.9603C140.599 86.0782 138.64 83.6121 135.835 82.9641C135.746 82.9432 135.681 82.8665 135.674 82.7756C135.667 82.6846 135.721 82.5993 135.807 82.5662C142.146 80.1323 146.405 73.9343 146.405 67.1432C146.405 58.9083 140.26 51.8719 132.112 50.7757C132.016 50.7625 131.941 50.6857 131.932 50.5891C131.922 50.4924 131.981 50.4024 132.072 50.3712C136.451 48.8875 139.393 44.7852 139.393 40.1609C139.393 28.8848 130.569 19.7707 119.304 19.4125C119.192 19.4088 119.103 19.3169 119.103 19.2041V15.4562C119.103 9.47323 114.235 4.60543 108.252 4.60543C102.269 4.60543 97.4012 9.47323 97.4012 15.4562V107.954C97.4012 108.069 97.3084 108.162 97.1928 108.162C97.0772 108.162 96.9844 108.07 96.9844 107.954V15.458C96.9844 9.24491 102.039 4.19141 108.251 4.19141C114.463 4.19141 119.518 9.24586 119.518 15.458V19.0052C124.953 19.2288 130.028 21.5006 133.829 25.4163C137.685 29.3888 139.808 34.6261 139.808 40.1628C139.808 44.7 137.082 48.7539 132.945 50.4868C140.909 51.941 146.82 58.9661 146.82 67.1432C146.82 70.6354 145.766 73.9883 143.77 76.8391C141.938 79.4568 139.443 81.4823 136.525 82.7244C139.197 83.6083 141.015 86.0905 141.015 88.9593C141.015 99.5486 132.401 108.163 121.811 108.163L121.812 108.164Z" fill="#343A40"/>
<path d="M135.883 82.9676H125.468C125.353 82.9676 125.26 82.8748 125.26 82.7592C125.26 82.6436 125.353 82.5508 125.468 82.5508H135.883C135.999 82.5508 136.092 82.6436 136.092 82.7592C136.092 82.8748 135.999 82.9676 135.883 82.9676Z" fill="#343A40"/>
<path d="M112.275 95.4871C112.159 95.4871 112.066 95.3943 112.066 95.2787V70.4385C112.066 70.3835 112.088 70.3305 112.127 70.2907L131.993 50.4244C132.075 50.3429 132.207 50.3429 132.288 50.4244C132.369 50.5059 132.369 50.6376 132.288 50.719L112.483 70.5238V95.2778C112.483 95.3924 112.39 95.4862 112.275 95.4862V95.4871Z" fill="#343A40"/>
<path d="M107.316 58.7912C107.263 58.7912 107.209 58.7713 107.169 58.7306C107.087 58.6491 107.087 58.5174 107.169 58.436L119.102 46.5023V19.2045C119.102 19.0899 119.195 18.9961 119.311 18.9961C119.426 18.9961 119.519 19.0889 119.519 19.2045V46.5876C119.519 46.6426 119.497 46.6956 119.458 46.7354L107.463 58.7306C107.422 58.7713 107.369 58.7912 107.315 58.7912H107.316Z" fill="#343A40"/>
<path d="M108.083 39.0282C107.968 39.0282 107.875 38.9354 107.875 38.8198V19.2045C107.875 19.0899 107.968 18.9961 108.083 18.9961H119.311C119.427 18.9961 119.52 19.0889 119.52 19.2045C119.52 19.3201 119.427 19.413 119.311 19.413H108.292V38.8198C108.292 38.9344 108.199 39.0282 108.083 39.0282Z" fill="#343A40"/>
<path d="M108.086 43.4018C109.704 43.4018 111.015 42.0902 111.015 40.4724C111.015 38.8545 109.704 37.543 108.086 37.543C106.468 37.543 105.156 38.8545 105.156 40.4724C105.156 42.0902 106.468 43.4018 108.086 43.4018Z" fill="#343A40"/>
<path d="M105.535 74.3761C106.679 73.2321 106.679 71.3773 105.535 70.2333C104.391 69.0893 102.536 69.0893 101.392 70.2333C100.248 71.3773 100.248 73.2321 101.392 74.3761C102.536 75.5201 104.391 75.5201 105.535 74.3761Z" fill="#E2EAFF"/>
<path d="M120.324 82.7614C120.324 84.3796 121.635 85.6908 123.254 85.6908C124.872 85.6908 126.183 84.3787 126.183 82.7614C126.183 81.1442 124.871 79.832 123.254 79.832C121.636 79.832 120.324 81.1442 120.324 82.7614Z" fill="#343A40"/>
<path d="M113.986 100.208C115.298 99.2624 115.595 97.4315 114.649 96.119C113.703 94.8065 111.873 94.5093 110.56 95.4552C109.248 96.4011 108.95 98.232 109.896 99.5445C110.842 100.857 112.673 101.154 113.986 100.208Z" fill="#343A40"/>
<path d="M116.476 56.8281C116.423 56.8281 116.369 56.8082 116.329 56.7674C116.247 56.6859 116.247 56.5542 116.329 56.4728L127.844 44.957V32.4985L121.85 26.5042C121.769 26.4227 121.769 26.291 121.85 26.2095C121.932 26.1281 122.063 26.1281 122.145 26.2095L128.201 32.2654C128.24 32.3043 128.261 32.3573 128.261 32.4132V45.0451C128.261 45.1 128.24 45.1531 128.201 45.1929L116.623 56.7703C116.583 56.811 116.53 56.8309 116.476 56.8309L116.476 56.8281Z" fill="#343A40"/>
<path d="M126.193 51.6181C126.14 51.6181 126.086 51.5982 126.045 51.5575C125.964 51.476 125.964 51.3443 126.045 51.2628L131.983 45.3254V36.4311C131.983 36.3165 132.076 36.2227 132.191 36.2227C132.307 36.2227 132.4 36.3155 132.4 36.4311V45.4116C132.4 45.4666 132.378 45.5196 132.339 45.5594L126.341 51.5575C126.3 51.5982 126.247 51.6181 126.193 51.6181Z" fill="#343A40"/>
<path d="M134.773 80.3586H127.473C127.357 80.3586 127.265 80.2658 127.265 80.1502C127.265 80.0346 127.357 79.9417 127.473 79.9417H134.687L142.411 72.2175V62.6979L137.356 57.6434H133.327C127.339 63.4217 118.403 72.172 117.963 72.9517C117.952 73.019 117.91 73.0796 117.844 73.1109C117.738 73.1592 117.615 73.1128 117.567 73.0086C117.472 72.802 117.396 72.6391 125.288 64.8873C129.138 61.1062 133.059 57.3232 133.098 57.2853C133.137 57.2474 133.189 57.2266 133.243 57.2266H137.442C137.497 57.2266 137.55 57.2484 137.59 57.2872L142.766 62.4639C142.805 62.5027 142.827 62.5558 142.827 62.6117V72.3037C142.827 72.3586 142.805 72.4117 142.766 72.4515L134.921 80.298C134.882 80.3368 134.829 80.3586 134.773 80.3586Z" fill="#343A40"/>
<path d="M117.756 78.6168C117.703 78.6168 117.649 78.5969 117.608 78.5561C117.527 78.4747 117.527 78.343 117.608 78.2615L133.235 62.6349C133.273 62.596 133.327 62.5742 133.382 62.5742H137.442C137.558 62.5742 137.651 62.6671 137.651 62.7827C137.651 62.8982 137.558 62.9911 137.442 62.9911H133.469L117.903 78.5571C117.862 78.5978 117.809 78.6177 117.755 78.6177L117.756 78.6168Z" fill="#343A40"/>
<path d="M102.009 37.7521C101.894 37.7521 101.801 37.6592 101.801 37.5437V17.1307C101.801 17.0757 101.823 17.0227 101.861 16.9829L107.499 11.3458C107.537 11.3069 107.59 11.2852 107.646 11.2852H114.841C114.957 11.2852 115.049 11.378 115.049 11.4936C115.049 11.6092 114.957 11.702 114.841 11.702H107.733L102.218 17.2169V37.5437C102.218 37.6583 102.125 37.7521 102.009 37.7521Z" fill="#343A40"/>
<path d="M106.445 52.0051C106.392 52.0051 106.338 51.9852 106.297 51.9444C106.216 51.863 106.216 51.7313 106.297 51.6498L114.633 43.3145V22.6694C114.633 22.5547 114.726 22.4609 114.841 22.4609C114.957 22.4609 115.05 22.5538 115.05 22.6694V43.4007C115.05 43.4556 115.028 43.5087 114.989 43.5485L106.592 51.9454C106.551 51.9861 106.498 52.006 106.444 52.006L106.445 52.0051Z" fill="#343A40"/>
<path d="M126.182 77.4572C126.128 77.4572 126.075 77.4373 126.034 77.3965C125.952 77.3151 125.952 77.1834 126.034 77.1019L135.5 67.6353C135.582 67.5538 135.713 67.5538 135.795 67.6353C135.876 67.7168 135.876 67.8485 135.795 67.93L126.328 77.3965C126.288 77.4373 126.235 77.4572 126.181 77.4572H126.182Z" fill="#343A40"/>
<path d="M127.517 103.769H112.275C112.159 103.769 112.066 103.676 112.066 103.561C112.066 103.445 112.159 103.352 112.275 103.352H127.431L134.186 96.5974V93.2815L128.102 87.1981H117.758C117.642 87.1981 117.549 87.1053 117.549 86.9897C117.549 86.8741 117.642 86.7812 117.758 86.7812H128.189C128.243 86.7812 128.297 86.803 128.336 86.8419L134.542 93.0474C134.581 93.0863 134.603 93.1393 134.603 93.1952V96.6836C134.603 96.7386 134.581 96.7916 134.542 96.8314L127.665 103.709C127.626 103.748 127.573 103.769 127.517 103.769Z" fill="#343A40"/>
<path d="M129.131 96.6658C129.078 96.6658 129.024 96.6459 128.983 96.6051L124.533 92.1551H115.142C115.026 92.1551 114.934 92.0623 114.934 91.9467C114.934 91.8311 115.026 91.7383 115.142 91.7383H124.619C124.674 91.7383 124.727 91.7601 124.767 91.7989L129.278 96.3096C129.36 96.391 129.36 96.5227 129.278 96.6042C129.238 96.6449 129.185 96.6648 129.131 96.6648V96.6658Z" fill="#343A40"/>
<path d="M125.466 98.1004H117.753C117.638 98.1004 117.545 98.0076 117.545 97.892C117.545 97.7764 117.638 97.6836 117.753 97.6836H125.466C125.582 97.6836 125.675 97.7764 125.675 97.892C125.675 98.0076 125.582 98.1004 125.466 98.1004Z" fill="#343A40"/>
<path d="M103.848 41.8594H81.259L69.9648 61.4225L81.259 80.9847H103.848L115.142 61.4225L103.848 41.8594Z" fill="#ADB5BD"/>
<path d="M93.5337 64.5951H85.2864L83.4144 69.6979H81.8047L88.6791 51.5312H90.1391L97.0135 69.6979H95.4162L93.5318 64.5951H93.5337ZM85.7611 63.2972H93.0476L89.4039 53.4024L85.7601 63.2972H85.7611Z" fill="white"/>
<path d="M101.558 69.6979H100.023V51.5312H101.558V69.6979Z" fill="white"/>
<path d="M166.625 47.5768C166.51 47.5768 166.417 47.4839 166.417 47.3683V11.702H113.583C113.468 11.702 113.375 11.6092 113.375 11.4936C113.375 11.378 113.468 11.2852 113.583 11.2852H166.625C166.741 11.2852 166.834 11.378 166.834 11.4936V47.3683C166.834 47.483 166.741 47.5768 166.625 47.5768Z" fill="#343A40"/>
</svg>
