<svg width="42" height="42" viewBox="0 0 42 42" fill="none" xmlns="http://www.w3.org/2000/svg">
<rect width="42" height="42" fill="#F8F9FA"/>
<path d="M30.625 11.375H11.375C10.9109 11.375 10.4658 11.5594 10.1376 11.8876C9.80937 12.2158 9.625 12.6609 9.625 13.125V28.875C9.625 29.3391 9.80937 29.7842 10.1376 30.1124C10.4658 30.4406 10.9109 30.625 11.375 30.625H30.625C31.0891 30.625 31.5342 30.4406 31.8624 30.1124C32.1906 29.7842 32.375 29.3391 32.375 28.875V13.125C32.375 12.6609 32.1906 12.2158 31.8624 11.8876C31.5342 11.5594 31.0891 11.375 30.625 11.375ZM16.625 28H13.125C12.8929 28 12.6704 27.9078 12.5063 27.7437C12.3422 27.5796 12.25 27.3571 12.25 27.125V23.625C12.25 23.3929 12.3422 23.1704 12.5063 23.0063C12.6704 22.8422 12.8929 22.75 13.125 22.75C13.3571 22.75 13.5796 22.8422 13.7437 23.0063C13.9078 23.1704 14 23.3929 14 23.625V26.25H16.625C16.8571 26.25 17.0796 26.3422 17.2437 26.5063C17.4078 26.6704 17.5 26.8929 17.5 27.125C17.5 27.3571 17.4078 27.5796 17.2437 27.7437C17.0796 27.9078 16.8571 28 16.625 28ZM29.75 18.375C29.75 18.6071 29.6578 18.8296 29.4937 18.9937C29.3296 19.1578 29.1071 19.25 28.875 19.25C28.6429 19.25 28.4204 19.1578 28.2563 18.9937C28.0922 18.8296 28 18.6071 28 18.375V15.75H25.375C25.1429 15.75 24.9204 15.6578 24.7563 15.4937C24.5922 15.3296 24.5 15.1071 24.5 14.875C24.5 14.6429 24.5922 14.4204 24.7563 14.2563C24.9204 14.0922 25.1429 14 25.375 14H28.875C29.1071 14 29.3296 14.0922 29.4937 14.2563C29.6578 14.4204 29.75 14.6429 29.75 14.875V18.375Z" fill="#343A40"/>
</svg>
