<svg width="164" height="133" viewBox="0 0 164 133" fill="none" xmlns="http://www.w3.org/2000/svg">
<path d="M144.014 0.441406H52.818C49.2596 0.441406 46.375 3.32606 46.375 6.88446V107.505C46.375 111.063 49.2596 113.948 52.818 113.948H144.014C147.573 113.948 150.458 111.063 150.458 107.505V6.88446C150.458 3.32606 147.573 0.441406 144.014 0.441406Z" fill="#D0FFEE"/>
<path d="M144.016 114.387H52.82C49.0234 114.387 45.9355 111.3 45.9355 107.503V6.88447C45.9355 3.08791 49.0234 0 52.82 0H144.016C147.813 0 150.901 3.08791 150.901 6.88447V107.503C150.901 111.3 147.813 114.387 144.016 114.387ZM52.82 0.880847C49.5104 0.880847 46.8184 3.57288 46.8184 6.88249V107.501C46.8184 110.811 49.5104 113.503 52.82 113.503H144.016C147.326 113.503 150.018 110.811 150.018 107.501V6.88447C150.018 3.57485 147.326 0.882827 144.016 0.882827H52.82V0.880847Z" fill="#6C757D"/>
<path d="M145.422 11.457H51.4998C51.2564 11.457 51.0584 11.2591 51.0584 11.0156C51.0584 10.7722 51.2564 10.5742 51.4998 10.5742H145.422C145.665 10.5742 145.863 10.7722 145.863 11.0156C145.863 11.2591 145.665 11.457 145.422 11.457Z" fill="#6C757D"/>
<path d="M53.1468 7.05175C54.0596 7.05175 54.7996 6.31175 54.7996 5.39892C54.7996 4.48609 54.0596 3.74609 53.1468 3.74609C52.2339 3.74609 51.494 4.48609 51.494 5.39892C51.494 6.31175 52.2339 7.05175 53.1468 7.05175Z" fill="#6C757D"/>
<path d="M59.7581 7.05175C60.6709 7.05175 61.4109 6.31175 61.4109 5.39892C61.4109 4.48609 60.6709 3.74609 59.7581 3.74609C58.8453 3.74609 58.1053 4.48609 58.1053 5.39892C58.1053 6.31175 58.8453 7.05175 59.7581 7.05175Z" fill="#6C757D"/>
<path d="M66.3655 7.05175C67.2784 7.05175 68.0184 6.31175 68.0184 5.39892C68.0184 4.48609 67.2784 3.74609 66.3655 3.74609C65.4527 3.74609 64.7127 4.48609 64.7127 5.39892C64.7127 6.31175 65.4527 7.05175 66.3655 7.05175Z" fill="#6C757D"/>
<path d="M145.422 5.83986H136.115C135.872 5.83986 135.674 5.64191 135.674 5.39844C135.674 5.15497 135.872 4.95703 136.115 4.95703H145.422C145.666 4.95703 145.864 5.15497 145.864 5.39844C145.864 5.64191 145.666 5.83986 145.422 5.83986Z" fill="#6C757D"/>
<path d="M131.926 5.83986H93.3768C93.1333 5.83986 92.9354 5.64191 92.9354 5.39844C92.9354 5.15497 93.1333 4.95703 93.3768 4.95703H131.926C132.17 4.95703 132.368 5.15497 132.368 5.39844C132.368 5.64191 132.17 5.83986 131.926 5.83986Z" fill="#6C757D"/>
<path d="M83.2456 5.83986H75.0408C74.7974 5.83986 74.5994 5.64191 74.5994 5.39844C74.5994 5.15497 74.7974 4.95703 75.0408 4.95703H83.2456C83.4891 4.95703 83.687 5.15497 83.687 5.39844C83.687 5.64191 83.4891 5.83986 83.2456 5.83986Z" fill="#6C757D"/>
<path d="M82.6235 54.2799C85.6263 49.0265 91.2142 45.3151 97.7067 44.6441L98.158 18.9609C79.5078 19.0243 63.0488 29.5311 55.5527 45.0617L82.6235 54.2819V54.2799Z" fill="#D0FFEE"/>
<path d="M82.6244 54.7194C82.5769 54.7194 82.5294 54.7115 82.4819 54.6957L55.4111 45.4755C55.2924 45.4339 55.1954 45.3449 55.1459 45.2281C55.0964 45.1113 55.1004 44.9806 55.1558 44.8658C62.8518 28.9195 79.7304 18.577 98.157 18.5156C98.2876 18.5216 98.3886 18.5631 98.4717 18.6463C98.5548 18.7314 98.6004 18.8442 98.5984 18.963L98.1471 44.6461C98.1431 44.8698 97.9729 45.0539 97.7512 45.0776C91.5199 45.7229 86.0072 49.2424 83.0044 54.4938C82.9233 54.6343 82.7768 54.7155 82.6224 54.7155L82.6244 54.7194ZM56.1712 44.8025L82.4264 53.7436C85.5421 48.5298 91.0449 45.0084 97.2742 44.2463L97.7096 19.4024C79.968 19.6261 63.7544 29.543 56.1693 44.8025H56.1712Z" fill="#6C757D"/>
<path d="M81.3501 26.379C81.1759 26.379 81.0116 26.2741 80.9404 26.1039C80.8493 25.8782 80.9582 25.6209 81.1838 25.5298C85.3941 23.8256 89.83 22.7626 94.3688 22.3687C94.6123 22.3489 94.8241 22.527 94.8459 22.7705C94.8677 23.014 94.6875 23.2258 94.4441 23.2476C89.9923 23.6335 85.6415 24.6747 81.5124 26.3473C81.459 26.3691 81.4016 26.379 81.3481 26.379H81.3501Z" fill="#6C757D"/>
<path d="M66.4917 36.2856C66.3809 36.2856 66.27 36.244 66.1829 36.1589C66.0087 35.9886 66.0068 35.7095 66.177 35.5353C69.354 32.2911 73.0417 29.5555 77.1351 27.4058C77.3509 27.293 77.6161 27.3761 77.731 27.5919C77.8438 27.8076 77.7606 28.0749 77.5449 28.1877C73.5326 30.2938 69.9201 32.974 66.8065 36.1529C66.7194 36.242 66.6065 36.2856 66.4917 36.2856Z" fill="#6C757D"/>
<path d="M118.603 65.6602C117.075 74.0985 109.387 80.7335 99.9687 81.0265C97.1599 81.1136 94.4778 80.6286 92.043 79.6805L77.3418 102.442C84.1748 105.526 91.8946 107.038 99.9687 106.573C123.451 105.225 141.911 87.5467 143.962 66.2678L118.603 65.6602Z" fill="#D0FFEE"/>
<path d="M97.152 107.096C90.22 107.096 83.3632 105.643 77.1617 102.844C77.0449 102.79 76.9558 102.689 76.9202 102.567C76.8845 102.444 76.9023 102.311 76.9736 102.202L91.6749 79.441C91.7877 79.2648 92.0094 79.1936 92.2054 79.2688C94.6618 80.2268 97.2687 80.6682 99.9568 80.5851C108.987 80.304 116.647 73.9936 118.172 65.581C118.211 65.3672 118.407 65.2168 118.615 65.2188L143.973 65.8265C144.096 65.8304 144.211 65.8839 144.292 65.9749C144.373 66.066 144.413 66.1887 144.401 66.3094C142.293 88.1802 123.203 105.68 99.9944 107.013C99.0463 107.068 98.0981 107.094 97.152 107.094V107.096ZM77.993 102.248C84.7924 105.225 92.3716 106.569 99.9449 106.134C122.556 104.835 141.184 87.9209 143.477 66.6974L118.967 66.1095C117.213 74.7438 109.294 81.177 99.9845 81.466C97.2984 81.5491 94.6895 81.1294 92.2212 80.2169L77.993 102.246V102.248Z" fill="#6C757D"/>
<path d="M97.1084 103.413C92.1538 103.413 87.3181 102.629 82.7357 101.081C82.5041 101.004 82.3814 100.752 82.4586 100.523C82.5358 100.291 82.7852 100.169 83.0168 100.246C87.5081 101.762 92.2489 102.53 97.1064 102.53C97.9793 102.53 98.8641 102.504 99.7331 102.455C99.9746 102.439 100.184 102.627 100.198 102.868C100.212 103.112 100.026 103.32 99.7826 103.334C98.8958 103.385 97.9932 103.411 97.1044 103.411L97.1084 103.413Z" fill="#6C757D"/>
<path d="M109.042 101.824C108.849 101.824 108.67 101.695 108.617 101.499C108.554 101.264 108.692 101.022 108.926 100.959C124.351 96.7528 136.264 84.508 139.274 69.7632C139.324 69.5237 139.555 69.3713 139.795 69.4188C140.032 69.4683 140.187 69.6999 140.139 69.9394C137.061 85.0069 124.902 97.5169 109.159 101.81C109.12 101.82 109.082 101.826 109.042 101.826V101.824Z" fill="#6C757D"/>
<path d="M72.7433 100.046L87.5791 77.2175C83.1412 73.9317 80.2889 68.8188 80.2889 63.0191C80.2889 61.6176 80.4571 60.2518 80.7738 58.9375L53.6002 49.8281C52.1413 54.1057 51.3535 58.6584 51.3535 63.3754C51.3535 78.9911 59.9225 92.4354 72.7452 100.046H72.7433Z" fill="#D0FFEE"/>
<path d="M72.7413 100.487C72.6641 100.487 72.5869 100.467 72.5176 100.426C58.9882 92.3952 50.9102 78.5451 50.9102 63.3747C50.9102 58.7092 51.6742 54.103 53.1806 49.6849C53.2578 49.4553 53.5072 49.3326 53.7387 49.4098L80.9124 58.5191C81.1301 58.5924 81.2548 58.818 81.2014 59.0397C80.8886 60.3422 80.7283 61.6803 80.7283 63.0184C80.7283 68.4698 83.3194 73.5153 87.8404 76.8625C88.0285 77.0011 88.074 77.2624 87.9473 77.4564L73.1115 100.285C73.0263 100.414 72.8858 100.485 72.7413 100.485V100.487ZM53.8753 50.3857C52.4917 54.584 51.791 58.9526 51.791 63.3747C51.791 78.0938 59.5623 91.548 72.6028 99.4499L86.9833 77.3218C82.4425 73.8083 79.8455 68.6202 79.8455 63.0204C79.8455 61.7476 79.9821 60.4748 80.2513 59.2298L53.8734 50.3876L53.8753 50.3857Z" fill="#6C757D"/>
<path d="M106.135 43.6745C114.712 44.9512 121.305 51.5962 122.089 59.8109L163.556 61.0124C163.556 60.9946 163.556 60.9767 163.556 60.9589C163.556 30.539 139.318 4.50352 106.877 1.15234L106.135 43.6725V43.6745Z" fill="#D0FFEE"/>
<path d="M163.552 61.4538C163.552 61.4538 163.546 61.4538 163.544 61.4538L122.077 60.2523C121.855 60.2464 121.671 60.0742 121.652 59.8544C120.888 51.8377 114.48 45.363 106.071 44.112C105.852 44.0803 105.691 43.8903 105.695 43.6686L106.438 1.14843C106.44 1.02571 106.493 0.90892 106.586 0.825784C106.679 0.744627 106.8 0.705038 106.925 0.716915C122.665 2.34203 137.149 9.40662 147.705 20.6043C158.212 31.7505 164 46.0835 164 60.961C164 61.0797 163.952 61.2203 163.865 61.3034C163.782 61.3846 163.669 61.4538 163.552 61.4538ZM122.487 59.3814L163.115 60.5591C162.905 30.3569 139.019 5.14491 107.309 1.64329L106.58 43.2985C115.068 44.7237 121.531 51.2598 122.485 59.3814H122.487Z" fill="#6C757D"/>
<path d="M59.6412 50H5.36906C2.69397 50 0.525391 52.1686 0.525391 54.8437V126.956C0.525391 129.631 2.69397 131.8 5.36906 131.8H59.6412C62.3162 131.8 64.4848 129.631 64.4848 126.956V54.8437C64.4848 52.1686 62.3162 50 59.6412 50Z" fill="#D0FFEE"/>
<path d="M59.6412 132.247H5.36709C2.45337 132.247 0.0839844 129.878 0.0839844 126.964V54.8495C0.0839844 51.9358 2.45337 49.5664 5.36709 49.5664H59.6412C62.5549 49.5664 64.9243 51.9358 64.9243 54.8495V126.964C64.9243 129.878 62.5549 132.247 59.6412 132.247ZM5.36511 50.4473C2.93832 50.4473 0.962853 52.4227 0.962853 54.8495V126.964C0.962853 129.391 2.93832 131.366 5.36511 131.366H59.6392C62.066 131.366 64.0414 129.391 64.0414 126.964V54.8495C64.0414 52.4227 62.066 50.4473 59.6392 50.4473H5.36511Z" fill="#6C757D"/>
<path d="M22.0621 73.375H8.12891V119.161H22.0621V73.375Z" fill="#D0FFEE"/>
<path d="M22.0583 119.61H8.12503C7.88156 119.61 7.68359 119.413 7.68359 119.169V73.3828C7.68359 73.1393 7.88156 72.9414 8.12503 72.9414H22.0583C22.3017 72.9414 22.4997 73.1393 22.4997 73.3828V119.169C22.4997 119.413 22.3017 119.61 22.0583 119.61ZM8.56644 118.728H21.6168V73.8242H8.56644V118.728Z" fill="#6C757D"/>
<path d="M39.4703 60.7461H25.5371V119.167H39.4703V60.7461Z" fill="#D0FFEE"/>
<path d="M39.4703 119.608H25.5371C25.2936 119.608 25.0957 119.411 25.0957 119.167V60.7461C25.0957 60.5026 25.2936 60.3047 25.5371 60.3047H39.4703C39.7138 60.3047 39.9118 60.5026 39.9118 60.7461V119.167C39.9118 119.411 39.7138 119.608 39.4703 119.608ZM25.9785 118.726H39.0289V61.1875H25.9785V118.726Z" fill="#6C757D"/>
<path d="M56.8805 91.8711H42.9473V119.167H56.8805V91.8711Z" fill="#D0FFEE"/>
<path d="M56.8805 119.609H42.9473C42.7038 119.609 42.5059 119.411 42.5059 119.167V91.8711C42.5059 91.6276 42.7038 91.4297 42.9473 91.4297H56.8805C57.124 91.4297 57.3219 91.6276 57.3219 91.8711V119.167C57.3219 119.411 57.124 119.609 56.8805 119.609ZM43.3887 118.726H56.4391V92.3105H43.3887V118.726Z" fill="#6C757D"/>
</svg>
