<svg width="42" height="42" viewBox="0 0 42 42" fill="none" xmlns="http://www.w3.org/2000/svg">
<rect width="42" height="42" fill="white"/>
<path d="M32.2 30.9738C32.2978 31.1038 32.3575 31.2585 32.3722 31.4205C32.387 31.5825 32.3563 31.7454 32.2836 31.891C32.2109 32.0365 32.099 32.1589 31.9606 32.2444C31.8222 32.3298 31.6627 32.375 31.5 32.3749H10.5C10.3375 32.3749 10.1782 32.3296 10.04 32.2442C9.90176 32.1588 9.79005 32.0365 9.71738 31.8912C9.64471 31.7459 9.61394 31.5831 9.62854 31.4213C9.64313 31.2595 9.7025 31.1049 9.8 30.9749C10.5748 29.9361 11.608 29.1182 12.7969 28.6025C12.1452 28.0078 11.6886 27.2298 11.4869 26.3709C11.2853 25.5119 11.3481 24.6121 11.6671 23.7895C11.986 22.9668 12.5463 22.2599 13.2742 21.7614C14.0022 21.2629 14.8639 20.9961 15.7462 20.9961C16.6285 20.9961 17.4902 21.2629 18.2181 21.7614C18.9461 22.2599 19.5063 22.9668 19.8253 23.7895C20.1442 24.6121 20.207 25.5119 20.0054 26.3709C19.8038 27.2298 19.3471 28.0078 18.6955 28.6025C19.5532 28.9733 20.3327 29.5037 20.9923 30.1655C21.652 29.5037 22.4315 28.9733 23.2892 28.6025C22.6375 28.0078 22.1809 27.2298 21.9793 26.3709C21.7777 25.5119 21.8404 24.6121 22.1594 23.7895C22.4784 22.9668 23.0386 22.2599 23.7666 21.7614C24.4945 21.2629 25.3562 20.9961 26.2385 20.9961C27.1208 20.9961 27.9825 21.2629 28.7105 21.7614C29.4384 22.2599 29.9987 22.9668 30.3176 23.7895C30.6366 24.6121 30.6994 25.5119 30.4977 26.3709C30.2961 27.2298 29.8395 28.0078 29.1878 28.6025C30.3822 29.1155 31.4209 29.9332 32.2 30.9738ZM9.975 20.8249C10.0669 20.8938 10.1715 20.944 10.2828 20.9725C10.3942 21.001 10.51 21.0073 10.6237 20.9911C10.7375 20.9748 10.8469 20.9363 10.9458 20.8778C11.0447 20.8193 11.1311 20.7418 11.2 20.6499C11.7298 19.9435 12.4167 19.3702 13.2065 18.9753C13.9962 18.5805 14.867 18.3749 15.75 18.3749C16.633 18.3749 17.5038 18.5805 18.2935 18.9753C19.0833 19.3702 19.7702 19.9435 20.3 20.6499C20.3815 20.7586 20.4872 20.8468 20.6087 20.9075C20.7302 20.9683 20.8642 20.9999 21 20.9999C21.1358 20.9999 21.2698 20.9683 21.3913 20.9075C21.5128 20.8468 21.6185 20.7586 21.7 20.6499C22.2298 19.9435 22.9167 19.3702 23.7065 18.9753C24.4962 18.5805 25.367 18.3749 26.25 18.3749C27.133 18.3749 28.0038 18.5805 28.7935 18.9753C29.5833 19.3702 30.2702 19.9435 30.8 20.6499C30.869 20.7418 30.9555 20.8192 31.0544 20.8778C31.1533 20.9363 31.2628 20.9747 31.3766 20.9909C31.4904 21.0071 31.6063 21.0008 31.7177 20.9722C31.829 20.9436 31.9336 20.8934 32.0255 20.8243C32.1175 20.7553 32.1949 20.6689 32.2534 20.5699C32.3119 20.471 32.3504 20.3615 32.3666 20.2477C32.3828 20.1339 32.3764 20.018 32.3478 19.9067C32.3193 19.7953 32.269 19.6907 32.2 19.5988C31.4252 18.5603 30.392 17.7428 29.2031 17.2275C29.8548 16.6328 30.3114 15.8548 30.5131 14.9959C30.7147 14.1369 30.6519 13.2371 30.3329 12.4145C30.014 11.5919 29.4537 10.8849 28.7258 10.3864C27.9978 9.88786 27.1361 9.62109 26.2538 9.62109C25.3715 9.62109 24.5098 9.88786 23.7819 10.3864C23.0539 10.8849 22.4937 11.5919 22.1747 12.4145C21.8558 13.2371 21.793 14.1369 21.9946 14.9959C22.1962 15.8548 22.6529 16.6328 23.3045 17.2275C22.4468 17.5983 21.6673 18.1287 21.0077 18.7905C20.348 18.1287 19.5685 17.5983 18.7108 17.2275C19.3625 16.6328 19.8191 15.8548 20.0207 14.9959C20.2223 14.1369 20.1596 13.2371 19.8406 12.4145C19.5216 11.5919 18.9614 10.8849 18.2334 10.3864C17.5055 9.88786 16.6438 9.62109 15.7615 9.62109C14.8792 9.62109 14.0175 9.88786 13.2895 10.3864C12.5616 10.8849 12.0013 11.5919 11.6824 12.4145C11.3634 13.2371 11.3006 14.1369 11.5023 14.9959C11.7039 15.8548 12.1605 16.6328 12.8122 17.2275C11.6177 17.7409 10.579 18.559 9.8 19.5999C9.73106 19.6918 9.68089 19.7964 9.65238 19.9077C9.62386 20.019 9.61754 20.1349 9.63379 20.2486C9.65004 20.3624 9.68854 20.4718 9.74709 20.5707C9.80563 20.6696 9.88308 20.7559 9.975 20.8249Z" fill="#00CC83"/>
</svg>
