<svg width="198" height="134" viewBox="0 0 198 134" fill="none" xmlns="http://www.w3.org/2000/svg">
<path d="M197.632 0.367188H0.367188V133.31H197.632V0.367188Z" fill="white"/>
<path d="M197.632 133.677H0.367628C0.164684 133.677 0 133.512 0 133.309V0.367628C0 0.164684 0.164684 0 0.367628 0H197.632C197.835 0 198 0.164684 198 0.367628V133.311C198 133.514 197.835 133.678 197.632 133.678V133.677ZM0.735255 132.943H197.266V0.733592H0.735255V132.943Z" fill="#343A40"/>
<path d="M197.266 0.730469H0.726562V19.7583H197.266V0.730469Z" fill="#E6E6E6"/>
<path d="M187.374 14.2751C189.736 14.2751 191.651 12.3588 191.651 9.99496C191.651 7.63112 189.736 5.71484 187.374 5.71484C185.012 5.71484 183.098 7.63112 183.098 9.99496C183.098 12.3588 185.012 14.2751 187.374 14.2751Z" fill="#F8F9FA"/>
<path d="M173.306 14.2751C175.668 14.2751 177.583 12.3588 177.583 9.99496C177.583 7.63112 175.668 5.71484 173.306 5.71484C170.944 5.71484 169.029 7.63112 169.029 9.99496C169.029 12.3588 170.944 14.2751 173.306 14.2751Z" fill="#F8F9FA"/>
<path d="M159.242 14.2751C161.604 14.2751 163.518 12.3588 163.518 9.99496C163.518 7.63112 161.604 5.71484 159.242 5.71484C156.88 5.71484 154.965 7.63112 154.965 9.99496C154.965 12.3588 156.88 14.2751 159.242 14.2751Z" fill="#F8F9FA"/>
<path d="M109.607 117.765C109.489 117.765 109.373 117.708 109.303 117.603C109.19 117.435 109.234 117.207 109.402 117.094L120.596 109.559C120.756 109.452 120.97 109.486 121.09 109.637L125.724 115.531L137.55 105.766C137.693 105.648 137.903 105.655 138.038 105.784L145.738 113.177L151.063 108.151C151.197 108.025 151.402 108.017 151.545 108.133L155.897 111.646L162.381 103.828C162.444 103.752 162.537 103.703 162.637 103.697C162.742 103.692 162.835 103.723 162.91 103.79L166.541 107.067L171.463 101.408C171.596 101.255 171.828 101.238 171.981 101.371C172.134 101.504 172.15 101.735 172.017 101.889L166.851 107.83C166.786 107.905 166.694 107.95 166.596 107.955C166.496 107.962 166.401 107.927 166.328 107.862L162.704 104.59L156.233 112.393C156.105 112.548 155.877 112.571 155.72 112.445L151.335 108.905L145.989 113.95C145.846 114.085 145.625 114.083 145.483 113.949L137.766 106.541L125.902 116.337C125.826 116.401 125.726 116.431 125.63 116.419C125.532 116.409 125.442 116.359 125.38 116.281L120.724 110.361L109.813 117.706C109.75 117.748 109.679 117.77 109.609 117.77L109.607 117.765Z" fill="#343A40"/>
<path d="M118.939 116.211C118.85 116.211 118.762 116.18 118.692 116.116L109.362 107.722C109.211 107.588 109.199 107.355 109.335 107.205C109.47 107.055 109.703 107.042 109.853 107.179L118.954 115.366L131.137 105.761C131.288 105.641 131.508 105.66 131.638 105.805L136.264 110.98L152.042 97.3291C152.117 97.2642 152.216 97.2326 152.313 97.2409C152.411 97.2493 152.502 97.2975 152.566 97.374L156.874 102.666L171.489 89.0749C171.637 88.9369 171.869 88.9452 172.008 89.0932C172.146 89.2413 172.138 89.4742 171.99 89.6122L157.089 103.469C157.014 103.539 156.916 103.572 156.814 103.565C156.713 103.559 156.62 103.511 156.555 103.431L152.236 98.1276L136.472 111.766C136.32 111.898 136.092 111.883 135.958 111.733L131.32 106.546L119.165 116.13C119.098 116.183 119.018 116.208 118.937 116.208L118.939 116.211Z" fill="#343A40"/>
<path d="M142.754 123.122H109.608C109.405 123.122 109.24 122.957 109.24 122.754V98.3325C109.24 98.1295 109.405 97.9648 109.608 97.9648C109.811 97.9648 109.975 98.1295 109.975 98.3325V122.386H142.756C142.959 122.386 143.124 122.551 143.124 122.754C143.124 122.957 142.959 123.122 142.756 123.122H142.754Z" fill="#343A40"/>
<path d="M171.623 106.84H171.621C171.419 106.84 171.256 106.674 171.257 106.471L171.37 89.7079H135.817C135.614 89.7079 135.449 89.5432 135.449 89.3403C135.449 89.1373 135.614 88.9727 135.817 88.9727H171.74C171.838 88.9727 171.931 89.0109 172.001 89.0808C172.069 89.1507 172.107 89.2438 172.107 89.3419L171.991 106.474C171.991 106.675 171.826 106.838 171.623 106.838V106.84Z" fill="#343A40"/>
<path d="M129.248 34.4609C115.829 34.4609 104.951 45.3467 104.951 58.7759C104.951 72.2052 115.829 83.0909 129.248 83.0909C142.667 83.0909 153.545 72.2052 153.545 58.7759H129.248V34.4609Z" fill="#B9BEC6"/>
<path d="M134.668 29.0352V53.3502H158.965C158.965 39.9209 148.086 29.0352 134.668 29.0352Z" fill="#343A40"/>
<path d="M187.084 36.661H164.706C164.503 36.661 164.338 36.4964 164.338 36.2934C164.338 36.0905 164.503 35.9258 164.706 35.9258H187.084C187.287 35.9258 187.452 36.0905 187.452 36.2934C187.452 36.4964 187.287 36.661 187.084 36.661Z" fill="#343A40"/>
<path d="M187.084 42.4618H164.706C164.503 42.4618 164.338 42.2971 164.338 42.0942C164.338 41.8912 164.503 41.7266 164.706 41.7266H187.084C187.287 41.7266 187.452 41.8912 187.452 42.0942C187.452 42.2971 187.287 42.4618 187.084 42.4618Z" fill="#343A40"/>
<path d="M187.084 47.8524H164.706C164.503 47.8524 164.338 47.6878 164.338 47.4848C164.338 47.2819 164.503 47.1172 164.706 47.1172H187.084C187.287 47.1172 187.452 47.2819 187.452 47.4848C187.452 47.6878 187.287 47.8524 187.084 47.8524Z" fill="#343A40"/>
<path d="M187.084 61.5243H164.706C164.503 61.5243 164.338 61.3596 164.338 61.1567C164.338 60.9537 164.503 60.7891 164.706 60.7891H187.084C187.287 60.7891 187.452 60.9537 187.452 61.1567C187.452 61.3596 187.287 61.5243 187.084 61.5243Z" fill="#343A40"/>
<path d="M187.084 67.3251H164.706C164.503 67.3251 164.338 67.1604 164.338 66.9575C164.338 66.7545 164.503 66.5898 164.706 66.5898H187.084C187.287 66.5898 187.452 66.7545 187.452 66.9575C187.452 67.1604 187.287 67.3251 187.084 67.3251Z" fill="#343A40"/>
<path d="M187.084 72.7118H164.706C164.503 72.7118 164.338 72.5471 164.338 72.3442C164.338 72.1412 164.503 71.9766 164.706 71.9766H187.084C187.287 71.9766 187.452 72.1412 187.452 72.3442C187.452 72.5471 187.287 72.7118 187.084 72.7118Z" fill="#343A40"/>
<path d="M31.2017 64.1367H37.6211L37.6211 29.8059H31.2017L31.2017 64.1367Z" fill="#B9BEC6"/>
<path d="M41.5904 64.1367H48.0098V36.9489H41.5904V64.1367Z" fill="#B9BEC6"/>
<path d="M51.9755 64.1367H58.3965L58.3965 32.2878H51.9755V64.1367Z" fill="#B9BEC6"/>
<path d="M62.3678 64.1367H68.7871V39.855H62.3678V64.1367Z" fill="#B9BEC6"/>
<path d="M72.7564 64.1367H79.1758V49.4333H72.7564V64.1367Z" fill="#B9BEC6"/>
<path d="M30.255 73.2548H11.5376C11.3346 73.2548 11.1699 73.0901 11.1699 72.8872C11.1699 72.6842 11.3346 72.5195 11.5376 72.5195H30.255C30.4579 72.5195 30.6226 72.6842 30.6226 72.8872C30.6226 73.0901 30.4579 73.2548 30.255 73.2548Z" fill="#343A40"/>
<path d="M30.255 78.1103H11.5376C11.3346 78.1103 11.1699 77.9456 11.1699 77.7426C11.1699 77.5397 11.3346 77.375 11.5376 77.375H30.255C30.4579 77.375 30.6226 77.5397 30.6226 77.7426C30.6226 77.9456 30.4579 78.1103 30.255 78.1103Z" fill="#343A40"/>
<path d="M30.255 82.6142H11.5376C11.3346 82.6142 11.1699 82.4495 11.1699 82.2465C11.1699 82.0436 11.3346 81.8789 11.5376 81.8789H30.255C30.4579 81.8789 30.6226 82.0436 30.6226 82.2465C30.6226 82.4495 30.4579 82.6142 30.255 82.6142Z" fill="#343A40"/>
</svg>
