<svg width="42" height="42" viewBox="0 0 42 42" fill="none" xmlns="http://www.w3.org/2000/svg">
<rect width="42" height="42" fill="#F8F9FA"/>
<path d="M20.125 14.8751C20.125 14.702 20.1763 14.5329 20.2725 14.389C20.3686 14.2451 20.5053 14.1329 20.6652 14.0667C20.825 14.0005 21.001 13.9832 21.1707 14.0169C21.3404 14.0507 21.4963 14.134 21.6187 14.2564C21.7411 14.3788 21.8244 14.5347 21.8582 14.7044C21.8919 14.8741 21.8746 15.0501 21.8084 15.21C21.7422 15.3698 21.63 15.5065 21.4861 15.6026C21.3422 15.6988 21.1731 15.7501 21 15.7501C20.7679 15.7501 20.5454 15.6579 20.3813 15.4938C20.2172 15.3297 20.125 15.1072 20.125 14.8751ZM22.75 21.8751C22.75 22.0482 22.8013 22.2173 22.8975 22.3612C22.9936 22.5051 23.1303 22.6173 23.2902 22.6835C23.45 22.7497 23.626 22.7671 23.7957 22.7333C23.9654 22.6995 24.1213 22.6162 24.2437 22.4938C24.3661 22.3715 24.4494 22.2155 24.4832 22.0458C24.5169 21.8761 24.4996 21.7001 24.4334 21.5403C24.3672 21.3804 24.255 21.2437 24.1111 21.1476C23.9672 21.0514 23.7981 21.0001 23.625 21.0001C23.3929 21.0001 23.1704 21.0923 23.0063 21.2564C22.8422 21.4205 22.75 21.643 22.75 21.8751ZM28.0547 25.7546C29.1619 24.8248 30.0462 23.6583 30.6425 22.3412C31.2388 21.024 31.5319 19.5898 31.5 18.1443C31.5 18.0641 31.4967 17.9843 31.4902 17.9048C31.4832 17.7936 31.434 17.6892 31.3527 17.613C31.2714 17.5367 31.1641 17.4944 31.0527 17.4946H28.4102L25.8803 20.5298C26.1963 21.0623 26.3139 21.6895 26.2122 22.3003C26.1105 22.9112 25.7961 23.4664 25.3247 23.8679C24.8532 24.2693 24.255 24.4912 23.6357 24.4943C23.0165 24.4973 22.4161 24.2813 21.9407 23.8845C21.4653 23.4877 21.1455 22.9356 21.0378 22.3258C20.9301 21.716 21.0415 21.0877 21.3522 20.5521C21.6629 20.0164 22.153 19.6079 22.7359 19.3987C23.3187 19.1894 23.9567 19.193 24.5372 19.4087L27.3273 16.0596C27.41 15.962 27.5131 15.8837 27.6293 15.8302C27.7455 15.7767 27.8721 15.7494 28 15.7501H30.5309C30.6011 15.7502 30.6703 15.7334 30.7327 15.7011C30.795 15.6688 30.8486 15.622 30.8891 15.5646C30.9295 15.5072 30.9555 15.441 30.965 15.3714C30.9744 15.3018 30.967 15.231 30.9433 15.1649C29.6702 11.5939 26.3441 8.96885 22.3934 8.75885H22.3289C22.2701 8.75665 22.2114 8.76633 22.1564 8.78733C22.1015 8.80832 22.0513 8.8402 22.0089 8.88105C21.9665 8.92189 21.9328 8.97087 21.9098 9.02505C21.8868 9.07923 21.875 9.13749 21.875 9.19635V12.3956C22.4588 12.602 22.9509 13.0081 23.2642 13.5422C23.5775 14.0764 23.6919 14.704 23.5872 15.3143C23.4825 15.9246 23.1654 16.4783 22.692 16.8774C22.2185 17.2765 21.6192 17.4954 21 17.4954C20.3808 17.4954 19.7815 17.2765 19.308 16.8774C18.8346 16.4783 18.5175 15.9246 18.4128 15.3143C18.3081 14.704 18.4225 14.0764 18.7358 13.5422C19.0491 13.0081 19.5412 12.602 20.125 12.3956V9.44245C20.1252 9.37663 20.1105 9.31162 20.082 9.25226C20.0536 9.1929 20.0121 9.14073 19.9607 9.09962C19.9093 9.05852 19.8493 9.02954 19.7851 9.01486C19.721 9.00017 19.6543 9.00015 19.5902 9.01479C17.5322 9.52021 15.698 10.6895 14.3712 12.3419C13.0444 13.9943 12.2989 16.0378 12.25 18.1564L9.79453 22.8748L9.77047 22.924C9.5915 23.3348 9.57692 23.7986 9.72974 24.2198C9.88256 24.641 10.1911 24.9876 10.5919 25.1881L10.6192 25.2012L13.125 26.3485V29.7392C13.125 30.2033 13.3094 30.6484 13.6376 30.9766C13.9658 31.3048 14.4109 31.4892 14.875 31.4892H19.25V32.3642C19.25 32.5962 19.3422 32.8188 19.5063 32.9829C19.6704 33.147 19.8929 33.2392 20.125 33.2392H27.9748C28.1297 33.2406 28.2824 33.203 28.4189 33.1298C28.5729 33.0458 28.6981 32.9175 28.7783 32.7614C28.8584 32.6054 28.8898 32.4289 28.8684 32.2548L28.0547 25.7546Z" fill="#343A40"/>
</svg>
