<svg width="42" height="42" viewBox="0 0 42 42" fill="none" xmlns="http://www.w3.org/2000/svg">
<rect width="42" height="42" fill="white"/>
<path d="M21 9.625C18.7502 9.625 16.551 10.2921 14.6804 11.542C12.8098 12.7919 11.3518 14.5685 10.4909 16.647C9.62993 18.7255 9.40467 21.0126 9.84357 23.2192C10.2825 25.4257 11.3658 27.4525 12.9567 29.0433C14.5475 30.6342 16.5743 31.7175 18.7809 32.1564C20.9874 32.5953 23.2745 32.3701 25.353 31.5091C27.4315 30.6482 29.2081 29.1902 30.458 27.3196C31.7079 25.449 32.375 23.2498 32.375 21C32.3715 17.9842 31.172 15.093 29.0395 12.9605C26.907 10.828 24.0158 9.62847 21 9.625ZM29.5706 16.625H25.6714C25.1804 14.8235 24.3528 13.1312 23.2323 11.6375C24.5861 11.9627 25.8535 12.5768 26.9477 13.4377C28.0419 14.2985 28.9371 15.3858 29.5717 16.625H29.5706ZM30.625 21C30.6258 21.8876 30.5032 22.7711 30.2608 23.625H26.0488C26.3171 21.8853 26.3171 20.1147 26.0488 18.375H30.2608C30.5032 19.2289 30.6258 20.1124 30.625 21ZM21 11.7031C22.3102 13.1059 23.2829 14.7893 23.8438 16.625H18.1563C18.7166 14.789 19.6893 13.1055 21 11.7031ZM18.1563 25.375H23.8438C23.2834 27.211 22.3107 28.8945 21 30.2969C19.6898 28.8941 18.7171 27.2107 18.1563 25.375ZM17.7297 23.625C17.4293 21.8879 17.4293 20.1121 17.7297 18.375H24.2791C24.5795 20.1121 24.5795 21.8879 24.2791 23.625H17.7297ZM23.2367 30.3625C24.3572 28.8688 25.1847 27.1765 25.6758 25.375H29.5761C28.941 26.6147 28.0452 27.7023 26.9502 28.5631C25.8552 29.424 24.5869 30.0379 23.2323 30.3625H23.2367Z" fill="#6610F2"/>
</svg>
