<svg width="54" height="42" viewBox="0 0 54 42" fill="none" xmlns="http://www.w3.org/2000/svg">
<path d="M48.7139 16.4895C49.0114 17.6227 50.173 18.3027 51.3204 17.991C52.4536 17.6936 53.1335 16.532 52.8219 15.3846C52.5244 14.2514 51.3629 13.5714 50.2154 13.8831C49.0964 14.1947 48.4164 15.3563 48.7139 16.4895Z" fill="#343A40"/>
<path d="M45.8388 18.7564C46.6037 18.5439 47.0712 17.7506 46.8587 16.9857C46.6462 16.2208 45.8529 15.7533 45.088 15.9658C44.3231 16.1783 43.8556 16.9715 44.0681 17.7365C44.2664 18.5014 45.0597 18.9547 45.8388 18.7564Z" fill="#343A40"/>
<path d="M41.5897 19.4915C42.1563 19.3357 42.4963 18.7549 42.3405 18.1883C42.1847 17.6217 41.6039 17.2817 41.0373 17.4375C40.4707 17.5933 40.1307 18.1741 40.2865 18.7407C40.4423 19.3073 41.0231 19.6473 41.5897 19.4915Z" fill="#343A40"/>
<path d="M38.288 19.9866C38.6421 19.8874 38.8546 19.5191 38.7696 19.165C38.6846 18.8109 38.3021 18.5984 37.948 18.6834C37.5939 18.7825 37.3814 19.1508 37.4664 19.505C37.5514 19.8591 37.9197 20.0716 38.288 19.9866Z" fill="#343A40"/>
<path d="M47.1416 12.182C47.6799 13.1028 48.8557 13.4286 49.7764 12.8903C50.6972 12.352 51.023 11.1763 50.4847 10.2555C49.9464 9.33479 48.7707 9.00899 47.8499 9.54727C46.9292 10.0856 46.6033 11.2613 47.1416 12.182Z" fill="#343A40"/>
<path d="M42.8779 14.6329C43.2462 15.2845 44.0678 15.497 44.7194 15.1287C45.371 14.7604 45.5835 13.9388 45.2152 13.2872C44.8469 12.6356 44.0253 12.4231 43.3737 12.7914C42.7362 13.1597 42.5096 13.9813 42.8779 14.6329Z" fill="#343A40"/>
<path d="M39.8462 15.2704C39.3787 15.5395 39.2229 16.1203 39.492 16.5878C39.7612 17.0552 40.342 17.211 40.8094 16.9419C41.2769 16.6728 41.4327 16.092 41.1636 15.6245C40.9086 15.1712 40.3136 15.0154 39.8462 15.2704Z" fill="#343A40"/>
<path d="M37.1408 17.2265C36.8433 17.3965 36.73 17.779 36.9 18.0764C37.0699 18.3739 37.4524 18.4872 37.7499 18.3172C38.0474 18.1473 38.1607 17.7648 37.9907 17.4673C37.8207 17.1698 37.4382 17.0565 37.1408 17.2265Z" fill="#343A40"/>
<path d="M46.9298 8.40063C47.6098 7.72069 47.6098 6.62995 46.9298 5.95002C46.2499 5.27008 45.1591 5.27008 44.4792 5.95002C43.7993 6.62995 43.7993 7.72069 44.4792 8.40063C45.145 9.08056 46.2499 9.08056 46.9298 8.40063Z" fill="#343A40"/>
<path d="M42.6945 10.1704C42.1987 9.67464 41.4054 9.67464 40.9238 10.1704C40.428 10.6662 40.428 11.4595 40.9238 11.9411C41.4196 12.4369 42.2128 12.4369 42.6945 11.9411C43.1903 11.4453 43.1903 10.652 42.6945 10.1704Z" fill="#343A40"/>
<path d="M38.1603 13.4714C37.8203 13.8113 37.8203 14.3638 38.1603 14.7038C38.5003 15.0437 39.0527 15.0437 39.3927 14.7038C39.7327 14.3638 39.7327 13.8113 39.3927 13.4855C39.0527 13.1314 38.5003 13.1314 38.1603 13.4714Z" fill="#343A40"/>
<path d="M36.0213 16.8434C36.248 17.07 36.6163 17.07 36.8429 16.8434C37.0695 16.6167 37.0695 16.2484 36.8429 16.0218C36.6163 15.7951 36.248 15.7951 36.0213 16.0218C35.7947 16.2484 35.7947 16.6167 36.0213 16.8434Z" fill="#343A40"/>
<path d="M40.8241 5.48204C41.6032 5.93533 42.6089 5.66619 43.0622 4.88709C43.5155 4.108 43.2464 3.10226 42.4673 2.64896C41.6882 2.19567 40.6824 2.46481 40.2291 3.24391C39.7617 4.02301 40.0308 5.02875 40.8241 5.48204Z" fill="#343A40"/>
<path d="M37.8922 8.24596C37.5664 8.79841 37.7647 9.50668 38.3172 9.83249C38.8696 10.1583 39.5779 9.95997 39.9037 9.40752C40.2295 8.85508 40.0312 8.14681 39.4788 7.821C38.9121 7.4952 38.2039 7.69351 37.8922 8.24596Z" fill="#343A40"/>
<path d="M37.1266 11.8724C36.7583 11.6599 36.2908 11.7874 36.0783 12.1557C35.8658 12.524 35.9933 12.9914 36.3616 13.2039C36.7299 13.4164 37.1974 13.2889 37.4099 12.9206C37.6224 12.5523 37.4949 12.0849 37.1266 11.8724Z" fill="#343A40"/>
<path d="M35.3424 14.9594C35.0875 14.8177 34.7617 14.9027 34.62 15.1577C34.4783 15.4126 34.5633 15.7384 34.8183 15.8801C35.0733 16.0218 35.3991 15.9368 35.5408 15.6818C35.6824 15.4268 35.5974 15.101 35.3424 14.9594Z" fill="#343A40"/>
<path d="M36.5178 3.59908C37.3394 3.82573 38.1893 3.32994 38.4018 2.50835C38.6284 1.68676 38.1326 0.836834 37.311 0.624353C36.4894 0.411873 35.6395 0.893495 35.427 1.71509C35.2004 2.53668 35.6962 3.3866 36.5178 3.59908Z" fill="#343A40"/>
<path d="M35.2146 8.4429C35.7813 8.59872 36.362 8.25875 36.5179 7.69213C36.6737 7.12552 36.3337 6.54474 35.7671 6.38892C35.2005 6.2331 34.6197 6.57307 34.4639 7.13969C34.3222 7.7063 34.648 8.28708 35.2146 8.4429Z" fill="#343A40"/>
<path d="M34.1945 12.2679C34.577 12.3671 34.9736 12.1404 35.0727 11.758C35.1719 11.3755 34.9453 10.9789 34.5628 10.8797C34.1803 10.7806 33.7837 11.0072 33.6845 11.3897C33.5854 11.758 33.812 12.1546 34.1945 12.2679Z" fill="#343A40"/>
<path d="M33.0621 14.6459C32.9913 14.9009 33.1471 15.17 33.4021 15.2409C33.6571 15.3117 33.9262 15.1559 33.997 14.9009C34.0679 14.6459 33.912 14.3768 33.6571 14.3059C33.3879 14.2351 33.1188 14.3909 33.0621 14.6459Z" fill="#343A40"/>
<path d="M31.8433 2.88974C32.6365 2.88974 33.2881 2.23813 33.2881 1.44487C33.2881 0.651607 32.6365 0 31.8433 0C31.05 0 30.3984 0.651607 30.3984 1.44487C30.3984 2.25229 31.05 2.88974 31.8433 2.88974Z" fill="#343A40"/>
<path d="M31.844 5.97974C31.3058 5.97974 30.8808 6.4047 30.8808 6.94298C30.8808 7.48127 31.3058 7.90623 31.844 7.90623C32.3823 7.90623 32.8073 7.48127 32.8073 6.94298C32.8073 6.41886 32.3823 5.97974 31.844 5.97974Z" fill="#343A40"/>
<path d="M32.5246 11.2341C32.5246 10.8658 32.2271 10.5542 31.8446 10.5542C31.4621 10.5542 31.1647 10.8517 31.1647 11.2341C31.1647 11.6166 31.4621 11.9141 31.8446 11.9141C32.2271 11.9141 32.5246 11.6024 32.5246 11.2341Z" fill="#343A40"/>
<path d="M31.8424 14.1226C31.6016 14.1226 31.4033 14.3209 31.4033 14.5617C31.4033 14.8025 31.6016 15.0008 31.8424 15.0008C32.0832 15.0008 32.2815 14.8025 32.2815 14.5617C32.2815 14.3209 32.0832 14.1226 31.8424 14.1226Z" fill="#343A40"/>
<path d="M27.1253 3.42798C27.8478 3.22967 28.2727 2.49307 28.0744 1.77063C27.8761 1.0482 27.1395 0.623238 26.4171 0.821554C25.6946 1.01987 25.2697 1.75647 25.468 2.4789C25.6663 3.18717 26.4171 3.61213 27.1253 3.42798Z" fill="#343A40"/>
<path d="M27.3679 7.65017C27.4954 8.11762 27.9629 8.38677 28.4303 8.25928C28.8978 8.13179 29.1669 7.66433 29.0394 7.19687C28.912 6.72942 28.4445 6.46028 27.977 6.58776C27.5237 6.71525 27.2404 7.19687 27.3679 7.65017Z" fill="#343A40"/>
<path d="M28.7135 11.744C28.7985 12.084 29.1527 12.2823 29.4785 12.1831C29.8184 12.0981 30.0168 11.744 29.9176 11.4182C29.8326 11.0782 29.4785 10.8799 29.1527 10.9791C28.8127 11.064 28.6285 11.404 28.7135 11.744Z" fill="#343A40"/>
<path d="M29.8042 14.8874C29.8608 15.0998 30.0733 15.2132 30.2716 15.1565C30.4841 15.0998 30.5974 14.8874 30.5408 14.689C30.4841 14.4766 30.2716 14.3632 30.0733 14.4199C29.875 14.4766 29.7475 14.6749 29.8042 14.8874Z" fill="#343A40"/>
<path d="M22.692 5.17172C23.287 4.83175 23.4994 4.05266 23.1595 3.45771C22.8195 2.86276 22.0404 2.65028 21.4454 2.99025C20.8505 3.33022 20.638 4.10932 20.978 4.70426C21.3321 5.31337 22.0971 5.51169 22.692 5.17172Z" fill="#343A40"/>
<path d="M25.1985 9.50605C25.5668 9.29357 25.6943 8.82612 25.4818 8.45782C25.2693 8.08952 24.8018 7.96203 24.4335 8.17451C24.0652 8.38699 23.9377 8.85445 24.1502 9.22275C24.3485 9.59105 24.8302 9.71853 25.1985 9.50605Z" fill="#343A40"/>
<path d="M27.2395 13.0619C27.5228 12.906 27.6078 12.5519 27.452 12.2686C27.2961 11.9853 26.942 11.9003 26.6587 12.0561C26.3754 12.2119 26.2904 12.5661 26.4462 12.8494C26.6162 13.1185 26.9703 13.2177 27.2395 13.0619Z" fill="#343A40"/>
<path d="M28.9118 15.2718C28.8127 15.116 28.6144 15.0593 28.4444 15.1443C28.2886 15.2435 28.2319 15.4418 28.3169 15.6118C28.416 15.7676 28.6144 15.8243 28.7702 15.7393C28.9543 15.6401 29.011 15.4276 28.9118 15.2718Z" fill="#343A40"/>
<path d="M18.8258 8.01684C19.279 7.56355 19.279 6.82695 18.8258 6.37366C18.3725 5.92037 17.6359 5.92037 17.1826 6.37366C16.7293 6.82695 16.7293 7.56355 17.1826 8.01684C17.65 8.47013 18.3866 8.47013 18.8258 8.01684Z" fill="#343A40"/>
<path d="M22.3801 10.6092C22.1109 10.3401 21.686 10.3401 21.431 10.6092C21.1618 10.8783 21.1618 11.3033 21.431 11.5583C21.7001 11.8274 22.1251 11.8274 22.3801 11.5583C22.635 11.2891 22.635 10.8642 22.3801 10.6092Z" fill="#343A40"/>
<path d="M25.3137 13.7422C25.1012 13.5298 24.7754 13.5298 24.5629 13.7422C24.3504 13.9547 24.3504 14.2805 24.5629 14.493C24.7754 14.7055 25.1012 14.7055 25.3137 14.493C25.512 14.2805 25.512 13.9547 25.3137 13.7422Z" fill="#343A40"/>
<path d="M27.4937 16.2604C27.3804 16.147 27.1963 16.1612 27.0971 16.2745C26.9838 16.3879 26.9979 16.572 27.1113 16.6712C27.2246 16.7703 27.3946 16.7703 27.5079 16.6712C27.6071 16.5578 27.6071 16.3737 27.4937 16.2604Z" fill="#343A40"/>
<path d="M14.3492 12.1405C14.8591 12.438 15.5107 12.2538 15.794 11.7581C16.0915 11.2481 15.9074 10.5965 15.4116 10.3132C14.9016 10.0157 14.25 10.1999 13.9667 10.6957C13.6692 11.1914 13.8392 11.843 14.3492 12.1405Z" fill="#343A40"/>
<path d="M19.9582 13.4993C19.6749 13.3435 19.3349 13.4427 19.1649 13.7118C19.0091 13.9951 19.1083 14.3351 19.3774 14.5051C19.6607 14.6609 20.0007 14.5759 20.1707 14.2926C20.3265 14.0093 20.2273 13.6552 19.9582 13.4993Z" fill="#343A40"/>
<path d="M23.627 15.7243C23.4003 15.5968 23.1028 15.6676 22.9753 15.9085C22.8479 16.1351 22.9187 16.4326 23.1595 16.5601C23.3861 16.6876 23.6836 16.6167 23.8111 16.3901C23.9386 16.1634 23.8536 15.866 23.627 15.7243Z" fill="#343A40"/>
<path d="M51.4474 18.6819C50.1725 18.6819 49.1243 19.716 49.1243 21.005C49.1243 22.2799 50.1583 23.3281 51.4474 23.3281C52.7223 23.3281 53.7564 22.2941 53.7705 21.0192C53.7564 19.7301 52.7223 18.6819 51.4474 18.6819Z" fill="#343A40"/>
<path d="M47.6088 21.0084C47.6088 20.0877 46.8722 19.3511 45.9515 19.3511C45.0307 19.3511 44.2941 20.0877 44.2941 21.0084C44.2941 21.9292 45.0307 22.6658 45.9515 22.6658C46.8581 22.6658 47.6088 21.9292 47.6088 21.0084Z" fill="#343A40"/>
<path d="M41.6593 19.8735C41.036 19.8735 40.5261 20.3835 40.5261 21.0068C40.5261 21.63 41.036 22.14 41.6593 22.14C42.2826 22.14 42.7925 21.63 42.7925 21.0068C42.7925 20.3835 42.2826 19.8735 41.6593 19.8735Z" fill="#343A40"/>
<path d="M39.0677 21.0074C39.0677 20.5966 38.7419 20.2708 38.3311 20.2708C37.9203 20.2708 37.5945 20.5966 37.5945 21.0074C37.5945 21.4181 37.9203 21.7439 38.3311 21.7439C38.7419 21.7439 39.0677 21.4181 39.0677 21.0074Z" fill="#343A40"/>
<path d="M51.3207 24.0099C50.1875 23.6983 49.0259 24.3782 48.7143 25.5114C48.4027 26.6447 49.0826 27.8062 50.2158 28.1179C51.3491 28.4295 52.5106 27.7496 52.8223 26.6163V26.6022C53.1198 25.4831 52.4398 24.3215 51.3207 24.0099Z" fill="#343A40"/>
<path d="M45.0879 26.0357C45.8528 26.2481 46.6461 25.7807 46.8586 25.0158C47.071 24.2508 46.6036 23.4576 45.8386 23.2451C45.0737 23.0326 44.2804 23.5001 44.068 24.265C43.8555 25.0299 44.3088 25.8232 45.0879 26.0357Z" fill="#343A40"/>
<path d="M41.0368 24.5624C41.6034 24.7182 42.1842 24.3783 42.34 23.8116C42.4958 23.245 42.1559 22.6642 41.5892 22.5084C41.0226 22.3526 40.4418 22.6926 40.286 23.2592C40.1444 23.8258 40.4702 24.4066 41.0368 24.5624Z" fill="#343A40"/>
<path d="M37.9353 23.3296C38.2894 23.4288 38.6577 23.2163 38.7569 22.848C38.856 22.4939 38.6435 22.1256 38.2752 22.0264C37.9211 21.9272 37.5528 22.1397 37.4537 22.508C37.3545 22.848 37.567 23.2305 37.9353 23.3296Z" fill="#343A40"/>
<path d="M49.7764 29.1078C48.8557 28.5695 47.6799 28.8953 47.1416 29.8161C46.6033 30.7368 46.9292 31.9126 47.8499 32.4508C48.7707 32.9891 49.9464 32.6633 50.4847 31.7426C51.0088 30.8218 50.6972 29.6461 49.7764 29.1078Z" fill="#343A40"/>
<path d="M45.2301 28.7146C45.5984 28.063 45.3859 27.2414 44.7343 26.8731C44.0827 26.5048 43.2611 26.7173 42.8928 27.3689C42.5245 28.0205 42.737 28.8421 43.3886 29.2104C44.026 29.5787 44.8476 29.352 45.2301 28.7146Z" fill="#343A40"/>
<path d="M41.1636 26.3763C41.4327 25.9089 41.2769 25.3281 40.8094 25.0589C40.342 24.7898 39.7612 24.9456 39.492 25.4131C39.2229 25.8805 39.3787 26.4613 39.8462 26.7305C40.3136 26.9854 40.8944 26.8296 41.1636 26.3763Z" fill="#343A40"/>
<path d="M38.0059 24.5337C38.1759 24.2362 38.0768 23.8537 37.7793 23.6696C37.4818 23.4996 37.0993 23.5987 36.9152 23.8962C36.731 24.1937 36.8444 24.5762 37.1418 24.7603H37.156C37.4535 24.9303 37.8359 24.8311 38.0059 24.5337Z" fill="#343A40"/>
<path d="M44.4641 33.5995C43.7841 34.2795 43.7841 35.3702 44.4641 36.0502C45.144 36.7301 46.2347 36.7301 46.9147 36.0502C47.5946 35.3702 47.5946 34.2795 46.9147 33.5995C46.2489 32.9338 45.144 32.9338 44.4641 33.5995Z" fill="#343A40"/>
<path d="M42.6945 31.8298C43.1903 31.334 43.1903 30.5407 42.6945 30.0591C42.1987 29.5633 41.4054 29.5633 40.9238 30.0591C40.428 30.5549 40.428 31.3481 40.9238 31.8298C41.4054 32.3256 42.1987 32.3256 42.6945 31.8298Z" fill="#343A40"/>
<path d="M39.3927 28.5302C39.7327 28.1902 39.7327 27.6378 39.3927 27.2978C39.0527 26.9579 38.5003 26.9579 38.1603 27.2978C37.8203 27.6378 37.8203 28.1902 38.1603 28.516C38.5003 28.8702 39.0527 28.8702 39.3927 28.5302Z" fill="#343A40"/>
<path d="M36.0213 25.9663C36.248 26.193 36.6163 26.193 36.8429 25.9663C37.0695 25.7397 37.0695 25.3714 36.8429 25.1447C36.6163 24.9181 36.248 24.9181 36.0213 25.1447C35.7947 25.3714 35.7947 25.7397 36.0213 25.9663Z" fill="#343A40"/>
<path d="M40.8244 36.5199C40.0453 36.9732 39.7761 37.979 40.2294 38.7581C40.6827 39.5372 41.6885 39.8063 42.4676 39.353C43.2466 38.8997 43.5158 37.894 43.0625 37.1149C42.6092 36.3358 41.6035 36.0666 40.8244 36.5199Z" fill="#343A40"/>
<path d="M39.8886 32.6097C39.5628 32.0573 38.8687 31.859 38.3021 32.1848C37.7497 32.5106 37.5514 33.2047 37.8772 33.7713C38.203 34.3237 38.8971 34.5221 39.4637 34.1963C40.0161 33.8705 40.2145 33.1622 39.8886 32.6097Z" fill="#343A40"/>
<path d="M37.1266 30.1286C37.4949 29.9161 37.6224 29.4487 37.4099 29.0804C37.1974 28.7121 36.7299 28.5846 36.3616 28.7971C35.9933 29.0095 35.8658 29.477 36.0783 29.8453C36.2908 30.2136 36.7583 30.3411 37.1266 30.1286Z" fill="#343A40"/>
<path d="M34.8183 26.1223C34.5633 26.264 34.4783 26.5898 34.62 26.8448C34.7617 27.0997 35.0875 27.1847 35.3424 27.0431C35.5974 26.9014 35.6824 26.5756 35.5408 26.3206C35.3991 26.0657 35.0733 25.9807 34.8183 26.1223Z" fill="#343A40"/>
<path d="M36.5178 38.4032C35.6962 38.6299 35.2004 39.4656 35.427 40.2872C35.6537 41.1088 36.4894 41.6046 37.311 41.378C38.1326 41.1513 38.6284 40.3156 38.4018 39.494C38.1893 38.6724 37.3394 38.1766 36.5178 38.4032Z" fill="#343A40"/>
<path d="M35.7671 35.5979C36.3337 35.4421 36.6737 34.8613 36.5179 34.2947C36.362 33.7281 35.7813 33.3881 35.2146 33.5439C34.648 33.6998 34.3222 34.2805 34.4639 34.8472C34.6197 35.4279 35.2005 35.7537 35.7671 35.5979Z" fill="#343A40"/>
<path d="M35.0727 30.2421C34.9736 29.8596 34.577 29.633 34.1945 29.7321C33.812 29.8313 33.5854 30.2279 33.6845 30.6104C33.7837 30.9929 34.1803 31.2195 34.5628 31.1203C34.9594 31.0353 35.1861 30.6387 35.0727 30.2421Z" fill="#343A40"/>
<path d="M33.9808 27.0977C33.91 26.8427 33.6408 26.6869 33.3858 26.7577C33.1309 26.8285 32.975 27.0977 33.0459 27.3527C33.1167 27.6076 33.3717 27.7635 33.6408 27.6926C33.8958 27.6218 34.0516 27.3527 33.9808 27.0977Z" fill="#343A40"/>
<path d="M31.8433 39.1102C31.05 39.1102 30.3984 39.7618 30.3984 40.5551C30.3984 41.3484 31.05 42 31.8433 42C32.6365 42 33.2881 41.3625 33.2881 40.5551C33.2881 39.7618 32.6507 39.1102 31.8433 39.1102Z" fill="#343A40"/>
<path d="M30.8808 35.0587C30.8808 35.597 31.3058 36.022 31.844 36.022C32.3823 36.022 32.8073 35.597 32.8073 35.0587C32.8073 34.5204 32.3823 34.0955 31.844 34.0955C31.3199 34.0955 30.8808 34.5204 30.8808 35.0587Z" fill="#343A40"/>
<path d="M31.8446 31.4336C32.2129 31.4336 32.5246 31.1361 32.5246 30.7537C32.5246 30.3712 32.2271 30.0737 31.8446 30.0737C31.4763 30.0737 31.1647 30.3712 31.1647 30.7537C31.1788 31.1361 31.4763 31.4336 31.8446 31.4336Z" fill="#343A40"/>
<path d="M31.8424 26.9974C31.6016 26.9974 31.4033 27.1958 31.4033 27.4366C31.4033 27.6774 31.6016 27.8757 31.8424 27.8757C32.0832 27.8757 32.2815 27.6774 32.2815 27.4366C32.2815 27.1958 32.0832 26.9974 31.8424 26.9974Z" fill="#343A40"/>
<path d="M27.1265 38.573C26.4041 38.3747 25.6675 38.8138 25.4691 39.5221C25.2708 40.2445 25.71 40.9811 26.4182 41.1795C27.1407 41.3778 27.8773 40.9386 28.0756 40.2304C28.2739 39.5079 27.8489 38.7713 27.1265 38.573Z" fill="#343A40"/>
<path d="M28.4303 33.7267C27.9629 33.5992 27.4954 33.8825 27.3679 34.3358C27.2404 34.8033 27.5237 35.2707 27.977 35.3982C28.4445 35.5257 28.912 35.2424 29.0394 34.7891C29.1669 34.3358 28.8978 33.8542 28.4303 33.7267Z" fill="#343A40"/>
<path d="M29.4776 29.817C29.1376 29.7321 28.7976 29.9304 28.7126 30.2562C28.6276 30.5961 28.8259 30.9361 29.1517 31.0211C29.4917 31.1061 29.8317 30.9078 29.9167 30.582C30.0158 30.2562 29.8175 29.9162 29.4776 29.817Z" fill="#343A40"/>
<path d="M30.5534 27.3119C30.6101 27.0994 30.4826 26.8869 30.2843 26.8445C30.0859 26.802 29.8593 26.9153 29.8168 27.1136C29.7743 27.3119 29.8876 27.5386 30.0859 27.5811C30.2843 27.6377 30.4967 27.5244 30.5534 27.3119Z" fill="#343A40"/>
<path d="M22.6923 36.8302C22.0974 36.4903 21.3324 36.6886 20.9783 37.2835C20.6383 37.8785 20.8366 38.6434 21.4316 38.9975C22.0265 39.3375 22.7915 39.1392 23.1456 38.5442C23.4998 37.9493 23.2873 37.1844 22.6923 36.8302Z" fill="#343A40"/>
<path d="M25.1985 32.4973C24.8302 32.2848 24.3627 32.4123 24.1502 32.7806C23.9377 33.1489 24.0652 33.6163 24.4335 33.8288C24.8018 34.0413 25.2693 33.9138 25.4818 33.5455C25.6943 33.1772 25.5668 32.7097 25.1985 32.4973Z" fill="#343A40"/>
<path d="M26.6727 29.9476C26.956 30.1034 27.3102 30.0184 27.466 29.7351C27.6218 29.4518 27.5368 29.0977 27.2535 28.9419C26.9702 28.786 26.6161 28.871 26.4602 29.1543C26.3044 29.4377 26.3894 29.7918 26.6727 29.9476Z" fill="#343A40"/>
<path d="M28.7978 26.2627C28.642 26.1635 28.4295 26.2202 28.3445 26.3901C28.2453 26.546 28.302 26.7584 28.472 26.8434C28.6278 26.9426 28.8403 26.8859 28.9253 26.716C29.0103 26.5743 28.9536 26.3618 28.7978 26.2627Z" fill="#343A40"/>
<path d="M17.1965 33.9821C16.7432 34.4354 16.7432 35.172 17.1965 35.6252C17.6498 36.0785 18.3864 36.0785 18.8397 35.6252C19.293 35.172 19.293 34.4354 18.8397 33.9821C18.3864 33.5288 17.6498 33.5288 17.1965 33.9821Z" fill="#343A40"/>
<path d="M21.431 30.4396C21.1618 30.7088 21.1618 31.1338 21.431 31.3887C21.7001 31.6579 22.1251 31.6579 22.3801 31.3887C22.635 31.1196 22.6492 30.6946 22.3801 30.4396C22.1251 30.1705 21.686 30.1705 21.431 30.4396Z" fill="#343A40"/>
<path d="M24.5629 27.5108C24.3504 27.7233 24.3504 28.0491 24.5629 28.2616C24.7754 28.474 25.1012 28.474 25.3137 28.2616C25.5262 28.0491 25.5262 27.7233 25.3137 27.5108C25.1012 27.2983 24.7612 27.2983 24.5629 27.5108Z" fill="#343A40"/>
<path d="M27.4937 25.3292C27.3804 25.2159 27.1963 25.2301 27.0971 25.3434C26.9838 25.4567 26.9979 25.6409 27.1113 25.74C27.2246 25.8392 27.3946 25.8392 27.5079 25.74C27.6071 25.6267 27.6071 25.4425 27.4937 25.3292Z" fill="#343A40"/>
<path d="M14.3772 29.8314C13.8673 30.1289 13.6973 30.7663 13.9948 31.2763C14.2922 31.7863 14.9297 31.9562 15.4396 31.6588C15.9496 31.3613 16.1196 30.7239 15.8221 30.2139C15.5388 29.7039 14.8872 29.534 14.3772 29.8314Z" fill="#343A40"/>
<path d="M19.3774 27.4946C19.1083 27.6504 19.0091 28.0045 19.1649 28.2878C19.3208 28.557 19.6749 28.6561 19.9582 28.5003C20.2273 28.3445 20.3265 27.9904 20.1707 27.7071C20.0149 27.4379 19.6607 27.3388 19.3774 27.4946Z" fill="#343A40"/>
<path d="M23.1457 25.439C22.919 25.5665 22.834 25.864 22.9757 26.0906C23.1032 26.3173 23.4007 26.4022 23.6273 26.2606C23.8539 26.1331 23.9389 25.8356 23.7973 25.609C23.6698 25.3823 23.3723 25.2974 23.1457 25.439Z" fill="#343A40"/>
<path d="M12.2244 17.6361H13.9242V24.1805H12.2244V17.6361ZM13.2585 14.718C12.7343 14.5764 12.1961 14.888 12.0544 15.4121C11.9127 15.9362 12.2244 16.4745 12.7485 16.6162C13.2726 16.7578 13.8109 16.4462 13.9526 15.9221C14.0942 15.398 13.7826 14.8455 13.2585 14.718ZM19.1796 24.3221C18.7688 24.3221 18.358 24.2513 17.9756 24.0813C17.6356 23.9255 17.3381 23.6847 17.1115 23.3872V27.4527H15.4541V17.6361H17.0973V18.5427C17.3098 18.2169 17.6073 17.9619 17.9614 17.7777C18.3297 17.5936 18.7405 17.4944 19.1655 17.4944C19.5763 17.4944 19.9729 17.5794 20.3554 17.7352C20.7378 17.8911 21.0778 18.1319 21.3611 18.4152C21.6586 18.7268 21.8994 19.0951 22.0552 19.4917C22.2394 19.945 22.3244 20.4125 22.3102 20.8941C22.3244 21.3757 22.2252 21.8574 22.041 22.3107C21.8711 22.7073 21.6302 23.0756 21.3328 23.3872C20.7803 23.9822 19.9871 24.3221 19.1796 24.3221ZM18.8397 22.7356C19.0805 22.7356 19.3213 22.6931 19.5479 22.594C19.7604 22.4948 19.9587 22.3673 20.1287 22.1973C20.2987 22.0273 20.4262 21.829 20.5112 21.6166C20.6953 21.1491 20.6953 20.6391 20.5112 20.1717C20.4262 19.9592 20.2845 19.7609 20.1287 19.5909C19.9587 19.4209 19.7604 19.2934 19.5479 19.1943C19.3213 19.0951 19.0805 19.0526 18.8397 19.0526C18.358 19.0526 17.8906 19.2509 17.5364 19.5909C17.3664 19.7609 17.239 19.9592 17.154 20.1717C16.9698 20.6391 16.9698 21.1491 17.154 21.6024C17.239 21.8149 17.3664 22.0132 17.5364 22.1832C17.8906 22.5515 18.358 22.7498 18.8397 22.7356ZM23.5284 17.6361H25.1716V18.6418C25.3133 18.2877 25.5541 17.9902 25.8799 17.7919C26.2199 17.6078 26.5882 17.5086 26.9848 17.5228C27.1973 17.5228 27.3956 17.5511 27.5939 17.5936C27.7639 17.6361 27.9339 17.6927 28.0897 17.7777L27.4806 19.4209C27.3673 19.3501 27.2398 19.2934 27.1123 19.2509C26.9423 19.2084 26.7723 19.1801 26.6023 19.1801C26.2199 19.1659 25.8515 19.2934 25.5682 19.5342C25.3133 19.7751 25.1858 20.1717 25.1858 20.71V24.1663H23.5284V17.6361ZM31.7869 24.3221C31.3194 24.3221 30.852 24.2371 30.4128 24.053C30.002 23.883 29.6337 23.628 29.3079 23.3164C28.6705 22.679 28.3163 21.8149 28.3163 20.9083C28.3163 20.455 28.4013 20.0017 28.5713 19.5767C28.7413 19.1659 28.9821 18.7976 29.2938 18.486C30.6678 17.1545 32.8493 17.1545 34.2233 18.486C34.8608 19.1234 35.2291 19.9875 35.2291 20.8941C35.2291 21.3474 35.1441 21.8007 34.9599 22.2115C34.7899 22.6223 34.535 22.9906 34.2375 23.3022C33.9259 23.6139 33.5576 23.8688 33.1326 24.0388C32.7218 24.223 32.2543 24.3221 31.7869 24.3221ZM31.801 22.7356C32.0418 22.7356 32.2827 22.6931 32.5093 22.594C32.7218 22.4948 32.9059 22.3673 33.0759 22.2115C33.2459 22.0415 33.3734 21.8432 33.4584 21.6307C33.6425 21.1633 33.6425 20.6533 33.4584 20.2C33.3734 19.9875 33.2459 19.7892 33.0759 19.6192C32.9059 19.4493 32.7218 19.3218 32.5093 19.2368C32.056 19.0385 31.5461 19.0385 31.1069 19.2368C30.8944 19.3359 30.7103 19.4634 30.5403 19.6192C30.3703 19.7892 30.2428 19.9875 30.1578 20.2C29.9737 20.6675 29.9737 21.1774 30.1578 21.6307C30.2428 21.8432 30.3703 22.0415 30.5403 22.2115C30.7103 22.3815 30.8944 22.509 31.1069 22.594C31.3194 22.679 31.5602 22.7356 31.801 22.7356ZM0.39624 17.6361H2.09609L3.41348 21.8149L4.97168 17.6361H6.44489L7.97475 21.8149L9.3488 17.6361H11.0487L8.82468 24.1805H7.25232L5.69412 19.9167L4.12175 24.1805H2.52106L0.39624 17.6361Z" fill="#343A40"/>
</svg>
