<svg width="16" height="17" viewBox="0 0 16 17" fill="none" xmlns="http://www.w3.org/2000/svg">
<path d="M14.5 8.49979V13.4998C14.5 14.1628 14.2366 14.7987 13.7678 15.2676C13.2989 15.7364 12.663 15.9998 12 15.9998H8.5C8.36739 15.9998 8.24021 15.9471 8.14645 15.8533C8.05268 15.7596 8 15.6324 8 15.4998C8 15.3672 8.05268 15.24 8.14645 15.1462C8.24021 15.0525 8.36739 14.9998 8.5 14.9998H12C12.3978 14.9998 12.7794 14.8418 13.0607 14.5605C13.342 14.2792 13.5 13.8976 13.5 13.4998H12C11.6022 13.4998 11.2206 13.3418 10.9393 13.0605C10.658 12.7792 10.5 12.3976 10.5 11.9998V9.49979C10.5 9.10197 10.658 8.72044 10.9393 8.43913C11.2206 8.15783 11.6022 7.99979 12 7.99979H13.4781C13.3835 6.96038 12.9951 5.96935 12.3582 5.14245C11.7214 4.31555 10.8624 3.68692 9.88163 3.33C8.90085 2.97308 7.83875 2.90259 6.8194 3.12677C5.80005 3.35096 4.86553 3.86056 4.125 4.59604C3.20416 5.50474 2.6362 6.7111 2.5225 7.99979H4C4.39782 7.99979 4.77936 8.15783 5.06066 8.43913C5.34196 8.72044 5.5 9.10197 5.5 9.49979V11.9998C5.5 12.3976 5.34196 12.7792 5.06066 13.0605C4.77936 13.3418 4.39782 13.4998 4 13.4998H3C2.60218 13.4998 2.22064 13.3418 1.93934 13.0605C1.65804 12.7792 1.5 12.3976 1.5 11.9998V8.49979C1.5014 7.21223 1.88476 5.95403 2.60156 4.88444C3.31836 3.81485 4.33638 2.98196 5.52674 2.4912C6.71711 2.00044 8.02632 1.87386 9.28866 2.1275C10.551 2.38114 11.7097 3.00358 12.6181 3.91604C13.2179 4.51874 13.6929 5.23385 14.0158 6.02041C14.3387 6.80698 14.5033 7.64953 14.5 8.49979Z" fill="#6C757D"/>
</svg>
