<svg width="170" height="28" viewBox="0 0 170 28" fill="none" xmlns="http://www.w3.org/2000/svg">
<g clip-path="url(#clip0_1_3678)">
<path d="M65.2451 9.11274H60.4304V22.6224H57.4599V9.11274H52.6452V6.67551H65.2451V9.11274ZM70.452 17.792C69.6643 17.8288 69.0017 17.8987 68.4642 18.0016C67.9269 18.0972 67.4962 18.2221 67.1723 18.3765C66.8483 18.5309 66.6165 18.7111 66.4766 18.9169C66.3367 19.1228 66.2668 19.347 66.2668 19.5896C66.2668 20.0676 66.4067 20.4094 66.6864 20.6153C66.9735 20.8212 67.3453 20.9241 67.8017 20.9241C68.3612 20.9241 68.8434 20.8248 69.2483 20.6263C69.6606 20.4205 70.0618 20.1117 70.452 19.6999V17.792ZM64.2017 12.8844C65.5048 11.6934 67.0729 11.0979 68.906 11.0979C69.5686 11.0979 70.1612 11.2081 70.6839 11.4287C71.2066 11.6419 71.6483 11.9434 72.009 12.333C72.3698 12.7153 72.6421 13.1748 72.8262 13.7116C73.0176 14.2483 73.1133 14.8365 73.1133 15.4761V22.6224H71.8765C71.6189 22.6224 71.4201 22.5857 71.2802 22.5121C71.1403 22.4313 71.0299 22.2732 70.9489 22.0379L70.7059 21.2219C70.4189 21.4792 70.1391 21.7071 69.8667 21.9056C69.5943 22.0968 69.3109 22.2585 69.0164 22.3909C68.722 22.5232 68.4054 22.6224 68.0667 22.6886C67.7354 22.7621 67.3674 22.7989 66.9625 22.7989C66.4839 22.7989 66.0422 22.7364 65.6373 22.6115C65.2324 22.4791 64.8827 22.2842 64.5882 22.027C64.2938 21.7696 64.0656 21.4498 63.9036 21.0675C63.7416 20.6851 63.6607 20.2403 63.6607 19.7331C63.6607 19.4463 63.7085 19.1633 63.8042 18.8839C63.8999 18.5971 64.0545 18.3251 64.268 18.0678C64.4889 17.8105 64.7723 17.5678 65.1183 17.3399C65.4643 17.1119 65.8876 16.9135 66.3882 16.7444C66.8962 16.5753 67.4851 16.4392 68.1551 16.3363C68.825 16.2261 69.5906 16.1599 70.452 16.1378V15.4761C70.452 14.7188 70.29 14.16 69.9661 13.7998C69.6422 13.4322 69.1747 13.2484 68.5637 13.2484C68.122 13.2484 67.7538 13.2998 67.4594 13.4028C67.1723 13.5057 66.9182 13.6234 66.6975 13.7557C66.4766 13.8807 66.2741 13.9946 66.0901 14.0976C65.9134 14.2005 65.7146 14.252 65.4937 14.252C65.3023 14.252 65.1404 14.2041 65.0078 14.1086C64.8754 14.0057 64.7686 13.8881 64.6876 13.7557L64.2017 12.8844ZM78.4429 6.23438V22.6224H75.7153V6.23438H78.4429ZM88.4598 15.6636C88.4598 15.3107 88.4084 14.9798 88.3048 14.671C88.2091 14.3549 88.0619 14.0792 87.8633 13.8439C87.6647 13.6087 87.4108 13.4248 87.1016 13.2925C86.7994 13.1528 86.4466 13.083 86.0416 13.083C85.2535 13.083 84.6312 13.3072 84.1749 13.7557C83.7263 14.2041 83.4389 14.8401 83.3135 15.6636H88.4598ZM83.2582 17.3068C83.3026 17.8876 83.4062 18.3912 83.5674 18.8177C83.7294 19.2368 83.9436 19.586 84.2083 19.8654C84.4731 20.1374 84.7862 20.3433 85.1468 20.483C85.5152 20.6153 85.9202 20.6815 86.3617 20.6815C86.8033 20.6815 87.1826 20.63 87.4988 20.5271C87.8228 20.4241 88.1024 20.3102 88.3383 20.1852C88.5813 20.0602 88.7908 19.9462 88.9676 19.8433C89.1514 19.7404 89.3282 19.689 89.498 19.689C89.7262 19.689 89.8952 19.7735 90.0057 19.9426L90.79 20.9351C90.4878 21.288 90.149 21.5858 89.7737 21.8284C89.3983 22.0637 89.0042 22.2548 88.5922 22.4019C88.1872 22.5416 87.7714 22.6409 87.3446 22.6997C86.9248 22.7585 86.5159 22.7879 86.1187 22.7879C85.3306 22.7879 84.5985 22.6592 83.921 22.4019C83.2442 22.1372 82.6546 21.7512 82.1546 21.2439C81.6539 20.7292 81.2598 20.097 80.9724 19.347C80.6858 18.5898 80.5417 17.7149 80.5417 16.7223C80.5417 15.9503 80.6671 15.2261 80.9171 14.5497C81.1679 13.866 81.5246 13.2741 81.9888 12.7742C82.4599 12.2669 83.03 11.8661 83.7006 11.5721C84.3773 11.278 85.1398 11.1309 85.9863 11.1309C86.7005 11.1309 87.3594 11.2449 87.9629 11.4728C88.5665 11.7007 89.0852 12.0352 89.5198 12.4764C89.9543 12.9102 90.2931 13.4469 90.5361 14.0865C90.7861 14.7188 90.9115 15.443 90.9115 16.2591C90.9115 16.6709 90.8671 16.9502 90.7791 17.0972C90.6903 17.2369 90.5213 17.3068 90.2705 17.3068H83.2582ZM95.5088 12.697C95.7369 12.4691 95.9768 12.2595 96.2268 12.0684C96.4846 11.8699 96.7533 11.7044 97.0329 11.5721C97.3203 11.4324 97.6255 11.3257 97.9495 11.2522C98.2735 11.1714 98.6271 11.1309 99.0095 11.1309C99.6278 11.1309 100.176 11.2375 100.655 11.4507C101.133 11.6566 101.531 11.9507 101.847 12.333C102.171 12.708 102.414 13.1601 102.576 13.6895C102.746 14.2115 102.83 14.7886 102.83 15.421V22.6224H100.103V15.421C100.103 14.7298 99.9448 14.1968 99.6278 13.8219C99.3117 13.4395 98.8296 13.2484 98.1816 13.2484C97.7104 13.2484 97.2689 13.355 96.8561 13.5682C96.4441 13.7814 96.0539 14.0718 95.6855 14.4394V22.6224H92.9582V11.3074H94.6256C94.9792 11.3074 95.2113 11.4728 95.3211 11.8037L95.5088 12.697ZM109.05 22.7989C108.064 22.7989 107.305 22.5232 106.776 21.9718C106.252 21.413 105.991 20.6447 105.991 19.6669V13.3477H104.832C104.685 13.3477 104.559 13.2998 104.456 13.2042C104.354 13.1087 104.301 12.9653 104.301 12.7742V11.6934L106.124 11.3956L106.698 8.30774C106.735 8.16066 106.805 8.04671 106.908 7.96583C107.011 7.88494 107.143 7.84449 107.305 7.84449H108.719V11.4066H111.744V13.3477H108.719V19.4793C108.719 19.8323 108.804 20.108 108.973 20.3065C109.149 20.505 109.389 20.6042 109.691 20.6042C109.86 20.6042 110 20.5859 110.111 20.5491C110.228 20.505 110.328 20.4609 110.409 20.4168C110.497 20.3727 110.574 20.3323 110.64 20.2955C110.706 20.2514 110.773 20.2293 110.839 20.2293C110.92 20.2293 110.987 20.2514 111.038 20.2955C111.089 20.3323 111.145 20.3911 111.203 20.4719L112.021 21.7953C111.623 22.1262 111.167 22.3762 110.651 22.5453C110.136 22.7144 109.602 22.7989 109.05 22.7989ZM120.404 13.5131C120.33 13.6307 120.253 13.7152 120.172 13.7667C120.091 13.8108 119.988 13.8329 119.863 13.8329C119.73 13.8329 119.586 13.7961 119.432 13.7226C119.285 13.649 119.112 13.5682 118.913 13.48C118.714 13.3844 118.486 13.2998 118.228 13.2263C117.978 13.1528 117.68 13.116 117.334 13.116C116.797 13.116 116.373 13.23 116.064 13.4579C115.762 13.6858 115.611 13.9836 115.611 14.3512C115.611 14.5938 115.688 14.7997 115.843 14.9688C116.005 15.1306 116.215 15.2739 116.473 15.3989C116.737 15.5239 117.036 15.6378 117.367 15.7408C117.698 15.8364 118.033 15.9429 118.372 16.0606C118.718 16.1782 119.057 16.3143 119.388 16.4686C119.719 16.6157 120.014 16.8068 120.272 17.0421C120.536 17.2701 120.746 17.5457 120.901 17.8693C121.063 18.1927 121.144 18.5824 121.144 19.0383C121.144 19.5823 121.044 20.0859 120.846 20.5491C120.654 21.005 120.367 21.402 119.984 21.7402C119.601 22.0711 119.127 22.3321 118.56 22.5232C118 22.707 117.353 22.7989 116.616 22.7989C116.226 22.7989 115.843 22.7621 115.468 22.6886C115.1 22.6224 114.743 22.5269 114.396 22.4019C114.057 22.2769 113.741 22.1299 113.447 21.9608C113.16 21.7917 112.906 21.6078 112.684 21.4093L113.315 20.3727C113.396 20.2477 113.491 20.1521 113.601 20.0859C113.712 20.0197 113.852 19.9867 114.021 19.9867C114.191 19.9867 114.349 20.0344 114.496 20.13C114.65 20.2256 114.827 20.3286 115.026 20.4388C115.225 20.5491 115.456 20.6521 115.722 20.7477C115.994 20.8432 116.336 20.891 116.748 20.891C117.072 20.891 117.349 20.8542 117.577 20.7807C117.812 20.6998 118.004 20.5969 118.151 20.4719C118.306 20.347 118.416 20.2036 118.483 20.0418C118.556 19.8727 118.592 19.6999 118.592 19.5235C118.592 19.2588 118.511 19.0419 118.349 18.8728C118.195 18.7037 117.985 18.5567 117.72 18.4317C117.462 18.3067 117.164 18.1964 116.826 18.1008C116.494 17.9979 116.152 17.8876 115.799 17.77C115.453 17.6523 115.11 17.5163 114.772 17.3619C114.441 17.2002 114.142 16.998 113.878 16.7554C113.62 16.5127 113.41 16.215 113.248 15.8621C113.093 15.5092 113.016 15.0827 113.016 14.5828C113.016 14.1196 113.108 13.6785 113.292 13.2594C113.476 12.8403 113.745 12.4764 114.098 12.1676C114.459 11.8514 114.904 11.6015 115.434 11.4177C115.972 11.2265 116.59 11.1309 117.29 11.1309C118.07 11.1309 118.78 11.2596 119.421 11.5169C120.061 11.7743 120.596 12.1125 121.022 12.5315L120.404 13.5131ZM125.924 6.23438V15.6195H126.432C126.616 15.6195 126.76 15.5974 126.863 15.5533C126.973 15.5019 127.084 15.4025 127.194 15.2555L130.01 11.7816C130.128 11.6272 130.257 11.5096 130.397 11.4287C130.544 11.3478 130.732 11.3074 130.96 11.3074H133.455L129.933 15.5092C129.683 15.84 129.41 16.0937 129.116 16.2702C129.27 16.3804 129.406 16.5091 129.524 16.6562C129.649 16.8032 129.767 16.9612 129.877 17.1304L133.654 22.6224H131.192C130.978 22.6224 130.794 22.5894 130.64 22.5232C130.485 22.4497 130.356 22.321 130.253 22.1372L127.359 17.8472C127.257 17.6781 127.15 17.5678 127.039 17.5163C126.929 17.4649 126.764 17.4392 126.542 17.4392H125.924V22.6224H123.197V6.23438H125.924ZM140.979 17.792C140.192 17.8288 139.529 17.8987 138.992 18.0016C138.454 18.0972 138.024 18.2221 137.7 18.3765C137.376 18.5309 137.144 18.7111 137.004 18.9169C136.864 19.1228 136.795 19.347 136.795 19.5896C136.795 20.0676 136.934 20.4094 137.214 20.6153C137.501 20.8212 137.872 20.9241 138.329 20.9241C138.889 20.9241 139.371 20.8248 139.776 20.6263C140.188 20.4205 140.589 20.1117 140.979 19.6999V17.792ZM134.729 12.8844C136.032 11.6934 137.601 11.0979 139.433 11.0979C140.096 11.0979 140.689 11.2081 141.211 11.4287C141.734 11.6419 142.176 11.9434 142.537 12.333C142.897 12.7153 143.17 13.1748 143.354 13.7116C143.545 14.2483 143.641 14.8365 143.641 15.4761V22.6224H142.404C142.147 22.6224 141.948 22.5857 141.808 22.5121C141.668 22.4313 141.558 22.2732 141.477 22.0379L141.234 21.2219C140.946 21.4792 140.667 21.7071 140.394 21.9056C140.122 22.0968 139.838 22.2585 139.544 22.3909C139.249 22.5232 138.933 22.6224 138.594 22.6886C138.263 22.7621 137.895 22.7989 137.49 22.7989C137.011 22.7989 136.57 22.7364 136.165 22.6115C135.76 22.4791 135.41 22.2842 135.116 22.027C134.821 21.7696 134.593 21.4498 134.431 21.0675C134.269 20.6851 134.188 20.2403 134.188 19.7331C134.188 19.4463 134.236 19.1633 134.332 18.8839C134.427 18.5971 134.582 18.3251 134.795 18.0678C135.017 17.8105 135.3 17.5678 135.646 17.3399C135.992 17.1119 136.415 16.9135 136.915 16.7444C137.424 16.5753 138.013 16.4392 138.682 16.3363C139.352 16.2261 140.118 16.1599 140.979 16.1378V15.4761C140.979 14.7188 140.818 14.16 140.494 13.7998C140.17 13.4322 139.702 13.2484 139.091 13.2484C138.65 13.2484 138.281 13.2998 137.987 13.4028C137.7 13.5057 137.446 13.6234 137.225 13.7557C137.004 13.8807 136.802 13.9946 136.618 14.0976C136.441 14.2005 136.242 14.252 136.021 14.252C135.83 14.252 135.668 14.2041 135.535 14.1086C135.403 14.0057 135.296 13.8881 135.215 13.7557L134.729 12.8844ZM148.937 19.689C149.246 20.0638 149.582 20.3286 149.942 20.483C150.31 20.6374 150.708 20.7145 151.135 20.7145C151.547 20.7145 151.919 20.6374 152.25 20.483C152.582 20.3286 152.861 20.0933 153.089 19.7772C153.325 19.461 153.505 19.064 153.631 18.5861C153.755 18.1008 153.818 17.531 153.818 16.8767C153.818 16.215 153.763 15.6563 153.653 15.2004C153.55 14.7372 153.399 14.3623 153.2 14.0755C153.001 13.7887 152.758 13.5792 152.471 13.4469C152.192 13.3145 151.871 13.2484 151.51 13.2484C150.943 13.2484 150.461 13.3697 150.064 13.6123C149.666 13.8476 149.29 14.1821 148.937 14.6159V19.689ZM148.794 12.8514C149.258 12.3294 149.783 11.9066 150.373 11.5831C150.962 11.2596 151.654 11.0979 152.449 11.0979C153.067 11.0979 153.631 11.2265 154.139 11.4839C154.654 11.7412 155.096 12.1161 155.463 12.6088C155.839 13.094 156.126 13.6969 156.325 14.4174C156.531 15.1306 156.634 15.9503 156.634 16.8767C156.634 17.7222 156.52 18.5052 156.292 19.2257C156.064 19.9462 155.736 20.5712 155.309 21.1005C154.889 21.6299 154.378 22.0453 153.774 22.3468C153.177 22.6409 152.508 22.7879 151.764 22.7879C151.131 22.7879 150.59 22.6923 150.141 22.5012C149.692 22.3026 149.29 22.0306 148.937 21.685V26.3169H146.21V11.3074H147.877C148.231 11.3074 148.463 11.4728 148.572 11.8037L148.794 12.8514ZM166.061 15.6636C166.061 15.3107 166.01 14.9798 165.907 14.671C165.811 14.3549 165.664 14.0792 165.465 13.8439C165.267 13.6087 165.012 13.4248 164.703 13.2925C164.402 13.1528 164.048 13.083 163.643 13.083C162.856 13.083 162.233 13.3072 161.777 13.7557C161.328 14.2041 161.041 14.8401 160.916 15.6636H166.061ZM160.86 17.3068C160.905 17.8876 161.008 18.3912 161.17 18.8177C161.332 19.2368 161.545 19.586 161.81 19.8654C162.075 20.1374 162.388 20.3433 162.749 20.483C163.117 20.6153 163.522 20.6815 163.963 20.6815C164.405 20.6815 164.784 20.63 165.101 20.5271C165.425 20.4241 165.705 20.3102 165.94 20.1852C166.183 20.0602 166.393 19.9462 166.57 19.8433C166.754 19.7404 166.93 19.689 167.099 19.689C167.328 19.689 167.497 19.7735 167.608 19.9426L168.391 20.9351C168.09 21.288 167.751 21.5858 167.376 21.8284C167 22.0637 166.606 22.2548 166.194 22.4019C165.789 22.5416 165.374 22.6409 164.946 22.6997C164.527 22.7585 164.118 22.7879 163.72 22.7879C162.933 22.7879 162.2 22.6592 161.523 22.4019C160.846 22.1372 160.257 21.7512 159.756 21.2439C159.255 20.7292 158.862 20.097 158.575 19.347C158.287 18.5898 158.144 17.7149 158.144 16.7223C158.144 15.9503 158.269 15.2261 158.519 14.5497C158.769 13.866 159.127 13.2741 159.59 12.7742C160.061 12.2669 160.632 11.8661 161.302 11.5721C161.979 11.278 162.741 11.1309 163.588 11.1309C164.302 11.1309 164.961 11.2449 165.564 11.4728C166.169 11.7007 166.687 12.0352 167.122 12.4764C167.556 12.9102 167.895 13.4469 168.137 14.0865C168.388 14.7188 168.513 15.443 168.513 16.2591C168.513 16.6709 168.469 16.9502 168.38 17.0972C168.292 17.2369 168.123 17.3068 167.873 17.3068H160.86Z" fill="#212529"/>
<path fill-rule="evenodd" clip-rule="evenodd" d="M26.1281 15.8703C27.2696 15.8703 28.2039 14.9404 28.2039 13.8004C28.2039 12.6605 27.2727 11.7305 26.1281 11.7305C24.9866 11.7305 24.0554 12.6605 24.0554 13.8004C24.0523 14.9404 24.9866 15.8703 26.1281 15.8703Z" fill="#ECB32D"/>
<path fill-rule="evenodd" clip-rule="evenodd" d="M35.3447 9.15354C36.4863 9.15354 37.4206 8.22363 37.4206 7.08361C37.4206 5.94361 36.4893 5.01367 35.3447 5.01367C34.2032 5.01367 33.2721 5.94361 33.2721 7.08361C33.269 8.22363 34.2001 9.15354 35.3447 9.15354Z" fill="#E01A59"/>
<path fill-rule="evenodd" clip-rule="evenodd" d="M7.23458 9.15354C8.37609 9.15354 9.30721 8.22363 9.30721 7.08361C9.30721 5.94361 8.37609 5.01367 7.23458 5.01367C6.09306 5.01367 5.15882 5.94361 5.15882 7.08361C5.16191 8.22363 6.09306 9.15354 7.23458 9.15354Z" fill="#63C1A0"/>
<path d="M16.6065 4.32152C17.7512 4.32152 18.6792 3.39478 18.6792 2.25158C18.6792 1.10838 17.7512 0.181641 16.6065 0.181641C15.4618 0.181641 14.5338 1.10838 14.5338 2.25158C14.5338 3.39478 15.4618 4.32152 16.6065 4.32152Z" fill="#89D3DF"/>
<path fill-rule="evenodd" clip-rule="evenodd" d="M7.23541 10.5759C3.77065 10.5759 0.940071 13.4059 0.940071 16.8629V26.4866H10.3073V11.8024C10.3073 11.6634 10.3104 11.5243 10.3196 11.3884C9.41016 10.8725 8.35526 10.5759 7.23541 10.5759Z" fill="#63C1A0"/>
<path fill-rule="evenodd" clip-rule="evenodd" d="M10.323 11.3904C12.2348 12.4717 13.534 14.5262 13.534 16.868V26.4917H19.6778V23.325C19.6778 20.977 20.9832 18.9225 22.9043 17.8412V11.8075C22.9043 8.34732 20.0707 5.51733 16.609 5.51733C13.2804 5.51733 10.5395 8.12176 10.323 11.3904Z" fill="#89D3DF"/>
<path fill-rule="evenodd" clip-rule="evenodd" d="M22.9009 17.8323V26.4859H29.0447V17.8323C28.1352 17.3194 27.0865 17.0291 25.9728 17.0291C24.8591 17.026 23.8104 17.3194 22.9009 17.8323Z" fill="#ECB32D"/>
<path fill-rule="evenodd" clip-rule="evenodd" d="M29.0455 17.8363C30.9666 18.9177 32.2721 20.9753 32.2721 23.3201V26.4869H41.6393V16.8632C41.6393 13.403 38.8056 10.5762 35.3439 10.5762C31.8792 10.5762 29.0455 13.4061 29.0455 16.8632V17.8363Z" fill="#E01A59"/>
</g>
<defs>
<clipPath id="clip0_1_3678">
<rect width="169" height="28" fill="white" transform="translate(0.940071)"/>
</clipPath>
</defs>
</svg>
